<svg width="131" height="132" viewBox="0 0 131 132" fill="none" xmlns="http://www.w3.org/2000/svg">
<path d="M113.979 24.0472C113.979 24.0472 117.076 23.0979 118.564 20.4573C118.927 19.7971 119.341 20.4573 119.341 20.4573C119.341 20.4573 121.94 25.3416 119.157 30.5194C118.82 31.4126 117.202 31.8139 115.921 31.8139C113.604 31.8139 111.898 29.829 111.898 27.5249C111.885 25.9457 112.581 24.5132 113.979 24.0472Z" fill="url(#paint0_radial_70_5849)"/>
<path d="M29.5719 5.15828C29.5719 2.71399 31.6433 0.808279 34.0876 1.01542C52.4404 2.71399 70.959 14.4383 70.959 28.7726C70.959 44.2668 49.2919 56.8611 29.5719 56.8611V5.15828Z" fill="url(#paint1_linear_70_5849)"/>
<path d="M29.5719 5.15828C29.5719 2.71399 31.6433 0.808279 34.0876 1.01542C52.4404 2.71399 70.959 14.4383 70.959 28.7726C70.959 44.2668 49.2919 56.8611 29.5719 56.8611V5.15828Z" fill="url(#paint2_radial_70_5849)"/>
<path d="M29.5719 5.15828C29.5719 2.71399 31.6433 0.808279 34.0876 1.01542C52.4404 2.71399 70.959 14.4383 70.959 28.7726C70.959 44.2668 49.2919 56.8611 29.5719 56.8611V5.15828Z" fill="url(#paint3_linear_70_5849)"/>
<g filter="url(#filter0_f_70_5849)">
<path d="M33.1641 2.08325C32.3064 2.08325 30.4453 2.87622 30.4453 5.43314C30.4453 7.14207 30.4453 17.8132 30.4453 21.6324" stroke="url(#paint4_linear_70_5849)" stroke-width="0.075"/>
</g>
<path d="M66.8574 53.5049V62.3291C66.8574 67.7148 63.8331 72.6448 59.0274 75.0891L58.6546 75.2963C56.7074 76.2906 54.4289 74.882 54.4289 72.6863V53.5463H66.8574V53.5049Z" fill="url(#paint5_linear_70_5849)"/>
<path d="M66.8574 53.5049V62.3291C66.8574 67.7148 63.8331 72.6448 59.0274 75.0891L58.6546 75.2963C56.7074 76.2906 54.4289 74.882 54.4289 72.6863V53.5463H66.8574V53.5049Z" fill="url(#paint6_radial_70_5849)"/>
<path d="M60.9753 8.62286H67.6453C90.5968 8.62286 113.714 19.4357 127.51 37.7886C129.333 40.1914 129.498 43.5057 127.924 46.0743C121.793 56.2657 109.778 63.1429 97.8882 63.1429H47.3039C42.2082 63.1429 37.8996 67.1614 37.7753 72.2572C37.7339 74.9086 38.7696 77.3529 40.5096 79.0514C45.8539 84.1472 52.3168 87.8757 59.2353 90.03V90.0714C61.1825 90.6514 63.1296 91.1486 65.1182 91.48C66.2782 91.6872 67.4796 91.2314 68.2253 90.32L75.5168 81.2057C80.4882 75.0329 87.9039 71.4286 95.7754 71.4286H100.954C102.238 71.4286 102.984 72.8786 102.197 73.9143L80.5296 102.79C79.7425 103.826 79.7011 105.276 80.4468 106.394L85.9154 114.597C86.5368 115.633 85.7911 117 84.5896 117H77.8782C73.5696 117 69.5096 114.846 67.1068 111.241L63.5854 106.021C62.9639 105.11 61.9696 104.571 60.8511 104.571C60.3125 104.571 59.7739 104.571 59.2353 104.53C33.5496 103.619 13.0011 82.5314 13.0011 56.5972C13.0011 30.0829 34.4611 8.62286 60.9753 8.62286Z" fill="url(#paint7_linear_70_5849)"/>
<path d="M60.9753 8.62286H67.6453C90.5968 8.62286 113.714 19.4357 127.51 37.7886C129.333 40.1914 129.498 43.5057 127.924 46.0743C121.793 56.2657 109.778 63.1429 97.8882 63.1429H47.3039C42.2082 63.1429 37.8996 67.1614 37.7753 72.2572C37.7339 74.9086 38.7696 77.3529 40.5096 79.0514C45.8539 84.1472 52.3168 87.8757 59.2353 90.03V90.0714C61.1825 90.6514 63.1296 91.1486 65.1182 91.48C66.2782 91.6872 67.4796 91.2314 68.2253 90.32L75.5168 81.2057C80.4882 75.0329 87.9039 71.4286 95.7754 71.4286H100.954C102.238 71.4286 102.984 72.8786 102.197 73.9143L80.5296 102.79C79.7425 103.826 79.7011 105.276 80.4468 106.394L85.9154 114.597C86.5368 115.633 85.7911 117 84.5896 117H77.8782C73.5696 117 69.5096 114.846 67.1068 111.241L63.5854 106.021C62.9639 105.11 61.9696 104.571 60.8511 104.571C60.3125 104.571 59.7739 104.571 59.2353 104.53C33.5496 103.619 13.0011 82.5314 13.0011 56.5972C13.0011 30.0829 34.4611 8.62286 60.9753 8.62286Z" fill="url(#paint8_radial_70_5849)"/>
<path d="M60.9753 8.62286H67.6453C90.5968 8.62286 113.714 19.4357 127.51 37.7886C129.333 40.1914 129.498 43.5057 127.924 46.0743C121.793 56.2657 109.778 63.1429 97.8882 63.1429H47.3039C42.2082 63.1429 37.8996 67.1614 37.7753 72.2572C37.7339 74.9086 38.7696 77.3529 40.5096 79.0514C45.8539 84.1472 52.3168 87.8757 59.2353 90.03V90.0714C61.1825 90.6514 63.1296 91.1486 65.1182 91.48C66.2782 91.6872 67.4796 91.2314 68.2253 90.32L75.5168 81.2057C80.4882 75.0329 87.9039 71.4286 95.7754 71.4286H100.954C102.238 71.4286 102.984 72.8786 102.197 73.9143L80.5296 102.79C79.7425 103.826 79.7011 105.276 80.4468 106.394L85.9154 114.597C86.5368 115.633 85.7911 117 84.5896 117H77.8782C73.5696 117 69.5096 114.846 67.1068 111.241L63.5854 106.021C62.9639 105.11 61.9696 104.571 60.8511 104.571C60.3125 104.571 59.7739 104.571 59.2353 104.53C33.5496 103.619 13.0011 82.5314 13.0011 56.5972C13.0011 30.0829 34.4611 8.62286 60.9753 8.62286Z" fill="url(#paint9_radial_70_5849)"/>
<path d="M60.9753 8.62286H67.6453C90.5968 8.62286 113.714 19.4357 127.51 37.7886C129.333 40.1914 129.498 43.5057 127.924 46.0743C121.793 56.2657 109.778 63.1429 97.8882 63.1429H47.3039C42.2082 63.1429 37.8996 67.1614 37.7753 72.2572C37.7339 74.9086 38.7696 77.3529 40.5096 79.0514C45.8539 84.1472 52.3168 87.8757 59.2353 90.03V90.0714C61.1825 90.6514 63.1296 91.1486 65.1182 91.48C66.2782 91.6872 67.4796 91.2314 68.2253 90.32L75.5168 81.2057C80.4882 75.0329 87.9039 71.4286 95.7754 71.4286H100.954C102.238 71.4286 102.984 72.8786 102.197 73.9143L80.5296 102.79C79.7425 103.826 79.7011 105.276 80.4468 106.394L85.9154 114.597C86.5368 115.633 85.7911 117 84.5896 117H77.8782C73.5696 117 69.5096 114.846 67.1068 111.241L63.5854 106.021C62.9639 105.11 61.9696 104.571 60.8511 104.571C60.3125 104.571 59.7739 104.571 59.2353 104.53C33.5496 103.619 13.0011 82.5314 13.0011 56.5972C13.0011 30.0829 34.4611 8.62286 60.9753 8.62286Z" fill="url(#paint10_radial_70_5849)"/>
<path d="M60.9753 8.62286H67.6453C90.5968 8.62286 113.714 19.4357 127.51 37.7886C129.333 40.1914 129.498 43.5057 127.924 46.0743C121.793 56.2657 109.778 63.1429 97.8882 63.1429H47.3039C42.2082 63.1429 37.8996 67.1614 37.7753 72.2572C37.7339 74.9086 38.7696 77.3529 40.5096 79.0514C45.8539 84.1472 52.3168 87.8757 59.2353 90.03V90.0714C61.1825 90.6514 63.1296 91.1486 65.1182 91.48C66.2782 91.6872 67.4796 91.2314 68.2253 90.32L75.5168 81.2057C80.4882 75.0329 87.9039 71.4286 95.7754 71.4286H100.954C102.238 71.4286 102.984 72.8786 102.197 73.9143L80.5296 102.79C79.7425 103.826 79.7011 105.276 80.4468 106.394L85.9154 114.597C86.5368 115.633 85.7911 117 84.5896 117H77.8782C73.5696 117 69.5096 114.846 67.1068 111.241L63.5854 106.021C62.9639 105.11 61.9696 104.571 60.8511 104.571C60.3125 104.571 59.7739 104.571 59.2353 104.53C33.5496 103.619 13.0011 82.5314 13.0011 56.5972C13.0011 30.0829 34.4611 8.62286 60.9753 8.62286Z" fill="url(#paint11_radial_70_5849)"/>
<path d="M60.9753 8.62286H67.6453C90.5968 8.62286 113.714 19.4357 127.51 37.7886C129.333 40.1914 129.498 43.5057 127.924 46.0743C121.793 56.2657 109.778 63.1429 97.8882 63.1429H47.3039C42.2082 63.1429 37.8996 67.1614 37.7753 72.2572C37.7339 74.9086 38.7696 77.3529 40.5096 79.0514C45.8539 84.1472 52.3168 87.8757 59.2353 90.03V90.0714C61.1825 90.6514 63.1296 91.1486 65.1182 91.48C66.2782 91.6872 67.4796 91.2314 68.2253 90.32L75.5168 81.2057C80.4882 75.0329 87.9039 71.4286 95.7754 71.4286H100.954C102.238 71.4286 102.984 72.8786 102.197 73.9143L80.5296 102.79C79.7425 103.826 79.7011 105.276 80.4468 106.394L85.9154 114.597C86.5368 115.633 85.7911 117 84.5896 117H77.8782C73.5696 117 69.5096 114.846 67.1068 111.241L63.5854 106.021C62.9639 105.11 61.9696 104.571 60.8511 104.571C60.3125 104.571 59.7739 104.571 59.2353 104.53C33.5496 103.619 13.0011 82.5314 13.0011 56.5972C13.0011 30.0829 34.4611 8.62286 60.9753 8.62286Z" fill="url(#paint12_radial_70_5849)"/>
<path d="M60.9753 8.62286H67.6453C90.5968 8.62286 113.714 19.4357 127.51 37.7886C129.333 40.1914 129.498 43.5057 127.924 46.0743C121.793 56.2657 109.778 63.1429 97.8882 63.1429H47.3039C42.2082 63.1429 37.8996 67.1614 37.7753 72.2572C37.7339 74.9086 38.7696 77.3529 40.5096 79.0514C45.8539 84.1472 52.3168 87.8757 59.2353 90.03V90.0714C61.1825 90.6514 63.1296 91.1486 65.1182 91.48C66.2782 91.6872 67.4796 91.2314 68.2253 90.32L75.5168 81.2057C80.4882 75.0329 87.9039 71.4286 95.7754 71.4286H100.954C102.238 71.4286 102.984 72.8786 102.197 73.9143L80.5296 102.79C79.7425 103.826 79.7011 105.276 80.4468 106.394L85.9154 114.597C86.5368 115.633 85.7911 117 84.5896 117H77.8782C73.5696 117 69.5096 114.846 67.1068 111.241L63.5854 106.021C62.9639 105.11 61.9696 104.571 60.8511 104.571C60.3125 104.571 59.7739 104.571 59.2353 104.53C33.5496 103.619 13.0011 82.5314 13.0011 56.5972C13.0011 30.0829 34.4611 8.62286 60.9753 8.62286Z" fill="url(#paint13_radial_70_5849)"/>
<path d="M22.7956 85.9294C20.1914 79.7426 19.3052 72.6291 19.8196 65.015C20.6611 52.5587 28.6879 42.6824 38.6593 38.8956C39.5293 38.6876 39.9837 39.0437 39.9837 39.8342V50.515C39.9837 55.067 44.4936 53.8371 46.3708 52.8337C50.9021 49.937 53.2861 45.0981 53.2861 39.663C53.2861 39.0389 53.7833 38.5396 54.4047 38.5396H83.9156C95.1427 38.5396 106.038 42.5754 114.573 49.9397L120.443 54.9846C114.13 60.2321 105.98 63.4174 97.8885 63.4174H47.3042C42.2085 63.4174 37.8999 67.436 37.7756 72.5317C37.7342 75.1832 38.77 77.6274 40.5099 79.326C45.8542 84.4217 52.3171 88.1503 59.2356 90.3046V90.346C60.2929 90.6609 61.3502 90.9515 62.4141 91.2043V105.234C61.9458 104.982 61.4143 104.846 60.8513 104.846C60.3127 104.846 59.7742 104.846 59.2356 104.805C44.3742 104.277 31.2326 96.9959 22.7956 85.9294Z" fill="url(#paint14_linear_70_5849)"/>
<path d="M20.0306 62.9418L37.8667 75.3541L38.1399 75.3326C37.888 74.449 37.7606 73.5122 37.7756 72.5479C37.8999 67.4522 42.2085 63.4336 47.3043 63.4336H97.8885C105.98 63.4336 114.13 60.2483 120.443 55.0009L114.573 49.9559C106.038 42.5916 95.1427 38.5558 83.9156 38.5558H54.4047C53.7833 38.5558 53.2862 39.0551 53.2862 39.6792C53.2862 45.1143 50.9286 49.9016 46.387 52.8338C44.5098 53.8371 39.9837 55.0185 39.9837 50.4548V39.8504C39.9837 39.0599 39.5293 38.7038 38.6594 38.9118C29.2523 42.4843 21.5759 51.4765 20.0306 62.9418Z" fill="url(#paint15_linear_70_5849)"/>
<path d="M20.0306 62.9418L37.8667 75.3541L38.1399 75.3326C37.888 74.449 37.7606 73.5122 37.7756 72.5479C37.8999 67.4522 42.2085 63.4336 47.3043 63.4336H97.8885C105.98 63.4336 114.13 60.2483 120.443 55.0009L114.573 49.9559C106.038 42.5916 95.1427 38.5558 83.9156 38.5558H54.4047C53.7833 38.5558 53.2862 39.0551 53.2862 39.6792C53.2862 45.1143 50.9286 49.9016 46.387 52.8338C44.5098 53.8371 39.9837 55.0185 39.9837 50.4548V39.8504C39.9837 39.0599 39.5293 38.7038 38.6594 38.9118C29.2523 42.4843 21.5759 51.4765 20.0306 62.9418Z" fill="url(#paint16_linear_70_5849)"/>
<path d="M20.0306 62.9418L37.8667 75.3541L38.1399 75.3326C37.888 74.449 37.7606 73.5122 37.7756 72.5479C37.8999 67.4522 42.2085 63.4336 47.3043 63.4336H97.8885C105.98 63.4336 114.13 60.2483 120.443 55.0009L114.573 49.9559C106.038 42.5916 95.1427 38.5558 83.9156 38.5558H54.4047C53.7833 38.5558 53.2862 39.0551 53.2862 39.6792C53.2862 45.1143 50.9286 49.9016 46.387 52.8338C44.5098 53.8371 39.9837 55.0185 39.9837 50.4548V39.8504C39.9837 39.0599 39.5293 38.7038 38.6594 38.9118C29.2523 42.4843 21.5759 51.4765 20.0306 62.9418Z" fill="url(#paint17_linear_70_5849)"/>
<path d="M20.0306 62.9418L37.8667 75.3541L38.1399 75.3326C37.888 74.449 37.7606 73.5122 37.7756 72.5479C37.8999 67.4522 42.2085 63.4336 47.3043 63.4336H97.8885C105.98 63.4336 114.13 60.2483 120.443 55.0009L114.573 49.9559C106.038 42.5916 95.1427 38.5558 83.9156 38.5558H54.4047C53.7833 38.5558 53.2862 39.0551 53.2862 39.6792C53.2862 45.1143 50.9286 49.9016 46.387 52.8338C44.5098 53.8371 39.9837 55.0185 39.9837 50.4548V39.8504C39.9837 39.0599 39.5293 38.7038 38.6594 38.9118C29.2523 42.4843 21.5759 51.4765 20.0306 62.9418Z" fill="url(#paint18_radial_70_5849)"/>
<path d="M22.7956 85.6544C20.1914 79.4675 19.3052 72.354 19.8196 64.7399C20.6611 52.2836 28.6879 42.4074 38.6593 38.6205C39.5293 38.4125 39.9837 38.7686 39.9837 39.5591V50.2399C39.9837 55.1596 44.4826 53.8002 46.3598 52.7969C50.9014 49.8647 53.2861 44.823 53.2861 39.3879C53.2861 38.7638 53.7833 38.2645 54.4047 38.2645H83.9156C95.1427 38.2645 106.038 42.3003 114.573 49.6646L120.443 54.7096C114.13 59.9571 105.98 63.1424 97.8885 63.1424H47.3042C42.2085 63.1424 37.8999 67.1609 37.7756 72.2566C37.7342 74.9081 38.77 77.3523 40.5099 79.0509C45.8542 84.1466 52.3171 87.8752 59.2356 90.0295V90.0709C60.2929 90.3859 69.9375 92.8605 71.0014 93.1133L62.4141 104.959C61.9458 104.707 61.4143 104.571 60.8513 104.571C60.3127 104.571 59.7742 104.571 59.2356 104.529C44.3742 104.002 31.2326 96.7208 22.7956 85.6544Z" fill="url(#paint19_radial_70_5849)"/>
<path d="M22.7956 85.6544C20.1914 79.4675 19.3052 72.354 19.8196 64.7399C20.6611 52.2836 28.6879 42.4074 38.6593 38.6205C39.5293 38.4125 39.9837 38.7686 39.9837 39.5591V50.2399C39.9837 55.1596 44.4826 53.8002 46.3598 52.7969C50.9014 49.8647 53.2861 44.823 53.2861 39.3879C53.2861 38.7638 53.7833 38.2645 54.4047 38.2645H83.9156C95.1427 38.2645 106.038 42.3003 114.573 49.6646L120.443 54.7096C114.13 59.9571 105.98 63.1424 97.8885 63.1424H47.3042C42.2085 63.1424 37.8999 67.1609 37.7756 72.2566C37.7342 74.9081 38.77 77.3523 40.5099 79.0509C45.8542 84.1466 52.3171 87.8752 59.2356 90.0295V90.0709C60.2929 90.3859 69.9375 92.8605 71.0014 93.1133L62.4141 104.959C61.9458 104.707 61.4143 104.571 60.8513 104.571C60.3127 104.571 59.7742 104.571 59.2356 104.529C44.3742 104.002 31.2326 96.7208 22.7956 85.6544Z" fill="url(#paint20_radial_70_5849)"/>
<path d="M22.7956 85.6544C20.1914 79.4675 19.3052 72.354 19.8196 64.7399C20.6611 52.2836 28.6879 42.4074 38.6593 38.6205C39.5293 38.4125 39.9837 38.7686 39.9837 39.5591V50.2399C39.9837 55.1596 44.4826 53.8002 46.3598 52.7969C50.9014 49.8647 53.2861 44.823 53.2861 39.3879C53.2861 38.7638 53.7833 38.2645 54.4047 38.2645H83.9156C95.1427 38.2645 106.038 42.3003 114.573 49.6646L120.443 54.7096C114.13 59.9571 105.98 63.1424 97.8885 63.1424H47.3042C42.2085 63.1424 37.8999 67.1609 37.7756 72.2566C37.7342 74.9081 38.77 77.3523 40.5099 79.0509C45.8542 84.1466 52.3171 87.8752 59.2356 90.0295V90.0709C60.2929 90.3859 69.9375 92.8605 71.0014 93.1133L62.4141 104.959C61.9458 104.707 61.4143 104.571 60.8513 104.571C60.3127 104.571 59.7742 104.571 59.2356 104.529C44.3742 104.002 31.2326 96.7208 22.7956 85.6544Z" fill="url(#paint21_radial_70_5849)"/>
<path d="M22.7956 85.6544C20.1914 79.4675 19.3052 72.354 19.8196 64.7399C20.6611 52.2836 28.6879 42.4074 38.6593 38.6205C39.5293 38.4125 39.9837 38.7686 39.9837 39.5591V50.2399C39.9837 55.1596 44.4826 53.8002 46.3598 52.7969C50.9014 49.8647 53.2861 44.823 53.2861 39.3879C53.2861 38.7638 53.7833 38.2645 54.4047 38.2645H83.9156C95.1427 38.2645 106.038 42.3003 114.573 49.6646L120.443 54.7096C114.13 59.9571 105.98 63.1424 97.8885 63.1424H47.3042C42.2085 63.1424 37.8999 67.1609 37.7756 72.2566C37.7342 74.9081 38.77 77.3523 40.5099 79.0509C45.8542 84.1466 52.3171 87.8752 59.2356 90.0295V90.0709C60.2929 90.3859 69.9375 92.8605 71.0014 93.1133L62.4141 104.959C61.9458 104.707 61.4143 104.571 60.8513 104.571C60.3127 104.571 59.7742 104.571 59.2356 104.529C44.3742 104.002 31.2326 96.7208 22.7956 85.6544Z" fill="url(#paint22_radial_70_5849)"/>
<path d="M73.0711 44.5151C74.2311 44.5151 75.1426 43.6037 75.1426 42.4437V34.1166C75.1426 32.9566 74.2311 32.0451 73.0711 32.0451C71.9111 32.0451 70.9997 32.998 70.9997 34.1166V42.4437C70.9997 43.6037 71.9526 44.5151 73.0711 44.5151Z" fill="url(#paint23_linear_70_5849)"/>
<path d="M64.786 44.5151C65.946 44.5151 66.8574 43.6037 66.8574 42.4437V34.1166C66.8574 32.9566 65.946 32.0451 64.786 32.0451C63.626 32.0451 62.7146 32.9566 62.7146 34.1166V42.4437C62.7146 43.6037 63.6674 44.5151 64.786 44.5151Z" fill="url(#paint24_linear_70_5849)"/>
<g filter="url(#filter1_f_70_5849)">
<path d="M94.9436 43.0238C92.7227 43.0238 90.9224 41.2234 90.9224 39.0026C90.9224 36.7817 92.7227 34.9813 94.9436 34.9813C97.1645 34.9813 98.9648 36.7817 98.9648 39.0026C98.9648 41.2234 97.1645 43.0238 94.9436 43.0238Z" fill="url(#paint25_linear_70_5849)"/>
</g>
<path d="M93.7439 42.4437C91.4558 42.4437 89.601 40.5889 89.601 38.3009C89.601 36.0128 91.4558 34.158 93.7439 34.158C96.0319 34.158 97.8867 36.0128 97.8867 38.3009C97.8867 40.5889 96.0319 42.4437 93.7439 42.4437Z" fill="url(#paint26_radial_70_5849)"/>
<path d="M93.7439 42.4437C91.4558 42.4437 89.601 40.5889 89.601 38.3009C89.601 36.0128 91.4558 34.158 93.7439 34.158C96.0319 34.158 97.8867 36.0128 97.8867 38.3009C97.8867 40.5889 96.0319 42.4437 93.7439 42.4437Z" fill="url(#paint27_radial_70_5849)"/>
<path d="M93.7439 42.4437C91.4558 42.4437 89.601 40.5889 89.601 38.3009C89.601 36.0128 91.4558 34.158 93.7439 34.158C96.0319 34.158 97.8867 36.0128 97.8867 38.3009C97.8867 40.5889 96.0319 42.4437 93.7439 42.4437Z" fill="url(#paint28_linear_70_5849)"/>
<g filter="url(#filter2_f_70_5849)">
<path d="M80.3225 80.312C84.6434 74.5508 92.1038 74.7235 96.1172 74.5508C88.9708 75.7937 86.8605 79.0821 84.2065 82.1892L76.1562 92.7982C75.9671 93.0474 75.6723 93.1937 75.3595 93.1937H72.3754C71.572 93.1937 71.1136 92.3082 71.5971 91.6666C73.6012 89.0072 77.3155 84.3214 80.3225 80.312Z" fill="url(#paint29_linear_70_5849)"/>
</g>
<g filter="url(#filter3_f_70_5849)">
<path d="M55.3345 63.7892V72.5928C55.3345 73.0459 55.5805 74.0428 56.5645 74.4053" stroke="url(#paint30_linear_70_5849)" stroke-width="0.075"/>
</g>
<path d="M40.0259 29.2384H53.2637V40.2916C53.0178 45.3839 50.6519 50.0408 46.3587 52.8126C44.5896 53.7581 40.4918 55.02 40.0259 51.0441V29.2384Z" fill="url(#paint31_radial_70_5849)"/>
<path d="M40.0259 29.2384H53.2637V40.2916C53.0178 45.3839 50.6519 50.0408 46.3587 52.8126C44.5896 53.7581 40.4918 55.02 40.0259 51.0441V29.2384Z" fill="url(#paint32_radial_70_5849)"/>
<path d="M40.0259 29.2384H53.2637V40.2916C53.0178 45.3839 50.6519 50.0408 46.3587 52.8126C44.5896 53.7581 40.4918 55.02 40.0259 51.0441V29.2384Z" fill="url(#paint33_radial_70_5849)"/>
<path d="M40.0259 29.2384H53.2637V40.2916C53.0178 45.3839 50.6519 50.0408 46.3587 52.8126C44.5896 53.7581 40.4918 55.02 40.0259 51.0441V29.2384Z" fill="url(#paint34_radial_70_5849)"/>
<g filter="url(#filter4_f_70_5849)">
<path d="M41.0301 39.4013V50.2116C41.0301 50.6162 40.9007 51.9205 42.1953 52.0241" stroke="url(#paint35_linear_70_5849)" stroke-width="0.15"/>
</g>
<g filter="url(#filter5_f_70_5849)">
<path d="M35.7871 35.8411C33.6294 36.8768 29.2751 37.4723 26.7893 36.2295C23.8605 34.765 23.5199 30.0797 25.7675 27.1613C25.9169 26.9855 26.0634 26.8148 26.2068 26.6491C26.0507 26.8125 25.9043 26.9837 25.7675 27.1613C20.7236 33.0987 12.4918 44.8445 17.1443 64.7116C18.2447 55.196 22.0121 42.6768 35.7871 35.8411Z" fill="url(#paint36_linear_70_5849)"/>
</g>
<g filter="url(#filter6_f_70_5849)">
<path d="M29.9595 39.4657C36.7953 34.08 51.4506 33.3378 57.9238 33.6398C42.181 28.9791 30.4774 34.7187 26.5935 38.1711L29.9595 39.4657Z" fill="#A6BBE2"/>
</g>
<path d="M90.4515 11.19C90.4515 11.19 86.8736 10.0932 85.1536 7.04207C84.7348 6.2793 84.2562 7.04207 84.2562 7.04207C84.2562 7.04207 81.2533 12.6856 84.4689 18.6681C84.8577 19.7001 86.7273 20.1638 88.208 20.1638C90.8852 20.1638 92.8561 17.8705 92.8561 15.2082C92.8711 13.3836 92.0667 11.7284 90.4515 11.19Z" fill="url(#paint37_radial_70_5849)"/>
<path d="M90.4515 11.19C90.4515 11.19 86.8736 10.0932 85.1536 7.04207C84.7348 6.2793 84.2562 7.04207 84.2562 7.04207C84.2562 7.04207 81.2533 12.6856 84.4689 18.6681C84.8577 19.7001 86.7273 20.1638 88.208 20.1638C90.8852 20.1638 92.8561 17.8705 92.8561 15.2082C92.8711 13.3836 92.0668 11.7284 90.4515 11.19Z" fill="url(#paint38_radial_70_5849)"/>
<path d="M101.717 58.6311C106.255 62.5833 111.994 60.6129 111.994 60.6129L101.985 51.8033C101.985 51.8033 97.1799 54.6789 101.717 58.6311Z" fill="url(#paint39_radial_70_5849)"/>
<path d="M98.9454 60.5296C99.1247 57.9391 99.1293 57.1244 99.7686 56.1818C100.29 55.4224 99.7686 54.3656 101.118 54.6012C101.712 54.7051 103.501 56.3914 105.25 57.9149C106.999 59.4385 109.801 59.9478 109.993 60.5296C110.186 61.1113 106.847 61.9639 106.159 62.5779C104.036 64.4708 98.5897 65.6692 98.9454 60.5296Z" fill="url(#paint40_radial_70_5849)"/>
<defs>
<filter id="filter0_f_70_5849" x="30.2082" y="1.84575" width="3.15586" height="19.9866" filterUnits="userSpaceOnUse" color-interpolation-filters="sRGB">
<feFlood flood-opacity="0" result="BackgroundImageFix"/>
<feBlend mode="normal" in="SourceGraphic" in2="BackgroundImageFix" result="shape"/>
<feGaussianBlur stdDeviation="0.1" result="effect1_foregroundBlur_70_5849"/>
</filter>
<filter id="filter1_f_70_5849" x="90.4219" y="34.4813" width="9.04297" height="9.04245" filterUnits="userSpaceOnUse" color-interpolation-filters="sRGB">
<feFlood flood-opacity="0" result="BackgroundImageFix"/>
<feBlend mode="normal" in="SourceGraphic" in2="BackgroundImageFix" result="shape"/>
<feGaussianBlur stdDeviation="0.25" result="effect1_foregroundBlur_70_5849"/>
</filter>
<filter id="filter2_f_70_5849" x="70.3984" y="73.5508" width="26.7188" height="20.6429" filterUnits="userSpaceOnUse" color-interpolation-filters="sRGB">
<feFlood flood-opacity="0" result="BackgroundImageFix"/>
<feBlend mode="normal" in="SourceGraphic" in2="BackgroundImageFix" result="shape"/>
<feGaussianBlur stdDeviation="0.5" result="effect1_foregroundBlur_70_5849"/>
</filter>
<filter id="filter3_f_70_5849" x="55.0969" y="63.5892" width="1.68125" height="11.0512" filterUnits="userSpaceOnUse" color-interpolation-filters="sRGB">
<feFlood flood-opacity="0" result="BackgroundImageFix"/>
<feBlend mode="normal" in="SourceGraphic" in2="BackgroundImageFix" result="shape"/>
<feGaussianBlur stdDeviation="0.1" result="effect1_foregroundBlur_70_5849"/>
</filter>
<filter id="filter4_f_70_5849" x="40.7512" y="39.2013" width="1.65" height="13.0975" filterUnits="userSpaceOnUse" color-interpolation-filters="sRGB">
<feFlood flood-opacity="0" result="BackgroundImageFix"/>
<feBlend mode="normal" in="SourceGraphic" in2="BackgroundImageFix" result="shape"/>
<feGaussianBlur stdDeviation="0.1" result="effect1_foregroundBlur_70_5849"/>
</filter>
<filter id="filter5_f_70_5849" x="14.7695" y="25.6491" width="22.0176" height="40.0625" filterUnits="userSpaceOnUse" color-interpolation-filters="sRGB">
<feFlood flood-opacity="0" result="BackgroundImageFix"/>
<feBlend mode="normal" in="SourceGraphic" in2="BackgroundImageFix" result="shape"/>
<feGaussianBlur stdDeviation="0.5" result="effect1_foregroundBlur_70_5849"/>
</filter>
<filter id="filter6_f_70_5849" x="25.5938" y="30.8894" width="33.3301" height="9.57635" filterUnits="userSpaceOnUse" color-interpolation-filters="sRGB">
<feFlood flood-opacity="0" result="BackgroundImageFix"/>
<feBlend mode="normal" in="SourceGraphic" in2="BackgroundImageFix" result="shape"/>
<feGaussianBlur stdDeviation="0.5" result="effect1_foregroundBlur_70_5849"/>
</filter>
<radialGradient id="paint0_radial_70_5849" cx="0" cy="0" r="1" gradientUnits="userSpaceOnUse" gradientTransform="translate(108.801 18.2222) rotate(14.6209) scale(15.3843 15.3843)">
<stop offset="0.472635" stop-color="#494DAC"/>
<stop offset="0.644517" stop-color="#7C7FC7"/>
<stop offset="0.759105" stop-color="#536EB3"/>
<stop offset="0.945555" stop-color="#327D95"/>
</radialGradient>
<linearGradient id="paint1_linear_70_5849" x1="41.4826" y1="25.6136" x2="29.5719" y2="1" gradientUnits="userSpaceOnUse">
<stop stop-color="#77A9E7"/>
<stop offset="1" stop-color="#8290DE"/>
</linearGradient>
<radialGradient id="paint2_radial_70_5849" cx="0" cy="0" r="1" gradientUnits="userSpaceOnUse" gradientTransform="translate(38.246 31.8926) rotate(-68.1291) scale(29.7146 36.7409)">
<stop offset="0.94785" stop-color="#A46DDB" stop-opacity="0"/>
<stop offset="0.985478" stop-color="#5F9EED"/>
</radialGradient>
<linearGradient id="paint3_linear_70_5849" x1="28.7951" y1="22.5065" x2="39.929" y2="22.5065" gradientUnits="userSpaceOnUse">
<stop stop-color="#9379E0"/>
<stop offset="1" stop-color="#959297" stop-opacity="0"/>
<stop offset="1" stop-color="#7F82D3" stop-opacity="0"/>
</linearGradient>
<linearGradient id="paint4_linear_70_5849" x1="31.8047" y1="4.9962" x2="31.8047" y2="26.3578" gradientUnits="userSpaceOnUse">
<stop stop-color="#B8B7BA"/>
<stop offset="1" stop-color="#B8B7BA" stop-opacity="0"/>
</linearGradient>
<linearGradient id="paint5_linear_70_5849" x1="60.6576" y1="59.6622" x2="60.6576" y2="71.8318" gradientUnits="userSpaceOnUse">
<stop stop-color="#9A99D5"/>
<stop offset="1" stop-color="#5D7EAF"/>
</linearGradient>
<radialGradient id="paint6_radial_70_5849" cx="0" cy="0" r="1" gradientUnits="userSpaceOnUse" gradientTransform="translate(54.4289 63.3519) rotate(35.0893) scale(12.4993 14.5211)">
<stop offset="0.877212" stop-color="#6F617D" stop-opacity="0"/>
<stop offset="1" stop-color="#6F617D"/>
</radialGradient>
<linearGradient id="paint7_linear_70_5849" x1="100.218" y1="38.0048" x2="13.4916" y2="99.714" gradientUnits="userSpaceOnUse">
<stop stop-color="#77A9E7"/>
<stop offset="1" stop-color="#B1A0E0"/>
</linearGradient>
<radialGradient id="paint8_radial_70_5849" cx="0" cy="0" r="1" gradientUnits="userSpaceOnUse" gradientTransform="translate(100.131 93.308) rotate(-141.438) scale(23.6764 40.3189)">
<stop offset="0.344984" stop-color="#8B7B9B"/>
<stop offset="0.788877" stop-color="#8B7B9B" stop-opacity="0"/>
</radialGradient>
<radialGradient id="paint9_radial_70_5849" cx="0" cy="0" r="1" gradientUnits="userSpaceOnUse" gradientTransform="translate(79.5458 117.906) rotate(-90) scale(3.75447 11.6388)">
<stop stop-color="#8D6FA8"/>
<stop offset="1" stop-color="#8D6FA8" stop-opacity="0"/>
</radialGradient>
<radialGradient id="paint10_radial_70_5849" cx="0" cy="0" r="1" gradientUnits="userSpaceOnUse" gradientTransform="translate(115.278 57.9643) rotate(-121.875) scale(36.2842 47.9556)">
<stop stop-color="#857C90"/>
<stop offset="1" stop-color="#857C90" stop-opacity="0"/>
</radialGradient>
<radialGradient id="paint11_radial_70_5849" cx="0" cy="0" r="1" gradientUnits="userSpaceOnUse" gradientTransform="translate(84.077 104.571) rotate(180) scale(6.60268 6.60268)">
<stop stop-color="#948E9A"/>
<stop offset="1" stop-color="#948E9A" stop-opacity="0"/>
</radialGradient>
<radialGradient id="paint12_radial_70_5849" cx="0" cy="0" r="1" gradientUnits="userSpaceOnUse" gradientTransform="translate(38.5697 38.8683) rotate(101.31) scale(4.29092 2.10891)">
<stop stop-color="#C5C2C8"/>
<stop offset="1" stop-color="#C5C2C8" stop-opacity="0"/>
</radialGradient>
<radialGradient id="paint13_radial_70_5849" cx="0" cy="0" r="1" gradientUnits="userSpaceOnUse" gradientTransform="translate(21.804 2.81251) rotate(57.5674) scale(29.4508 65.6399)">
<stop stop-color="#C5C2C8"/>
<stop offset="1" stop-color="#C5C2C8" stop-opacity="0"/>
</radialGradient>
<linearGradient id="paint14_linear_70_5849" x1="70.0616" y1="46.5667" x2="70.0616" y2="89.9853" gradientUnits="userSpaceOnUse">
<stop stop-color="#E1D9EB"/>
<stop offset="1" stop-color="#E1D9EB" stop-opacity="0"/>
</linearGradient>
<linearGradient id="paint15_linear_70_5849" x1="63.4468" y1="73.2718" x2="63.4468" y2="38.5558" gradientUnits="userSpaceOnUse">
<stop offset="0.16452" stop-color="#947CAB"/>
<stop offset="1" stop-color="#947CAB" stop-opacity="0"/>
</linearGradient>
<linearGradient id="paint16_linear_70_5849" x1="23.6175" y1="66.4113" x2="34.1041" y2="51.1345" gradientUnits="userSpaceOnUse">
<stop stop-color="#C8C3CF"/>
<stop offset="1" stop-color="#C8C3CF" stop-opacity="0"/>
</linearGradient>
<linearGradient id="paint17_linear_70_5849" x1="22.776" y1="52.6234" x2="37.8586" y2="60.0676" gradientUnits="userSpaceOnUse">
<stop stop-color="#D7D0E0"/>
<stop offset="1" stop-color="#C8C3CF" stop-opacity="0"/>
</linearGradient>
<radialGradient id="paint18_radial_70_5849" cx="0" cy="0" r="1" gradientUnits="userSpaceOnUse" gradientTransform="translate(58.3139 72.7551) rotate(-151.631) scale(29.4269 20.1761)">
<stop offset="0.160063" stop-color="#947CAB"/>
<stop offset="1" stop-color="#947CAB" stop-opacity="0"/>
</radialGradient>
<radialGradient id="paint19_radial_70_5849" cx="0" cy="0" r="1" gradientUnits="userSpaceOnUse" gradientTransform="translate(49.2514 77.1245) rotate(126.674) scale(15.1733 23.0092)">
<stop offset="0.45368" stop-color="#6D7BC4"/>
<stop offset="1" stop-color="#816B9E" stop-opacity="0"/>
</radialGradient>
<radialGradient id="paint20_radial_70_5849" cx="0" cy="0" r="1" gradientUnits="userSpaceOnUse" gradientTransform="translate(48.863 48.7071) rotate(-169.875) scale(9.20587 19.7355)">
<stop offset="0.151259" stop-color="#896FA2"/>
<stop offset="0.781211" stop-color="#8B779E" stop-opacity="0"/>
</radialGradient>
<radialGradient id="paint21_radial_70_5849" cx="0" cy="0" r="1" gradientUnits="userSpaceOnUse" gradientTransform="translate(63.7514 41.6513) rotate(97.6242) scale(66.3545 71.4093)">
<stop offset="0.84628" stop-color="#8D6FA8" stop-opacity="0"/>
<stop offset="1" stop-color="#8D6FA8"/>
</radialGradient>
<radialGradient id="paint22_radial_70_5849" cx="0" cy="0" r="1" gradientUnits="userSpaceOnUse" gradientTransform="translate(64.0427 102.856) rotate(-145.539) scale(4.00399 12.8868)">
<stop stop-color="#9AA4E3"/>
<stop offset="1" stop-color="#6599B6" stop-opacity="0"/>
</radialGradient>
<linearGradient id="paint23_linear_70_5849" x1="73.0894" y1="32.8379" x2="73.0894" y2="46.224" gradientUnits="userSpaceOnUse">
<stop stop-color="#426E9B"/>
<stop offset="1" stop-color="#77A9E7"/>
</linearGradient>
<linearGradient id="paint24_linear_70_5849" x1="64.8042" y1="32.8379" x2="64.8042" y2="46.224" gradientUnits="userSpaceOnUse">
<stop stop-color="#446E9B"/>
<stop offset="1" stop-color="#77A9E7"/>
</linearGradient>
<linearGradient id="paint25_linear_70_5849" x1="96.6791" y1="37.4104" x2="95.2968" y2="41.9343" gradientUnits="userSpaceOnUse">
<stop offset="0.00558659" stop-color="#706977"/>
<stop offset="1" stop-color="#A594AF"/>
</linearGradient>
<radialGradient id="paint26_radial_70_5849" cx="0" cy="0" r="1" gradientUnits="userSpaceOnUse" gradientTransform="translate(92.514 36.9678) rotate(54.1624) scale(5.74915 5.1256)">
<stop offset="0.00558659" stop-color="#433437"/>
<stop offset="1" stop-color="#3B2838"/>
</radialGradient>
<radialGradient id="paint27_radial_70_5849" cx="0" cy="0" r="1" gradientUnits="userSpaceOnUse" gradientTransform="translate(92.1956 37.2652) rotate(42.3575) scale(2.97838 2.62025)">
<stop stop-color="#5C5051"/>
<stop offset="1" stop-color="#5C5051" stop-opacity="0"/>
</radialGradient>
<linearGradient id="paint28_linear_70_5849" x1="94.5583" y1="35.0469" x2="97.4065" y2="33.2344" gradientUnits="userSpaceOnUse">
<stop stop-color="#5C5051" stop-opacity="0"/>
<stop offset="1" stop-color="#5C5051"/>
</linearGradient>
<linearGradient id="paint29_linear_70_5849" x1="78.769" y1="76.4928" x2="104.921" y2="93.1937" gradientUnits="userSpaceOnUse">
<stop stop-color="#A6BAE2"/>
<stop offset="1" stop-color="#CECAD3" stop-opacity="0"/>
</linearGradient>
<linearGradient id="paint30_linear_70_5849" x1="56.5645" y1="76.4119" x2="56.5645" y2="66.7669" gradientUnits="userSpaceOnUse">
<stop stop-color="#B8B7BA"/>
<stop offset="1" stop-color="#B8B7BA" stop-opacity="0"/>
</linearGradient>
<radialGradient id="paint31_radial_70_5849" cx="0" cy="0" r="1" gradientUnits="userSpaceOnUse" gradientTransform="translate(40.0259 51.7652) rotate(-86.3007) scale(22.5738 12.1769)">
<stop stop-color="#B5B2B9"/>
<stop offset="1" stop-color="#B5B2B9" stop-opacity="0"/>
</radialGradient>
<radialGradient id="paint32_radial_70_5849" cx="0" cy="0" r="1" gradientUnits="userSpaceOnUse" gradientTransform="translate(42.1945 41.0844) rotate(28.2808) scale(12.5695 22.5435)">
<stop offset="0.751316" stop-color="#8A8193" stop-opacity="0"/>
<stop offset="1" stop-color="#8A8193"/>
</radialGradient>
<radialGradient id="paint33_radial_70_5849" cx="0" cy="0" r="1" gradientUnits="userSpaceOnUse" gradientTransform="translate(42.7123 32.475) rotate(90) scale(21.6853 12.7599)">
<stop offset="0.894118" stop-color="#8A8193" stop-opacity="0"/>
<stop offset="1" stop-color="#8A8193"/>
</radialGradient>
<radialGradient id="paint34_radial_70_5849" cx="0" cy="0" r="1" gradientUnits="userSpaceOnUse" gradientTransform="translate(55.1409 42.5732) rotate(-124.735) scale(5.90767 2.2007)">
<stop stop-color="#959199"/>
<stop offset="1" stop-color="#959199" stop-opacity="0"/>
</radialGradient>
<linearGradient id="paint35_linear_70_5849" x1="40.7065" y1="51.7004" x2="40.7065" y2="39.4013" gradientUnits="userSpaceOnUse">
<stop stop-color="#CBC8CE"/>
<stop offset="1" stop-color="#CBC8CE" stop-opacity="0"/>
</linearGradient>
<linearGradient id="paint36_linear_70_5849" x1="25.7779" y1="28.9795" x2="-3.01139" y2="70.5784" gradientUnits="userSpaceOnUse">
<stop stop-color="#A6BFE7"/>
<stop offset="1" stop-color="#B2C1CE" stop-opacity="0"/>
</linearGradient>
<radialGradient id="paint37_radial_70_5849" cx="0" cy="0" r="1" gradientUnits="userSpaceOnUse" gradientTransform="translate(103.921 9.69433) rotate(-171.634) scale(25.6992 25.6992)">
<stop offset="0.472635" stop-color="#4A6D98"/>
<stop offset="0.727168" stop-color="#3A6E9D"/>
<stop offset="0.945555" stop-color="#3E2F9F"/>
</radialGradient>
<radialGradient id="paint38_radial_70_5849" cx="0" cy="0" r="1" gradientUnits="userSpaceOnUse" gradientTransform="translate(84.4781 8.94651) rotate(76.866) scale(23.0371 7.89765)">
<stop stop-color="#8677E7"/>
<stop offset="0.305394" stop-color="#7685D6" stop-opacity="0"/>
</radialGradient>
<radialGradient id="paint39_radial_70_5849" cx="0" cy="0" r="1" gradientUnits="userSpaceOnUse" gradientTransform="translate(101.989 60.9597) rotate(-48.9428) scale(5.91712 12.61)">
<stop stop-color="#F70A8D"/>
<stop offset="1" stop-color="#89029C"/>
</radialGradient>
<radialGradient id="paint40_radial_70_5849" cx="0" cy="0" r="1" gradientUnits="userSpaceOnUse" gradientTransform="translate(98.0902 64.119) rotate(-45.9927) scale(10.2431 17.4379)">
<stop stop-color="#FF1C4A"/>
<stop offset="0.765733" stop-color="#FF2B8F"/>
<stop offset="0.864496" stop-color="#BB0773"/>
<stop offset="0.886239" stop-color="#9F0762"/>
</radialGradient>
</defs>
</svg>
