<svg width="131" height="132" viewBox="0 0 131 132" fill="none" xmlns="http://www.w3.org/2000/svg">
<path d="M19.2154 61.7629C19.2154 61.7629 16.2203 60.8447 14.7804 58.2906C14.4299 57.6521 14.0292 58.2906 14.0292 58.2906C14.0292 58.2906 11.5154 63.0149 14.2072 68.0231C14.5328 68.887 16.0978 69.2751 17.3374 69.2751C19.5785 69.2751 21.2284 67.3553 21.2284 65.1267C21.2409 63.5992 20.5676 62.2136 19.2154 61.7629Z" fill="url(#paint0_radial_70_5453)"/>
<path d="M59.3594 91.3693V100.089C59.3594 105.411 62.3478 110.282 67.0966 112.698L67.465 112.902C69.3891 113.885 71.6406 112.493 71.6406 110.323V91.4102H59.3594V91.3693Z" fill="url(#paint1_linear_70_5453)"/>
<path d="M59.3594 91.3693V100.089C59.3594 105.411 62.3478 110.282 67.0966 112.698L67.465 112.902C69.3891 113.885 71.6406 112.493 71.6406 110.323V91.4102H59.3594V91.3693Z" fill="url(#paint2_radial_70_5453)"/>
<path d="M85.405 47.1114C85.405 45.0259 83.6376 43.4 81.5522 43.5767C65.8937 45.0259 50.0938 55.029 50.0938 67.2589C50.0938 80.4785 68.58 91.2239 85.405 91.2239V47.1114Z" fill="url(#paint3_linear_70_5453)"/>
<path d="M85.405 47.1114C85.405 45.0259 83.6376 43.4 81.5522 43.5767C65.8937 45.0259 50.0938 55.029 50.0938 67.2589C50.0938 80.4785 68.58 91.2239 85.405 91.2239V47.1114Z" fill="url(#paint4_radial_70_5453)"/>
<path d="M85.405 47.1114C85.405 45.0259 83.6376 43.4 81.5522 43.5767C65.8937 45.0259 50.0938 55.029 50.0938 67.2589C50.0938 80.4785 68.58 91.2239 85.405 91.2239V47.1114Z" fill="url(#paint5_linear_70_5453)"/>
<g filter="url(#filter0_f_70_5453)">
<path d="M82.7188 43.9634C83.5663 43.9634 85.4053 44.747 85.4053 47.2736C85.4053 48.9623 85.4053 59.5069 85.4053 63.2808" stroke="url(#paint6_linear_70_5453)" stroke-width="0.075"/>
</g>
<path d="M75.5286 103.034H68.2418C45.5624 103.034 30.0339 96.745 9.66018 82.4826C7.85893 80.1082 7.69518 76.8332 9.25081 74.2951C15.3096 64.2245 27.1814 57.4288 38.9305 57.4288H88.9152C93.9505 57.4288 98.208 53.4579 98.3308 48.4226C98.3717 45.8026 97.3483 43.3873 95.6289 41.7088C90.348 36.6735 83.9617 32.9891 77.1252 30.8604V30.8195C75.2011 30.2463 73.2771 29.7551 71.3121 29.4276C70.1658 29.2229 68.9786 29.6732 68.2418 30.5738L61.0368 39.5801C56.1242 45.6798 48.7964 49.2413 41.0183 49.2413H35.9011C34.6321 49.2413 33.8952 47.8085 34.673 46.7851L56.0833 18.2516C56.8611 17.2282 56.9021 15.7954 56.1652 14.6901L50.7614 6.58445C50.1474 5.56101 50.8843 4.21008 52.0714 4.21008H58.7033C62.9608 4.21008 66.9727 6.33882 69.3471 9.90038L72.8268 15.0585C73.4408 15.9591 74.4233 16.4913 75.5286 16.4913C76.0608 16.4913 76.593 16.4913 77.1252 16.5323C102.506 17.4329 122.811 38.2701 122.811 63.897C122.811 90.097 101.729 103.034 75.5286 103.034Z" fill="url(#paint7_linear_70_5453)"/>
<path d="M75.5286 103.034H68.2418C45.5624 103.034 30.0339 96.745 9.66018 82.4826C7.85893 80.1082 7.69518 76.8332 9.25081 74.2951C15.3096 64.2245 27.1814 57.4288 38.9305 57.4288H88.9152C93.9505 57.4288 98.208 53.4579 98.3308 48.4226C98.3717 45.8026 97.3483 43.3873 95.6289 41.7088C90.348 36.6735 83.9617 32.9891 77.1252 30.8604V30.8195C75.2011 30.2463 73.2771 29.7551 71.3121 29.4276C70.1658 29.2229 68.9786 29.6732 68.2418 30.5738L61.0368 39.5801C56.1242 45.6798 48.7964 49.2413 41.0183 49.2413H35.9011C34.6321 49.2413 33.8952 47.8085 34.673 46.7851L56.0833 18.2516C56.8611 17.2282 56.9021 15.7954 56.1652 14.6901L50.7614 6.58445C50.1474 5.56101 50.8843 4.21008 52.0714 4.21008H58.7033C62.9608 4.21008 66.9727 6.33882 69.3471 9.90038L72.8268 15.0585C73.4408 15.9591 74.4233 16.4913 75.5286 16.4913C76.0608 16.4913 76.593 16.4913 77.1252 16.5323C102.506 17.4329 122.811 38.2701 122.811 63.897C122.811 90.097 101.729 103.034 75.5286 103.034Z" fill="url(#paint8_radial_70_5453)"/>
<path d="M75.5286 103.034H68.2418C45.5624 103.034 30.0339 96.745 9.66018 82.4826C7.85893 80.1082 7.69518 76.8332 9.25081 74.2951C15.3096 64.2245 27.1814 57.4288 38.9305 57.4288H88.9152C93.9505 57.4288 98.208 53.4579 98.3308 48.4226C98.3717 45.8026 97.3483 43.3873 95.6289 41.7088C90.348 36.6735 83.9617 32.9891 77.1252 30.8604V30.8195C75.2011 30.2463 73.2771 29.7551 71.3121 29.4276C70.1658 29.2229 68.9786 29.6732 68.2418 30.5738L61.0368 39.5801C56.1242 45.6798 48.7964 49.2413 41.0183 49.2413H35.9011C34.6321 49.2413 33.8952 47.8085 34.673 46.7851L56.0833 18.2516C56.8611 17.2282 56.9021 15.7954 56.1652 14.6901L50.7614 6.58445C50.1474 5.56101 50.8843 4.21008 52.0714 4.21008H58.7033C62.9608 4.21008 66.9727 6.33882 69.3471 9.90038L72.8268 15.0585C73.4408 15.9591 74.4233 16.4913 75.5286 16.4913C76.0608 16.4913 76.593 16.4913 77.1252 16.5323C102.506 17.4329 122.811 38.2701 122.811 63.897C122.811 90.097 101.729 103.034 75.5286 103.034Z" fill="url(#paint9_radial_70_5453)"/>
<path d="M75.5286 103.034H68.2418C45.5624 103.034 30.0339 96.745 9.66018 82.4826C7.85893 80.1082 7.69518 76.8332 9.25081 74.2951C15.3096 64.2245 27.1814 57.4288 38.9305 57.4288H88.9152C93.9505 57.4288 98.208 53.4579 98.3308 48.4226C98.3717 45.8026 97.3483 43.3873 95.6289 41.7088C90.348 36.6735 83.9617 32.9891 77.1252 30.8604V30.8195C75.2011 30.2463 73.2771 29.7551 71.3121 29.4276C70.1658 29.2229 68.9786 29.6732 68.2418 30.5738L61.0368 39.5801C56.1242 45.6798 48.7964 49.2413 41.0183 49.2413H35.9011C34.6321 49.2413 33.8952 47.8085 34.673 46.7851L56.0833 18.2516C56.8611 17.2282 56.9021 15.7954 56.1652 14.6901L50.7614 6.58445C50.1474 5.56101 50.8843 4.21008 52.0714 4.21008H58.7033C62.9608 4.21008 66.9727 6.33882 69.3471 9.90038L72.8268 15.0585C73.4408 15.9591 74.4233 16.4913 75.5286 16.4913C76.0608 16.4913 76.593 16.4913 77.1252 16.5323C102.506 17.4329 122.811 38.2701 122.811 63.897C122.811 90.097 101.729 103.034 75.5286 103.034Z" fill="url(#paint10_radial_70_5453)"/>
<path d="M75.5286 103.034H68.2418C45.5624 103.034 30.0339 96.745 9.66018 82.4826C7.85893 80.1082 7.69518 76.8332 9.25081 74.2951C15.3096 64.2245 27.1814 57.4288 38.9305 57.4288H88.9152C93.9505 57.4288 98.208 53.4579 98.3308 48.4226C98.3717 45.8026 97.3483 43.3873 95.6289 41.7088C90.348 36.6735 83.9617 32.9891 77.1252 30.8604V30.8195C75.2011 30.2463 73.2771 29.7551 71.3121 29.4276C70.1658 29.2229 68.9786 29.6732 68.2418 30.5738L61.0368 39.5801C56.1242 45.6798 48.7964 49.2413 41.0183 49.2413H35.9011C34.6321 49.2413 33.8952 47.8085 34.673 46.7851L56.0833 18.2516C56.8611 17.2282 56.9021 15.7954 56.1652 14.6901L50.7614 6.58445C50.1474 5.56101 50.8843 4.21008 52.0714 4.21008H58.7033C62.9608 4.21008 66.9727 6.33882 69.3471 9.90038L72.8268 15.0585C73.4408 15.9591 74.4233 16.4913 75.5286 16.4913C76.0608 16.4913 76.593 16.4913 77.1252 16.5323C102.506 17.4329 122.811 38.2701 122.811 63.897C122.811 90.097 101.729 103.034 75.5286 103.034Z" fill="url(#paint11_radial_70_5453)"/>
<path d="M75.5286 103.034H68.2418C45.5624 103.034 30.0339 96.745 9.66018 82.4826C7.85893 80.1082 7.69518 76.8332 9.25081 74.2951C15.3096 64.2245 27.1814 57.4288 38.9305 57.4288H88.9152C93.9505 57.4288 98.208 53.4579 98.3308 48.4226C98.3717 45.8026 97.3483 43.3873 95.6289 41.7088C90.348 36.6735 83.9617 32.9891 77.1252 30.8604V30.8195C75.2011 30.2463 73.2771 29.7551 71.3121 29.4276C70.1658 29.2229 68.9786 29.6732 68.2418 30.5738L61.0368 39.5801C56.1242 45.6798 48.7964 49.2413 41.0183 49.2413H35.9011C34.6321 49.2413 33.8952 47.8085 34.673 46.7851L56.0833 18.2516C56.8611 17.2282 56.9021 15.7954 56.1652 14.6901L50.7614 6.58445C50.1474 5.56101 50.8843 4.21008 52.0714 4.21008H58.7033C62.9608 4.21008 66.9727 6.33882 69.3471 9.90038L72.8268 15.0585C73.4408 15.9591 74.4233 16.4913 75.5286 16.4913C76.0608 16.4913 76.593 16.4913 77.1252 16.5323C102.506 17.4329 122.811 38.2701 122.811 63.897C122.811 90.097 101.729 103.034 75.5286 103.034Z" fill="url(#paint12_radial_70_5453)"/>
<path d="M75.5286 103.034H68.2418C45.5624 103.034 30.0339 96.745 9.66018 82.4826C7.85893 80.1082 7.69518 76.8332 9.25081 74.2951C15.3096 64.2245 27.1814 57.4288 38.9305 57.4288H88.9152C93.9505 57.4288 98.208 53.4579 98.3308 48.4226C98.3717 45.8026 97.3483 43.3873 95.6289 41.7088C90.348 36.6735 83.9617 32.9891 77.1252 30.8604V30.8195C75.2011 30.2463 73.2771 29.7551 71.3121 29.4276C70.1658 29.2229 68.9786 29.6732 68.2418 30.5738L61.0368 39.5801C56.1242 45.6798 48.7964 49.2413 41.0183 49.2413H35.9011C34.6321 49.2413 33.8952 47.8085 34.673 46.7851L56.0833 18.2516C56.8611 17.2282 56.9021 15.7954 56.1652 14.6901L50.7614 6.58445C50.1474 5.56101 50.8843 4.21008 52.0714 4.21008H58.7033C62.9608 4.21008 66.9727 6.33882 69.3471 9.90038L72.8268 15.0585C73.4408 15.9591 74.4233 16.4913 75.5286 16.4913C76.0608 16.4913 76.593 16.4913 77.1252 16.5323C102.506 17.4329 122.811 38.2701 122.811 63.897C122.811 90.097 101.729 103.034 75.5286 103.034Z" fill="url(#paint13_radial_70_5453)"/>
<path d="M81.2909 102.869C86.5083 102.869 85.6432 102.351 92.7072 101.08L107.495 94.7326L115.369 87.015C107.031 79.0516 110.251 81.0295 100.619 78.3467C99.7287 78.1905 99.2634 78.4579 99.2634 79.0516V90.7286C99.2634 94.1557 94.6292 93.2697 92.7072 92.5162C88.0571 90.3143 85.6432 83.0045 85.6432 78.9229C85.6432 78.4543 85.1342 78.0793 84.498 78.0793H54.2822C42.7869 78.0793 31.712 79.7278 22.9738 85.258L17.0938 87.7513C23.5581 91.692 33.3729 99.9359 50.6158 101.388L66.3715 103.606L81.2909 102.869Z" fill="url(#paint14_linear_70_5453)"/>
<path d="M81.2909 102.869C86.5083 102.869 85.6432 102.351 92.7072 101.08L107.495 94.7326L115.369 87.015C107.031 79.0516 110.251 81.0295 100.619 78.3467C99.7287 78.1905 99.2634 78.4579 99.2634 79.0516V90.7286C99.2634 94.1557 94.6292 93.2697 92.7072 92.5162C88.0571 90.3143 85.6432 83.0045 85.6432 78.9229C85.6432 78.4543 85.1342 78.0793 84.498 78.0793H54.2822C42.7869 78.0793 31.712 79.7278 22.9738 85.258L17.0938 87.7513C23.5581 91.692 33.3729 99.9359 50.6158 101.388L66.3715 103.606L81.2909 102.869Z" fill="url(#paint15_linear_70_5453)"/>
<path d="M81.2909 102.869C86.5083 102.869 85.6432 102.351 92.7072 101.08L107.495 94.7326L115.369 87.015C107.031 79.0516 110.251 81.0295 100.619 78.3467C99.7287 78.1905 99.2634 78.4579 99.2634 79.0516V90.7286C99.2634 94.1557 94.6292 93.2697 92.7072 92.5162C88.0571 90.3143 85.6432 83.0045 85.6432 78.9229C85.6432 78.4543 85.1342 78.0793 84.498 78.0793H54.2822C42.7869 78.0793 31.712 79.7278 22.9738 85.258L17.0938 87.7513C23.5581 91.692 33.3729 99.9359 50.6158 101.388L66.3715 103.606L81.2909 102.869Z" fill="url(#paint16_linear_70_5453)"/>
<path d="M81.2909 102.869C86.5083 102.869 85.6432 102.351 92.7072 101.08L107.495 94.7326L115.369 87.015C107.031 79.0516 110.251 81.0295 100.619 78.3467C99.7287 78.1905 99.2634 78.4579 99.2634 79.0516V90.7286C99.2634 94.1557 94.6292 93.2697 92.7072 92.5162C88.0571 90.3143 85.6432 83.0045 85.6432 78.9229C85.6432 78.4543 85.1342 78.0793 84.498 78.0793H54.2822C42.7869 78.0793 31.712 79.7278 22.9738 85.258L17.0938 87.7513C23.5581 91.692 33.3729 99.9359 50.6158 101.388L66.3715 103.606L81.2909 102.869Z" fill="url(#paint17_linear_70_5453)"/>
<path d="M81.2909 102.869C86.5083 102.869 85.6432 102.351 92.7072 101.08L107.495 94.7326L115.369 87.015C107.031 79.0516 110.251 81.0295 100.619 78.3467C99.7287 78.1905 99.2634 78.4579 99.2634 79.0516V90.7286C99.2634 94.1557 94.6292 93.2697 92.7072 92.5162C88.0571 90.3143 85.6432 83.0045 85.6432 78.9229C85.6432 78.4543 85.1342 78.0793 84.498 78.0793H54.2822C42.7869 78.0793 31.712 79.7278 22.9738 85.258L17.0938 87.7513C23.5581 91.692 33.3729 99.9359 50.6158 101.388L66.3715 103.606L81.2909 102.869Z" fill="url(#paint18_radial_70_5453)"/>
<path d="M63.4531 84.4573C62.3069 84.4573 61.4062 83.5567 61.4062 82.4104V74.182C61.4062 73.0358 62.3069 72.1351 63.4531 72.1351C64.5994 72.1351 65.5 73.0767 65.5 74.182V82.4104C65.5 83.5567 64.5584 84.4573 63.4531 84.4573Z" fill="url(#paint19_linear_70_5453)"/>
<path d="M71.6406 84.4573C70.4944 84.4573 69.5938 83.5567 69.5938 82.4104V74.182C69.5938 73.0358 70.4944 72.1351 71.6406 72.1351C72.7869 72.1351 73.6875 73.0358 73.6875 74.182V82.4104C73.6875 83.5567 72.7459 84.4573 71.6406 84.4573Z" fill="url(#paint20_linear_70_5453)"/>
<g filter="url(#filter1_f_70_5453)">
<path d="M41.8408 82.9837C44.0353 82.9837 45.8143 81.2046 45.8143 79.0101C45.8143 76.8156 44.0353 75.0365 41.8408 75.0365C39.6462 75.0365 37.8672 76.8156 37.8672 79.0101C37.8672 81.2046 39.6462 82.9837 41.8408 82.9837Z" fill="url(#paint21_linear_70_5453)"/>
</g>
<path d="M43.0234 82.4105C45.2844 82.4105 47.1172 80.5776 47.1172 78.3167C47.1172 76.0558 45.2844 74.223 43.0234 74.223C40.7625 74.223 38.9297 76.0558 38.9297 78.3167C38.9297 80.5776 40.7625 82.4105 43.0234 82.4105Z" fill="url(#paint22_radial_70_5453)"/>
<path d="M43.0234 82.4105C45.2844 82.4105 47.1172 80.5776 47.1172 78.3167C47.1172 76.0558 45.2844 74.223 43.0234 74.223C40.7625 74.223 38.9297 76.0558 38.9297 78.3167C38.9297 80.5776 40.7625 82.4105 43.0234 82.4105Z" fill="url(#paint23_radial_70_5453)"/>
<path d="M43.0234 82.4105C45.2844 82.4105 47.1172 80.5776 47.1172 78.3167C47.1172 76.0558 45.2844 74.223 43.0234 74.223C40.7625 74.223 38.9297 76.0558 38.9297 78.3167C38.9297 80.5776 40.7625 82.4105 43.0234 82.4105Z" fill="url(#paint24_linear_70_5453)"/>
<g filter="url(#filter2_f_70_5453)">
<path d="M56.7051 37.8705C52.4354 43.5633 45.0635 43.3928 41.0977 43.5633C48.1594 42.3352 50.2446 39.0858 52.8672 36.0155L60.8185 25.537C61.0076 25.2878 61.3024 25.1414 61.6151 25.1414H64.5356C65.339 25.1414 65.7974 26.0265 65.3138 26.6681C63.3304 29.299 59.6698 33.9175 56.7051 37.8705Z" fill="url(#paint25_linear_70_5453)"/>
</g>
<g filter="url(#filter3_f_70_5453)">
<path d="M80.979 58.4511V67.1504C80.979 67.5981 80.7359 68.5832 79.7637 68.9414" stroke="url(#paint26_linear_70_5453)" stroke-width="0.075"/>
</g>
<path d="M98.7546 68.9412H85.6738V79.8634C85.9168 84.8953 88.2547 89.497 92.497 92.2359C94.2451 93.1703 98.2943 94.4172 98.7546 90.4884V68.9412Z" fill="url(#paint27_radial_70_5453)"/>
<path d="M98.7546 68.9412H85.6738V79.8634C85.9168 84.8953 88.2547 89.497 92.497 92.2359C94.2451 93.1703 98.2943 94.4172 98.7546 90.4884V68.9412Z" fill="url(#paint28_radial_70_5453)"/>
<path d="M98.7546 68.9412H85.6738V79.8634C85.9168 84.8953 88.2547 89.497 92.497 92.2359C94.2451 93.1703 98.2943 94.4172 98.7546 90.4884V68.9412Z" fill="url(#paint29_radial_70_5453)"/>
<g filter="url(#filter4_f_70_5453)">
<path d="M99.3271 80.0446V90.7268C99.3271 91.1266 99.4551 92.4154 98.1758 92.5178" stroke="url(#paint30_linear_70_5453)" stroke-width="0.15"/>
</g>
<g filter="url(#filter5_f_70_5453)">
<path d="M96.5041 29.7267C90.489 22.7547 78.3445 22.3776 73.0241 23.0605C85.6901 16.105 95.7466 23.3471 99.1916 27.8375L96.5041 29.7267Z" fill="url(#paint31_linear_70_5453)"/>
</g>
<path d="M37.8756 95.8121C32.4397 97.8915 27.8833 94.1923 27.8833 94.1923L39.9045 89.5221C39.9045 89.5221 43.3116 93.7327 37.8756 95.8121Z" fill="url(#paint32_radial_70_5453)"/>
<path d="M40.0708 97.6122C40.77 95.2 41.0369 94.4586 40.77 93.3898C40.549 92.5265 40.6454 91.6089 40.0708 91.5053C39.4961 91.4018 37.3104 92.338 35.2149 93.1396C33.1194 93.9412 30.659 94.7357 30.2907 95.2C29.9224 95.6642 32.4169 96.2853 32.838 97.0721C35.2149 97.6122 38.6834 102.398 40.0708 97.6122Z" fill="url(#paint33_radial_70_5453)"/>
<path d="M42.8694 56.2808C42.8694 56.2808 46.3301 55.2199 47.9937 52.2688C48.3988 51.531 48.8617 52.2688 48.8617 52.2688C48.8617 52.2688 51.7662 57.7274 48.656 63.5139C48.2799 64.5121 46.4715 64.9606 45.0394 64.9606C42.4499 64.9606 40.5436 62.7424 40.5436 60.1674C40.5291 58.4025 41.3071 56.8016 42.8694 56.2808Z" fill="url(#paint34_radial_70_5453)"/>
<path d="M42.8694 56.2808C42.8694 56.2808 46.3301 55.2199 47.9937 52.2688C48.3988 51.531 48.8617 52.2688 48.8617 52.2688C48.8617 52.2688 51.7662 57.7274 48.656 63.5139C48.2799 64.5121 46.4715 64.9606 45.0394 64.9606C42.4499 64.9606 40.5436 62.7424 40.5436 60.1674C40.5291 58.4025 41.3071 56.8016 42.8694 56.2808Z" fill="url(#paint35_radial_70_5453)"/>
<defs>
<filter id="filter0_f_70_5453" x="82.5187" y="43.7259" width="3.12461" height="19.7549" filterUnits="userSpaceOnUse" color-interpolation-filters="sRGB">
<feFlood flood-opacity="0" result="BackgroundImageFix"/>
<feBlend mode="normal" in="SourceGraphic" in2="BackgroundImageFix" result="shape"/>
<feGaussianBlur stdDeviation="0.1" result="effect1_foregroundBlur_70_5453"/>
</filter>
<filter id="filter1_f_70_5453" x="37.3672" y="74.5365" width="8.94727" height="8.94714" filterUnits="userSpaceOnUse" color-interpolation-filters="sRGB">
<feFlood flood-opacity="0" result="BackgroundImageFix"/>
<feBlend mode="normal" in="SourceGraphic" in2="BackgroundImageFix" result="shape"/>
<feGaussianBlur stdDeviation="0.25" result="effect1_foregroundBlur_70_5453"/>
</filter>
<filter id="filter2_f_70_5453" x="40.0977" y="24.1414" width="26.4141" height="20.4219" filterUnits="userSpaceOnUse" color-interpolation-filters="sRGB">
<feFlood flood-opacity="0" result="BackgroundImageFix"/>
<feBlend mode="normal" in="SourceGraphic" in2="BackgroundImageFix" result="shape"/>
<feGaussianBlur stdDeviation="0.5" result="effect1_foregroundBlur_70_5453"/>
</filter>
<filter id="filter3_f_70_5453" x="79.55" y="58.2511" width="1.66563" height="10.9254" filterUnits="userSpaceOnUse" color-interpolation-filters="sRGB">
<feFlood flood-opacity="0" result="BackgroundImageFix"/>
<feBlend mode="normal" in="SourceGraphic" in2="BackgroundImageFix" result="shape"/>
<feGaussianBlur stdDeviation="0.1" result="effect1_foregroundBlur_70_5453"/>
</filter>
<filter id="filter4_f_70_5453" x="97.9699" y="79.8446" width="1.63633" height="12.9479" filterUnits="userSpaceOnUse" color-interpolation-filters="sRGB">
<feFlood flood-opacity="0" result="BackgroundImageFix"/>
<feBlend mode="normal" in="SourceGraphic" in2="BackgroundImageFix" result="shape"/>
<feGaussianBlur stdDeviation="0.1" result="effect1_foregroundBlur_70_5453"/>
</filter>
<filter id="filter5_f_70_5453" x="72.0234" y="19.1762" width="28.168" height="11.5505" filterUnits="userSpaceOnUse" color-interpolation-filters="sRGB">
<feFlood flood-opacity="0" result="BackgroundImageFix"/>
<feBlend mode="normal" in="SourceGraphic" in2="BackgroundImageFix" result="shape"/>
<feGaussianBlur stdDeviation="0.5" result="effect1_foregroundBlur_70_5453"/>
</filter>
<radialGradient id="paint0_radial_70_5453" cx="0" cy="0" r="1" gradientUnits="userSpaceOnUse" gradientTransform="translate(24.2235 56.1288) rotate(165.379) scale(14.8802 14.8802)">
<stop offset="0.472635" stop-color="#494DAC"/>
<stop offset="0.644517" stop-color="#7C7FC7"/>
<stop offset="0.759105" stop-color="#536EB3"/>
<stop offset="0.945555" stop-color="#327D95"/>
</radialGradient>
<linearGradient id="paint1_linear_70_5453" x1="65.4857" y1="97.4536" x2="65.4857" y2="109.479" gradientUnits="userSpaceOnUse">
<stop stop-color="#364477"/>
<stop offset="1" stop-color="#828AD6"/>
</linearGradient>
<radialGradient id="paint2_radial_70_5453" cx="0" cy="0" r="1" gradientUnits="userSpaceOnUse" gradientTransform="translate(71.6406 101.1) rotate(144.911) scale(12.3512 14.349)">
<stop offset="0.877212" stop-color="#6F617D" stop-opacity="0"/>
<stop offset="1" stop-color="#6F617D"/>
</radialGradient>
<linearGradient id="paint3_linear_70_5453" x1="75.2428" y1="64.5637" x2="85.405" y2="43.5635" gradientUnits="userSpaceOnUse">
<stop stop-color="#77A9E7"/>
<stop offset="1" stop-color="#997BED"/>
</linearGradient>
<radialGradient id="paint4_radial_70_5453" cx="0" cy="0" r="1" gradientUnits="userSpaceOnUse" gradientTransform="translate(78.0042 69.9209) rotate(-111.871) scale(25.3523 31.3471)">
<stop offset="0.94785" stop-color="#2D3EDC" stop-opacity="0"/>
<stop offset="0.985478" stop-color="#77A9E7"/>
</radialGradient>
<linearGradient id="paint5_linear_70_5453" x1="86.0677" y1="61.9127" x2="76.5683" y2="61.9127" gradientUnits="userSpaceOnUse">
<stop stop-color="#77A9E7"/>
<stop offset="1" stop-color="#929397" stop-opacity="0"/>
</linearGradient>
<linearGradient id="paint6_linear_70_5453" x1="84.062" y1="46.8419" x2="84.062" y2="67.9503" gradientUnits="userSpaceOnUse">
<stop stop-color="#B8B7BA"/>
<stop offset="1" stop-color="#B8B7BA" stop-opacity="0"/>
</linearGradient>
<linearGradient id="paint7_linear_70_5453" x1="36.6286" y1="82.2689" x2="122.327" y2="21.2913" gradientUnits="userSpaceOnUse">
<stop stop-color="#997BED"/>
<stop offset="1" stop-color="#77A9E7"/>
</linearGradient>
<radialGradient id="paint8_radial_70_5453" cx="0" cy="0" r="1" gradientUnits="userSpaceOnUse" gradientTransform="translate(36.7147 27.6213) rotate(38.5619) scale(23.3957 39.841)">
<stop offset="0.344984" stop-color="#8B7B9B"/>
<stop offset="0.788877" stop-color="#8B7B9B" stop-opacity="0"/>
</radialGradient>
<radialGradient id="paint9_radial_70_5453" cx="0" cy="0" r="1" gradientUnits="userSpaceOnUse" gradientTransform="translate(57.0555 3.31461) rotate(90) scale(3.70997 11.5009)">
<stop stop-color="#8D6FA8"/>
<stop offset="1" stop-color="#8D6FA8" stop-opacity="0"/>
</radialGradient>
<radialGradient id="paint10_radial_70_5453" cx="0" cy="0" r="1" gradientUnits="userSpaceOnUse" gradientTransform="translate(21.7469 62.5461) rotate(58.1246) scale(35.8541 47.3871)">
<stop stop-color="#857C90"/>
<stop offset="1" stop-color="#857C90" stop-opacity="0"/>
</radialGradient>
<radialGradient id="paint11_radial_70_5453" cx="0" cy="0" r="1" gradientUnits="userSpaceOnUse" gradientTransform="translate(52.578 16.4914) scale(6.52441 6.52441)">
<stop stop-color="#948E9A"/>
<stop offset="1" stop-color="#948E9A" stop-opacity="0"/>
</radialGradient>
<radialGradient id="paint12_radial_70_5453" cx="0" cy="0" r="1" gradientUnits="userSpaceOnUse" gradientTransform="translate(97.5459 81.4157) rotate(-78.69) scale(4.24006 2.08391)">
<stop stop-color="#C5C2C8"/>
<stop offset="1" stop-color="#C5C2C8" stop-opacity="0"/>
</radialGradient>
<radialGradient id="paint13_radial_70_5453" cx="0" cy="0" r="1" gradientUnits="userSpaceOnUse" gradientTransform="translate(114.113 117.044) rotate(-122.433) scale(29.1017 64.8619)">
<stop stop-color="#C5C2C8"/>
<stop offset="1" stop-color="#C5C2C8" stop-opacity="0"/>
</radialGradient>
<linearGradient id="paint14_linear_70_5453" x1="66.2312" y1="81.1516" x2="66.2312" y2="97.7696" gradientUnits="userSpaceOnUse">
<stop stop-color="#E1D9EB"/>
<stop offset="1" stop-color="#E1D9EB" stop-opacity="0"/>
</linearGradient>
<linearGradient id="paint15_linear_70_5453" x1="72.8769" y1="102.161" x2="72.8769" y2="78.0793" gradientUnits="userSpaceOnUse">
<stop offset="0.16452" stop-color="#947CAB"/>
<stop offset="1" stop-color="#947CAB" stop-opacity="0"/>
</linearGradient>
<linearGradient id="paint16_linear_70_5453" x1="111.858" y1="97.4024" x2="105.725" y2="84.7958" gradientUnits="userSpaceOnUse">
<stop stop-color="#C8C3CF"/>
<stop offset="1" stop-color="#C8C3CF" stop-opacity="0"/>
</linearGradient>
<linearGradient id="paint17_linear_70_5453" x1="112.682" y1="87.8379" x2="100.319" y2="96.4467" gradientUnits="userSpaceOnUse">
<stop stop-color="#D7D0E0"/>
<stop offset="1" stop-color="#C8C3CF" stop-opacity="0"/>
</linearGradient>
<radialGradient id="paint18_radial_70_5453" cx="0" cy="0" r="1" gradientUnits="userSpaceOnUse" gradientTransform="translate(77.9005 101.803) rotate(-20.9439) scale(27.1343 14.8553)">
<stop offset="0.160063" stop-color="#947CAB"/>
<stop offset="1" stop-color="#947CAB" stop-opacity="0"/>
</radialGradient>
<linearGradient id="paint19_linear_70_5453" x1="63.4351" y1="72.9185" x2="63.4351" y2="86.1459" gradientUnits="userSpaceOnUse">
<stop stop-color="#7C9BEE"/>
<stop offset="1" stop-color="#7C97EE"/>
</linearGradient>
<linearGradient id="paint20_linear_70_5453" x1="71.6226" y1="72.9185" x2="71.6226" y2="86.1459" gradientUnits="userSpaceOnUse">
<stop stop-color="#7B9BED"/>
<stop offset="1" stop-color="#7B94ED"/>
</linearGradient>
<linearGradient id="paint21_linear_70_5453" x1="40.1258" y1="77.4368" x2="41.4918" y2="81.9071" gradientUnits="userSpaceOnUse">
<stop offset="0.00558659" stop-color="#706977"/>
<stop offset="1" stop-color="#A594AF"/>
</linearGradient>
<radialGradient id="paint22_radial_70_5453" cx="0" cy="0" r="1" gradientUnits="userSpaceOnUse" gradientTransform="translate(44.2388 76.9994) rotate(125.838) scale(5.681 5.06484)">
<stop offset="0.00558659" stop-color="#433437"/>
<stop offset="1" stop-color="#3B2838"/>
</radialGradient>
<radialGradient id="paint23_radial_70_5453" cx="0" cy="0" r="1" gradientUnits="userSpaceOnUse" gradientTransform="translate(44.5533 77.2933) rotate(137.643) scale(2.94308 2.58919)">
<stop stop-color="#5C5051"/>
<stop offset="1" stop-color="#5C5051" stop-opacity="0"/>
</radialGradient>
<linearGradient id="paint24_linear_70_5453" x1="42.2186" y1="75.1013" x2="39.4042" y2="73.3103" gradientUnits="userSpaceOnUse">
<stop stop-color="#5C5051" stop-opacity="0"/>
<stop offset="1" stop-color="#5C5051"/>
</linearGradient>
<linearGradient id="paint25_linear_70_5453" x1="58.2402" y1="41.6444" x2="32.3984" y2="25.1414" gradientUnits="userSpaceOnUse">
<stop stop-color="#94ADEC"/>
<stop offset="1" stop-color="#CECAD3" stop-opacity="0"/>
</linearGradient>
<linearGradient id="paint26_linear_70_5453" x1="79.7637" y1="70.9243" x2="79.7637" y2="61.3935" gradientUnits="userSpaceOnUse">
<stop stop-color="#B8B7BA"/>
<stop offset="1" stop-color="#B8B7BA" stop-opacity="0"/>
</linearGradient>
<radialGradient id="paint27_radial_70_5453" cx="0" cy="0" r="1" gradientUnits="userSpaceOnUse" gradientTransform="translate(94.7968 103.443) rotate(-93.6993) scale(22.3062 12.0325)">
<stop stop-color="#B5B2B9"/>
<stop offset="1" stop-color="#B5B2B9" stop-opacity="0"/>
</radialGradient>
<radialGradient id="paint28_radial_70_5453" cx="0" cy="0" r="1" gradientUnits="userSpaceOnUse" gradientTransform="translate(92.1423 84.3814) rotate(90) scale(21.4282 12.6087)">
<stop offset="0.894118" stop-color="#8A8193" stop-opacity="0"/>
<stop offset="1" stop-color="#8A8193"/>
</radialGradient>
<radialGradient id="paint29_radial_70_5453" cx="0" cy="0" r="1" gradientUnits="userSpaceOnUse" gradientTransform="translate(79.861 94.3599) rotate(-55.2651) scale(5.83764 2.17461)">
<stop stop-color="#959199"/>
<stop offset="1" stop-color="#959199" stop-opacity="0"/>
</radialGradient>
<linearGradient id="paint30_linear_70_5453" x1="99.647" y1="92.198" x2="99.647" y2="80.0446" gradientUnits="userSpaceOnUse">
<stop stop-color="#CBC8CE"/>
<stop offset="1" stop-color="#CBC8CE" stop-opacity="0"/>
</linearGradient>
<linearGradient id="paint31_linear_70_5453" x1="93.6767" y1="24.7504" x2="83.3725" y2="9.54559" gradientUnits="userSpaceOnUse">
<stop stop-color="#88AEED"/>
<stop offset="1" stop-color="#C5C2C8" stop-opacity="0"/>
</linearGradient>
<radialGradient id="paint32_radial_70_5453" cx="0" cy="0" r="1" gradientUnits="userSpaceOnUse" gradientTransform="translate(36.8542 97.8366) rotate(-110.933) scale(5.72323 12.1968)">
<stop stop-color="#F70A8D"/>
<stop offset="1" stop-color="#89029C"/>
</radialGradient>
<radialGradient id="paint33_radial_70_5453" cx="0" cy="0" r="1" gradientUnits="userSpaceOnUse" gradientTransform="translate(39.3426 102.003) rotate(-113.883) scale(9.90745 16.8665)">
<stop stop-color="#FF1C4A"/>
<stop offset="0.765733" stop-color="#FF2B8F"/>
<stop offset="0.864496" stop-color="#BB0773"/>
<stop offset="0.886239" stop-color="#9F0762"/>
</radialGradient>
<radialGradient id="paint34_radial_70_5453" cx="0" cy="0" r="1" gradientUnits="userSpaceOnUse" gradientTransform="translate(29.841 54.8342) rotate(-8.36589) scale(24.8572 24.8572)">
<stop offset="0.472635" stop-color="#4A6D98"/>
<stop offset="0.727168" stop-color="#3A6E9D"/>
<stop offset="0.945555" stop-color="#3E2F9F"/>
</radialGradient>
<radialGradient id="paint35_radial_70_5453" cx="0" cy="0" r="1" gradientUnits="userSpaceOnUse" gradientTransform="translate(48.6471 54.1109) rotate(103.134) scale(22.2823 7.63887)">
<stop stop-color="#8677E7"/>
<stop offset="0.305394" stop-color="#7685D6" stop-opacity="0"/>
</radialGradient>
</defs>
</svg>
