<svg width="129" height="132" viewBox="0 0 129 132" fill="none" xmlns="http://www.w3.org/2000/svg">
<path d="M53.5137 97.6431V106.391C53.5137 111.731 56.5901 116.618 61.4787 119.041L61.858 119.247C63.8387 120.232 66.1565 118.836 66.1565 116.659V97.6841H53.5137V97.6431Z" fill="url(#paint0_linear_70_5759)"/>
<path d="M53.5137 97.6431V106.391C53.5137 111.731 56.5901 116.618 61.4787 119.041L61.858 119.247C63.8387 120.232 66.1565 118.836 66.1565 116.659V97.6841H53.5137V97.6431Z" fill="url(#paint1_radial_70_5759)"/>
<path d="M80.3275 53.2404C80.3275 51.1481 78.5081 49.5168 76.3613 49.6941C60.2417 51.1481 43.9766 61.1839 43.9766 73.4538C43.9766 86.7167 63.0071 97.4972 80.3275 97.4972V53.2404Z" fill="url(#paint2_linear_70_5759)"/>
<path d="M80.3275 53.2404C80.3275 51.1481 78.5081 49.5168 76.3613 49.6941C60.2417 51.1481 43.9766 61.1839 43.9766 73.4538C43.9766 86.7167 63.0071 97.4972 80.3275 97.4972V53.2404Z" fill="url(#paint3_radial_70_5759)"/>
<path d="M80.3275 53.2404C80.3275 51.1481 78.5081 49.5168 76.3613 49.6941C60.2417 51.1481 43.9766 61.1839 43.9766 73.4538C43.9766 86.7167 63.0071 97.4972 80.3275 97.4972V53.2404Z" fill="url(#paint4_linear_70_5759)"/>
<g filter="url(#filter0_f_70_5759)">
<path d="M77.5625 50.1791C78.435 50.1791 80.3281 50.9652 80.3281 53.5001C80.3281 55.1943 80.3281 65.7734 80.3281 69.5597" stroke="url(#paint5_linear_70_5759)" stroke-width="0.075"/>
</g>
<path d="M70.1599 109.346H62.6584C39.3113 109.346 23.3256 103.036 2.35198 88.7273C0.497696 86.3452 0.329124 83.0595 1.93055 80.5131C8.1677 70.4095 20.3891 63.5916 32.4841 63.5916H83.9406C89.1241 63.5916 93.507 59.6077 93.6334 54.5559C93.6756 51.9273 92.622 49.5041 90.852 47.8202C85.4156 42.7684 78.8413 39.072 71.8034 36.9363V36.8952C69.8227 36.3202 67.842 35.8273 65.8191 35.4988C64.6391 35.2934 63.417 35.7452 62.6584 36.6488L55.2413 45.6845C50.1841 51.8041 42.6406 55.3773 34.6334 55.3773H29.3656C28.0591 55.3773 27.3006 53.9398 28.1013 52.913L50.142 24.2863C50.9427 23.2595 50.9848 21.822 50.2263 20.713L44.6634 12.5809C44.0313 11.5541 44.7898 10.1988 46.012 10.1988H52.8391C57.222 10.1988 61.352 12.3345 63.7963 15.9077L67.3784 21.0827C68.0106 21.9863 69.022 22.5202 70.1599 22.5202C70.7077 22.5202 71.2556 22.5202 71.8034 22.5613C97.932 23.4648 118.835 44.3702 118.835 70.0809C118.835 96.3666 97.1313 109.346 70.1599 109.346Z" fill="url(#paint6_linear_70_5759)"/>
<path d="M70.1599 109.346H62.6584C39.3113 109.346 23.3256 103.036 2.35198 88.7273C0.497696 86.3452 0.329124 83.0595 1.93055 80.5131C8.1677 70.4095 20.3891 63.5916 32.4841 63.5916H83.9406C89.1241 63.5916 93.507 59.6077 93.6334 54.5559C93.6756 51.9273 92.622 49.5041 90.852 47.8202C85.4156 42.7684 78.8413 39.072 71.8034 36.9363V36.8952C69.8227 36.3202 67.842 35.8273 65.8191 35.4988C64.6391 35.2934 63.417 35.7452 62.6584 36.6488L55.2413 45.6845C50.1841 51.8041 42.6406 55.3773 34.6334 55.3773H29.3656C28.0591 55.3773 27.3006 53.9398 28.1013 52.913L50.142 24.2863C50.9427 23.2595 50.9848 21.822 50.2263 20.713L44.6634 12.5809C44.0313 11.5541 44.7898 10.1988 46.012 10.1988H52.8391C57.222 10.1988 61.352 12.3345 63.7963 15.9077L67.3784 21.0827C68.0106 21.9863 69.022 22.5202 70.1599 22.5202C70.7077 22.5202 71.2556 22.5202 71.8034 22.5613C97.932 23.4648 118.835 44.3702 118.835 70.0809C118.835 96.3666 97.1313 109.346 70.1599 109.346Z" fill="url(#paint7_radial_70_5759)"/>
<path d="M70.1599 109.346H62.6584C39.3113 109.346 23.3256 103.036 2.35198 88.7273C0.497696 86.3452 0.329124 83.0595 1.93055 80.5131C8.1677 70.4095 20.3891 63.5916 32.4841 63.5916H83.9406C89.1241 63.5916 93.507 59.6077 93.6334 54.5559C93.6756 51.9273 92.622 49.5041 90.852 47.8202C85.4156 42.7684 78.8413 39.072 71.8034 36.9363V36.8952C69.8227 36.3202 67.842 35.8273 65.8191 35.4988C64.6391 35.2934 63.417 35.7452 62.6584 36.6488L55.2413 45.6845C50.1841 51.8041 42.6406 55.3773 34.6334 55.3773H29.3656C28.0591 55.3773 27.3006 53.9398 28.1013 52.913L50.142 24.2863C50.9427 23.2595 50.9848 21.822 50.2263 20.713L44.6634 12.5809C44.0313 11.5541 44.7898 10.1988 46.012 10.1988H52.8391C57.222 10.1988 61.352 12.3345 63.7963 15.9077L67.3784 21.0827C68.0106 21.9863 69.022 22.5202 70.1599 22.5202C70.7077 22.5202 71.2556 22.5202 71.8034 22.5613C97.932 23.4648 118.835 44.3702 118.835 70.0809C118.835 96.3666 97.1313 109.346 70.1599 109.346Z" fill="url(#paint8_radial_70_5759)"/>
<path d="M70.1599 109.346H62.6584C39.3113 109.346 23.3256 103.036 2.35198 88.7273C0.497696 86.3452 0.329124 83.0595 1.93055 80.5131C8.1677 70.4095 20.3891 63.5916 32.4841 63.5916H83.9406C89.1241 63.5916 93.507 59.6077 93.6334 54.5559C93.6756 51.9273 92.622 49.5041 90.852 47.8202C85.4156 42.7684 78.8413 39.072 71.8034 36.9363V36.8952C69.8227 36.3202 67.842 35.8273 65.8191 35.4988C64.6391 35.2934 63.417 35.7452 62.6584 36.6488L55.2413 45.6845C50.1841 51.8041 42.6406 55.3773 34.6334 55.3773H29.3656C28.0591 55.3773 27.3006 53.9398 28.1013 52.913L50.142 24.2863C50.9427 23.2595 50.9848 21.822 50.2263 20.713L44.6634 12.5809C44.0313 11.5541 44.7898 10.1988 46.012 10.1988H52.8391C57.222 10.1988 61.352 12.3345 63.7963 15.9077L67.3784 21.0827C68.0106 21.9863 69.022 22.5202 70.1599 22.5202C70.7077 22.5202 71.2556 22.5202 71.8034 22.5613C97.932 23.4648 118.835 44.3702 118.835 70.0809C118.835 96.3666 97.1313 109.346 70.1599 109.346Z" fill="url(#paint9_radial_70_5759)"/>
<path d="M70.1599 109.346H62.6584C39.3113 109.346 23.3256 103.036 2.35198 88.7273C0.497696 86.3452 0.329124 83.0595 1.93055 80.5131C8.1677 70.4095 20.3891 63.5916 32.4841 63.5916H83.9406C89.1241 63.5916 93.507 59.6077 93.6334 54.5559C93.6756 51.9273 92.622 49.5041 90.852 47.8202C85.4156 42.7684 78.8413 39.072 71.8034 36.9363V36.8952C69.8227 36.3202 67.842 35.8273 65.8191 35.4988C64.6391 35.2934 63.417 35.7452 62.6584 36.6488L55.2413 45.6845C50.1841 51.8041 42.6406 55.3773 34.6334 55.3773H29.3656C28.0591 55.3773 27.3006 53.9398 28.1013 52.913L50.142 24.2863C50.9427 23.2595 50.9848 21.822 50.2263 20.713L44.6634 12.5809C44.0313 11.5541 44.7898 10.1988 46.012 10.1988H52.8391C57.222 10.1988 61.352 12.3345 63.7963 15.9077L67.3784 21.0827C68.0106 21.9863 69.022 22.5202 70.1599 22.5202C70.7077 22.5202 71.2556 22.5202 71.8034 22.5613C97.932 23.4648 118.835 44.3702 118.835 70.0809C118.835 96.3666 97.1313 109.346 70.1599 109.346Z" fill="url(#paint10_radial_70_5759)"/>
<path d="M70.1599 109.346H62.6584C39.3113 109.346 23.3256 103.036 2.35198 88.7273C0.497696 86.3452 0.329124 83.0595 1.93055 80.5131C8.1677 70.4095 20.3891 63.5916 32.4841 63.5916H83.9406C89.1241 63.5916 93.507 59.6077 93.6334 54.5559C93.6756 51.9273 92.622 49.5041 90.852 47.8202C85.4156 42.7684 78.8413 39.072 71.8034 36.9363V36.8952C69.8227 36.3202 67.842 35.8273 65.8191 35.4988C64.6391 35.2934 63.417 35.7452 62.6584 36.6488L55.2413 45.6845C50.1841 51.8041 42.6406 55.3773 34.6334 55.3773H29.3656C28.0591 55.3773 27.3006 53.9398 28.1013 52.913L50.142 24.2863C50.9427 23.2595 50.9848 21.822 50.2263 20.713L44.6634 12.5809C44.0313 11.5541 44.7898 10.1988 46.012 10.1988H52.8391C57.222 10.1988 61.352 12.3345 63.7963 15.9077L67.3784 21.0827C68.0106 21.9863 69.022 22.5202 70.1599 22.5202C70.7077 22.5202 71.2556 22.5202 71.8034 22.5613C97.932 23.4648 118.835 44.3702 118.835 70.0809C118.835 96.3666 97.1313 109.346 70.1599 109.346Z" fill="url(#paint11_radial_70_5759)"/>
<path d="M70.1599 109.346H62.6584C39.3113 109.346 23.3256 103.036 2.35198 88.7273C0.497696 86.3452 0.329124 83.0595 1.93055 80.5131C8.1677 70.4095 20.3891 63.5916 32.4841 63.5916H83.9406C89.1241 63.5916 93.507 59.6077 93.6334 54.5559C93.6756 51.9273 92.622 49.5041 90.852 47.8202C85.4156 42.7684 78.8413 39.072 71.8034 36.9363V36.8952C69.8227 36.3202 67.842 35.8273 65.8191 35.4988C64.6391 35.2934 63.417 35.7452 62.6584 36.6488L55.2413 45.6845C50.1841 51.8041 42.6406 55.3773 34.6334 55.3773H29.3656C28.0591 55.3773 27.3006 53.9398 28.1013 52.913L50.142 24.2863C50.9427 23.2595 50.9848 21.822 50.2263 20.713L44.6634 12.5809C44.0313 11.5541 44.7898 10.1988 46.012 10.1988H52.8391C57.222 10.1988 61.352 12.3345 63.7963 15.9077L67.3784 21.0827C68.0106 21.9863 69.022 22.5202 70.1599 22.5202C70.7077 22.5202 71.2556 22.5202 71.8034 22.5613C97.932 23.4648 118.835 44.3702 118.835 70.0809C118.835 96.3666 97.1313 109.346 70.1599 109.346Z" fill="url(#paint12_radial_70_5759)"/>
<path d="M76.0932 109.18C81.4643 109.18 80.5737 108.661 87.8456 107.386L103.068 101.017L111.174 93.2746C102.592 85.2851 105.906 87.2695 95.9908 84.5779C95.0738 84.4212 94.5949 84.6895 94.5949 85.2851V97.0003C94.5949 100.439 89.8243 99.5497 87.8456 98.7938C83.0586 96.5847 80.5737 89.251 80.5737 85.1561C80.5737 84.6859 80.0497 84.3097 79.3947 84.3097H48.2893C36.4555 84.3097 25.0545 85.9635 16.0591 91.5119L10.0059 94.0133C16.6605 97.9668 26.7643 106.238 44.5149 107.695L60.7346 109.92L76.0932 109.18Z" fill="url(#paint13_linear_70_5759)"/>
<path d="M76.0932 109.18C81.4643 109.18 80.5737 108.661 87.8456 107.386L103.068 101.017L111.174 93.2746C102.592 85.2851 105.906 87.2695 95.9908 84.5779C95.0738 84.4212 94.5949 84.6895 94.5949 85.2851V97.0003C94.5949 100.439 89.8243 99.5497 87.8456 98.7938C83.0586 96.5847 80.5737 89.251 80.5737 85.1561C80.5737 84.6859 80.0497 84.3097 79.3947 84.3097H48.2893C36.4555 84.3097 25.0545 85.9635 16.0591 91.5119L10.0059 94.0133C16.6605 97.9668 26.7643 106.238 44.5149 107.695L60.7346 109.92L76.0932 109.18Z" fill="url(#paint14_linear_70_5759)"/>
<path d="M76.0932 109.18C81.4643 109.18 80.5737 108.661 87.8456 107.386L103.068 101.017L111.174 93.2746C102.592 85.2851 105.906 87.2695 95.9908 84.5779C95.0738 84.4212 94.5949 84.6895 94.5949 85.2851V97.0003C94.5949 100.439 89.8243 99.5497 87.8456 98.7938C83.0586 96.5847 80.5737 89.251 80.5737 85.1561C80.5737 84.6859 80.0497 84.3097 79.3947 84.3097H48.2893C36.4555 84.3097 25.0545 85.9635 16.0591 91.5119L10.0059 94.0133C16.6605 97.9668 26.7643 106.238 44.5149 107.695L60.7346 109.92L76.0932 109.18Z" fill="url(#paint15_linear_70_5759)"/>
<path d="M76.0932 109.18C81.4643 109.18 80.5737 108.661 87.8456 107.386L103.068 101.017L111.174 93.2746C102.592 85.2851 105.906 87.2695 95.9908 84.5779C95.0738 84.4212 94.5949 84.6895 94.5949 85.2851V97.0003C94.5949 100.439 89.8243 99.5497 87.8456 98.7938C83.0586 96.5847 80.5737 89.251 80.5737 85.1561C80.5737 84.6859 80.0497 84.3097 79.3947 84.3097H48.2893C36.4555 84.3097 25.0545 85.9635 16.0591 91.5119L10.0059 94.0133C16.6605 97.9668 26.7643 106.238 44.5149 107.695L60.7346 109.92L76.0932 109.18Z" fill="url(#paint16_linear_70_5759)"/>
<path d="M76.0932 109.18C81.4643 109.18 80.5737 108.661 87.8456 107.386L103.068 101.017L111.174 93.2746C102.592 85.2851 105.906 87.2695 95.9908 84.5779C95.0738 84.4212 94.5949 84.6895 94.5949 85.2851V97.0003C94.5949 100.439 89.8243 99.5497 87.8456 98.7938C83.0586 96.5847 80.5737 89.251 80.5737 85.1561C80.5737 84.6859 80.0497 84.3097 79.3947 84.3097H48.2893C36.4555 84.3097 25.0545 85.9635 16.0591 91.5119L10.0059 94.0133C16.6605 97.9668 26.7643 106.238 44.5149 107.695L60.7346 109.92L76.0932 109.18Z" fill="url(#paint17_radial_70_5759)"/>
<path d="M57.7282 90.7085C56.5482 90.7085 55.6211 89.8049 55.6211 88.6549V80.3996C55.6211 79.2496 56.5482 78.346 57.7282 78.346C58.9082 78.346 59.8354 79.2907 59.8354 80.3996V88.6549C59.8354 89.8049 58.8661 90.7085 57.7282 90.7085Z" fill="url(#paint18_linear_70_5759)"/>
<path d="M66.1579 90.7085C64.9779 90.7085 64.0508 89.8049 64.0508 88.6549V80.3996C64.0508 79.2496 64.9779 78.346 66.1579 78.346C67.3379 78.346 68.2651 79.2496 68.2651 80.3996V88.6549C68.2651 89.8049 67.2958 90.7085 66.1579 90.7085Z" fill="url(#paint19_linear_70_5759)"/>
<g filter="url(#filter1_f_70_5759)">
<path d="M35.4792 89.23C37.7384 89.23 39.5698 87.4452 39.5698 85.2435C39.5698 83.0417 37.7384 81.2569 35.4792 81.2569C33.2201 81.2569 31.3887 83.0417 31.3887 85.2435C31.3887 87.4452 33.2201 89.23 35.4792 89.23Z" fill="url(#paint20_linear_70_5759)"/>
</g>
<path d="M36.6987 88.655C39.0261 88.655 40.9129 86.8162 40.9129 84.5478C40.9129 82.2795 39.0261 80.4407 36.6987 80.4407C34.3712 80.4407 32.4844 82.2795 32.4844 84.5478C32.4844 86.8162 34.3712 88.655 36.6987 88.655Z" fill="url(#paint21_radial_70_5759)"/>
<path d="M36.6987 88.655C39.0261 88.655 40.9129 86.8162 40.9129 84.5478C40.9129 82.2795 39.0261 80.4407 36.6987 80.4407C34.3712 80.4407 32.4844 82.2795 32.4844 84.5478C32.4844 86.8162 34.3712 88.655 36.6987 88.655Z" fill="url(#paint22_radial_70_5759)"/>
<path d="M36.6987 88.655C39.0261 88.655 40.9129 86.8162 40.9129 84.5478C40.9129 82.2795 39.0261 80.4407 36.6987 80.4407C34.3712 80.4407 32.4844 82.2795 32.4844 84.5478C32.4844 86.8162 34.3712 88.655 36.6987 88.655Z" fill="url(#paint23_linear_70_5759)"/>
<g filter="url(#filter2_f_70_5759)">
<path d="M50.7818 43.9693C46.3864 49.6808 38.7974 49.5096 34.7148 49.6808C41.9845 48.4486 44.1311 45.1886 46.8309 42.1082L55.0251 31.5843C55.2145 31.3409 55.5057 31.1986 55.8141 31.1986H58.8707C59.6796 31.1986 60.1363 32.0938 59.6414 32.7336C57.599 35.3738 53.8325 40.005 50.7818 43.9693Z" fill="url(#paint24_linear_70_5759)"/>
</g>
<g filter="url(#filter3_f_70_5759)">
<path d="M75.7706 64.6172V73.3449C75.7706 73.7941 75.5204 74.7824 74.5195 75.1418" stroke="url(#paint25_linear_70_5759)" stroke-width="0.075"/>
</g>
<path d="M94.0695 75.1416H80.6035V86.0996C80.8537 91.148 83.2603 95.7647 87.6275 98.5126C89.4272 99.45 93.5955 100.701 94.0695 96.7593V75.1416Z" fill="url(#paint26_radial_70_5759)"/>
<path d="M94.0695 75.1416H80.6035V86.0996C80.8537 91.148 83.2603 95.7647 87.6275 98.5126C89.4272 99.45 93.5955 100.701 94.0695 96.7593V75.1416Z" fill="url(#paint27_radial_70_5759)"/>
<path d="M94.0695 75.1416H80.6035V86.0996C80.8537 91.148 83.2603 95.7647 87.6275 98.5126C89.4272 99.45 93.5955 100.701 94.0695 96.7593V75.1416Z" fill="url(#paint28_radial_70_5759)"/>
<g filter="url(#filter4_f_70_5759)">
<path d="M94.6091 86.9568V97.6738C94.6091 98.0749 94.7408 99.368 93.4238 99.4707" stroke="url(#paint29_linear_70_5759)" stroke-width="0.15"/>
</g>
<g filter="url(#filter5_f_70_5759)">
<path d="M91.7538 35.7989C85.5615 28.804 73.0594 28.4257 67.5824 29.1108C80.6213 22.1326 90.9739 29.3983 94.5203 33.9035L91.7538 35.7989Z" fill="url(#paint30_linear_70_5759)"/>
</g>
<path d="M31.3991 102.1C25.8031 104.187 21.1125 100.475 21.1125 100.475L33.4876 95.7899C33.4876 95.7899 36.9951 100.014 31.3991 102.1Z" fill="url(#paint31_radial_70_5759)"/>
<path d="M33.6579 103.906C34.3777 101.486 34.6525 100.742 34.3777 99.6702C34.1502 98.8041 34.2494 97.8835 33.6579 97.7796C33.0663 97.6757 30.8163 98.615 28.6591 99.4192C26.5019 100.223 23.969 101.021 23.5899 101.486C23.2107 101.952 25.7787 102.575 26.2122 103.365C28.6591 103.906 32.2297 108.708 33.6579 103.906Z" fill="url(#paint32_radial_70_5759)"/>
<defs>
<filter id="filter0_f_70_5759" x="77.3625" y="49.9416" width="3.20273" height="19.8181" filterUnits="userSpaceOnUse" color-interpolation-filters="sRGB">
<feFlood flood-opacity="0" result="BackgroundImageFix"/>
<feBlend mode="normal" in="SourceGraphic" in2="BackgroundImageFix" result="shape"/>
<feGaussianBlur stdDeviation="0.1" result="effect1_foregroundBlur_70_5759"/>
</filter>
<filter id="filter1_f_70_5759" x="30.8887" y="80.7569" width="9.18164" height="8.97314" filterUnits="userSpaceOnUse" color-interpolation-filters="sRGB">
<feFlood flood-opacity="0" result="BackgroundImageFix"/>
<feBlend mode="normal" in="SourceGraphic" in2="BackgroundImageFix" result="shape"/>
<feGaussianBlur stdDeviation="0.25" result="effect1_foregroundBlur_70_5759"/>
</filter>
<filter id="filter2_f_70_5759" x="33.7148" y="30.1986" width="27.1309" height="20.4821" filterUnits="userSpaceOnUse" color-interpolation-filters="sRGB">
<feFlood flood-opacity="0" result="BackgroundImageFix"/>
<feBlend mode="normal" in="SourceGraphic" in2="BackgroundImageFix" result="shape"/>
<feGaussianBlur stdDeviation="0.5" result="effect1_foregroundBlur_70_5759"/>
</filter>
<filter id="filter3_f_70_5759" x="74.3078" y="64.4172" width="1.70078" height="10.9598" filterUnits="userSpaceOnUse" color-interpolation-filters="sRGB">
<feFlood flood-opacity="0" result="BackgroundImageFix"/>
<feBlend mode="normal" in="SourceGraphic" in2="BackgroundImageFix" result="shape"/>
<feGaussianBlur stdDeviation="0.1" result="effect1_foregroundBlur_70_5759"/>
</filter>
<filter id="filter4_f_70_5759" x="93.218" y="86.7568" width="1.66953" height="12.9887" filterUnits="userSpaceOnUse" color-interpolation-filters="sRGB">
<feFlood flood-opacity="0" result="BackgroundImageFix"/>
<feBlend mode="normal" in="SourceGraphic" in2="BackgroundImageFix" result="shape"/>
<feGaussianBlur stdDeviation="0.1" result="effect1_foregroundBlur_70_5759"/>
</filter>
<filter id="filter5_f_70_5759" x="66.582" y="25.2171" width="28.9375" height="11.5818" filterUnits="userSpaceOnUse" color-interpolation-filters="sRGB">
<feFlood flood-opacity="0" result="BackgroundImageFix"/>
<feBlend mode="normal" in="SourceGraphic" in2="BackgroundImageFix" result="shape"/>
<feGaussianBlur stdDeviation="0.5" result="effect1_foregroundBlur_70_5759"/>
</filter>
<linearGradient id="paint0_linear_70_5759" x1="59.8204" y1="103.747" x2="59.8204" y2="115.812" gradientUnits="userSpaceOnUse">
<stop stop-color="#364477"/>
<stop offset="1" stop-color="#828AD6"/>
</linearGradient>
<radialGradient id="paint1_radial_70_5759" cx="0" cy="0" r="1" gradientUnits="userSpaceOnUse" gradientTransform="translate(66.1565 107.405) rotate(145.602) scale(12.6089 14.5168)">
<stop offset="0.877212" stop-color="#6F617D" stop-opacity="0"/>
<stop offset="1" stop-color="#6F617D"/>
</radialGradient>
<linearGradient id="paint2_linear_70_5759" x1="69.8661" y1="70.7498" x2="79.8979" y2="49.4783" gradientUnits="userSpaceOnUse">
<stop stop-color="#77A9E7"/>
<stop offset="1" stop-color="#997BED"/>
</linearGradient>
<radialGradient id="paint3_radial_70_5759" cx="0" cy="0" r="1" gradientUnits="userSpaceOnUse" gradientTransform="translate(72.7089 76.1246) rotate(-112.386) scale(25.5283 32.1524)">
<stop offset="0.94785" stop-color="#2D3EDC" stop-opacity="0"/>
<stop offset="0.985478" stop-color="#77A9E7"/>
</radialGradient>
<linearGradient id="paint4_linear_70_5759" x1="81.0097" y1="68.0902" x2="71.2306" y2="68.0902" gradientUnits="userSpaceOnUse">
<stop stop-color="#77A9E7"/>
<stop offset="1" stop-color="#929397" stop-opacity="0"/>
</linearGradient>
<linearGradient id="paint5_linear_70_5759" x1="78.9453" y1="53.0669" x2="78.9453" y2="74.2444" gradientUnits="userSpaceOnUse">
<stop stop-color="#B8B7BA"/>
<stop offset="1" stop-color="#B8B7BA" stop-opacity="0"/>
</linearGradient>
<linearGradient id="paint6_linear_70_5759" x1="30.1144" y1="88.513" x2="116.796" y2="25.2267" gradientUnits="userSpaceOnUse">
<stop stop-color="#997BED"/>
<stop offset="1" stop-color="#77A9E7"/>
</linearGradient>
<radialGradient id="paint7_radial_70_5759" cx="0" cy="0" r="1" gradientUnits="userSpaceOnUse" gradientTransform="translate(30.2031 33.6865) rotate(37.8449) scale(23.8485 40.367)">
<stop offset="0.344984" stop-color="#8B7B9B"/>
<stop offset="0.788877" stop-color="#8B7B9B" stop-opacity="0"/>
</radialGradient>
<radialGradient id="paint8_radial_70_5759" cx="0" cy="0" r="1" gradientUnits="userSpaceOnUse" gradientTransform="translate(51.1428 9.30036) rotate(90) scale(3.7221 11.8395)">
<stop stop-color="#8D6FA8"/>
<stop offset="1" stop-color="#8D6FA8" stop-opacity="0"/>
</radialGradient>
<radialGradient id="paint9_radial_70_5759" cx="0" cy="0" r="1" gradientUnits="userSpaceOnUse" gradientTransform="translate(14.7946 68.7256) rotate(57.4592) scale(36.2355 48.4268)">
<stop stop-color="#857C90"/>
<stop offset="1" stop-color="#857C90" stop-opacity="0"/>
</radialGradient>
<radialGradient id="paint10_radial_70_5759" cx="0" cy="0" r="1" gradientUnits="userSpaceOnUse" gradientTransform="translate(46.5334 22.5202) scale(6.71652 6.54576)">
<stop stop-color="#948E9A"/>
<stop offset="1" stop-color="#948E9A" stop-opacity="0"/>
</radialGradient>
<radialGradient id="paint11_radial_70_5759" cx="0" cy="0" r="1" gradientUnits="userSpaceOnUse" gradientTransform="translate(92.8254 87.657) rotate(-78.4029) scale(4.25825 2.14309)">
<stop stop-color="#C5C2C8"/>
<stop offset="1" stop-color="#C5C2C8" stop-opacity="0"/>
</radialGradient>
<radialGradient id="paint12_radial_70_5759" cx="0" cy="0" r="1" gradientUnits="userSpaceOnUse" gradientTransform="translate(109.88 123.402) rotate(-123.104) scale(29.418 66.2698)">
<stop stop-color="#C5C2C8"/>
<stop offset="1" stop-color="#C5C2C8" stop-opacity="0"/>
</radialGradient>
<linearGradient id="paint13_linear_70_5759" x1="60.5901" y1="87.392" x2="60.5901" y2="104.064" gradientUnits="userSpaceOnUse">
<stop stop-color="#E1D9EB"/>
<stop offset="1" stop-color="#E1D9EB" stop-opacity="0"/>
</linearGradient>
<linearGradient id="paint14_linear_70_5759" x1="67.4315" y1="108.471" x2="67.4315" y2="84.3097" gradientUnits="userSpaceOnUse">
<stop offset="0.16452" stop-color="#947CAB"/>
<stop offset="1" stop-color="#947CAB" stop-opacity="0"/>
</linearGradient>
<linearGradient id="paint15_linear_70_5759" x1="107.561" y1="103.696" x2="101.505" y2="90.9254" gradientUnits="userSpaceOnUse">
<stop stop-color="#C8C3CF"/>
<stop offset="1" stop-color="#C8C3CF" stop-opacity="0"/>
</linearGradient>
<linearGradient id="paint16_linear_70_5759" x1="108.408" y1="94.1001" x2="95.8977" y2="103.039" gradientUnits="userSpaceOnUse">
<stop stop-color="#D7D0E0"/>
<stop offset="1" stop-color="#C8C3CF" stop-opacity="0"/>
</linearGradient>
<radialGradient id="paint17_radial_70_5759" cx="0" cy="0" r="1" gradientUnits="userSpaceOnUse" gradientTransform="translate(72.603 108.111) rotate(-20.456) scale(27.8436 14.9519)">
<stop offset="0.160063" stop-color="#947CAB"/>
<stop offset="1" stop-color="#947CAB" stop-opacity="0"/>
</radialGradient>
<linearGradient id="paint18_linear_70_5759" x1="57.7097" y1="79.1319" x2="57.7097" y2="92.4026" gradientUnits="userSpaceOnUse">
<stop stop-color="#426E9B"/>
<stop offset="1" stop-color="#7C97EE"/>
</linearGradient>
<linearGradient id="paint19_linear_70_5759" x1="66.1394" y1="79.1319" x2="66.1394" y2="92.4026" gradientUnits="userSpaceOnUse">
<stop stop-color="#A6C8F1"/>
<stop offset="0.0001" stop-color="#426E9B"/>
<stop offset="1" stop-color="#7B94ED"/>
</linearGradient>
<linearGradient id="paint20_linear_70_5759" x1="33.7138" y1="83.6651" x2="35.0551" y2="88.1693" gradientUnits="userSpaceOnUse">
<stop offset="0.00558659" stop-color="#706977"/>
<stop offset="1" stop-color="#A594AF"/>
</linearGradient>
<radialGradient id="paint21_radial_70_5759" cx="0" cy="0" r="1" gradientUnits="userSpaceOnUse" gradientTransform="translate(37.9498 83.2263) rotate(126.541) scale(5.75099 5.16737)">
<stop offset="0.00558659" stop-color="#433437"/>
<stop offset="1" stop-color="#3B2838"/>
</radialGradient>
<radialGradient id="paint22_radial_70_5759" cx="0" cy="0" r="1" gradientUnits="userSpaceOnUse" gradientTransform="translate(38.2736 83.5211) rotate(138.376) scale(2.99501 2.62778)">
<stop stop-color="#5C5051"/>
<stop offset="1" stop-color="#5C5051" stop-opacity="0"/>
</radialGradient>
<linearGradient id="paint23_linear_70_5759" x1="35.8702" y1="81.3219" x2="33.0163" y2="79.4584" gradientUnits="userSpaceOnUse">
<stop stop-color="#5C5051" stop-opacity="0"/>
<stop offset="1" stop-color="#5C5051"/>
</linearGradient>
<linearGradient id="paint24_linear_70_5759" x1="52.3622" y1="47.7555" x2="26.1607" y2="30.5864" gradientUnits="userSpaceOnUse">
<stop stop-color="#94ADEC"/>
<stop offset="1" stop-color="#CECAD3" stop-opacity="0"/>
</linearGradient>
<linearGradient id="paint25_linear_70_5759" x1="74.5195" y1="77.1312" x2="74.5195" y2="67.5693" gradientUnits="userSpaceOnUse">
<stop stop-color="#B8B7BA"/>
<stop offset="1" stop-color="#B8B7BA" stop-opacity="0"/>
</linearGradient>
<radialGradient id="paint26_radial_70_5759" cx="0" cy="0" r="1" gradientUnits="userSpaceOnUse" gradientTransform="translate(89.9951 109.756) rotate(-93.7955) scale(22.3817 12.3855)">
<stop stop-color="#B5B2B9"/>
<stop offset="1" stop-color="#B5B2B9" stop-opacity="0"/>
</radialGradient>
<radialGradient id="paint27_radial_70_5759" cx="0" cy="0" r="1" gradientUnits="userSpaceOnUse" gradientTransform="translate(87.2624 90.6323) rotate(90) scale(21.4983 12.9799)">
<stop offset="0.894118" stop-color="#8A8193" stop-opacity="0"/>
<stop offset="1" stop-color="#8A8193"/>
</radialGradient>
<radialGradient id="paint28_radial_70_5759" cx="0" cy="0" r="1" gradientUnits="userSpaceOnUse" gradientTransform="translate(74.6196 100.644) rotate(-54.5712) scale(5.90678 2.21968)">
<stop stop-color="#959199"/>
<stop offset="1" stop-color="#959199" stop-opacity="0"/>
</radialGradient>
<linearGradient id="paint29_linear_70_5759" x1="94.9383" y1="99.1498" x2="94.9383" y2="86.9568" gradientUnits="userSpaceOnUse">
<stop stop-color="#CBC8CE"/>
<stop offset="1" stop-color="#CBC8CE" stop-opacity="0"/>
</linearGradient>
<linearGradient id="paint30_linear_70_5759" x1="88.8431" y1="30.8062" x2="78.6063" y2="15.3068" gradientUnits="userSpaceOnUse">
<stop stop-color="#88AEED"/>
<stop offset="1" stop-color="#C5C2C8" stop-opacity="0"/>
</linearGradient>
<radialGradient id="paint31_radial_70_5759" cx="0" cy="0" r="1" gradientUnits="userSpaceOnUse" gradientTransform="translate(30.3476 104.132) rotate(-111.43) scale(5.76129 12.5138)">
<stop stop-color="#F70A8D"/>
<stop offset="1" stop-color="#89029C"/>
</radialGradient>
<radialGradient id="paint32_radial_70_5759" cx="0" cy="0" r="1" gradientUnits="userSpaceOnUse" gradientTransform="translate(32.9083 108.311) rotate(-114.434) scale(9.98283 17.2884)">
<stop stop-color="#FF1C4A"/>
<stop offset="0.765733" stop-color="#FF2B8F"/>
<stop offset="0.864496" stop-color="#BB0773"/>
<stop offset="0.886239" stop-color="#9F0762"/>
</radialGradient>
</defs>
</svg>
