<svg width="131" height="132" viewBox="0 0 131 132" fill="none" xmlns="http://www.w3.org/2000/svg">
<path d="M98.9273 15.1903C98.9273 13.0211 97.1059 11.3299 94.9566 11.5137C78.8187 13.0211 62.5352 23.4258 62.5352 36.1468C62.5352 49.8973 81.5873 61.0741 98.9273 61.0741V15.1903Z" fill="url(#paint0_linear_70_5872)"/>
<path d="M98.9273 15.1903C98.9273 13.0211 97.1059 11.3299 94.9566 11.5137C78.8187 13.0211 62.5352 23.4258 62.5352 36.1468C62.5352 49.8973 81.5873 61.0741 98.9273 61.0741V15.1903Z" fill="url(#paint1_radial_70_5872)"/>
<path d="M98.9273 15.1903C98.9273 13.0211 97.1059 11.3299 94.9566 11.5137C78.8187 13.0211 62.5352 23.4258 62.5352 36.1468C62.5352 49.8973 81.5873 61.0741 98.9273 61.0741V15.1903Z" fill="url(#paint2_linear_70_5872)"/>
<g filter="url(#filter0_f_70_5872)">
<path d="M95.7695 12.4613C96.5237 12.4613 98.1602 13.1651 98.1602 15.4342C98.1602 16.9508 98.1602 26.4209 98.1602 29.8102" stroke="url(#paint3_linear_70_5872)" stroke-width="0.075"/>
</g>
<path d="M66.1426 58.0955V65.9267C66.1426 70.7062 68.8019 75.0814 73.0276 77.2505L73.3554 77.4344C75.0676 78.3168 77.0711 77.0667 77.0711 75.1181V58.1323H66.1426V58.0955Z" fill="url(#paint4_linear_70_5872)"/>
<path d="M66.1426 58.0955V65.9267C66.1426 70.7062 68.8019 75.0814 73.0276 77.2505L73.3554 77.4344C75.0676 78.3168 77.0711 77.0667 77.0711 75.1181V58.1323H66.1426V58.0955Z" fill="url(#paint5_radial_70_5872)"/>
<path d="M71.3148 18.2649H65.4498C45.2683 18.2649 24.9412 27.8608 12.8105 44.1481C11.2076 46.2805 11.0619 49.2218 12.4462 51.5013C17.8376 60.5457 28.4019 66.6488 38.8569 66.6488H83.3362C87.8169 66.6488 91.6055 70.2151 91.7148 74.7373C91.7512 77.0903 90.8405 79.2595 89.3105 80.7669C84.6112 85.2891 78.9283 88.598 72.8448 90.5099V90.5466C71.1326 91.0613 69.4205 91.5025 67.6719 91.7967C66.6519 91.9805 65.5955 91.5761 64.9398 90.7672L58.5283 82.6787C54.1569 77.2006 47.6362 74.002 40.7148 74.002H36.1612C35.0319 74.002 34.3762 75.2888 35.0683 76.2079L54.1205 101.834C54.8126 102.753 54.849 104.04 54.1933 105.032L49.3848 112.312C48.8383 113.231 49.494 114.444 50.5505 114.444H56.4519C60.2405 114.444 63.8105 112.533 65.9233 109.334L69.0198 104.701C69.5662 103.893 70.4405 103.415 71.424 103.415C71.8976 103.415 72.3712 103.415 72.8448 103.378C95.4305 102.569 113.499 83.8552 113.499 60.8398C113.499 37.3096 94.629 18.2649 71.3148 18.2649Z" fill="url(#paint6_linear_70_5872)"/>
<path d="M71.3148 18.2649H65.4498C45.2683 18.2649 24.9412 27.8608 12.8105 44.1481C11.2076 46.2805 11.0619 49.2218 12.4462 51.5013C17.8376 60.5457 28.4019 66.6488 38.8569 66.6488H83.3362C87.8169 66.6488 91.6055 70.2151 91.7148 74.7373C91.7512 77.0903 90.8405 79.2595 89.3105 80.7669C84.6112 85.2891 78.9283 88.598 72.8448 90.5099V90.5466C71.1326 91.0613 69.4205 91.5025 67.6719 91.7967C66.6519 91.9805 65.5955 91.5761 64.9398 90.7672L58.5283 82.6787C54.1569 77.2006 47.6362 74.002 40.7148 74.002H36.1612C35.0319 74.002 34.3762 75.2888 35.0683 76.2079L54.1205 101.834C54.8126 102.753 54.849 104.04 54.1933 105.032L49.3848 112.312C48.8383 113.231 49.494 114.444 50.5505 114.444H56.4519C60.2405 114.444 63.8105 112.533 65.9233 109.334L69.0198 104.701C69.5662 103.893 70.4405 103.415 71.424 103.415C71.8976 103.415 72.3712 103.415 72.8448 103.378C95.4305 102.569 113.499 83.8552 113.499 60.8398C113.499 37.3096 94.629 18.2649 71.3148 18.2649Z" fill="url(#paint7_radial_70_5872)"/>
<path d="M71.3148 18.2649H65.4498C45.2683 18.2649 24.9412 27.8608 12.8105 44.1481C11.2076 46.2805 11.0619 49.2218 12.4462 51.5013C17.8376 60.5457 28.4019 66.6488 38.8569 66.6488H83.3362C87.8169 66.6488 91.6055 70.2151 91.7148 74.7373C91.7512 77.0903 90.8405 79.2595 89.3105 80.7669C84.6112 85.2891 78.9283 88.598 72.8448 90.5099V90.5466C71.1326 91.0613 69.4205 91.5025 67.6719 91.7967C66.6519 91.9805 65.5955 91.5761 64.9398 90.7672L58.5283 82.6787C54.1569 77.2006 47.6362 74.002 40.7148 74.002H36.1612C35.0319 74.002 34.3762 75.2888 35.0683 76.2079L54.1205 101.834C54.8126 102.753 54.849 104.04 54.1933 105.032L49.3848 112.312C48.8383 113.231 49.494 114.444 50.5505 114.444H56.4519C60.2405 114.444 63.8105 112.533 65.9233 109.334L69.0198 104.701C69.5662 103.893 70.4405 103.415 71.424 103.415C71.8976 103.415 72.3712 103.415 72.8448 103.378C95.4305 102.569 113.499 83.8552 113.499 60.8398C113.499 37.3096 94.629 18.2649 71.3148 18.2649Z" fill="url(#paint8_radial_70_5872)"/>
<path d="M71.3148 18.2649H65.4498C45.2683 18.2649 24.9412 27.8608 12.8105 44.1481C11.2076 46.2805 11.0619 49.2218 12.4462 51.5013C17.8376 60.5457 28.4019 66.6488 38.8569 66.6488H83.3362C87.8169 66.6488 91.6055 70.2151 91.7148 74.7373C91.7512 77.0903 90.8405 79.2595 89.3105 80.7669C84.6112 85.2891 78.9283 88.598 72.8448 90.5099V90.5466C71.1326 91.0613 69.4205 91.5025 67.6719 91.7967C66.6519 91.9805 65.5955 91.5761 64.9398 90.7672L58.5283 82.6787C54.1569 77.2006 47.6362 74.002 40.7148 74.002H36.1612C35.0319 74.002 34.3762 75.2888 35.0683 76.2079L54.1205 101.834C54.8126 102.753 54.849 104.04 54.1933 105.032L49.3848 112.312C48.8383 113.231 49.494 114.444 50.5505 114.444H56.4519C60.2405 114.444 63.8105 112.533 65.9233 109.334L69.0198 104.701C69.5662 103.893 70.4405 103.415 71.424 103.415C71.8976 103.415 72.3712 103.415 72.8448 103.378C95.4305 102.569 113.499 83.8552 113.499 60.8398C113.499 37.3096 94.629 18.2649 71.3148 18.2649Z" fill="url(#paint9_radial_70_5872)"/>
<path d="M71.3148 18.2649H65.4498C45.2683 18.2649 24.9412 27.8608 12.8105 44.1481C11.2076 46.2805 11.0619 49.2218 12.4462 51.5013C17.8376 60.5457 28.4019 66.6488 38.8569 66.6488H83.3362C87.8169 66.6488 91.6055 70.2151 91.7148 74.7373C91.7512 77.0903 90.8405 79.2595 89.3105 80.7669C84.6112 85.2891 78.9283 88.598 72.8448 90.5099V90.5466C71.1326 91.0613 69.4205 91.5025 67.6719 91.7967C66.6519 91.9805 65.5955 91.5761 64.9398 90.7672L58.5283 82.6787C54.1569 77.2006 47.6362 74.002 40.7148 74.002H36.1612C35.0319 74.002 34.3762 75.2888 35.0683 76.2079L54.1205 101.834C54.8126 102.753 54.849 104.04 54.1933 105.032L49.3848 112.312C48.8383 113.231 49.494 114.444 50.5505 114.444H56.4519C60.2405 114.444 63.8105 112.533 65.9233 109.334L69.0198 104.701C69.5662 103.893 70.4405 103.415 71.424 103.415C71.8976 103.415 72.3712 103.415 72.8448 103.378C95.4305 102.569 113.499 83.8552 113.499 60.8398C113.499 37.3096 94.629 18.2649 71.3148 18.2649Z" fill="url(#paint10_radial_70_5872)"/>
<path d="M71.3148 18.2649H65.4498C45.2683 18.2649 24.9412 27.8608 12.8105 44.1481C11.2076 46.2805 11.0619 49.2218 12.4462 51.5013C17.8376 60.5457 28.4019 66.6488 38.8569 66.6488H83.3362C87.8169 66.6488 91.6055 70.2151 91.7148 74.7373C91.7512 77.0903 90.8405 79.2595 89.3105 80.7669C84.6112 85.2891 78.9283 88.598 72.8448 90.5099V90.5466C71.1326 91.0613 69.4205 91.5025 67.6719 91.7967C66.6519 91.9805 65.5955 91.5761 64.9398 90.7672L58.5283 82.6787C54.1569 77.2006 47.6362 74.002 40.7148 74.002H36.1612C35.0319 74.002 34.3762 75.2888 35.0683 76.2079L54.1205 101.834C54.8126 102.753 54.849 104.04 54.1933 105.032L49.3848 112.312C48.8383 113.231 49.494 114.444 50.5505 114.444H56.4519C60.2405 114.444 63.8105 112.533 65.9233 109.334L69.0198 104.701C69.5662 103.893 70.4405 103.415 71.424 103.415C71.8976 103.415 72.3712 103.415 72.8448 103.378C95.4305 102.569 113.499 83.8552 113.499 60.8398C113.499 37.3096 94.629 18.2649 71.3148 18.2649Z" fill="url(#paint11_radial_70_5872)"/>
<path d="M71.3148 18.2649H65.4498C45.2683 18.2649 24.9412 27.8608 12.8105 44.1481C11.2076 46.2805 11.0619 49.2218 12.4462 51.5013C17.8376 60.5457 28.4019 66.6488 38.8569 66.6488H83.3362C87.8169 66.6488 91.6055 70.2151 91.7148 74.7373C91.7512 77.0903 90.8405 79.2595 89.3105 80.7669C84.6112 85.2891 78.9283 88.598 72.8448 90.5099V90.5466C71.1326 91.0613 69.4205 91.5025 67.6719 91.7967C66.6519 91.9805 65.5955 91.5761 64.9398 90.7672L58.5283 82.6787C54.1569 77.2006 47.6362 74.002 40.7148 74.002H36.1612C35.0319 74.002 34.3762 75.2888 35.0683 76.2079L54.1205 101.834C54.8126 102.753 54.849 104.04 54.1933 105.032L49.3848 112.312C48.8383 113.231 49.494 114.444 50.5505 114.444H56.4519C60.2405 114.444 63.8105 112.533 65.9233 109.334L69.0198 104.701C69.5662 103.893 70.4405 103.415 71.424 103.415C71.8976 103.415 72.3712 103.415 72.8448 103.378C95.4305 102.569 113.499 83.8552 113.499 60.8398C113.499 37.3096 94.629 18.2649 71.3148 18.2649Z" fill="url(#paint12_radial_70_5872)"/>
<path d="M104.888 86.8708C107.178 81.3803 107.957 75.0674 107.505 68.3103C106.765 57.2559 99.7069 48.4912 90.9389 45.1305C90.174 44.9459 89.7744 45.262 89.7744 45.9635V55.4422C89.7744 59.4819 85.8088 58.3904 84.1581 57.5C80.1738 54.9292 78.0774 50.6349 78.0774 45.8115C78.0774 45.2577 77.6403 44.8146 77.0939 44.8146H51.1446C41.2725 44.8146 31.6918 48.3962 24.1875 54.9316L19.0254 59.4088C24.5769 64.0657 31.7428 66.8925 38.8581 66.8925H83.3374C87.8181 66.8925 91.6067 70.4588 91.716 74.981C91.7524 77.334 90.8417 79.5032 89.3117 81.0106C84.6124 85.5328 78.9295 88.8417 72.846 90.7535V90.7903C71.9163 91.0698 70.9866 91.3276 70.0511 91.552V104.003C70.4629 103.779 70.9302 103.658 71.4253 103.658C71.8989 103.658 72.3724 103.658 72.846 103.622C85.9138 103.154 97.4693 96.6917 104.888 86.8708Z" fill="url(#paint13_linear_70_5872)"/>
<path d="M107.319 66.4704L91.6359 77.4857L91.3957 77.4666C91.6172 76.6825 91.7292 75.8511 91.716 74.9953C91.6067 70.4731 87.8181 66.9069 83.3374 66.9069H38.8581C31.7428 66.9069 24.5769 64.0801 19.0254 59.4232L24.1875 54.946C31.6918 48.4105 41.2725 44.8289 51.1446 44.8289H77.0939C77.6403 44.8289 78.0774 45.272 78.0774 45.8259C78.0774 50.6493 80.1504 54.8978 84.1439 57.5C85.7946 58.3904 89.7744 59.4388 89.7744 55.3888V45.9779C89.7744 45.2763 90.1739 44.9603 90.9389 45.1449C99.2107 48.3153 105.961 56.2955 107.319 66.4704Z" fill="url(#paint14_linear_70_5872)"/>
<path d="M107.319 66.4704L91.6359 77.4857L91.3957 77.4666C91.6172 76.6825 91.7292 75.8511 91.716 74.9953C91.6067 70.4731 87.8181 66.9069 83.3374 66.9069H38.8581C31.7428 66.9069 24.5769 64.0801 19.0254 59.4232L24.1875 54.946C31.6918 48.4105 41.2725 44.8289 51.1446 44.8289H77.0939C77.6403 44.8289 78.0774 45.272 78.0774 45.8259C78.0774 50.6493 80.1504 54.8978 84.1439 57.5C85.7946 58.3904 89.7744 59.4388 89.7744 55.3888V45.9779C89.7744 45.2763 90.1739 44.9603 90.9389 45.1449C99.2107 48.3153 105.961 56.2955 107.319 66.4704Z" fill="url(#paint15_linear_70_5872)"/>
<path d="M107.319 66.4704L91.6359 77.4857L91.3957 77.4666C91.6172 76.6825 91.7292 75.8511 91.716 74.9953C91.6067 70.4731 87.8181 66.9069 83.3374 66.9069H38.8581C31.7428 66.9069 24.5769 64.0801 19.0254 59.4232L24.1875 54.946C31.6918 48.4105 41.2725 44.8289 51.1446 44.8289H77.0939C77.6403 44.8289 78.0774 45.272 78.0774 45.8259C78.0774 50.6493 80.1504 54.8978 84.1439 57.5C85.7946 58.3904 89.7744 59.4388 89.7744 55.3888V45.9779C89.7744 45.2763 90.1739 44.9603 90.9389 45.1449C99.2107 48.3153 105.961 56.2955 107.319 66.4704Z" fill="url(#paint16_linear_70_5872)"/>
<path d="M107.319 66.4704L91.6359 77.4857L91.3957 77.4666C91.6172 76.6825 91.7292 75.8511 91.716 74.9953C91.6067 70.4731 87.8181 66.9069 83.3374 66.9069H38.8581C31.7428 66.9069 24.5769 64.0801 19.0254 59.4232L24.1875 54.946C31.6918 48.4105 41.2725 44.8289 51.1446 44.8289H77.0939C77.6403 44.8289 78.0774 45.272 78.0774 45.8259C78.0774 50.6493 80.1504 54.8978 84.1439 57.5C85.7946 58.3904 89.7744 59.4388 89.7744 55.3888V45.9779C89.7744 45.2763 90.1739 44.9603 90.9389 45.1449C99.2107 48.3153 105.961 56.2955 107.319 66.4704Z" fill="url(#paint17_radial_70_5872)"/>
<path d="M104.888 86.6267C107.178 81.1362 107.957 74.8233 107.505 68.0661C106.765 57.0117 99.7069 48.247 90.9389 44.8864C90.174 44.7018 89.7744 45.0178 89.7744 45.7194V55.1981C89.7744 59.564 85.8185 58.3576 84.1678 57.4672C80.1743 54.8651 78.0774 50.3908 78.0774 45.5674C78.0774 45.0135 77.6403 44.5704 77.0939 44.5704H51.1446C41.2725 44.5704 31.6918 48.152 24.1875 54.6875L19.0254 59.1646C24.5769 63.8216 31.7428 66.6483 38.8581 66.6483H83.3374C87.8181 66.6483 91.6067 70.2146 91.716 74.7368C91.7524 77.0899 90.8417 79.259 89.3117 80.7664C84.6124 85.2886 78.9295 88.5976 72.846 90.5094V90.5462C71.9163 90.8257 63.4357 93.0218 62.5002 93.2462L70.0511 103.759C70.4629 103.535 70.9302 103.414 71.4253 103.414C71.8989 103.414 72.3724 103.414 72.846 103.377C85.9138 102.909 97.4693 96.4476 104.888 86.6267Z" fill="url(#paint18_radial_70_5872)"/>
<path d="M104.888 86.6267C107.178 81.1362 107.957 74.8233 107.505 68.0661C106.765 57.0117 99.7069 48.247 90.9389 44.8864C90.174 44.7018 89.7744 45.0178 89.7744 45.7194V55.1981C89.7744 59.564 85.8185 58.3576 84.1678 57.4672C80.1743 54.8651 78.0774 50.3908 78.0774 45.5674C78.0774 45.0135 77.6403 44.5704 77.0939 44.5704H51.1446C41.2725 44.5704 31.6918 48.152 24.1875 54.6875L19.0254 59.1646C24.5769 63.8216 31.7428 66.6483 38.8581 66.6483H83.3374C87.8181 66.6483 91.6067 70.2146 91.716 74.7368C91.7524 77.0899 90.8417 79.259 89.3117 80.7664C84.6124 85.2886 78.9295 88.5976 72.846 90.5094V90.5462C71.9163 90.8257 63.4357 93.0218 62.5002 93.2462L70.0511 103.759C70.4629 103.535 70.9302 103.414 71.4253 103.414C71.8989 103.414 72.3724 103.414 72.846 103.377C85.9138 102.909 97.4693 96.4476 104.888 86.6267Z" fill="url(#paint19_radial_70_5872)"/>
<path d="M104.888 86.6267C107.178 81.1362 107.957 74.8233 107.505 68.0661C106.765 57.0117 99.7069 48.247 90.9389 44.8864C90.174 44.7018 89.7744 45.0178 89.7744 45.7194V55.1981C89.7744 59.564 85.8185 58.3576 84.1678 57.4672C80.1743 54.8651 78.0774 50.3908 78.0774 45.5674C78.0774 45.0135 77.6403 44.5704 77.0939 44.5704H51.1446C41.2725 44.5704 31.6918 48.152 24.1875 54.6875L19.0254 59.1646C24.5769 63.8216 31.7428 66.6483 38.8581 66.6483H83.3374C87.8181 66.6483 91.6067 70.2146 91.716 74.7368C91.7524 77.0899 90.8417 79.259 89.3117 80.7664C84.6124 85.2886 78.9295 88.5976 72.846 90.5094V90.5462C71.9163 90.8257 63.4357 93.0218 62.5002 93.2462L70.0511 103.759C70.4629 103.535 70.9302 103.414 71.4253 103.414C71.8989 103.414 72.3724 103.414 72.846 103.377C85.9138 102.909 97.4693 96.4476 104.888 86.6267Z" fill="url(#paint20_radial_70_5872)"/>
<path d="M104.888 86.6267C107.178 81.1362 107.957 74.8233 107.505 68.0661C106.765 57.0117 99.7069 48.247 90.9389 44.8864C90.174 44.7018 89.7744 45.0178 89.7744 45.7194V55.1981C89.7744 59.564 85.8185 58.3576 84.1678 57.4672C80.1743 54.8651 78.0774 50.3908 78.0774 45.5674C78.0774 45.0135 77.6403 44.5704 77.0939 44.5704H51.1446C41.2725 44.5704 31.6918 48.152 24.1875 54.6875L19.0254 59.1646C24.5769 63.8216 31.7428 66.6483 38.8581 66.6483H83.3374C87.8181 66.6483 91.6067 70.2146 91.716 74.7368C91.7524 77.0899 90.8417 79.259 89.3117 80.7664C84.6124 85.2886 78.9295 88.5976 72.846 90.5094V90.5462C71.9163 90.8257 63.4357 93.0218 62.5002 93.2462L70.0511 103.759C70.4629 103.535 70.9302 103.414 71.4253 103.414C71.8989 103.414 72.3724 103.414 72.846 103.377C85.9138 102.909 97.4693 96.4476 104.888 86.6267Z" fill="url(#paint21_radial_70_5872)"/>
<path d="M60.6789 50.1176C59.6589 50.1176 58.8574 49.3087 58.8574 48.2793V40.8893C58.8574 39.8599 59.6589 39.0511 60.6789 39.0511C61.6989 39.0511 62.5003 39.8967 62.5003 40.8893V48.2793C62.5003 49.3087 61.6624 50.1176 60.6789 50.1176Z" fill="url(#paint22_linear_70_5872)"/>
<path d="M67.964 50.1176C66.944 50.1176 66.1426 49.3087 66.1426 48.2793V40.8893C66.1426 39.8599 66.944 39.0511 67.964 39.0511C68.984 39.0511 69.7854 39.8599 69.7854 40.8893V48.2793C69.7854 49.3087 68.9476 50.1176 67.964 50.1176Z" fill="url(#paint23_linear_70_5872)"/>
<g filter="url(#filter1_f_70_5872)">
<path d="M41.4461 48.7941C43.3989 48.7941 44.982 47.1964 44.982 45.2254C44.982 43.2545 43.3989 41.6568 41.4461 41.6568C39.4932 41.6568 37.9102 43.2545 37.9102 45.2254C37.9102 47.1964 39.4932 48.7941 41.4461 48.7941Z" fill="url(#paint24_linear_70_5872)"/>
</g>
<path d="M42.5003 48.2793C44.5122 48.2793 46.1431 46.6333 46.1431 44.6027C46.1431 42.5722 44.5122 40.9261 42.5003 40.9261C40.4884 40.9261 38.8574 42.5722 38.8574 44.6027C38.8574 46.6333 40.4884 48.2793 42.5003 48.2793Z" fill="url(#paint25_radial_70_5872)"/>
<path d="M42.5003 48.2793C44.5122 48.2793 46.1431 46.6333 46.1431 44.6027C46.1431 42.5722 44.5122 40.9261 42.5003 40.9261C40.4884 40.9261 38.8574 42.5722 38.8574 44.6027C38.8574 46.6333 40.4884 48.2793 42.5003 48.2793Z" fill="url(#paint26_radial_70_5872)"/>
<path d="M42.5003 48.2793C44.5122 48.2793 46.1431 46.6333 46.1431 44.6027C46.1431 42.5722 44.5122 40.9261 42.5003 40.9261C40.4884 40.9261 38.8574 42.5722 38.8574 44.6027C38.8574 46.6333 40.4884 48.2793 42.5003 48.2793Z" fill="url(#paint27_linear_70_5872)"/>
<g filter="url(#filter2_f_70_5872)">
<path d="M54.3025 81.8856C50.5031 76.7729 43.9431 76.9261 40.4141 76.7729C46.698 77.8759 48.5536 80.7942 50.8873 83.5516L57.9299 92.9185C58.1188 93.1697 58.4148 93.3175 58.7292 93.3175H61.0719C61.8734 93.3175 62.3307 92.4367 61.85 91.7954C60.0616 89.4098 56.8853 85.3613 54.3025 81.8856Z" fill="url(#paint28_linear_70_5872)"/>
</g>
<g filter="url(#filter3_f_70_5872)">
<path d="M76.2748 67.2224V75.0351C76.2748 75.4373 76.0585 76.3219 75.1934 76.6436" stroke="url(#paint29_linear_70_5872)" stroke-width="0.075"/>
</g>
<path d="M89.7358 36.5602H78.0957V46.3694C78.3119 50.8886 80.3923 55.0213 84.1673 57.4811C85.7229 58.3203 89.3261 59.4401 89.7358 55.9117V36.5602Z" fill="url(#paint30_radial_70_5872)"/>
<path d="M89.7358 36.5602H78.0957V46.3694C78.3119 50.8886 80.3923 55.0213 84.1673 57.4811C85.7229 58.3203 89.3261 59.4401 89.7358 55.9117V36.5602Z" fill="url(#paint31_radial_70_5872)"/>
<path d="M89.7358 36.5602H78.0957V46.3694C78.3119 50.8886 80.3923 55.0213 84.1673 57.4811C85.7229 58.3203 89.3261 59.4401 89.7358 55.9117V36.5602Z" fill="url(#paint32_radial_70_5872)"/>
<path d="M89.7358 36.5602H78.0957V46.3694C78.3119 50.8886 80.3923 55.0213 84.1673 57.4811C85.7229 58.3203 89.3261 59.4401 89.7358 55.9117V36.5602Z" fill="url(#paint33_radial_70_5872)"/>
<g filter="url(#filter4_f_70_5872)">
<path d="M88.8527 45.5793V55.1729C88.8527 55.532 88.9665 56.6895 87.8281 56.7814" stroke="url(#paint34_linear_70_5872)" stroke-width="0.15"/>
</g>
<g filter="url(#filter5_f_70_5872)">
<path d="M93.4629 42.4198C95.3602 43.3389 99.189 43.8674 101.375 42.7645C103.95 41.4649 104.25 37.3068 102.273 34.7169C102.142 34.5609 102.013 34.4094 101.887 34.2624C102.024 34.4074 102.153 34.5593 102.273 34.7169C106.708 39.9861 113.947 50.4099 109.856 68.041C108.888 59.5963 105.575 48.4862 93.4629 42.4198Z" fill="url(#paint35_linear_70_5872)"/>
</g>
<g filter="url(#filter6_f_70_5872)">
<path d="M98.5873 45.6365C92.5766 40.8569 79.69 40.1982 73.998 40.4663C87.8409 36.3301 98.132 41.4237 101.547 44.4876L98.5873 45.6365Z" fill="#A6BBE2"/>
</g>
<path d="M35.4901 62.6448C31.5004 66.1522 26.454 64.4036 26.454 64.4036L35.2546 56.5855C35.2546 56.5855 39.4799 59.1374 35.4901 62.6448Z" fill="url(#paint36_radial_70_5872)"/>
<path d="M37.9264 64.3296C37.7688 62.0307 37.7647 61.3077 37.2026 60.4712C36.7439 59.7973 37.2026 58.8594 36.0163 59.0685C35.4934 59.1607 33.9205 60.6572 32.3825 62.0093C30.8445 63.3613 28.3811 63.8134 28.212 64.3296C28.0428 64.8459 30.9781 65.6026 31.5836 66.1474C33.4503 67.8273 38.2391 68.8908 37.9264 64.3296Z" fill="url(#paint37_radial_70_5872)"/>
<defs>
<filter id="filter0_f_70_5872" x="95.5695" y="12.2238" width="2.82773" height="17.7864" filterUnits="userSpaceOnUse" color-interpolation-filters="sRGB">
<feFlood flood-opacity="0" result="BackgroundImageFix"/>
<feBlend mode="normal" in="SourceGraphic" in2="BackgroundImageFix" result="shape"/>
<feGaussianBlur stdDeviation="0.1" result="effect1_foregroundBlur_70_5872"/>
</filter>
<filter id="filter1_f_70_5872" x="37.4102" y="41.1568" width="8.07227" height="8.1373" filterUnits="userSpaceOnUse" color-interpolation-filters="sRGB">
<feFlood flood-opacity="0" result="BackgroundImageFix"/>
<feBlend mode="normal" in="SourceGraphic" in2="BackgroundImageFix" result="shape"/>
<feGaussianBlur stdDeviation="0.25" result="effect1_foregroundBlur_70_5872"/>
</filter>
<filter id="filter2_f_70_5872" x="39.4141" y="75.7729" width="23.6328" height="18.5446" filterUnits="userSpaceOnUse" color-interpolation-filters="sRGB">
<feFlood flood-opacity="0" result="BackgroundImageFix"/>
<feBlend mode="normal" in="SourceGraphic" in2="BackgroundImageFix" result="shape"/>
<feGaussianBlur stdDeviation="0.5" result="effect1_foregroundBlur_70_5872"/>
</filter>
<filter id="filter3_f_70_5872" x="74.9797" y="67.0224" width="1.53281" height="9.85639" filterUnits="userSpaceOnUse" color-interpolation-filters="sRGB">
<feFlood flood-opacity="0" result="BackgroundImageFix"/>
<feBlend mode="normal" in="SourceGraphic" in2="BackgroundImageFix" result="shape"/>
<feGaussianBlur stdDeviation="0.1" result="effect1_foregroundBlur_70_5872"/>
</filter>
<filter id="filter4_f_70_5872" x="87.6223" y="45.3793" width="1.50938" height="11.6769" filterUnits="userSpaceOnUse" color-interpolation-filters="sRGB">
<feFlood flood-opacity="0" result="BackgroundImageFix"/>
<feBlend mode="normal" in="SourceGraphic" in2="BackgroundImageFix" result="shape"/>
<feGaussianBlur stdDeviation="0.1" result="effect1_foregroundBlur_70_5872"/>
</filter>
<filter id="filter5_f_70_5872" x="92.4629" y="33.2624" width="19.6016" height="35.7787" filterUnits="userSpaceOnUse" color-interpolation-filters="sRGB">
<feFlood flood-opacity="0" result="BackgroundImageFix"/>
<feBlend mode="normal" in="SourceGraphic" in2="BackgroundImageFix" result="shape"/>
<feGaussianBlur stdDeviation="0.5" result="effect1_foregroundBlur_70_5872"/>
</filter>
<filter id="filter6_f_70_5872" x="72.998" y="37.9128" width="29.5488" height="8.72366" filterUnits="userSpaceOnUse" color-interpolation-filters="sRGB">
<feFlood flood-opacity="0" result="BackgroundImageFix"/>
<feBlend mode="normal" in="SourceGraphic" in2="BackgroundImageFix" result="shape"/>
<feGaussianBlur stdDeviation="0.5" result="effect1_foregroundBlur_70_5872"/>
</filter>
<linearGradient id="paint0_linear_70_5872" x1="88.454" y1="33.3434" x2="99.0846" y2="11.5768" gradientUnits="userSpaceOnUse">
<stop stop-color="#77A9E7"/>
<stop offset="1" stop-color="#8290DE"/>
</linearGradient>
<radialGradient id="paint1_radial_70_5872" cx="0" cy="0" r="1" gradientUnits="userSpaceOnUse" gradientTransform="translate(91.3 38.9158) rotate(-111.689) scale(26.3368 32.3477)">
<stop offset="0.94785" stop-color="#A46DDB" stop-opacity="0"/>
<stop offset="0.985478" stop-color="#5F9EED"/>
</radialGradient>
<linearGradient id="paint2_linear_70_5872" x1="99.6103" y1="30.586" x2="89.8201" y2="30.586" gradientUnits="userSpaceOnUse">
<stop stop-color="#9379E0"/>
<stop offset="1" stop-color="#959297" stop-opacity="0"/>
<stop offset="1" stop-color="#7F82D3" stop-opacity="0"/>
</linearGradient>
<linearGradient id="paint3_linear_70_5872" x1="96.9648" y1="15.0464" x2="96.9648" y2="34.0038" gradientUnits="userSpaceOnUse">
<stop stop-color="#B8B7BA"/>
<stop offset="1" stop-color="#B8B7BA" stop-opacity="0"/>
</linearGradient>
<linearGradient id="paint4_linear_70_5872" x1="71.5941" y1="63.5598" x2="71.5941" y2="74.3598" gradientUnits="userSpaceOnUse">
<stop stop-color="#9A99D5"/>
<stop offset="1" stop-color="#5D7EAF"/>
</linearGradient>
<radialGradient id="paint5_radial_70_5872" cx="0" cy="0" r="1" gradientUnits="userSpaceOnUse" gradientTransform="translate(77.0711 66.8343) rotate(144.662) scale(11.0245 12.8473)">
<stop offset="0.877212" stop-color="#6F617D" stop-opacity="0"/>
<stop offset="1" stop-color="#6F617D"/>
</radialGradient>
<linearGradient id="paint6_linear_70_5872" x1="36.8085" y1="44.34" x2="113.539" y2="98.4357" gradientUnits="userSpaceOnUse">
<stop stop-color="#77A9E7"/>
<stop offset="1" stop-color="#B1A0E0"/>
</linearGradient>
<radialGradient id="paint7_radial_70_5872" cx="0" cy="0" r="1" gradientUnits="userSpaceOnUse" gradientTransform="translate(36.8852 93.419) rotate(-38.8196) scale(20.894 35.6525)">
<stop offset="0.344984" stop-color="#8B7B9B"/>
<stop offset="0.788877" stop-color="#8B7B9B" stop-opacity="0"/>
</radialGradient>
<radialGradient id="paint8_radial_70_5872" cx="0" cy="0" r="1" gradientUnits="userSpaceOnUse" gradientTransform="translate(54.9856 115.249) rotate(-90) scale(3.33191 10.2342)">
<stop stop-color="#8D6FA8"/>
<stop offset="1" stop-color="#8D6FA8" stop-opacity="0"/>
</radialGradient>
<radialGradient id="paint9_radial_70_5872" cx="0" cy="0" r="1" gradientUnits="userSpaceOnUse" gradientTransform="translate(23.566 62.0531) rotate(-58.361) scale(32.1184 42.2756)">
<stop stop-color="#857C90"/>
<stop offset="1" stop-color="#857C90" stop-opacity="0"/>
</radialGradient>
<radialGradient id="paint10_radial_70_5872" cx="0" cy="0" r="1" gradientUnits="userSpaceOnUse" gradientTransform="translate(51.0012 103.415) scale(5.8058 5.85956)">
<stop stop-color="#948E9A"/>
<stop offset="1" stop-color="#948E9A" stop-opacity="0"/>
</radialGradient>
<radialGradient id="paint11_radial_70_5872" cx="0" cy="0" r="1" gradientUnits="userSpaceOnUse" gradientTransform="translate(91.0163 45.1063) rotate(78.7911) scale(3.80664 1.85503)">
<stop stop-color="#C5C2C8"/>
<stop offset="1" stop-color="#C5C2C8" stop-opacity="0"/>
</radialGradient>
<radialGradient id="paint12_radial_70_5872" cx="0" cy="0" r="1" gradientUnits="userSpaceOnUse" gradientTransform="translate(105.758 13.1085) rotate(122.194) scale(26.0674 57.8701)">
<stop stop-color="#C5C2C8"/>
<stop offset="1" stop-color="#C5C2C8" stop-opacity="0"/>
</radialGradient>
<linearGradient id="paint13_linear_70_5872" x1="63.3266" y1="51.9383" x2="63.3266" y2="90.4701" gradientUnits="userSpaceOnUse">
<stop stop-color="#E1D9EB"/>
<stop offset="1" stop-color="#E1D9EB" stop-opacity="0"/>
</linearGradient>
<linearGradient id="paint14_linear_70_5872" x1="69.1431" y1="75.6378" x2="69.1431" y2="44.8289" gradientUnits="userSpaceOnUse">
<stop offset="0.16452" stop-color="#947CAB"/>
<stop offset="1" stop-color="#947CAB" stop-opacity="0"/>
</linearGradient>
<linearGradient id="paint15_linear_70_5872" x1="104.165" y1="69.5494" x2="94.8285" y2="56.0723" gradientUnits="userSpaceOnUse">
<stop stop-color="#C8C3CF"/>
<stop offset="1" stop-color="#C8C3CF" stop-opacity="0"/>
</linearGradient>
<linearGradient id="paint16_linear_70_5872" x1="104.905" y1="57.3133" x2="91.5955" y2="63.8222" gradientUnits="userSpaceOnUse">
<stop stop-color="#D7D0E0"/>
<stop offset="1" stop-color="#C8C3CF" stop-opacity="0"/>
</linearGradient>
<radialGradient id="paint17_radial_70_5872" cx="0" cy="0" r="1" gradientUnits="userSpaceOnUse" gradientTransform="translate(73.6565 75.1792) rotate(-28.5904) scale(25.9296 17.8678)">
<stop offset="0.160063" stop-color="#947CAB"/>
<stop offset="1" stop-color="#947CAB" stop-opacity="0"/>
</radialGradient>
<radialGradient id="paint18_radial_70_5872" cx="0" cy="0" r="1" gradientUnits="userSpaceOnUse" gradientTransform="translate(81.6252 79.0568) rotate(53.5783) scale(13.4216 20.2984)">
<stop offset="0.45368" stop-color="#6D7BC4"/>
<stop offset="1" stop-color="#816B9E" stop-opacity="0"/>
</radialGradient>
<radialGradient id="paint19_radial_70_5872" cx="0" cy="0" r="1" gradientUnits="userSpaceOnUse" gradientTransform="translate(81.9667 53.8377) rotate(-10.2164) scale(8.09714 17.5093)">
<stop offset="0.151259" stop-color="#896FA2"/>
<stop offset="0.781211" stop-color="#8B779E" stop-opacity="0"/>
</radialGradient>
<radialGradient id="paint20_radial_70_5872" cx="0" cy="0" r="1" gradientUnits="userSpaceOnUse" gradientTransform="translate(68.8752 47.5761) rotate(82.4449) scale(58.8769 62.801)">
<stop offset="0.84628" stop-color="#8D6FA8" stop-opacity="0"/>
<stop offset="1" stop-color="#8D6FA8"/>
</radialGradient>
<radialGradient id="paint21_radial_70_5872" cx="0" cy="0" r="1" gradientUnits="userSpaceOnUse" gradientTransform="translate(68.6191 101.892) rotate(-34.7076) scale(3.53122 11.4025)">
<stop stop-color="#9AA4E3"/>
<stop offset="1" stop-color="#6599B6" stop-opacity="0"/>
</radialGradient>
<linearGradient id="paint22_linear_70_5872" x1="60.6628" y1="39.7546" x2="60.6628" y2="51.6341" gradientUnits="userSpaceOnUse">
<stop stop-color="#426E9B"/>
<stop offset="1" stop-color="#77A9E7"/>
</linearGradient>
<linearGradient id="paint23_linear_70_5872" x1="67.948" y1="39.7546" x2="67.948" y2="51.6341" gradientUnits="userSpaceOnUse">
<stop stop-color="#446E9B"/>
<stop offset="1" stop-color="#77A9E7"/>
</linearGradient>
<linearGradient id="paint24_linear_70_5872" x1="39.92" y1="43.8125" x2="41.1562" y2="47.8209" gradientUnits="userSpaceOnUse">
<stop offset="0.00558659" stop-color="#706977"/>
<stop offset="1" stop-color="#A594AF"/>
</linearGradient>
<radialGradient id="paint25_radial_70_5872" cx="0" cy="0" r="1" gradientUnits="userSpaceOnUse" gradientTransform="translate(43.5818 43.4197) rotate(125.587) scale(5.0861 4.52117)">
<stop offset="0.00558659" stop-color="#433437"/>
<stop offset="1" stop-color="#3B2838"/>
</radialGradient>
<radialGradient id="paint26_radial_70_5872" cx="0" cy="0" r="1" gradientUnits="userSpaceOnUse" gradientTransform="translate(43.8617 43.6836) rotate(137.38) scale(2.62996 2.31559)">
<stop stop-color="#5C5051"/>
<stop offset="1" stop-color="#5C5051" stop-opacity="0"/>
</radialGradient>
<linearGradient id="paint27_linear_70_5872" x1="41.7841" y1="41.715" x2="39.2664" y2="40.1275" gradientUnits="userSpaceOnUse">
<stop stop-color="#5C5051" stop-opacity="0"/>
<stop offset="1" stop-color="#5C5051"/>
</linearGradient>
<linearGradient id="paint28_linear_70_5872" x1="55.6685" y1="78.4963" x2="32.5507" y2="93.1242" gradientUnits="userSpaceOnUse">
<stop stop-color="#A6BAE2"/>
<stop offset="1" stop-color="#CECAD3" stop-opacity="0"/>
</linearGradient>
<linearGradient id="paint29_linear_70_5872" x1="75.1934" y1="78.4245" x2="75.1934" y2="69.8649" gradientUnits="userSpaceOnUse">
<stop stop-color="#B8B7BA"/>
<stop offset="1" stop-color="#B8B7BA" stop-opacity="0"/>
</linearGradient>
<radialGradient id="paint30_radial_70_5872" cx="0" cy="0" r="1" gradientUnits="userSpaceOnUse" gradientTransform="translate(89.7358 56.5517) rotate(-93.6655) scale(20.0324 10.7077)">
<stop stop-color="#B5B2B9"/>
<stop offset="1" stop-color="#B5B2B9" stop-opacity="0"/>
</radialGradient>
<radialGradient id="paint31_radial_70_5872" cx="0" cy="0" r="1" gradientUnits="userSpaceOnUse" gradientTransform="translate(87.829 47.073) rotate(151.498) scale(11.0756 19.9646)">
<stop offset="0.751316" stop-color="#8A8193" stop-opacity="0"/>
<stop offset="1" stop-color="#8A8193"/>
</radialGradient>
<radialGradient id="paint32_radial_70_5872" cx="0" cy="0" r="1" gradientUnits="userSpaceOnUse" gradientTransform="translate(87.3736 39.4325) rotate(90) scale(19.2446 11.2199)">
<stop offset="0.894118" stop-color="#8A8193" stop-opacity="0"/>
<stop offset="1" stop-color="#8A8193"/>
</radialGradient>
<radialGradient id="paint33_radial_70_5872" cx="0" cy="0" r="1" gradientUnits="userSpaceOnUse" gradientTransform="translate(76.445 48.3942) rotate(-55.512) scale(5.22721 1.94086)">
<stop stop-color="#959199"/>
<stop offset="1" stop-color="#959199" stop-opacity="0"/>
</radialGradient>
<linearGradient id="paint34_linear_70_5872" x1="89.1373" y1="56.4942" x2="89.1373" y2="45.5793" gradientUnits="userSpaceOnUse">
<stop stop-color="#CBC8CE"/>
<stop offset="1" stop-color="#CBC8CE" stop-opacity="0"/>
</linearGradient>
<linearGradient id="paint35_linear_70_5872" x1="102.264" y1="36.3304" x2="127.895" y2="73.0264" gradientUnits="userSpaceOnUse">
<stop stop-color="#A6BFE7"/>
<stop offset="1" stop-color="#B2C1CE" stop-opacity="0"/>
</linearGradient>
<radialGradient id="paint36_radial_70_5872" cx="0" cy="0" r="1" gradientUnits="userSpaceOnUse" gradientTransform="translate(35.2515 64.7113) rotate(-130.796) scale(5.23043 11.1321)">
<stop stop-color="#F70A8D"/>
<stop offset="1" stop-color="#89029C"/>
</radialGradient>
<radialGradient id="paint37_radial_70_5872" cx="0" cy="0" r="1" gradientUnits="userSpaceOnUse" gradientTransform="translate(38.6784 67.515) rotate(-133.743) scale(9.05009 15.4013)">
<stop stop-color="#FF1C4A"/>
<stop offset="0.765733" stop-color="#FF2B8F"/>
<stop offset="0.864496" stop-color="#BB0773"/>
<stop offset="0.886239" stop-color="#9F0762"/>
</radialGradient>
</defs>
</svg>
