<svg width="41" height="40" viewBox="0 0 41 40" fill="none" xmlns="http://www.w3.org/2000/svg">
<g clip-path="url(#clip0_196_1353)">
<rect x="0.700195" width="40" height="40" rx="20" fill="white"/>
<path d="M40.7002 34.99V40.0016H0.700195V35.0083C3.02678 31.8991 6.04671 29.3755 9.51984 27.6384C12.993 25.9013 16.8235 24.9984 20.7069 25.0016C28.8802 25.0016 36.1402 28.925 40.7002 34.99ZM27.3702 15C27.3702 16.7681 26.6678 18.4638 25.4176 19.714C24.1673 20.9643 22.4716 21.6666 20.7035 21.6666C18.9354 21.6666 17.2397 20.9643 15.9895 19.714C14.7392 18.4638 14.0369 16.7681 14.0369 15C14.0369 13.2319 14.7392 11.5362 15.9895 10.2859C17.2397 9.03569 18.9354 8.33331 20.7035 8.33331C22.4716 8.33331 24.1673 9.03569 25.4176 10.2859C26.6678 11.5362 27.3702 13.2319 27.3702 15Z" fill="url(#paint0_linear_196_1353)"/>
</g>
<defs>
<linearGradient id="paint0_linear_196_1353" x1="38.9859" y1="42.7726" x2="-5.67542" y2="29.18" gradientUnits="userSpaceOnUse">
<stop stop-color="#997BED"/>
<stop offset="0.587751" stop-color="#77A9E7"/>
<stop offset="1" stop-color="#4AE2DE"/>
</linearGradient>
<clipPath id="clip0_196_1353">
<rect x="0.700195" width="40" height="40" rx="20" fill="white"/>
</clipPath>
</defs>
</svg>
