<svg width="131" height="132" viewBox="0 0 131 132" fill="none" xmlns="http://www.w3.org/2000/svg">
<path d="M19.2149 61.7629C19.2149 61.7629 16.2198 60.8447 14.7799 58.2906C14.4294 57.652 14.0287 58.2906 14.0287 58.2906C14.0287 58.2906 11.5149 63.0149 14.2068 68.023C14.5323 68.8869 16.0974 69.2751 17.3369 69.2751C19.578 69.2751 21.2279 67.3553 21.2279 65.1267C21.2404 63.5992 20.5671 62.2136 19.2149 61.7629Z" fill="url(#paint0_radial_288_3891)"/>
<path d="M59.3594 91.3693V100.089C59.3594 105.411 62.3478 110.282 67.0966 112.698L67.465 112.902C69.3891 113.885 71.6406 112.493 71.6406 110.323V91.4102H59.3594V91.3693Z" fill="url(#paint1_linear_288_3891)"/>
<path d="M59.3594 91.3693V100.089C59.3594 105.411 62.3478 110.282 67.0966 112.698L67.465 112.902C69.3891 113.885 71.6406 112.493 71.6406 110.323V91.4102H59.3594V91.3693Z" fill="url(#paint2_radial_288_3891)"/>
<path d="M85.4052 47.1114C85.4052 45.0259 83.6379 43.4 81.5524 43.5767C65.8939 45.0259 50.094 55.029 50.094 67.2589C50.094 80.4785 68.5802 91.2239 85.4052 91.2239V47.1114Z" fill="url(#paint3_linear_288_3891)"/>
<path d="M85.4052 47.1114C85.4052 45.0259 83.6379 43.4 81.5524 43.5767C65.8939 45.0259 50.094 55.029 50.094 67.2589C50.094 80.4785 68.5802 91.2239 85.4052 91.2239V47.1114Z" fill="url(#paint4_radial_288_3891)"/>
<path d="M85.4052 47.1114C85.4052 45.0259 83.6379 43.4 81.5524 43.5767C65.8939 45.0259 50.094 55.029 50.094 67.2589C50.094 80.4785 68.5802 91.2239 85.4052 91.2239V47.1114Z" fill="url(#paint5_linear_288_3891)"/>
<g filter="url(#filter0_f_288_3891)">
<path d="M82.7178 43.9634C83.5653 43.9634 85.4043 44.747 85.4043 47.2736C85.4043 48.9623 85.4043 59.5069 85.4043 63.2808" stroke="url(#paint6_linear_288_3891)" stroke-width="0.075"/>
</g>
<path d="M75.5286 103.034H68.2418C45.5624 103.034 30.0339 96.745 9.66018 82.4826C7.85893 80.1082 7.69518 76.8332 9.25081 74.2951C15.3096 64.2245 27.1814 57.4288 38.9305 57.4288H88.9152C93.9505 57.4288 98.208 53.4579 98.3308 48.4226C98.3717 45.8026 97.3483 43.3873 95.6289 41.7088C90.348 36.6735 83.9617 32.9891 77.1252 30.8604V30.8195C75.2011 30.2463 73.2771 29.7551 71.3121 29.4276C70.1658 29.2229 68.9786 29.6732 68.2418 30.5738L61.0368 39.5801C56.1242 45.6798 48.7964 49.2413 41.0183 49.2413H35.9011C34.6321 49.2413 33.8952 47.8085 34.673 46.7851L56.0833 18.2516C56.8611 17.2282 56.9021 15.7954 56.1652 14.6901L50.7614 6.58445C50.1474 5.56101 50.8843 4.21008 52.0714 4.21008H58.7033C62.9608 4.21008 66.9727 6.33882 69.3471 9.90038L72.8268 15.0585C73.4408 15.9591 74.4233 16.4913 75.5286 16.4913C76.0608 16.4913 76.593 16.4913 77.1252 16.5323C102.506 17.4329 122.811 38.2701 122.811 63.897C122.811 90.097 101.729 103.034 75.5286 103.034Z" fill="url(#paint7_linear_288_3891)"/>
<path d="M75.5286 103.034H68.2418C45.5624 103.034 30.0339 96.745 9.66018 82.4826C7.85893 80.1082 7.69518 76.8332 9.25081 74.2951C15.3096 64.2245 27.1814 57.4288 38.9305 57.4288H88.9152C93.9505 57.4288 98.208 53.4579 98.3308 48.4226C98.3717 45.8026 97.3483 43.3873 95.6289 41.7088C90.348 36.6735 83.9617 32.9891 77.1252 30.8604V30.8195C75.2011 30.2463 73.2771 29.7551 71.3121 29.4276C70.1658 29.2229 68.9786 29.6732 68.2418 30.5738L61.0368 39.5801C56.1242 45.6798 48.7964 49.2413 41.0183 49.2413H35.9011C34.6321 49.2413 33.8952 47.8085 34.673 46.7851L56.0833 18.2516C56.8611 17.2282 56.9021 15.7954 56.1652 14.6901L50.7614 6.58445C50.1474 5.56101 50.8843 4.21008 52.0714 4.21008H58.7033C62.9608 4.21008 66.9727 6.33882 69.3471 9.90038L72.8268 15.0585C73.4408 15.9591 74.4233 16.4913 75.5286 16.4913C76.0608 16.4913 76.593 16.4913 77.1252 16.5323C102.506 17.4329 122.811 38.2701 122.811 63.897C122.811 90.097 101.729 103.034 75.5286 103.034Z" fill="url(#paint8_radial_288_3891)"/>
<path d="M75.5286 103.034H68.2418C45.5624 103.034 30.0339 96.745 9.66018 82.4826C7.85893 80.1082 7.69518 76.8332 9.25081 74.2951C15.3096 64.2245 27.1814 57.4288 38.9305 57.4288H88.9152C93.9505 57.4288 98.208 53.4579 98.3308 48.4226C98.3717 45.8026 97.3483 43.3873 95.6289 41.7088C90.348 36.6735 83.9617 32.9891 77.1252 30.8604V30.8195C75.2011 30.2463 73.2771 29.7551 71.3121 29.4276C70.1658 29.2229 68.9786 29.6732 68.2418 30.5738L61.0368 39.5801C56.1242 45.6798 48.7964 49.2413 41.0183 49.2413H35.9011C34.6321 49.2413 33.8952 47.8085 34.673 46.7851L56.0833 18.2516C56.8611 17.2282 56.9021 15.7954 56.1652 14.6901L50.7614 6.58445C50.1474 5.56101 50.8843 4.21008 52.0714 4.21008H58.7033C62.9608 4.21008 66.9727 6.33882 69.3471 9.90038L72.8268 15.0585C73.4408 15.9591 74.4233 16.4913 75.5286 16.4913C76.0608 16.4913 76.593 16.4913 77.1252 16.5323C102.506 17.4329 122.811 38.2701 122.811 63.897C122.811 90.097 101.729 103.034 75.5286 103.034Z" fill="url(#paint9_radial_288_3891)"/>
<path d="M75.5286 103.034H68.2418C45.5624 103.034 30.0339 96.745 9.66018 82.4826C7.85893 80.1082 7.69518 76.8332 9.25081 74.2951C15.3096 64.2245 27.1814 57.4288 38.9305 57.4288H88.9152C93.9505 57.4288 98.208 53.4579 98.3308 48.4226C98.3717 45.8026 97.3483 43.3873 95.6289 41.7088C90.348 36.6735 83.9617 32.9891 77.1252 30.8604V30.8195C75.2011 30.2463 73.2771 29.7551 71.3121 29.4276C70.1658 29.2229 68.9786 29.6732 68.2418 30.5738L61.0368 39.5801C56.1242 45.6798 48.7964 49.2413 41.0183 49.2413H35.9011C34.6321 49.2413 33.8952 47.8085 34.673 46.7851L56.0833 18.2516C56.8611 17.2282 56.9021 15.7954 56.1652 14.6901L50.7614 6.58445C50.1474 5.56101 50.8843 4.21008 52.0714 4.21008H58.7033C62.9608 4.21008 66.9727 6.33882 69.3471 9.90038L72.8268 15.0585C73.4408 15.9591 74.4233 16.4913 75.5286 16.4913C76.0608 16.4913 76.593 16.4913 77.1252 16.5323C102.506 17.4329 122.811 38.2701 122.811 63.897C122.811 90.097 101.729 103.034 75.5286 103.034Z" fill="url(#paint10_radial_288_3891)"/>
<path d="M75.5286 103.034H68.2418C45.5624 103.034 30.0339 96.745 9.66018 82.4826C7.85893 80.1082 7.69518 76.8332 9.25081 74.2951C15.3096 64.2245 27.1814 57.4288 38.9305 57.4288H88.9152C93.9505 57.4288 98.208 53.4579 98.3308 48.4226C98.3717 45.8026 97.3483 43.3873 95.6289 41.7088C90.348 36.6735 83.9617 32.9891 77.1252 30.8604V30.8195C75.2011 30.2463 73.2771 29.7551 71.3121 29.4276C70.1658 29.2229 68.9786 29.6732 68.2418 30.5738L61.0368 39.5801C56.1242 45.6798 48.7964 49.2413 41.0183 49.2413H35.9011C34.6321 49.2413 33.8952 47.8085 34.673 46.7851L56.0833 18.2516C56.8611 17.2282 56.9021 15.7954 56.1652 14.6901L50.7614 6.58445C50.1474 5.56101 50.8843 4.21008 52.0714 4.21008H58.7033C62.9608 4.21008 66.9727 6.33882 69.3471 9.90038L72.8268 15.0585C73.4408 15.9591 74.4233 16.4913 75.5286 16.4913C76.0608 16.4913 76.593 16.4913 77.1252 16.5323C102.506 17.4329 122.811 38.2701 122.811 63.897C122.811 90.097 101.729 103.034 75.5286 103.034Z" fill="url(#paint11_radial_288_3891)"/>
<path d="M75.5286 103.034H68.2418C45.5624 103.034 30.0339 96.745 9.66018 82.4826C7.85893 80.1082 7.69518 76.8332 9.25081 74.2951C15.3096 64.2245 27.1814 57.4288 38.9305 57.4288H88.9152C93.9505 57.4288 98.208 53.4579 98.3308 48.4226C98.3717 45.8026 97.3483 43.3873 95.6289 41.7088C90.348 36.6735 83.9617 32.9891 77.1252 30.8604V30.8195C75.2011 30.2463 73.2771 29.7551 71.3121 29.4276C70.1658 29.2229 68.9786 29.6732 68.2418 30.5738L61.0368 39.5801C56.1242 45.6798 48.7964 49.2413 41.0183 49.2413H35.9011C34.6321 49.2413 33.8952 47.8085 34.673 46.7851L56.0833 18.2516C56.8611 17.2282 56.9021 15.7954 56.1652 14.6901L50.7614 6.58445C50.1474 5.56101 50.8843 4.21008 52.0714 4.21008H58.7033C62.9608 4.21008 66.9727 6.33882 69.3471 9.90038L72.8268 15.0585C73.4408 15.9591 74.4233 16.4913 75.5286 16.4913C76.0608 16.4913 76.593 16.4913 77.1252 16.5323C102.506 17.4329 122.811 38.2701 122.811 63.897C122.811 90.097 101.729 103.034 75.5286 103.034Z" fill="url(#paint12_radial_288_3891)"/>
<path d="M75.5286 103.034H68.2418C45.5624 103.034 30.0339 96.745 9.66018 82.4826C7.85893 80.1082 7.69518 76.8332 9.25081 74.2951C15.3096 64.2245 27.1814 57.4288 38.9305 57.4288H88.9152C93.9505 57.4288 98.208 53.4579 98.3308 48.4226C98.3717 45.8026 97.3483 43.3873 95.6289 41.7088C90.348 36.6735 83.9617 32.9891 77.1252 30.8604V30.8195C75.2011 30.2463 73.2771 29.7551 71.3121 29.4276C70.1658 29.2229 68.9786 29.6732 68.2418 30.5738L61.0368 39.5801C56.1242 45.6798 48.7964 49.2413 41.0183 49.2413H35.9011C34.6321 49.2413 33.8952 47.8085 34.673 46.7851L56.0833 18.2516C56.8611 17.2282 56.9021 15.7954 56.1652 14.6901L50.7614 6.58445C50.1474 5.56101 50.8843 4.21008 52.0714 4.21008H58.7033C62.9608 4.21008 66.9727 6.33882 69.3471 9.90038L72.8268 15.0585C73.4408 15.9591 74.4233 16.4913 75.5286 16.4913C76.0608 16.4913 76.593 16.4913 77.1252 16.5323C102.506 17.4329 122.811 38.2701 122.811 63.897C122.811 90.097 101.729 103.034 75.5286 103.034Z" fill="url(#paint13_radial_288_3891)"/>
<path d="M81.2918 102.869C86.5093 102.869 85.6442 102.351 92.7082 101.08L107.496 94.7326L115.37 87.015C107.032 79.0516 110.252 81.0295 100.62 78.3467C99.7296 78.1905 99.2644 78.4579 99.2644 79.0516V90.7286C99.2644 94.1557 94.6302 93.2697 92.7082 92.5162C88.0581 90.3143 85.6442 83.0045 85.6442 78.9229C85.6442 78.4543 85.1352 78.0793 84.499 78.0793H54.2832C42.7879 78.0793 31.7129 79.7278 22.9748 85.258L17.0947 87.7513C23.5591 91.692 33.3738 99.9359 50.6168 101.388L66.3725 103.606L81.2918 102.869Z" fill="url(#paint14_linear_288_3891)"/>
<path d="M81.2918 102.869C86.5093 102.869 85.6442 102.351 92.7082 101.08L107.496 94.7326L115.37 87.015C107.032 79.0516 110.252 81.0295 100.62 78.3467C99.7296 78.1905 99.2644 78.4579 99.2644 79.0516V90.7286C99.2644 94.1557 94.6302 93.2697 92.7082 92.5162C88.0581 90.3143 85.6442 83.0045 85.6442 78.9229C85.6442 78.4543 85.1352 78.0793 84.499 78.0793H54.2832C42.7879 78.0793 31.7129 79.7278 22.9748 85.258L17.0947 87.7513C23.5591 91.692 33.3738 99.9359 50.6168 101.388L66.3725 103.606L81.2918 102.869Z" fill="url(#paint15_linear_288_3891)"/>
<path d="M81.2918 102.869C86.5093 102.869 85.6442 102.351 92.7082 101.08L107.496 94.7326L115.37 87.015C107.032 79.0516 110.252 81.0295 100.62 78.3467C99.7296 78.1905 99.2644 78.4579 99.2644 79.0516V90.7286C99.2644 94.1557 94.6302 93.2697 92.7082 92.5162C88.0581 90.3143 85.6442 83.0045 85.6442 78.9229C85.6442 78.4543 85.1352 78.0793 84.499 78.0793H54.2832C42.7879 78.0793 31.7129 79.7278 22.9748 85.258L17.0947 87.7513C23.5591 91.692 33.3738 99.9359 50.6168 101.388L66.3725 103.606L81.2918 102.869Z" fill="url(#paint16_linear_288_3891)"/>
<path d="M81.2918 102.869C86.5093 102.869 85.6442 102.351 92.7082 101.08L107.496 94.7326L115.37 87.015C107.032 79.0516 110.252 81.0295 100.62 78.3467C99.7296 78.1905 99.2644 78.4579 99.2644 79.0516V90.7286C99.2644 94.1557 94.6302 93.2697 92.7082 92.5162C88.0581 90.3143 85.6442 83.0045 85.6442 78.9229C85.6442 78.4543 85.1352 78.0793 84.499 78.0793H54.2832C42.7879 78.0793 31.7129 79.7278 22.9748 85.258L17.0947 87.7513C23.5591 91.692 33.3738 99.9359 50.6168 101.388L66.3725 103.606L81.2918 102.869Z" fill="url(#paint17_linear_288_3891)"/>
<path d="M81.2918 102.869C86.5093 102.869 85.6442 102.351 92.7082 101.08L107.496 94.7326L115.37 87.015C107.032 79.0516 110.252 81.0295 100.62 78.3467C99.7296 78.1905 99.2644 78.4579 99.2644 79.0516V90.7286C99.2644 94.1557 94.6302 93.2697 92.7082 92.5162C88.0581 90.3143 85.6442 83.0045 85.6442 78.9229C85.6442 78.4543 85.1352 78.0793 84.499 78.0793H54.2832C42.7879 78.0793 31.7129 79.7278 22.9748 85.258L17.0947 87.7513C23.5591 91.692 33.3738 99.9359 50.6168 101.388L66.3725 103.606L81.2918 102.869Z" fill="url(#paint18_radial_288_3891)"/>
<path d="M63.4531 84.4573C62.3069 84.4573 61.4062 83.5567 61.4062 82.4104V74.182C61.4062 73.0358 62.3069 72.1351 63.4531 72.1351C64.5994 72.1351 65.5 73.0767 65.5 74.182V82.4104C65.5 83.5567 64.5584 84.4573 63.4531 84.4573Z" fill="url(#paint19_linear_288_3891)"/>
<path d="M71.6406 84.4573C70.4944 84.4573 69.5938 83.5567 69.5938 82.4104V74.182C69.5938 73.0358 70.4944 72.1351 71.6406 72.1351C72.7869 72.1351 73.6875 73.0358 73.6875 74.182V82.4104C73.6875 83.5567 72.7459 84.4573 71.6406 84.4573Z" fill="url(#paint20_linear_288_3891)"/>
<g filter="url(#filter1_f_288_3891)">
<path d="M41.8408 82.9836C44.0353 82.9836 45.8143 81.2046 45.8143 79.0101C45.8143 76.8155 44.0353 75.0365 41.8408 75.0365C39.6462 75.0365 37.8672 76.8155 37.8672 79.0101C37.8672 81.2046 39.6462 82.9836 41.8408 82.9836Z" fill="url(#paint21_linear_288_3891)"/>
</g>
<path d="M43.0244 82.4105C45.2853 82.4105 47.1182 80.5776 47.1182 78.3167C47.1182 76.0558 45.2853 74.223 43.0244 74.223C40.7635 74.223 38.9307 76.0558 38.9307 78.3167C38.9307 80.5776 40.7635 82.4105 43.0244 82.4105Z" fill="url(#paint22_radial_288_3891)"/>
<path d="M43.0244 82.4105C45.2853 82.4105 47.1182 80.5776 47.1182 78.3167C47.1182 76.0558 45.2853 74.223 43.0244 74.223C40.7635 74.223 38.9307 76.0558 38.9307 78.3167C38.9307 80.5776 40.7635 82.4105 43.0244 82.4105Z" fill="url(#paint23_radial_288_3891)"/>
<path d="M43.0244 82.4105C45.2853 82.4105 47.1182 80.5776 47.1182 78.3167C47.1182 76.0558 45.2853 74.223 43.0244 74.223C40.7635 74.223 38.9307 76.0558 38.9307 78.3167C38.9307 80.5776 40.7635 82.4105 43.0244 82.4105Z" fill="url(#paint24_linear_288_3891)"/>
<g filter="url(#filter2_f_288_3891)">
<path d="M56.7048 37.8705C52.4352 43.5634 45.0632 43.3928 41.0974 43.5634C48.1591 42.3352 50.2444 39.0858 52.8669 36.0155L60.8183 25.537C61.0074 25.2878 61.3021 25.1415 61.6149 25.1415H64.5354C65.3388 25.1415 65.7972 26.0265 65.3136 26.6681C63.3301 29.2991 59.6696 33.9175 56.7048 37.8705Z" fill="url(#paint25_linear_288_3891)"/>
</g>
<g filter="url(#filter3_f_288_3891)">
<path d="M80.979 58.4512V67.1504C80.979 67.5981 80.7359 68.5832 79.7637 68.9414" stroke="url(#paint26_linear_288_3891)" stroke-width="0.075"/>
</g>
<path d="M98.7544 68.9412H85.6736V79.8634C85.9166 84.8954 88.2544 89.497 92.4967 92.2359C94.2449 93.1703 98.294 94.4172 98.7544 90.4884V68.9412Z" fill="url(#paint27_radial_288_3891)"/>
<path d="M98.7544 68.9412H85.6736V79.8634C85.9166 84.8954 88.2544 89.497 92.4967 92.2359C94.2449 93.1703 98.294 94.4172 98.7544 90.4884V68.9412Z" fill="url(#paint28_radial_288_3891)"/>
<path d="M98.7544 68.9412H85.6736V79.8634C85.9166 84.8954 88.2544 89.497 92.4967 92.2359C94.2449 93.1703 98.294 94.4172 98.7544 90.4884V68.9412Z" fill="url(#paint29_radial_288_3891)"/>
<g filter="url(#filter4_f_288_3891)">
<path d="M99.3279 80.0447V90.7268C99.3279 91.1266 99.4558 92.4155 98.1765 92.5178" stroke="url(#paint30_linear_288_3891)" stroke-width="0.15"/>
</g>
<g filter="url(#filter5_f_288_3891)">
<path d="M96.5049 29.7267C90.4897 22.7547 78.3452 22.3776 73.0249 23.0605C85.6908 16.105 95.7473 23.3471 99.1923 27.8375L96.5049 29.7267Z" fill="url(#paint31_linear_288_3891)"/>
</g>
<path d="M37.8761 95.8121C32.4402 97.8915 27.8838 94.1923 27.8838 94.1923L39.905 89.5222C39.905 89.5222 43.3121 93.7327 37.8761 95.8121Z" fill="url(#paint32_radial_288_3891)"/>
<path d="M40.071 97.6122C40.7702 95.2 41.0371 94.4586 40.7702 93.3898C40.5492 92.5265 40.6456 91.6089 40.071 91.5053C39.4964 91.4018 37.3106 92.338 35.2152 93.1396C33.1197 93.9412 30.6593 94.7357 30.2909 95.2C29.9226 95.6642 32.4172 96.2853 32.8382 97.0721C35.2152 97.6122 38.6837 102.398 40.071 97.6122Z" fill="url(#paint33_radial_288_3891)"/>
<path d="M42.8697 56.2808C42.8697 56.2808 46.3303 55.2199 47.994 52.2688C48.399 51.531 48.8619 52.2688 48.8619 52.2688C48.8619 52.2688 51.7665 57.7274 48.6562 63.5139C48.2801 64.5121 46.4718 64.9606 45.0396 64.9606C42.4502 64.9606 40.5438 62.7424 40.5438 60.1674C40.5294 58.4025 41.3073 56.8016 42.8697 56.2808Z" fill="url(#paint34_radial_288_3891)"/>
<path d="M42.8697 56.2808C42.8697 56.2808 46.3303 55.2199 47.994 52.2688C48.399 51.531 48.8619 52.2688 48.8619 52.2688C48.8619 52.2688 51.7665 57.7274 48.6562 63.5139C48.2801 64.5121 46.4718 64.9606 45.0396 64.9606C42.4502 64.9606 40.5438 62.7424 40.5438 60.1674C40.5294 58.4025 41.3073 56.8016 42.8697 56.2808Z" fill="url(#paint35_radial_288_3891)"/>
<defs>
<filter id="filter0_f_288_3891" x="82.5178" y="43.726" width="3.12412" height="19.7549" filterUnits="userSpaceOnUse" color-interpolation-filters="sRGB">
<feFlood flood-opacity="0" result="BackgroundImageFix"/>
<feBlend mode="normal" in="SourceGraphic" in2="BackgroundImageFix" result="shape"/>
<feGaussianBlur stdDeviation="0.1" result="effect1_foregroundBlur_288_3891"/>
</filter>
<filter id="filter1_f_288_3891" x="37.3672" y="74.5365" width="8.94702" height="8.94714" filterUnits="userSpaceOnUse" color-interpolation-filters="sRGB">
<feFlood flood-opacity="0" result="BackgroundImageFix"/>
<feBlend mode="normal" in="SourceGraphic" in2="BackgroundImageFix" result="shape"/>
<feGaussianBlur stdDeviation="0.25" result="effect1_foregroundBlur_288_3891"/>
</filter>
<filter id="filter2_f_288_3891" x="40.0974" y="24.1415" width="26.4141" height="20.4219" filterUnits="userSpaceOnUse" color-interpolation-filters="sRGB">
<feFlood flood-opacity="0" result="BackgroundImageFix"/>
<feBlend mode="normal" in="SourceGraphic" in2="BackgroundImageFix" result="shape"/>
<feGaussianBlur stdDeviation="0.5" result="effect1_foregroundBlur_288_3891"/>
</filter>
<filter id="filter3_f_288_3891" x="79.5507" y="58.2512" width="1.66587" height="10.9255" filterUnits="userSpaceOnUse" color-interpolation-filters="sRGB">
<feFlood flood-opacity="0" result="BackgroundImageFix"/>
<feBlend mode="normal" in="SourceGraphic" in2="BackgroundImageFix" result="shape"/>
<feGaussianBlur stdDeviation="0.1" result="effect1_foregroundBlur_288_3891"/>
</filter>
<filter id="filter4_f_288_3891" x="97.9707" y="79.8447" width="1.63584" height="12.9479" filterUnits="userSpaceOnUse" color-interpolation-filters="sRGB">
<feFlood flood-opacity="0" result="BackgroundImageFix"/>
<feBlend mode="normal" in="SourceGraphic" in2="BackgroundImageFix" result="shape"/>
<feGaussianBlur stdDeviation="0.1" result="effect1_foregroundBlur_288_3891"/>
</filter>
<filter id="filter5_f_288_3891" x="72.0249" y="19.1761" width="28.1675" height="11.5506" filterUnits="userSpaceOnUse" color-interpolation-filters="sRGB">
<feFlood flood-opacity="0" result="BackgroundImageFix"/>
<feBlend mode="normal" in="SourceGraphic" in2="BackgroundImageFix" result="shape"/>
<feGaussianBlur stdDeviation="0.5" result="effect1_foregroundBlur_288_3891"/>
</filter>
<radialGradient id="paint0_radial_288_3891" cx="0" cy="0" r="1" gradientUnits="userSpaceOnUse" gradientTransform="translate(24.223 56.1287) rotate(165.379) scale(14.8802 14.8802)">
<stop offset="0.472635" stop-color="#494DAC"/>
<stop offset="0.644517" stop-color="#7C7FC7"/>
<stop offset="0.759105" stop-color="#536EB3"/>
<stop offset="0.945555" stop-color="#327D95"/>
</radialGradient>
<linearGradient id="paint1_linear_288_3891" x1="65.4857" y1="97.4536" x2="65.4857" y2="109.479" gradientUnits="userSpaceOnUse">
<stop stop-color="#364477"/>
<stop offset="1" stop-color="#828AD6"/>
</linearGradient>
<radialGradient id="paint2_radial_288_3891" cx="0" cy="0" r="1" gradientUnits="userSpaceOnUse" gradientTransform="translate(71.6406 101.1) rotate(144.911) scale(12.3512 14.349)">
<stop offset="0.877212" stop-color="#6F617D" stop-opacity="0"/>
<stop offset="1" stop-color="#6F617D"/>
</radialGradient>
<linearGradient id="paint3_linear_288_3891" x1="75.243" y1="64.5637" x2="85.4052" y2="43.5635" gradientUnits="userSpaceOnUse">
<stop stop-color="#77A9E7"/>
<stop offset="1" stop-color="#997BED"/>
</linearGradient>
<radialGradient id="paint4_radial_288_3891" cx="0" cy="0" r="1" gradientUnits="userSpaceOnUse" gradientTransform="translate(78.0045 69.9209) rotate(-111.871) scale(25.3523 31.3471)">
<stop offset="0.94785" stop-color="#2D3EDC" stop-opacity="0"/>
<stop offset="0.985478" stop-color="#77A9E7"/>
</radialGradient>
<linearGradient id="paint5_linear_288_3891" x1="86.0679" y1="61.9127" x2="76.5685" y2="61.9127" gradientUnits="userSpaceOnUse">
<stop stop-color="#77A9E7"/>
<stop offset="1" stop-color="#929397" stop-opacity="0"/>
</linearGradient>
<linearGradient id="paint6_linear_288_3891" x1="84.061" y1="46.8419" x2="84.061" y2="67.9503" gradientUnits="userSpaceOnUse">
<stop stop-color="#B8B7BA"/>
<stop offset="1" stop-color="#B8B7BA" stop-opacity="0"/>
</linearGradient>
<linearGradient id="paint7_linear_288_3891" x1="36.6286" y1="82.2689" x2="122.327" y2="21.2913" gradientUnits="userSpaceOnUse">
<stop stop-color="#77A9E7"/>
<stop offset="1" stop-color="#997BED"/>
</linearGradient>
<radialGradient id="paint8_radial_288_3891" cx="0" cy="0" r="1" gradientUnits="userSpaceOnUse" gradientTransform="translate(36.7147 27.6213) rotate(38.5619) scale(23.3957 39.841)">
<stop offset="0.344984" stop-color="#817B9B"/>
<stop offset="0.788877" stop-color="#7F7B9B" stop-opacity="0"/>
</radialGradient>
<radialGradient id="paint9_radial_288_3891" cx="0" cy="0" r="1" gradientUnits="userSpaceOnUse" gradientTransform="translate(57.0555 3.31461) rotate(90) scale(3.70997 11.5009)">
<stop stop-color="#6F75A8"/>
<stop offset="1" stop-color="#9793C9" stop-opacity="0"/>
</radialGradient>
<radialGradient id="paint10_radial_288_3891" cx="0" cy="0" r="1" gradientUnits="userSpaceOnUse" gradientTransform="translate(21.7469 62.5461) rotate(58.1246) scale(35.8541 47.3871)">
<stop stop-color="#989DC7"/>
<stop offset="1" stop-color="#B0B6D6" stop-opacity="0"/>
</radialGradient>
<radialGradient id="paint11_radial_288_3891" cx="0" cy="0" r="1" gradientUnits="userSpaceOnUse" gradientTransform="translate(52.578 16.4914) scale(6.52441 6.52441)">
<stop stop-color="#948E9A"/>
<stop offset="1" stop-color="#948E9A" stop-opacity="0"/>
</radialGradient>
<radialGradient id="paint12_radial_288_3891" cx="0" cy="0" r="1" gradientUnits="userSpaceOnUse" gradientTransform="translate(97.5459 81.4157) rotate(-78.69) scale(4.24006 2.08391)">
<stop stop-color="#C5C2C8"/>
<stop offset="1" stop-color="#C5C2C8" stop-opacity="0"/>
</radialGradient>
<radialGradient id="paint13_radial_288_3891" cx="0" cy="0" r="1" gradientUnits="userSpaceOnUse" gradientTransform="translate(114.113 117.044) rotate(-122.433) scale(29.1017 64.8619)">
<stop stop-color="#C5C2C8"/>
<stop offset="1" stop-color="#C5C2C8" stop-opacity="0"/>
</radialGradient>
<linearGradient id="paint14_linear_288_3891" x1="66.2322" y1="81.1516" x2="66.2322" y2="97.7696" gradientUnits="userSpaceOnUse">
<stop stop-color="#E1D9EB"/>
<stop offset="1" stop-color="#E1D9EB" stop-opacity="0"/>
</linearGradient>
<linearGradient id="paint15_linear_288_3891" x1="72.8779" y1="102.161" x2="72.8779" y2="78.0793" gradientUnits="userSpaceOnUse">
<stop offset="0.16452" stop-color="#947CAB"/>
<stop offset="1" stop-color="#947CAB" stop-opacity="0"/>
</linearGradient>
<linearGradient id="paint16_linear_288_3891" x1="111.859" y1="97.4024" x2="105.726" y2="84.7958" gradientUnits="userSpaceOnUse">
<stop stop-color="#C8C3CF"/>
<stop offset="1" stop-color="#C8C3CF" stop-opacity="0"/>
</linearGradient>
<linearGradient id="paint17_linear_288_3891" x1="112.683" y1="87.8379" x2="100.32" y2="96.4467" gradientUnits="userSpaceOnUse">
<stop stop-color="#D7D0E0"/>
<stop offset="1" stop-color="#C8C3CF" stop-opacity="0"/>
</linearGradient>
<radialGradient id="paint18_radial_288_3891" cx="0" cy="0" r="1" gradientUnits="userSpaceOnUse" gradientTransform="translate(77.9015 101.803) rotate(-20.9439) scale(27.1343 14.8553)">
<stop offset="0.160063" stop-color="#947CAB"/>
<stop offset="1" stop-color="#947CAB" stop-opacity="0"/>
</radialGradient>
<linearGradient id="paint19_linear_288_3891" x1="63.4351" y1="72.9185" x2="63.4351" y2="86.1459" gradientUnits="userSpaceOnUse">
<stop stop-color="#7C9BEE"/>
<stop offset="1" stop-color="#7C97EE"/>
</linearGradient>
<linearGradient id="paint20_linear_288_3891" x1="71.6226" y1="72.9185" x2="71.6226" y2="86.1459" gradientUnits="userSpaceOnUse">
<stop stop-color="#7B9BED"/>
<stop offset="1" stop-color="#7B94ED"/>
</linearGradient>
<linearGradient id="paint21_linear_288_3891" x1="40.1258" y1="77.4368" x2="41.4918" y2="81.9071" gradientUnits="userSpaceOnUse">
<stop offset="0.00558659" stop-color="#706977"/>
<stop offset="1" stop-color="#A594AF"/>
</linearGradient>
<radialGradient id="paint22_radial_288_3891" cx="0" cy="0" r="1" gradientUnits="userSpaceOnUse" gradientTransform="translate(44.2397 76.9994) rotate(125.838) scale(5.681 5.06484)">
<stop offset="0.00558659" stop-color="#433437"/>
<stop offset="1" stop-color="#3B2838"/>
</radialGradient>
<radialGradient id="paint23_radial_288_3891" cx="0" cy="0" r="1" gradientUnits="userSpaceOnUse" gradientTransform="translate(44.5543 77.2933) rotate(137.643) scale(2.94308 2.58919)">
<stop stop-color="#5C5051"/>
<stop offset="1" stop-color="#5C5051" stop-opacity="0"/>
</radialGradient>
<linearGradient id="paint24_linear_288_3891" x1="42.2196" y1="75.1013" x2="39.4052" y2="73.3103" gradientUnits="userSpaceOnUse">
<stop stop-color="#5C5051" stop-opacity="0"/>
<stop offset="1" stop-color="#5C5051"/>
</linearGradient>
<linearGradient id="paint25_linear_288_3891" x1="58.24" y1="41.6444" x2="32.3982" y2="25.1415" gradientUnits="userSpaceOnUse">
<stop stop-color="#94ADEC"/>
<stop offset="1" stop-color="#CECAD3" stop-opacity="0"/>
</linearGradient>
<linearGradient id="paint26_linear_288_3891" x1="79.7637" y1="70.9243" x2="79.7637" y2="61.3936" gradientUnits="userSpaceOnUse">
<stop stop-color="#B8B7BA"/>
<stop offset="1" stop-color="#B8B7BA" stop-opacity="0"/>
</linearGradient>
<radialGradient id="paint27_radial_288_3891" cx="0" cy="0" r="1" gradientUnits="userSpaceOnUse" gradientTransform="translate(94.7966 103.443) rotate(-93.6993) scale(22.3062 12.0325)">
<stop stop-color="#B5B2B9"/>
<stop offset="1" stop-color="#B5B2B9" stop-opacity="0"/>
</radialGradient>
<radialGradient id="paint28_radial_288_3891" cx="0" cy="0" r="1" gradientUnits="userSpaceOnUse" gradientTransform="translate(92.142 84.3814) rotate(90) scale(21.4282 12.6087)">
<stop offset="0.894118" stop-color="#8A8193" stop-opacity="0"/>
<stop offset="1" stop-color="#8A8193"/>
</radialGradient>
<radialGradient id="paint29_radial_288_3891" cx="0" cy="0" r="1" gradientUnits="userSpaceOnUse" gradientTransform="translate(79.8608 94.3599) rotate(-55.2651) scale(5.83764 2.17461)">
<stop stop-color="#959199"/>
<stop offset="1" stop-color="#959199" stop-opacity="0"/>
</radialGradient>
<linearGradient id="paint30_linear_288_3891" x1="99.6477" y1="92.198" x2="99.6477" y2="80.0447" gradientUnits="userSpaceOnUse">
<stop stop-color="#CBC8CE"/>
<stop offset="1" stop-color="#CBC8CE" stop-opacity="0"/>
</linearGradient>
<linearGradient id="paint31_linear_288_3891" x1="93.6775" y1="24.7504" x2="83.3733" y2="9.54559" gradientUnits="userSpaceOnUse">
<stop stop-color="#88AEED"/>
<stop offset="1" stop-color="#C5C2C8" stop-opacity="0"/>
</linearGradient>
<radialGradient id="paint32_radial_288_3891" cx="0" cy="0" r="1" gradientUnits="userSpaceOnUse" gradientTransform="translate(36.8547 97.8366) rotate(-110.933) scale(5.72323 12.1968)">
<stop stop-color="#F70A8D"/>
<stop offset="1" stop-color="#89029C"/>
</radialGradient>
<radialGradient id="paint33_radial_288_3891" cx="0" cy="0" r="1" gradientUnits="userSpaceOnUse" gradientTransform="translate(39.3429 102.003) rotate(-113.883) scale(9.90745 16.8665)">
<stop stop-color="#FF1C4A"/>
<stop offset="0.765733" stop-color="#FF2B8F"/>
<stop offset="0.864496" stop-color="#BB0773"/>
<stop offset="0.886239" stop-color="#9F0762"/>
</radialGradient>
<radialGradient id="paint34_radial_288_3891" cx="0" cy="0" r="1" gradientUnits="userSpaceOnUse" gradientTransform="translate(29.8412 54.8342) rotate(-8.36589) scale(24.8572 24.8572)">
<stop offset="0.472635" stop-color="#4A6D98"/>
<stop offset="0.727168" stop-color="#3A6E9D"/>
<stop offset="0.945555" stop-color="#3E2F9F"/>
</radialGradient>
<radialGradient id="paint35_radial_288_3891" cx="0" cy="0" r="1" gradientUnits="userSpaceOnUse" gradientTransform="translate(48.6474 54.1109) rotate(103.134) scale(22.2823 7.63887)">
<stop stop-color="#8677E7"/>
<stop offset="0.305394" stop-color="#7685D6" stop-opacity="0"/>
</radialGradient>
</defs>
</svg>
