<svg width="131" height="132" viewBox="0 0 131 132" fill="none" xmlns="http://www.w3.org/2000/svg">
<path d="M98.9283 15.1903C98.9283 13.0211 97.1068 11.3299 94.9576 11.5137C78.8197 13.0211 62.5361 23.4258 62.5361 36.1468C62.5361 49.8973 81.5883 61.0741 98.9283 61.0741V15.1903Z" fill="url(#paint0_linear_288_3936)"/>
<path d="M98.9283 15.1903C98.9283 13.0211 97.1068 11.3299 94.9576 11.5137C78.8197 13.0211 62.5361 23.4258 62.5361 36.1468C62.5361 49.8973 81.5883 61.0741 98.9283 61.0741V15.1903Z" fill="url(#paint1_radial_288_3936)"/>
<path d="M98.9283 15.1903C98.9283 13.0211 97.1068 11.3299 94.9576 11.5137C78.8197 13.0211 62.5361 23.4258 62.5361 36.1468C62.5361 49.8973 81.5883 61.0741 98.9283 61.0741V15.1903Z" fill="url(#paint2_linear_288_3936)"/>
<g filter="url(#filter0_f_288_3936)">
<path d="M95.769 12.4613C96.5232 12.4613 98.1597 13.165 98.1597 15.4342C98.1597 16.9508 98.1597 26.4208 98.1597 29.8102" stroke="url(#paint3_linear_288_3936)" stroke-width="0.075"/>
</g>
<path d="M66.1423 58.0955V65.9267C66.1423 70.7062 68.8016 75.0814 73.0273 77.2505L73.3552 77.4344C75.0673 78.3168 77.0709 77.0667 77.0709 75.1181V58.1323H66.1423V58.0955Z" fill="url(#paint4_linear_288_3936)"/>
<path d="M66.1423 58.0955V65.9267C66.1423 70.7062 68.8016 75.0814 73.0273 77.2505L73.3552 77.4344C75.0673 78.3168 77.0709 77.0667 77.0709 75.1181V58.1323H66.1423V58.0955Z" fill="url(#paint5_radial_288_3936)"/>
<path d="M71.3148 18.2649H65.4498C45.2683 18.2649 24.9412 27.8608 12.8105 44.1481C11.2076 46.2805 11.0619 49.2218 12.4462 51.5012C17.8376 60.5456 28.4019 66.6488 38.8569 66.6488H83.3362C87.8169 66.6488 91.6055 70.2151 91.7148 74.7373C91.7512 77.0903 90.8405 79.2595 89.3105 80.7669C84.6112 85.2891 78.9283 88.598 72.8448 90.5098V90.5466C71.1326 91.0613 69.4205 91.5025 67.6719 91.7966C66.6519 91.9805 65.5955 91.576 64.9398 90.7672L58.5283 82.6787C54.1569 77.2006 47.6362 74.0019 40.7148 74.0019H36.1612C35.0319 74.0019 34.3762 75.2888 35.0683 76.2079L54.1205 101.834C54.8126 102.753 54.849 104.04 54.1933 105.032L49.3848 112.312C48.8383 113.231 49.494 114.444 50.5505 114.444H56.4519C60.2405 114.444 63.8105 112.533 65.9233 109.334L69.0198 104.701C69.5662 103.893 70.4405 103.415 71.424 103.415C71.8976 103.415 72.3712 103.415 72.8448 103.378C95.4305 102.569 113.499 83.8552 113.499 60.8398C113.499 37.3096 94.629 18.2649 71.3148 18.2649Z" fill="url(#paint6_linear_288_3936)"/>
<path d="M71.3148 18.2649H65.4498C45.2683 18.2649 24.9412 27.8608 12.8105 44.1481C11.2076 46.2805 11.0619 49.2218 12.4462 51.5012C17.8376 60.5456 28.4019 66.6488 38.8569 66.6488H83.3362C87.8169 66.6488 91.6055 70.2151 91.7148 74.7373C91.7512 77.0903 90.8405 79.2595 89.3105 80.7669C84.6112 85.2891 78.9283 88.598 72.8448 90.5098V90.5466C71.1326 91.0613 69.4205 91.5025 67.6719 91.7966C66.6519 91.9805 65.5955 91.576 64.9398 90.7672L58.5283 82.6787C54.1569 77.2006 47.6362 74.0019 40.7148 74.0019H36.1612C35.0319 74.0019 34.3762 75.2888 35.0683 76.2079L54.1205 101.834C54.8126 102.753 54.849 104.04 54.1933 105.032L49.3848 112.312C48.8383 113.231 49.494 114.444 50.5505 114.444H56.4519C60.2405 114.444 63.8105 112.533 65.9233 109.334L69.0198 104.701C69.5662 103.893 70.4405 103.415 71.424 103.415C71.8976 103.415 72.3712 103.415 72.8448 103.378C95.4305 102.569 113.499 83.8552 113.499 60.8398C113.499 37.3096 94.629 18.2649 71.3148 18.2649Z" fill="url(#paint7_radial_288_3936)"/>
<path d="M71.3148 18.2649H65.4498C45.2683 18.2649 24.9412 27.8608 12.8105 44.1481C11.2076 46.2805 11.0619 49.2218 12.4462 51.5012C17.8376 60.5456 28.4019 66.6488 38.8569 66.6488H83.3362C87.8169 66.6488 91.6055 70.2151 91.7148 74.7373C91.7512 77.0903 90.8405 79.2595 89.3105 80.7669C84.6112 85.2891 78.9283 88.598 72.8448 90.5098V90.5466C71.1326 91.0613 69.4205 91.5025 67.6719 91.7966C66.6519 91.9805 65.5955 91.576 64.9398 90.7672L58.5283 82.6787C54.1569 77.2006 47.6362 74.0019 40.7148 74.0019H36.1612C35.0319 74.0019 34.3762 75.2888 35.0683 76.2079L54.1205 101.834C54.8126 102.753 54.849 104.04 54.1933 105.032L49.3848 112.312C48.8383 113.231 49.494 114.444 50.5505 114.444H56.4519C60.2405 114.444 63.8105 112.533 65.9233 109.334L69.0198 104.701C69.5662 103.893 70.4405 103.415 71.424 103.415C71.8976 103.415 72.3712 103.415 72.8448 103.378C95.4305 102.569 113.499 83.8552 113.499 60.8398C113.499 37.3096 94.629 18.2649 71.3148 18.2649Z" fill="url(#paint8_radial_288_3936)"/>
<path d="M71.3148 18.2649H65.4498C45.2683 18.2649 24.9412 27.8608 12.8105 44.1481C11.2076 46.2805 11.0619 49.2218 12.4462 51.5012C17.8376 60.5456 28.4019 66.6488 38.8569 66.6488H83.3362C87.8169 66.6488 91.6055 70.2151 91.7148 74.7373C91.7512 77.0903 90.8405 79.2595 89.3105 80.7669C84.6112 85.2891 78.9283 88.598 72.8448 90.5098V90.5466C71.1326 91.0613 69.4205 91.5025 67.6719 91.7966C66.6519 91.9805 65.5955 91.576 64.9398 90.7672L58.5283 82.6787C54.1569 77.2006 47.6362 74.0019 40.7148 74.0019H36.1612C35.0319 74.0019 34.3762 75.2888 35.0683 76.2079L54.1205 101.834C54.8126 102.753 54.849 104.04 54.1933 105.032L49.3848 112.312C48.8383 113.231 49.494 114.444 50.5505 114.444H56.4519C60.2405 114.444 63.8105 112.533 65.9233 109.334L69.0198 104.701C69.5662 103.893 70.4405 103.415 71.424 103.415C71.8976 103.415 72.3712 103.415 72.8448 103.378C95.4305 102.569 113.499 83.8552 113.499 60.8398C113.499 37.3096 94.629 18.2649 71.3148 18.2649Z" fill="url(#paint9_radial_288_3936)"/>
<path d="M71.3148 18.2649H65.4498C45.2683 18.2649 24.9412 27.8608 12.8105 44.1481C11.2076 46.2805 11.0619 49.2218 12.4462 51.5012C17.8376 60.5456 28.4019 66.6488 38.8569 66.6488H83.3362C87.8169 66.6488 91.6055 70.2151 91.7148 74.7373C91.7512 77.0903 90.8405 79.2595 89.3105 80.7669C84.6112 85.2891 78.9283 88.598 72.8448 90.5098V90.5466C71.1326 91.0613 69.4205 91.5025 67.6719 91.7966C66.6519 91.9805 65.5955 91.576 64.9398 90.7672L58.5283 82.6787C54.1569 77.2006 47.6362 74.0019 40.7148 74.0019H36.1612C35.0319 74.0019 34.3762 75.2888 35.0683 76.2079L54.1205 101.834C54.8126 102.753 54.849 104.04 54.1933 105.032L49.3848 112.312C48.8383 113.231 49.494 114.444 50.5505 114.444H56.4519C60.2405 114.444 63.8105 112.533 65.9233 109.334L69.0198 104.701C69.5662 103.893 70.4405 103.415 71.424 103.415C71.8976 103.415 72.3712 103.415 72.8448 103.378C95.4305 102.569 113.499 83.8552 113.499 60.8398C113.499 37.3096 94.629 18.2649 71.3148 18.2649Z" fill="url(#paint10_radial_288_3936)"/>
<path d="M71.3148 18.2649H65.4498C45.2683 18.2649 24.9412 27.8608 12.8105 44.1481C11.2076 46.2805 11.0619 49.2218 12.4462 51.5012C17.8376 60.5456 28.4019 66.6488 38.8569 66.6488H83.3362C87.8169 66.6488 91.6055 70.2151 91.7148 74.7373C91.7512 77.0903 90.8405 79.2595 89.3105 80.7669C84.6112 85.2891 78.9283 88.598 72.8448 90.5098V90.5466C71.1326 91.0613 69.4205 91.5025 67.6719 91.7966C66.6519 91.9805 65.5955 91.576 64.9398 90.7672L58.5283 82.6787C54.1569 77.2006 47.6362 74.0019 40.7148 74.0019H36.1612C35.0319 74.0019 34.3762 75.2888 35.0683 76.2079L54.1205 101.834C54.8126 102.753 54.849 104.04 54.1933 105.032L49.3848 112.312C48.8383 113.231 49.494 114.444 50.5505 114.444H56.4519C60.2405 114.444 63.8105 112.533 65.9233 109.334L69.0198 104.701C69.5662 103.893 70.4405 103.415 71.424 103.415C71.8976 103.415 72.3712 103.415 72.8448 103.378C95.4305 102.569 113.499 83.8552 113.499 60.8398C113.499 37.3096 94.629 18.2649 71.3148 18.2649Z" fill="url(#paint11_radial_288_3936)"/>
<path d="M71.3148 18.2649H65.4498C45.2683 18.2649 24.9412 27.8608 12.8105 44.1481C11.2076 46.2805 11.0619 49.2218 12.4462 51.5012C17.8376 60.5456 28.4019 66.6488 38.8569 66.6488H83.3362C87.8169 66.6488 91.6055 70.2151 91.7148 74.7373C91.7512 77.0903 90.8405 79.2595 89.3105 80.7669C84.6112 85.2891 78.9283 88.598 72.8448 90.5098V90.5466C71.1326 91.0613 69.4205 91.5025 67.6719 91.7966C66.6519 91.9805 65.5955 91.576 64.9398 90.7672L58.5283 82.6787C54.1569 77.2006 47.6362 74.0019 40.7148 74.0019H36.1612C35.0319 74.0019 34.3762 75.2888 35.0683 76.2079L54.1205 101.834C54.8126 102.753 54.849 104.04 54.1933 105.032L49.3848 112.312C48.8383 113.231 49.494 114.444 50.5505 114.444H56.4519C60.2405 114.444 63.8105 112.533 65.9233 109.334L69.0198 104.701C69.5662 103.893 70.4405 103.415 71.424 103.415C71.8976 103.415 72.3712 103.415 72.8448 103.378C95.4305 102.569 113.499 83.8552 113.499 60.8398C113.499 37.3096 94.629 18.2649 71.3148 18.2649Z" fill="url(#paint12_radial_288_3936)"/>
<path d="M104.887 86.8708C107.177 81.3803 107.957 75.0674 107.504 68.3103C106.764 57.2559 99.7062 48.4912 90.9382 45.1305C90.1732 44.9459 89.7737 45.262 89.7737 45.9635V55.4422C89.7737 59.4819 85.8081 58.3904 84.1574 57.5C80.173 54.9292 78.0767 50.6349 78.0767 45.8115C78.0767 45.2577 77.6396 44.8146 77.0932 44.8146H51.1439C41.2718 44.8146 31.6911 48.3962 24.1868 54.9316L19.0247 59.4088C24.5762 64.0657 31.7421 66.8925 38.8574 66.8925H83.3366C87.8174 66.8925 91.606 70.4588 91.7153 74.981C91.7516 77.334 90.8409 79.5032 89.311 81.0106C84.6117 85.5328 78.9288 88.8417 72.8453 90.7535V90.7903C71.9156 91.0698 70.9859 91.3276 70.0503 91.552V104.003C70.4621 103.779 70.9295 103.658 71.4245 103.658C71.8981 103.658 72.3717 103.658 72.8453 103.622C85.913 103.154 97.4686 96.6917 104.887 86.8708Z" fill="url(#paint13_linear_288_3936)"/>
<path d="M107.319 66.4704L91.6352 77.4857L91.3949 77.4666C91.6164 76.6825 91.7285 75.8511 91.7153 74.9954C91.606 70.4732 87.8174 66.9069 83.3366 66.9069H38.8574C31.7421 66.9069 24.5762 64.0801 19.0247 59.4232L24.1868 54.946C31.6911 48.4106 41.2718 44.829 51.1439 44.829H77.0931C77.6395 44.829 78.0767 45.2721 78.0767 45.8259C78.0767 50.6493 80.1497 54.8979 84.1432 57.5C85.7938 58.3904 89.7737 59.4388 89.7737 55.3888V45.9779C89.7737 45.2764 90.1732 44.9603 90.9382 45.1449C99.2099 48.3154 105.96 56.2955 107.319 66.4704Z" fill="url(#paint14_linear_288_3936)"/>
<path d="M107.319 66.4704L91.6352 77.4857L91.3949 77.4666C91.6164 76.6825 91.7285 75.8511 91.7153 74.9954C91.606 70.4732 87.8174 66.9069 83.3366 66.9069H38.8574C31.7421 66.9069 24.5762 64.0801 19.0247 59.4232L24.1868 54.946C31.6911 48.4106 41.2718 44.829 51.1439 44.829H77.0931C77.6395 44.829 78.0767 45.2721 78.0767 45.8259C78.0767 50.6493 80.1497 54.8979 84.1432 57.5C85.7938 58.3904 89.7737 59.4388 89.7737 55.3888V45.9779C89.7737 45.2764 90.1732 44.9603 90.9382 45.1449C99.2099 48.3154 105.96 56.2955 107.319 66.4704Z" fill="url(#paint15_linear_288_3936)"/>
<path d="M107.319 66.4704L91.6352 77.4857L91.3949 77.4666C91.6164 76.6825 91.7285 75.8511 91.7153 74.9954C91.606 70.4732 87.8174 66.9069 83.3366 66.9069H38.8574C31.7421 66.9069 24.5762 64.0801 19.0247 59.4232L24.1868 54.946C31.6911 48.4106 41.2718 44.829 51.1439 44.829H77.0931C77.6395 44.829 78.0767 45.2721 78.0767 45.8259C78.0767 50.6493 80.1497 54.8979 84.1432 57.5C85.7938 58.3904 89.7737 59.4388 89.7737 55.3888V45.9779C89.7737 45.2764 90.1732 44.9603 90.9382 45.1449C99.2099 48.3154 105.96 56.2955 107.319 66.4704Z" fill="url(#paint16_linear_288_3936)"/>
<path d="M107.319 66.4704L91.6352 77.4857L91.3949 77.4666C91.6164 76.6825 91.7285 75.8511 91.7153 74.9954C91.606 70.4732 87.8174 66.9069 83.3366 66.9069H38.8574C31.7421 66.9069 24.5762 64.0801 19.0247 59.4232L24.1868 54.946C31.6911 48.4106 41.2718 44.829 51.1439 44.829H77.0931C77.6395 44.829 78.0767 45.2721 78.0767 45.8259C78.0767 50.6493 80.1497 54.8979 84.1432 57.5C85.7938 58.3904 89.7737 59.4388 89.7737 55.3888V45.9779C89.7737 45.2764 90.1732 44.9603 90.9382 45.1449C99.2099 48.3154 105.96 56.2955 107.319 66.4704Z" fill="url(#paint17_radial_288_3936)"/>
<path d="M104.887 86.6267C107.177 81.1362 107.957 74.8233 107.504 68.0661C106.764 57.0117 99.7062 48.247 90.9382 44.8864C90.1732 44.7018 89.7737 45.0178 89.7737 45.7194V55.1981C89.7737 59.564 85.8178 58.3576 84.1671 57.4672C80.1736 54.8651 78.0767 50.3908 78.0767 45.5674C78.0767 45.0135 77.6396 44.5704 77.0932 44.5704H51.1439C41.2718 44.5704 31.6911 48.152 24.1868 54.6875L19.0247 59.1646C24.5762 63.8216 31.7421 66.6483 38.8574 66.6483H83.3366C87.8174 66.6483 91.606 70.2146 91.7153 74.7368C91.7516 77.0899 90.8409 79.259 89.311 80.7664C84.6117 85.2886 78.9288 88.5976 72.8453 90.5094V90.5462C71.9156 90.8257 63.435 93.0218 62.4995 93.2462L70.0503 103.759C70.4621 103.535 70.9295 103.414 71.4245 103.414C71.8981 103.414 72.3717 103.414 72.8453 103.377C85.913 102.909 97.4686 96.4476 104.887 86.6267Z" fill="url(#paint18_radial_288_3936)"/>
<path d="M104.887 86.6267C107.177 81.1362 107.957 74.8233 107.504 68.0661C106.764 57.0117 99.7062 48.247 90.9382 44.8864C90.1732 44.7018 89.7737 45.0178 89.7737 45.7194V55.1981C89.7737 59.564 85.8178 58.3576 84.1671 57.4672C80.1736 54.8651 78.0767 50.3908 78.0767 45.5674C78.0767 45.0135 77.6396 44.5704 77.0932 44.5704H51.1439C41.2718 44.5704 31.6911 48.152 24.1868 54.6875L19.0247 59.1646C24.5762 63.8216 31.7421 66.6483 38.8574 66.6483H83.3366C87.8174 66.6483 91.606 70.2146 91.7153 74.7368C91.7516 77.0899 90.8409 79.259 89.311 80.7664C84.6117 85.2886 78.9288 88.5976 72.8453 90.5094V90.5462C71.9156 90.8257 63.435 93.0218 62.4995 93.2462L70.0503 103.759C70.4621 103.535 70.9295 103.414 71.4245 103.414C71.8981 103.414 72.3717 103.414 72.8453 103.377C85.913 102.909 97.4686 96.4476 104.887 86.6267Z" fill="url(#paint19_radial_288_3936)"/>
<path d="M104.887 86.6267C107.177 81.1362 107.957 74.8233 107.504 68.0661C106.764 57.0117 99.7062 48.247 90.9382 44.8864C90.1732 44.7018 89.7737 45.0178 89.7737 45.7194V55.1981C89.7737 59.564 85.8178 58.3576 84.1671 57.4672C80.1736 54.8651 78.0767 50.3908 78.0767 45.5674C78.0767 45.0135 77.6396 44.5704 77.0932 44.5704H51.1439C41.2718 44.5704 31.6911 48.152 24.1868 54.6875L19.0247 59.1646C24.5762 63.8216 31.7421 66.6483 38.8574 66.6483H83.3366C87.8174 66.6483 91.606 70.2146 91.7153 74.7368C91.7516 77.0899 90.8409 79.259 89.311 80.7664C84.6117 85.2886 78.9288 88.5976 72.8453 90.5094V90.5462C71.9156 90.8257 63.435 93.0218 62.4995 93.2462L70.0503 103.759C70.4621 103.535 70.9295 103.414 71.4245 103.414C71.8981 103.414 72.3717 103.414 72.8453 103.377C85.913 102.909 97.4686 96.4476 104.887 86.6267Z" fill="url(#paint20_radial_288_3936)"/>
<path d="M104.887 86.6267C107.177 81.1362 107.957 74.8233 107.504 68.0661C106.764 57.0117 99.7062 48.247 90.9382 44.8864C90.1732 44.7018 89.7737 45.0178 89.7737 45.7194V55.1981C89.7737 59.564 85.8178 58.3576 84.1671 57.4672C80.1736 54.8651 78.0767 50.3908 78.0767 45.5674C78.0767 45.0135 77.6396 44.5704 77.0932 44.5704H51.1439C41.2718 44.5704 31.6911 48.152 24.1868 54.6875L19.0247 59.1646C24.5762 63.8216 31.7421 66.6483 38.8574 66.6483H83.3366C87.8174 66.6483 91.606 70.2146 91.7153 74.7368C91.7516 77.0899 90.8409 79.259 89.311 80.7664C84.6117 85.2886 78.9288 88.5976 72.8453 90.5094V90.5462C71.9156 90.8257 63.435 93.0218 62.4995 93.2462L70.0503 103.759C70.4621 103.535 70.9295 103.414 71.4245 103.414C71.8981 103.414 72.3717 103.414 72.8453 103.377C85.913 102.909 97.4686 96.4476 104.887 86.6267Z" fill="url(#paint21_radial_288_3936)"/>
<path d="M60.6781 50.1176C59.6581 50.1176 58.8567 49.3088 58.8567 48.2793V40.8894C58.8567 39.8599 59.6581 39.0511 60.6781 39.0511C61.6981 39.0511 62.4995 39.8967 62.4995 40.8894V48.2793C62.4995 49.3088 61.6617 50.1176 60.6781 50.1176Z" fill="url(#paint22_linear_288_3936)"/>
<path d="M67.9638 50.1176C66.9438 50.1176 66.1423 49.3088 66.1423 48.2793V40.8894C66.1423 39.8599 66.9438 39.0511 67.9638 39.0511C68.9838 39.0511 69.7852 39.8599 69.7852 40.8894V48.2793C69.7852 49.3088 68.9473 50.1176 67.9638 50.1176Z" fill="url(#paint23_linear_288_3936)"/>
<g filter="url(#filter1_f_288_3936)">
<path d="M41.4461 48.7941C43.3989 48.7941 44.982 47.1964 44.982 45.2254C44.982 43.2545 43.3989 41.6568 41.4461 41.6568C39.4932 41.6568 37.9102 43.2545 37.9102 45.2254C37.9102 47.1964 39.4932 48.7941 41.4461 48.7941Z" fill="url(#paint24_linear_288_3936)"/>
</g>
<path d="M42.5003 48.2793C44.5122 48.2793 46.1431 46.6333 46.1431 44.6027C46.1431 42.5722 44.5122 40.9261 42.5003 40.9261C40.4884 40.9261 38.8574 42.5722 38.8574 44.6027C38.8574 46.6333 40.4884 48.2793 42.5003 48.2793Z" fill="url(#paint25_radial_288_3936)"/>
<path d="M42.5003 48.2793C44.5122 48.2793 46.1431 46.6333 46.1431 44.6027C46.1431 42.5722 44.5122 40.9261 42.5003 40.9261C40.4884 40.9261 38.8574 42.5722 38.8574 44.6027C38.8574 46.6333 40.4884 48.2793 42.5003 48.2793Z" fill="url(#paint26_radial_288_3936)"/>
<path d="M42.5003 48.2793C44.5122 48.2793 46.1431 46.6333 46.1431 44.6027C46.1431 42.5722 44.5122 40.9261 42.5003 40.9261C40.4884 40.9261 38.8574 42.5722 38.8574 44.6027C38.8574 46.6333 40.4884 48.2793 42.5003 48.2793Z" fill="url(#paint27_linear_288_3936)"/>
<g filter="url(#filter2_f_288_3936)">
<path d="M54.3032 81.8856C50.5038 76.7729 43.9438 76.9261 40.4148 76.7729C46.6987 77.8759 48.5543 80.7942 50.888 83.5516L57.9306 92.9185C58.1195 93.1697 58.4156 93.3175 58.7299 93.3175H61.0726C61.8741 93.3175 62.3314 92.4367 61.8507 91.7954C60.0623 89.4098 56.886 85.3613 54.3032 81.8856Z" fill="url(#paint28_linear_288_3936)"/>
</g>
<g filter="url(#filter3_f_288_3936)">
<path d="M76.2741 67.2224V75.0352C76.2741 75.4373 76.0578 76.322 75.1926 76.6437" stroke="url(#paint29_linear_288_3936)" stroke-width="0.075"/>
</g>
<path d="M89.7355 36.5602H78.0955V46.3694C78.3117 50.8886 80.392 55.0214 84.1671 57.4812C85.7227 58.3203 89.3259 59.4401 89.7355 55.9117V36.5602Z" fill="url(#paint30_radial_288_3936)"/>
<path d="M89.7355 36.5602H78.0955V46.3694C78.3117 50.8886 80.392 55.0214 84.1671 57.4812C85.7227 58.3203 89.3259 59.4401 89.7355 55.9117V36.5602Z" fill="url(#paint31_radial_288_3936)"/>
<path d="M89.7355 36.5602H78.0955V46.3694C78.3117 50.8886 80.392 55.0214 84.1671 57.4812C85.7227 58.3203 89.3259 59.4401 89.7355 55.9117V36.5602Z" fill="url(#paint32_radial_288_3936)"/>
<path d="M89.7355 36.5602H78.0955V46.3694C78.3117 50.8886 80.392 55.0214 84.1671 57.4812C85.7227 58.3203 89.3259 59.4401 89.7355 55.9117V36.5602Z" fill="url(#paint33_radial_288_3936)"/>
<g filter="url(#filter4_f_288_3936)">
<path d="M88.8534 45.5793V55.1729C88.8534 55.532 88.9672 56.6895 87.8289 56.7814" stroke="url(#paint34_linear_288_3936)" stroke-width="0.15"/>
</g>
<g filter="url(#filter5_f_288_3936)">
<path d="M93.4639 42.4198C95.3612 43.3389 99.19 43.8674 101.376 42.7644C103.951 41.4648 104.251 37.3068 102.274 34.7169C102.143 34.5609 102.014 34.4094 101.888 34.2623C102.025 34.4074 102.154 34.5592 102.274 34.7169C106.709 39.9861 113.948 50.4099 109.857 68.041C108.889 59.5963 105.576 48.4861 93.4639 42.4198Z" fill="url(#paint35_linear_288_3936)"/>
</g>
<g filter="url(#filter6_f_288_3936)">
<path d="M98.5866 45.6365C92.5759 40.8569 79.6893 40.1982 73.9973 40.4663C87.8402 36.3301 98.1312 41.4237 101.546 44.4876L98.5866 45.6365Z" fill="#A6BBE2"/>
</g>
<path d="M35.4909 62.6448C31.5011 66.1522 26.4548 64.4036 26.4548 64.4036L35.2553 56.5855C35.2553 56.5855 39.4806 59.1374 35.4909 62.6448Z" fill="url(#paint36_radial_288_3936)"/>
<path d="M37.9274 64.3296C37.7697 62.0307 37.7657 61.3077 37.2036 60.4712C36.7449 59.7973 37.2036 58.8594 36.0173 59.0685C35.4944 59.1607 33.9215 60.6572 32.3835 62.0093C30.8455 63.3613 28.3821 63.8134 28.2129 64.3296C28.0437 64.8459 30.979 65.6026 31.5845 66.1474C33.4513 67.8273 38.2401 68.8908 37.9274 64.3296Z" fill="url(#paint37_radial_288_3936)"/>
<defs>
<filter id="filter0_f_288_3936" x="95.569" y="12.2238" width="2.82822" height="17.7864" filterUnits="userSpaceOnUse" color-interpolation-filters="sRGB">
<feFlood flood-opacity="0" result="BackgroundImageFix"/>
<feBlend mode="normal" in="SourceGraphic" in2="BackgroundImageFix" result="shape"/>
<feGaussianBlur stdDeviation="0.1" result="effect1_foregroundBlur_288_3936"/>
</filter>
<filter id="filter1_f_288_3936" x="37.4102" y="41.1568" width="8.07178" height="8.13733" filterUnits="userSpaceOnUse" color-interpolation-filters="sRGB">
<feFlood flood-opacity="0" result="BackgroundImageFix"/>
<feBlend mode="normal" in="SourceGraphic" in2="BackgroundImageFix" result="shape"/>
<feGaussianBlur stdDeviation="0.25" result="effect1_foregroundBlur_288_3936"/>
</filter>
<filter id="filter2_f_288_3936" x="39.4148" y="75.7729" width="23.6321" height="18.5447" filterUnits="userSpaceOnUse" color-interpolation-filters="sRGB">
<feFlood flood-opacity="0" result="BackgroundImageFix"/>
<feBlend mode="normal" in="SourceGraphic" in2="BackgroundImageFix" result="shape"/>
<feGaussianBlur stdDeviation="0.5" result="effect1_foregroundBlur_288_3936"/>
</filter>
<filter id="filter3_f_288_3936" x="74.9794" y="67.0224" width="1.53208" height="9.85642" filterUnits="userSpaceOnUse" color-interpolation-filters="sRGB">
<feFlood flood-opacity="0" result="BackgroundImageFix"/>
<feBlend mode="normal" in="SourceGraphic" in2="BackgroundImageFix" result="shape"/>
<feGaussianBlur stdDeviation="0.1" result="effect1_foregroundBlur_288_3936"/>
</filter>
<filter id="filter4_f_288_3936" x="87.6228" y="45.3793" width="1.50889" height="11.6769" filterUnits="userSpaceOnUse" color-interpolation-filters="sRGB">
<feFlood flood-opacity="0" result="BackgroundImageFix"/>
<feBlend mode="normal" in="SourceGraphic" in2="BackgroundImageFix" result="shape"/>
<feGaussianBlur stdDeviation="0.1" result="effect1_foregroundBlur_288_3936"/>
</filter>
<filter id="filter5_f_288_3936" x="92.4639" y="33.2623" width="19.6023" height="35.7786" filterUnits="userSpaceOnUse" color-interpolation-filters="sRGB">
<feFlood flood-opacity="0" result="BackgroundImageFix"/>
<feBlend mode="normal" in="SourceGraphic" in2="BackgroundImageFix" result="shape"/>
<feGaussianBlur stdDeviation="0.5" result="effect1_foregroundBlur_288_3936"/>
</filter>
<filter id="filter6_f_288_3936" x="72.9973" y="37.9128" width="29.5491" height="8.72363" filterUnits="userSpaceOnUse" color-interpolation-filters="sRGB">
<feFlood flood-opacity="0" result="BackgroundImageFix"/>
<feBlend mode="normal" in="SourceGraphic" in2="BackgroundImageFix" result="shape"/>
<feGaussianBlur stdDeviation="0.5" result="effect1_foregroundBlur_288_3936"/>
</filter>
<linearGradient id="paint0_linear_288_3936" x1="88.455" y1="33.3434" x2="99.0856" y2="11.5768" gradientUnits="userSpaceOnUse">
<stop stop-color="#77A9E7"/>
<stop offset="1" stop-color="#8290DE"/>
</linearGradient>
<radialGradient id="paint1_radial_288_3936" cx="0" cy="0" r="1" gradientUnits="userSpaceOnUse" gradientTransform="translate(91.301 38.9158) rotate(-111.689) scale(26.3368 32.3477)">
<stop offset="0.94785" stop-color="#A46DDB" stop-opacity="0"/>
<stop offset="0.985478" stop-color="#5F9EED"/>
</radialGradient>
<linearGradient id="paint2_linear_288_3936" x1="99.6113" y1="30.586" x2="89.8211" y2="30.586" gradientUnits="userSpaceOnUse">
<stop stop-color="#9379E0"/>
<stop offset="1" stop-color="#959297" stop-opacity="0"/>
<stop offset="1" stop-color="#7F82D3" stop-opacity="0"/>
</linearGradient>
<linearGradient id="paint3_linear_288_3936" x1="96.9644" y1="15.0464" x2="96.9644" y2="34.0038" gradientUnits="userSpaceOnUse">
<stop stop-color="#B8B7BA"/>
<stop offset="1" stop-color="#B8B7BA" stop-opacity="0"/>
</linearGradient>
<linearGradient id="paint4_linear_288_3936" x1="71.5939" y1="63.5598" x2="71.5939" y2="74.3598" gradientUnits="userSpaceOnUse">
<stop stop-color="#9A99D5"/>
<stop offset="1" stop-color="#5D7EAF"/>
</linearGradient>
<radialGradient id="paint5_radial_288_3936" cx="0" cy="0" r="1" gradientUnits="userSpaceOnUse" gradientTransform="translate(77.0709 66.8343) rotate(144.662) scale(11.0245 12.8473)">
<stop offset="0.877212" stop-color="#6F617D" stop-opacity="0"/>
<stop offset="1" stop-color="#6F617D"/>
</radialGradient>
<linearGradient id="paint6_linear_288_3936" x1="36.8085" y1="44.34" x2="113.539" y2="98.4357" gradientUnits="userSpaceOnUse">
<stop stop-color="#77A9E7"/>
<stop offset="1" stop-color="#B1A0E0"/>
</linearGradient>
<radialGradient id="paint7_radial_288_3936" cx="0" cy="0" r="1" gradientUnits="userSpaceOnUse" gradientTransform="translate(36.8852 93.4189) rotate(-38.8196) scale(20.894 35.6525)">
<stop offset="0.344984" stop-color="#8B7B9B"/>
<stop offset="0.788877" stop-color="#8B7B9B" stop-opacity="0"/>
</radialGradient>
<radialGradient id="paint8_radial_288_3936" cx="0" cy="0" r="1" gradientUnits="userSpaceOnUse" gradientTransform="translate(54.9856 115.249) rotate(-90) scale(3.33191 10.2342)">
<stop stop-color="#8D6FA8"/>
<stop offset="1" stop-color="#8D6FA8" stop-opacity="0"/>
</radialGradient>
<radialGradient id="paint9_radial_288_3936" cx="0" cy="0" r="1" gradientUnits="userSpaceOnUse" gradientTransform="translate(23.566 62.053) rotate(-58.361) scale(32.1184 42.2756)">
<stop stop-color="#857C90"/>
<stop offset="1" stop-color="#857C90" stop-opacity="0"/>
</radialGradient>
<radialGradient id="paint10_radial_288_3936" cx="0" cy="0" r="1" gradientUnits="userSpaceOnUse" gradientTransform="translate(51.0012 103.415) scale(5.8058 5.85956)">
<stop stop-color="#948E9A"/>
<stop offset="1" stop-color="#948E9A" stop-opacity="0"/>
</radialGradient>
<radialGradient id="paint11_radial_288_3936" cx="0" cy="0" r="1" gradientUnits="userSpaceOnUse" gradientTransform="translate(91.0163 45.1063) rotate(78.7911) scale(3.80664 1.85503)">
<stop stop-color="#C5C2C8"/>
<stop offset="1" stop-color="#C5C2C8" stop-opacity="0"/>
</radialGradient>
<radialGradient id="paint12_radial_288_3936" cx="0" cy="0" r="1" gradientUnits="userSpaceOnUse" gradientTransform="translate(105.758 13.1085) rotate(122.194) scale(26.0674 57.8701)">
<stop stop-color="#C5C2C8"/>
<stop offset="1" stop-color="#C5C2C8" stop-opacity="0"/>
</radialGradient>
<linearGradient id="paint13_linear_288_3936" x1="63.3259" y1="51.9383" x2="63.3259" y2="90.4701" gradientUnits="userSpaceOnUse">
<stop stop-color="#E1D9EB"/>
<stop offset="1" stop-color="#E1D9EB" stop-opacity="0"/>
</linearGradient>
<linearGradient id="paint14_linear_288_3936" x1="69.1424" y1="75.6378" x2="69.1424" y2="44.829" gradientUnits="userSpaceOnUse">
<stop offset="0.16452" stop-color="#947CAB"/>
<stop offset="1" stop-color="#947CAB" stop-opacity="0"/>
</linearGradient>
<linearGradient id="paint15_linear_288_3936" x1="104.165" y1="69.5494" x2="94.8278" y2="56.0723" gradientUnits="userSpaceOnUse">
<stop stop-color="#C8C3CF"/>
<stop offset="1" stop-color="#C8C3CF" stop-opacity="0"/>
</linearGradient>
<linearGradient id="paint16_linear_288_3936" x1="104.905" y1="57.3133" x2="91.5947" y2="63.8223" gradientUnits="userSpaceOnUse">
<stop stop-color="#D7D0E0"/>
<stop offset="1" stop-color="#C8C3CF" stop-opacity="0"/>
</linearGradient>
<radialGradient id="paint17_radial_288_3936" cx="0" cy="0" r="1" gradientUnits="userSpaceOnUse" gradientTransform="translate(73.6557 75.1792) rotate(-28.5904) scale(25.9296 17.8678)">
<stop offset="0.160063" stop-color="#947CAB"/>
<stop offset="1" stop-color="#947CAB" stop-opacity="0"/>
</radialGradient>
<radialGradient id="paint18_radial_288_3936" cx="0" cy="0" r="1" gradientUnits="userSpaceOnUse" gradientTransform="translate(81.6245 79.0568) rotate(53.5783) scale(13.4216 20.2984)">
<stop offset="0.45368" stop-color="#6D7BC4"/>
<stop offset="1" stop-color="#816B9E" stop-opacity="0"/>
</radialGradient>
<radialGradient id="paint19_radial_288_3936" cx="0" cy="0" r="1" gradientUnits="userSpaceOnUse" gradientTransform="translate(81.966 53.8377) rotate(-10.2164) scale(8.09714 17.5093)">
<stop offset="0.151259" stop-color="#896FA2"/>
<stop offset="0.781211" stop-color="#8B779E" stop-opacity="0"/>
</radialGradient>
<radialGradient id="paint20_radial_288_3936" cx="0" cy="0" r="1" gradientUnits="userSpaceOnUse" gradientTransform="translate(68.8745 47.5761) rotate(82.4449) scale(58.8769 62.801)">
<stop offset="0.84628" stop-color="#8D6FA8" stop-opacity="0"/>
<stop offset="1" stop-color="#8D6FA8"/>
</radialGradient>
<radialGradient id="paint21_radial_288_3936" cx="0" cy="0" r="1" gradientUnits="userSpaceOnUse" gradientTransform="translate(68.6183 101.892) rotate(-34.7076) scale(3.53122 11.4025)">
<stop stop-color="#9AA4E3"/>
<stop offset="1" stop-color="#6599B6" stop-opacity="0"/>
</radialGradient>
<linearGradient id="paint22_linear_288_3936" x1="60.6621" y1="39.7546" x2="60.6621" y2="51.6341" gradientUnits="userSpaceOnUse">
<stop stop-color="#426E9B"/>
<stop offset="1" stop-color="#77A9E7"/>
</linearGradient>
<linearGradient id="paint23_linear_288_3936" x1="67.9477" y1="39.7546" x2="67.9477" y2="51.6341" gradientUnits="userSpaceOnUse">
<stop stop-color="#446E9B"/>
<stop offset="1" stop-color="#77A9E7"/>
</linearGradient>
<linearGradient id="paint24_linear_288_3936" x1="39.92" y1="43.8125" x2="41.1562" y2="47.8209" gradientUnits="userSpaceOnUse">
<stop offset="0.00558659" stop-color="#706977"/>
<stop offset="1" stop-color="#A594AF"/>
</linearGradient>
<radialGradient id="paint25_radial_288_3936" cx="0" cy="0" r="1" gradientUnits="userSpaceOnUse" gradientTransform="translate(43.5818 43.4197) rotate(125.587) scale(5.0861 4.52117)">
<stop offset="0.00558659" stop-color="#433437"/>
<stop offset="1" stop-color="#3B2838"/>
</radialGradient>
<radialGradient id="paint26_radial_288_3936" cx="0" cy="0" r="1" gradientUnits="userSpaceOnUse" gradientTransform="translate(43.8617 43.6836) rotate(137.38) scale(2.62996 2.31559)">
<stop stop-color="#5C5051"/>
<stop offset="1" stop-color="#5C5051" stop-opacity="0"/>
</radialGradient>
<linearGradient id="paint27_linear_288_3936" x1="41.7841" y1="41.715" x2="39.2664" y2="40.1275" gradientUnits="userSpaceOnUse">
<stop stop-color="#5C5051" stop-opacity="0"/>
<stop offset="1" stop-color="#5C5051"/>
</linearGradient>
<linearGradient id="paint28_linear_288_3936" x1="55.6693" y1="78.4963" x2="32.5514" y2="93.1242" gradientUnits="userSpaceOnUse">
<stop stop-color="#A6BAE2"/>
<stop offset="1" stop-color="#CECAD3" stop-opacity="0"/>
</linearGradient>
<linearGradient id="paint29_linear_288_3936" x1="75.1926" y1="78.4245" x2="75.1926" y2="69.865" gradientUnits="userSpaceOnUse">
<stop stop-color="#B8B7BA"/>
<stop offset="1" stop-color="#B8B7BA" stop-opacity="0"/>
</linearGradient>
<radialGradient id="paint30_radial_288_3936" cx="0" cy="0" r="1" gradientUnits="userSpaceOnUse" gradientTransform="translate(89.7355 56.5517) rotate(-93.6655) scale(20.0324 10.7077)">
<stop stop-color="#B5B2B9"/>
<stop offset="1" stop-color="#B5B2B9" stop-opacity="0"/>
</radialGradient>
<radialGradient id="paint31_radial_288_3936" cx="0" cy="0" r="1" gradientUnits="userSpaceOnUse" gradientTransform="translate(87.8287 47.073) rotate(151.498) scale(11.0756 19.9646)">
<stop offset="0.751316" stop-color="#8A8193" stop-opacity="0"/>
<stop offset="1" stop-color="#8A8193"/>
</radialGradient>
<radialGradient id="paint32_radial_288_3936" cx="0" cy="0" r="1" gradientUnits="userSpaceOnUse" gradientTransform="translate(87.3734 39.4326) rotate(90) scale(19.2446 11.2199)">
<stop offset="0.894118" stop-color="#8A8193" stop-opacity="0"/>
<stop offset="1" stop-color="#8A8193"/>
</radialGradient>
<radialGradient id="paint33_radial_288_3936" cx="0" cy="0" r="1" gradientUnits="userSpaceOnUse" gradientTransform="translate(76.4448 48.3943) rotate(-55.512) scale(5.22721 1.94086)">
<stop stop-color="#959199"/>
<stop offset="1" stop-color="#959199" stop-opacity="0"/>
</radialGradient>
<linearGradient id="paint34_linear_288_3936" x1="89.138" y1="56.4942" x2="89.138" y2="45.5793" gradientUnits="userSpaceOnUse">
<stop stop-color="#CBC8CE"/>
<stop offset="1" stop-color="#CBC8CE" stop-opacity="0"/>
</linearGradient>
<linearGradient id="paint35_linear_288_3936" x1="102.265" y1="36.3304" x2="127.896" y2="73.0264" gradientUnits="userSpaceOnUse">
<stop stop-color="#A6BFE7"/>
<stop offset="1" stop-color="#B2C1CE" stop-opacity="0"/>
</linearGradient>
<radialGradient id="paint36_radial_288_3936" cx="0" cy="0" r="1" gradientUnits="userSpaceOnUse" gradientTransform="translate(35.2522 64.7113) rotate(-130.796) scale(5.23043 11.1321)">
<stop stop-color="#F70A8D"/>
<stop offset="1" stop-color="#89029C"/>
</radialGradient>
<radialGradient id="paint37_radial_288_3936" cx="0" cy="0" r="1" gradientUnits="userSpaceOnUse" gradientTransform="translate(38.6793 67.515) rotate(-133.743) scale(9.05009 15.4013)">
<stop stop-color="#FF1C4A"/>
<stop offset="0.765733" stop-color="#FF2B8F"/>
<stop offset="0.864496" stop-color="#BB0773"/>
<stop offset="0.886239" stop-color="#9F0762"/>
</radialGradient>
</defs>
</svg>
