<svg width="129" height="132" viewBox="0 0 129 132" fill="none" xmlns="http://www.w3.org/2000/svg">
<path d="M53.5144 97.6431V106.391C53.5144 111.731 56.5908 116.618 61.4794 119.041L61.8587 119.247C63.8394 120.232 66.1573 118.836 66.1573 116.659V97.6841H53.5144V97.6431Z" fill="url(#paint0_linear_288_3956)"/>
<path d="M53.5144 97.6431V106.391C53.5144 111.731 56.5908 116.618 61.4794 119.041L61.8587 119.247C63.8394 120.232 66.1573 118.836 66.1573 116.659V97.6841H53.5144V97.6431Z" fill="url(#paint1_radial_288_3956)"/>
<path d="M80.3272 53.2404C80.3272 51.1481 78.5079 49.5169 76.361 49.6942C60.2414 51.1481 43.9763 61.1839 43.9763 73.4539C43.9763 86.7167 63.0069 97.4972 80.3272 97.4972V53.2404Z" fill="url(#paint2_linear_288_3956)"/>
<path d="M80.3272 53.2404C80.3272 51.1481 78.5079 49.5169 76.361 49.6942C60.2414 51.1481 43.9763 61.1839 43.9763 73.4539C43.9763 86.7167 63.0069 97.4972 80.3272 97.4972V53.2404Z" fill="url(#paint3_radial_288_3956)"/>
<path d="M80.3272 53.2404C80.3272 51.1481 78.5079 49.5169 76.361 49.6942C60.2414 51.1481 43.9763 61.1839 43.9763 73.4539C43.9763 86.7167 63.0069 97.4972 80.3272 97.4972V53.2404Z" fill="url(#paint4_linear_288_3956)"/>
<g filter="url(#filter0_f_288_3956)">
<path d="M77.5625 50.1791C78.435 50.1791 80.3281 50.9652 80.3281 53.5001C80.3281 55.1943 80.3281 65.7734 80.3281 69.5597" stroke="url(#paint5_linear_288_3956)" stroke-width="0.075"/>
</g>
<path d="M70.1599 109.346H62.6584C39.3113 109.346 23.3256 103.036 2.35198 88.7273C0.497696 86.3452 0.329124 83.0595 1.93055 80.513C8.1677 70.4094 20.3891 63.5916 32.4841 63.5916H83.9406C89.1241 63.5916 93.507 59.6077 93.6334 54.5559C93.6756 51.9273 92.622 49.5041 90.852 47.8202C85.4156 42.7684 78.8413 39.0719 71.8034 36.9362V36.8952C69.8227 36.3202 67.842 35.8273 65.8191 35.4987C64.6391 35.2934 63.417 35.7452 62.6584 36.6487L55.2413 45.6844C50.1841 51.8041 42.6406 55.3773 34.6334 55.3773H29.3656C28.0591 55.3773 27.3006 53.9398 28.1013 52.913L50.142 24.2862C50.9427 23.2594 50.9848 21.8219 50.2263 20.713L44.6634 12.5809C44.0313 11.5541 44.7898 10.1987 46.012 10.1987H52.8391C57.222 10.1987 61.352 12.3344 63.7963 15.9077L67.3784 21.0826C68.0106 21.9862 69.022 22.5202 70.1599 22.5202C70.7077 22.5202 71.2556 22.5202 71.8034 22.5612C97.932 23.4648 118.835 44.3702 118.835 70.0809C118.835 96.3666 97.1313 109.346 70.1599 109.346Z" fill="url(#paint6_linear_288_3956)"/>
<path d="M70.1599 109.346H62.6584C39.3113 109.346 23.3256 103.036 2.35198 88.7273C0.497696 86.3452 0.329124 83.0595 1.93055 80.513C8.1677 70.4094 20.3891 63.5916 32.4841 63.5916H83.9406C89.1241 63.5916 93.507 59.6077 93.6334 54.5559C93.6756 51.9273 92.622 49.5041 90.852 47.8202C85.4156 42.7684 78.8413 39.0719 71.8034 36.9362V36.8952C69.8227 36.3202 67.842 35.8273 65.8191 35.4987C64.6391 35.2934 63.417 35.7452 62.6584 36.6487L55.2413 45.6844C50.1841 51.8041 42.6406 55.3773 34.6334 55.3773H29.3656C28.0591 55.3773 27.3006 53.9398 28.1013 52.913L50.142 24.2862C50.9427 23.2594 50.9848 21.8219 50.2263 20.713L44.6634 12.5809C44.0313 11.5541 44.7898 10.1987 46.012 10.1987H52.8391C57.222 10.1987 61.352 12.3344 63.7963 15.9077L67.3784 21.0826C68.0106 21.9862 69.022 22.5202 70.1599 22.5202C70.7077 22.5202 71.2556 22.5202 71.8034 22.5612C97.932 23.4648 118.835 44.3702 118.835 70.0809C118.835 96.3666 97.1313 109.346 70.1599 109.346Z" fill="url(#paint7_radial_288_3956)"/>
<path d="M70.1599 109.346H62.6584C39.3113 109.346 23.3256 103.036 2.35198 88.7273C0.497696 86.3452 0.329124 83.0595 1.93055 80.513C8.1677 70.4094 20.3891 63.5916 32.4841 63.5916H83.9406C89.1241 63.5916 93.507 59.6077 93.6334 54.5559C93.6756 51.9273 92.622 49.5041 90.852 47.8202C85.4156 42.7684 78.8413 39.0719 71.8034 36.9362V36.8952C69.8227 36.3202 67.842 35.8273 65.8191 35.4987C64.6391 35.2934 63.417 35.7452 62.6584 36.6487L55.2413 45.6844C50.1841 51.8041 42.6406 55.3773 34.6334 55.3773H29.3656C28.0591 55.3773 27.3006 53.9398 28.1013 52.913L50.142 24.2862C50.9427 23.2594 50.9848 21.8219 50.2263 20.713L44.6634 12.5809C44.0313 11.5541 44.7898 10.1987 46.012 10.1987H52.8391C57.222 10.1987 61.352 12.3344 63.7963 15.9077L67.3784 21.0826C68.0106 21.9862 69.022 22.5202 70.1599 22.5202C70.7077 22.5202 71.2556 22.5202 71.8034 22.5612C97.932 23.4648 118.835 44.3702 118.835 70.0809C118.835 96.3666 97.1313 109.346 70.1599 109.346Z" fill="url(#paint8_radial_288_3956)"/>
<path d="M70.1599 109.346H62.6584C39.3113 109.346 23.3256 103.036 2.35198 88.7273C0.497696 86.3452 0.329124 83.0595 1.93055 80.513C8.1677 70.4094 20.3891 63.5916 32.4841 63.5916H83.9406C89.1241 63.5916 93.507 59.6077 93.6334 54.5559C93.6756 51.9273 92.622 49.5041 90.852 47.8202C85.4156 42.7684 78.8413 39.0719 71.8034 36.9362V36.8952C69.8227 36.3202 67.842 35.8273 65.8191 35.4987C64.6391 35.2934 63.417 35.7452 62.6584 36.6487L55.2413 45.6844C50.1841 51.8041 42.6406 55.3773 34.6334 55.3773H29.3656C28.0591 55.3773 27.3006 53.9398 28.1013 52.913L50.142 24.2862C50.9427 23.2594 50.9848 21.8219 50.2263 20.713L44.6634 12.5809C44.0313 11.5541 44.7898 10.1987 46.012 10.1987H52.8391C57.222 10.1987 61.352 12.3344 63.7963 15.9077L67.3784 21.0826C68.0106 21.9862 69.022 22.5202 70.1599 22.5202C70.7077 22.5202 71.2556 22.5202 71.8034 22.5612C97.932 23.4648 118.835 44.3702 118.835 70.0809C118.835 96.3666 97.1313 109.346 70.1599 109.346Z" fill="url(#paint9_radial_288_3956)"/>
<path d="M70.1599 109.346H62.6584C39.3113 109.346 23.3256 103.036 2.35198 88.7273C0.497696 86.3452 0.329124 83.0595 1.93055 80.513C8.1677 70.4094 20.3891 63.5916 32.4841 63.5916H83.9406C89.1241 63.5916 93.507 59.6077 93.6334 54.5559C93.6756 51.9273 92.622 49.5041 90.852 47.8202C85.4156 42.7684 78.8413 39.0719 71.8034 36.9362V36.8952C69.8227 36.3202 67.842 35.8273 65.8191 35.4987C64.6391 35.2934 63.417 35.7452 62.6584 36.6487L55.2413 45.6844C50.1841 51.8041 42.6406 55.3773 34.6334 55.3773H29.3656C28.0591 55.3773 27.3006 53.9398 28.1013 52.913L50.142 24.2862C50.9427 23.2594 50.9848 21.8219 50.2263 20.713L44.6634 12.5809C44.0313 11.5541 44.7898 10.1987 46.012 10.1987H52.8391C57.222 10.1987 61.352 12.3344 63.7963 15.9077L67.3784 21.0826C68.0106 21.9862 69.022 22.5202 70.1599 22.5202C70.7077 22.5202 71.2556 22.5202 71.8034 22.5612C97.932 23.4648 118.835 44.3702 118.835 70.0809C118.835 96.3666 97.1313 109.346 70.1599 109.346Z" fill="url(#paint10_radial_288_3956)"/>
<path d="M70.1599 109.346H62.6584C39.3113 109.346 23.3256 103.036 2.35198 88.7273C0.497696 86.3452 0.329124 83.0595 1.93055 80.513C8.1677 70.4094 20.3891 63.5916 32.4841 63.5916H83.9406C89.1241 63.5916 93.507 59.6077 93.6334 54.5559C93.6756 51.9273 92.622 49.5041 90.852 47.8202C85.4156 42.7684 78.8413 39.0719 71.8034 36.9362V36.8952C69.8227 36.3202 67.842 35.8273 65.8191 35.4987C64.6391 35.2934 63.417 35.7452 62.6584 36.6487L55.2413 45.6844C50.1841 51.8041 42.6406 55.3773 34.6334 55.3773H29.3656C28.0591 55.3773 27.3006 53.9398 28.1013 52.913L50.142 24.2862C50.9427 23.2594 50.9848 21.8219 50.2263 20.713L44.6634 12.5809C44.0313 11.5541 44.7898 10.1987 46.012 10.1987H52.8391C57.222 10.1987 61.352 12.3344 63.7963 15.9077L67.3784 21.0826C68.0106 21.9862 69.022 22.5202 70.1599 22.5202C70.7077 22.5202 71.2556 22.5202 71.8034 22.5612C97.932 23.4648 118.835 44.3702 118.835 70.0809C118.835 96.3666 97.1313 109.346 70.1599 109.346Z" fill="url(#paint11_radial_288_3956)"/>
<path d="M70.1599 109.346H62.6584C39.3113 109.346 23.3256 103.036 2.35198 88.7273C0.497696 86.3452 0.329124 83.0595 1.93055 80.513C8.1677 70.4094 20.3891 63.5916 32.4841 63.5916H83.9406C89.1241 63.5916 93.507 59.6077 93.6334 54.5559C93.6756 51.9273 92.622 49.5041 90.852 47.8202C85.4156 42.7684 78.8413 39.0719 71.8034 36.9362V36.8952C69.8227 36.3202 67.842 35.8273 65.8191 35.4987C64.6391 35.2934 63.417 35.7452 62.6584 36.6487L55.2413 45.6844C50.1841 51.8041 42.6406 55.3773 34.6334 55.3773H29.3656C28.0591 55.3773 27.3006 53.9398 28.1013 52.913L50.142 24.2862C50.9427 23.2594 50.9848 21.8219 50.2263 20.713L44.6634 12.5809C44.0313 11.5541 44.7898 10.1987 46.012 10.1987H52.8391C57.222 10.1987 61.352 12.3344 63.7963 15.9077L67.3784 21.0826C68.0106 21.9862 69.022 22.5202 70.1599 22.5202C70.7077 22.5202 71.2556 22.5202 71.8034 22.5612C97.932 23.4648 118.835 44.3702 118.835 70.0809C118.835 96.3666 97.1313 109.346 70.1599 109.346Z" fill="url(#paint12_radial_288_3956)"/>
<path d="M76.0927 109.18C81.4638 109.18 80.5732 108.661 87.8451 107.386L103.068 101.017L111.174 93.2746C102.591 85.2851 105.906 87.2695 95.9903 84.5779C95.0734 84.4212 94.5944 84.6895 94.5944 85.2851V97.0003C94.5944 100.439 89.8238 99.5497 87.8451 98.7938C83.0581 96.5847 80.5732 89.251 80.5732 85.1561C80.5732 84.6859 80.0492 84.3097 79.3942 84.3097H48.2888C36.4551 84.3097 25.054 85.9635 16.0586 91.5119L10.0054 94.0133C16.66 97.9668 26.7638 106.238 44.5144 107.695L60.7341 109.92L76.0927 109.18Z" fill="url(#paint13_linear_288_3956)"/>
<path d="M76.0927 109.18C81.4638 109.18 80.5732 108.661 87.8451 107.386L103.068 101.017L111.174 93.2746C102.591 85.2851 105.906 87.2695 95.9903 84.5779C95.0734 84.4212 94.5944 84.6895 94.5944 85.2851V97.0003C94.5944 100.439 89.8238 99.5497 87.8451 98.7938C83.0581 96.5847 80.5732 89.251 80.5732 85.1561C80.5732 84.6859 80.0492 84.3097 79.3942 84.3097H48.2888C36.4551 84.3097 25.054 85.9635 16.0586 91.5119L10.0054 94.0133C16.66 97.9668 26.7638 106.238 44.5144 107.695L60.7341 109.92L76.0927 109.18Z" fill="url(#paint14_linear_288_3956)"/>
<path d="M76.0927 109.18C81.4638 109.18 80.5732 108.661 87.8451 107.386L103.068 101.017L111.174 93.2746C102.591 85.2851 105.906 87.2695 95.9903 84.5779C95.0734 84.4212 94.5944 84.6895 94.5944 85.2851V97.0003C94.5944 100.439 89.8238 99.5497 87.8451 98.7938C83.0581 96.5847 80.5732 89.251 80.5732 85.1561C80.5732 84.6859 80.0492 84.3097 79.3942 84.3097H48.2888C36.4551 84.3097 25.054 85.9635 16.0586 91.5119L10.0054 94.0133C16.66 97.9668 26.7638 106.238 44.5144 107.695L60.7341 109.92L76.0927 109.18Z" fill="url(#paint15_linear_288_3956)"/>
<path d="M76.0927 109.18C81.4638 109.18 80.5732 108.661 87.8451 107.386L103.068 101.017L111.174 93.2746C102.591 85.2851 105.906 87.2695 95.9903 84.5779C95.0734 84.4212 94.5944 84.6895 94.5944 85.2851V97.0003C94.5944 100.439 89.8238 99.5497 87.8451 98.7938C83.0581 96.5847 80.5732 89.251 80.5732 85.1561C80.5732 84.6859 80.0492 84.3097 79.3942 84.3097H48.2888C36.4551 84.3097 25.054 85.9635 16.0586 91.5119L10.0054 94.0133C16.66 97.9668 26.7638 106.238 44.5144 107.695L60.7341 109.92L76.0927 109.18Z" fill="url(#paint16_linear_288_3956)"/>
<path d="M76.0927 109.18C81.4638 109.18 80.5732 108.661 87.8451 107.386L103.068 101.017L111.174 93.2746C102.591 85.2851 105.906 87.2695 95.9903 84.5779C95.0734 84.4212 94.5944 84.6895 94.5944 85.2851V97.0003C94.5944 100.439 89.8238 99.5497 87.8451 98.7938C83.0581 96.5847 80.5732 89.251 80.5732 85.1561C80.5732 84.6859 80.0492 84.3097 79.3942 84.3097H48.2888C36.4551 84.3097 25.054 85.9635 16.0586 91.5119L10.0054 94.0133C16.66 97.9668 26.7638 106.238 44.5144 107.695L60.7341 109.92L76.0927 109.18Z" fill="url(#paint17_radial_288_3956)"/>
<path d="M57.7287 90.7085C56.5487 90.7085 55.6216 89.8049 55.6216 88.6549V80.3996C55.6216 79.2496 56.5487 78.346 57.7287 78.346C58.9087 78.346 59.8359 79.2907 59.8359 80.3996V88.6549C59.8359 89.8049 58.8666 90.7085 57.7287 90.7085Z" fill="url(#paint18_linear_288_3956)"/>
<path d="M66.1574 90.7085C64.9774 90.7085 64.0503 89.8049 64.0503 88.6549V80.3996C64.0503 79.2496 64.9774 78.346 66.1574 78.346C67.3374 78.346 68.2646 79.2496 68.2646 80.3996V88.6549C68.2646 89.8049 67.2953 90.7085 66.1574 90.7085Z" fill="url(#paint19_linear_288_3956)"/>
<g filter="url(#filter1_f_288_3956)">
<path d="M35.48 89.23C37.7391 89.23 39.5705 87.4452 39.5705 85.2435C39.5705 83.0417 37.7391 81.2569 35.48 81.2569C33.2208 81.2569 31.3894 83.0417 31.3894 85.2435C31.3894 87.4452 33.2208 89.23 35.48 89.23Z" fill="url(#paint20_linear_288_3956)"/>
</g>
<path d="M36.6984 88.655C39.0259 88.655 40.9127 86.8161 40.9127 84.5478C40.9127 82.2795 39.0259 80.4407 36.6984 80.4407C34.3709 80.4407 32.4841 82.2795 32.4841 84.5478C32.4841 86.8161 34.3709 88.655 36.6984 88.655Z" fill="url(#paint21_radial_288_3956)"/>
<path d="M36.6984 88.655C39.0259 88.655 40.9127 86.8161 40.9127 84.5478C40.9127 82.2795 39.0259 80.4407 36.6984 80.4407C34.3709 80.4407 32.4841 82.2795 32.4841 84.5478C32.4841 86.8161 34.3709 88.655 36.6984 88.655Z" fill="url(#paint22_radial_288_3956)"/>
<path d="M36.6984 88.655C39.0259 88.655 40.9127 86.8161 40.9127 84.5478C40.9127 82.2795 39.0259 80.4407 36.6984 80.4407C34.3709 80.4407 32.4841 82.2795 32.4841 84.5478C32.4841 86.8161 34.3709 88.655 36.6984 88.655Z" fill="url(#paint23_linear_288_3956)"/>
<g filter="url(#filter2_f_288_3956)">
<path d="M50.7818 43.9692C46.3864 49.6807 38.7974 49.5096 34.7148 49.6807C41.9845 48.4486 44.1311 45.1885 46.8309 42.1082L55.0251 31.5842C55.2145 31.3409 55.5057 31.1986 55.8141 31.1986H58.8707C59.6796 31.1986 60.1363 32.0938 59.6414 32.7336C57.599 35.3737 53.8325 40.005 50.7818 43.9692Z" fill="url(#paint24_linear_288_3956)"/>
</g>
<g filter="url(#filter3_f_288_3956)">
<path d="M75.7706 64.6172V73.3449C75.7706 73.7941 75.5204 74.7824 74.5195 75.1418" stroke="url(#paint25_linear_288_3956)" stroke-width="0.075"/>
</g>
<path d="M94.0695 75.1417H80.6035V86.0996C80.8537 91.148 83.2603 95.7647 87.6275 98.5126C89.4272 99.45 93.5955 100.701 94.0695 96.7594V75.1417Z" fill="url(#paint26_radial_288_3956)"/>
<path d="M94.0695 75.1417H80.6035V86.0996C80.8537 91.148 83.2603 95.7647 87.6275 98.5126C89.4272 99.45 93.5955 100.701 94.0695 96.7594V75.1417Z" fill="url(#paint27_radial_288_3956)"/>
<path d="M94.0695 75.1417H80.6035V86.0996C80.8537 91.148 83.2603 95.7647 87.6275 98.5126C89.4272 99.45 93.5955 100.701 94.0695 96.7594V75.1417Z" fill="url(#paint28_radial_288_3956)"/>
<g filter="url(#filter4_f_288_3956)">
<path d="M94.6096 86.9567V97.6738C94.6096 98.0749 94.7413 99.368 93.4243 99.4707" stroke="url(#paint29_linear_288_3956)" stroke-width="0.15"/>
</g>
<g filter="url(#filter5_f_288_3956)">
<path d="M91.7538 35.7989C85.5615 28.804 73.0594 28.4257 67.5824 29.1108C80.6213 22.1326 90.9739 29.3983 94.5203 33.9035L91.7538 35.7989Z" fill="url(#paint30_linear_288_3956)"/>
</g>
<path d="M31.3988 102.1C25.8028 104.187 21.1123 100.475 21.1123 100.475L33.4874 95.7899C33.4874 95.7899 36.9948 100.014 31.3988 102.1Z" fill="url(#paint31_radial_288_3956)"/>
<path d="M33.6581 103.906C34.378 101.486 34.6527 100.742 34.378 99.6702C34.1504 98.8041 34.2497 97.8835 33.6581 97.7796C33.0666 97.6757 30.8165 98.615 28.6593 99.4192C26.5021 100.223 23.9693 101.02 23.5901 101.486C23.2109 101.952 25.7789 102.575 26.2124 103.365C28.6593 103.906 32.23 108.708 33.6581 103.906Z" fill="url(#paint32_radial_288_3956)"/>
<defs>
<filter id="filter0_f_288_3956" x="77.3625" y="49.9416" width="3.20322" height="19.818" filterUnits="userSpaceOnUse" color-interpolation-filters="sRGB">
<feFlood flood-opacity="0" result="BackgroundImageFix"/>
<feBlend mode="normal" in="SourceGraphic" in2="BackgroundImageFix" result="shape"/>
<feGaussianBlur stdDeviation="0.1" result="effect1_foregroundBlur_288_3956"/>
</filter>
<filter id="filter1_f_288_3956" x="30.8894" y="80.7569" width="9.18115" height="8.97314" filterUnits="userSpaceOnUse" color-interpolation-filters="sRGB">
<feFlood flood-opacity="0" result="BackgroundImageFix"/>
<feBlend mode="normal" in="SourceGraphic" in2="BackgroundImageFix" result="shape"/>
<feGaussianBlur stdDeviation="0.25" result="effect1_foregroundBlur_288_3956"/>
</filter>
<filter id="filter2_f_288_3956" x="33.7148" y="30.1986" width="27.1316" height="20.4821" filterUnits="userSpaceOnUse" color-interpolation-filters="sRGB">
<feFlood flood-opacity="0" result="BackgroundImageFix"/>
<feBlend mode="normal" in="SourceGraphic" in2="BackgroundImageFix" result="shape"/>
<feGaussianBlur stdDeviation="0.5" result="effect1_foregroundBlur_288_3956"/>
</filter>
<filter id="filter3_f_288_3956" x="74.3068" y="64.4172" width="1.70127" height="10.9599" filterUnits="userSpaceOnUse" color-interpolation-filters="sRGB">
<feFlood flood-opacity="0" result="BackgroundImageFix"/>
<feBlend mode="normal" in="SourceGraphic" in2="BackgroundImageFix" result="shape"/>
<feGaussianBlur stdDeviation="0.1" result="effect1_foregroundBlur_288_3956"/>
</filter>
<filter id="filter4_f_288_3956" x="93.2185" y="86.7567" width="1.66978" height="12.9887" filterUnits="userSpaceOnUse" color-interpolation-filters="sRGB">
<feFlood flood-opacity="0" result="BackgroundImageFix"/>
<feBlend mode="normal" in="SourceGraphic" in2="BackgroundImageFix" result="shape"/>
<feGaussianBlur stdDeviation="0.1" result="effect1_foregroundBlur_288_3956"/>
</filter>
<filter id="filter5_f_288_3956" x="66.5825" y="25.217" width="28.9377" height="11.5818" filterUnits="userSpaceOnUse" color-interpolation-filters="sRGB">
<feFlood flood-opacity="0" result="BackgroundImageFix"/>
<feBlend mode="normal" in="SourceGraphic" in2="BackgroundImageFix" result="shape"/>
<feGaussianBlur stdDeviation="0.5" result="effect1_foregroundBlur_288_3956"/>
</filter>
<linearGradient id="paint0_linear_288_3956" x1="59.8211" y1="103.747" x2="59.8211" y2="115.812" gradientUnits="userSpaceOnUse">
<stop stop-color="#364477"/>
<stop offset="1" stop-color="#828AD6"/>
</linearGradient>
<radialGradient id="paint1_radial_288_3956" cx="0" cy="0" r="1" gradientUnits="userSpaceOnUse" gradientTransform="translate(66.1573 107.405) rotate(145.602) scale(12.6089 14.5168)">
<stop offset="0.877212" stop-color="#6F617D" stop-opacity="0"/>
<stop offset="1" stop-color="#6F617D"/>
</radialGradient>
<linearGradient id="paint2_linear_288_3956" x1="69.8658" y1="70.7499" x2="79.8976" y2="49.4784" gradientUnits="userSpaceOnUse">
<stop stop-color="#77A9E7"/>
<stop offset="1" stop-color="#997BED"/>
</linearGradient>
<radialGradient id="paint3_radial_288_3956" cx="0" cy="0" r="1" gradientUnits="userSpaceOnUse" gradientTransform="translate(72.7086 76.1246) rotate(-112.386) scale(25.5283 32.1524)">
<stop offset="0.94785" stop-color="#2D3EDC" stop-opacity="0"/>
<stop offset="0.985478" stop-color="#77A9E7"/>
</radialGradient>
<linearGradient id="paint4_linear_288_3956" x1="81.0095" y1="68.0902" x2="71.2304" y2="68.0902" gradientUnits="userSpaceOnUse">
<stop stop-color="#77A9E7"/>
<stop offset="1" stop-color="#929397" stop-opacity="0"/>
</linearGradient>
<linearGradient id="paint5_linear_288_3956" x1="78.9453" y1="53.0669" x2="78.9453" y2="74.2444" gradientUnits="userSpaceOnUse">
<stop stop-color="#B8B7BA"/>
<stop offset="1" stop-color="#B8B7BA" stop-opacity="0"/>
</linearGradient>
<linearGradient id="paint6_linear_288_3956" x1="30.1144" y1="88.513" x2="116.796" y2="25.2266" gradientUnits="userSpaceOnUse">
<stop stop-color="#77A9E7"/>
<stop offset="1" stop-color="#997BED"/>
</linearGradient>
<radialGradient id="paint7_radial_288_3956" cx="0" cy="0" r="1" gradientUnits="userSpaceOnUse" gradientTransform="translate(30.2031 33.6865) rotate(37.8449) scale(23.8485 40.367)">
<stop offset="0.344984" stop-color="#B1B0CC"/>
<stop offset="0.788877" stop-color="#7B7C9B" stop-opacity="0"/>
</radialGradient>
<radialGradient id="paint8_radial_288_3956" cx="0" cy="0" r="1" gradientUnits="userSpaceOnUse" gradientTransform="translate(51.1428 9.30033) rotate(90) scale(3.7221 11.8395)">
<stop/>
<stop offset="1" stop-color="#879EC1" stop-opacity="0"/>
</radialGradient>
<radialGradient id="paint9_radial_288_3956" cx="0" cy="0" r="1" gradientUnits="userSpaceOnUse" gradientTransform="translate(14.7946 68.7256) rotate(57.4592) scale(36.2355 48.4268)">
<stop stop-color="#94A9F4"/>
<stop offset="1" stop-color="#626370" stop-opacity="0"/>
</radialGradient>
<radialGradient id="paint10_radial_288_3956" cx="0" cy="0" r="1" gradientUnits="userSpaceOnUse" gradientTransform="translate(46.5334 22.5202) scale(6.71652 6.54576)">
<stop stop-color="#D5D5D5"/>
<stop offset="1" stop-color="#DCDBDC" stop-opacity="0"/>
</radialGradient>
<radialGradient id="paint11_radial_288_3956" cx="0" cy="0" r="1" gradientUnits="userSpaceOnUse" gradientTransform="translate(92.8254 87.6569) rotate(-78.4029) scale(4.25825 2.14309)">
<stop stop-color="#C38FF6"/>
<stop offset="1" stop-color="#C5C2C8" stop-opacity="0"/>
</radialGradient>
<radialGradient id="paint12_radial_288_3956" cx="0" cy="0" r="1" gradientUnits="userSpaceOnUse" gradientTransform="translate(50.177 59.7724) scale(44.9057 6.29779)">
<stop offset="0.124378" stop-color="#C5C2C8"/>
<stop offset="1" stop-color="#C5C2C8" stop-opacity="0"/>
<stop offset="1" stop-color="#C5C2C8" stop-opacity="0.466578"/>
</radialGradient>
<linearGradient id="paint13_linear_288_3956" x1="60.5897" y1="87.392" x2="60.5897" y2="104.064" gradientUnits="userSpaceOnUse">
<stop stop-color="#E1D9EB"/>
<stop offset="1" stop-color="#E1D9EB" stop-opacity="0"/>
</linearGradient>
<linearGradient id="paint14_linear_288_3956" x1="67.431" y1="108.471" x2="67.431" y2="84.3097" gradientUnits="userSpaceOnUse">
<stop offset="0.16452" stop-color="#947CAB"/>
<stop offset="1" stop-color="#947CAB" stop-opacity="0"/>
</linearGradient>
<linearGradient id="paint15_linear_288_3956" x1="107.56" y1="103.696" x2="101.505" y2="90.9254" gradientUnits="userSpaceOnUse">
<stop stop-color="#C8C3CF"/>
<stop offset="1" stop-color="#C8C3CF" stop-opacity="0"/>
</linearGradient>
<linearGradient id="paint16_linear_288_3956" x1="108.408" y1="94.1001" x2="95.8972" y2="103.039" gradientUnits="userSpaceOnUse">
<stop stop-color="#D7D0E0"/>
<stop offset="1" stop-color="#C8C3CF" stop-opacity="0"/>
</linearGradient>
<radialGradient id="paint17_radial_288_3956" cx="0" cy="0" r="1" gradientUnits="userSpaceOnUse" gradientTransform="translate(72.6025 108.111) rotate(-20.456) scale(27.8436 14.9519)">
<stop offset="0.160063" stop-color="#947CAB"/>
<stop offset="1" stop-color="#947CAB" stop-opacity="0"/>
</radialGradient>
<linearGradient id="paint18_linear_288_3956" x1="57.7102" y1="79.1319" x2="57.7102" y2="92.4026" gradientUnits="userSpaceOnUse">
<stop stop-color="#426E9B"/>
<stop offset="1" stop-color="#7C97EE"/>
</linearGradient>
<linearGradient id="paint19_linear_288_3956" x1="66.1389" y1="79.1319" x2="66.1389" y2="92.4026" gradientUnits="userSpaceOnUse">
<stop stop-color="#A6C8F1"/>
<stop offset="0.0001" stop-color="#426E9B"/>
<stop offset="1" stop-color="#7B94ED"/>
</linearGradient>
<linearGradient id="paint20_linear_288_3956" x1="33.7146" y1="83.6651" x2="35.0559" y2="88.1693" gradientUnits="userSpaceOnUse">
<stop offset="0.00558659" stop-color="#706977"/>
<stop offset="1" stop-color="#A594AF"/>
</linearGradient>
<radialGradient id="paint21_radial_288_3956" cx="0" cy="0" r="1" gradientUnits="userSpaceOnUse" gradientTransform="translate(37.9495 83.2262) rotate(126.541) scale(5.75099 5.16737)">
<stop offset="0.00558659" stop-color="#433437"/>
<stop offset="1" stop-color="#3B2838"/>
</radialGradient>
<radialGradient id="paint22_radial_288_3956" cx="0" cy="0" r="1" gradientUnits="userSpaceOnUse" gradientTransform="translate(38.2734 83.521) rotate(138.376) scale(2.99501 2.62778)">
<stop stop-color="#5C5051"/>
<stop offset="1" stop-color="#5C5051" stop-opacity="0"/>
</radialGradient>
<linearGradient id="paint23_linear_288_3956" x1="35.8699" y1="81.3219" x2="33.0161" y2="79.4584" gradientUnits="userSpaceOnUse">
<stop stop-color="#5C5051" stop-opacity="0"/>
<stop offset="1" stop-color="#5C5051"/>
</linearGradient>
<linearGradient id="paint24_linear_288_3956" x1="52.3622" y1="47.7555" x2="26.1607" y2="30.5864" gradientUnits="userSpaceOnUse">
<stop stop-color="#94ADEC"/>
<stop offset="1" stop-color="#CECAD3" stop-opacity="0"/>
</linearGradient>
<linearGradient id="paint25_linear_288_3956" x1="74.5195" y1="77.1312" x2="74.5195" y2="67.5693" gradientUnits="userSpaceOnUse">
<stop stop-color="#B8B7BA"/>
<stop offset="1" stop-color="#B8B7BA" stop-opacity="0"/>
</linearGradient>
<radialGradient id="paint26_radial_288_3956" cx="0" cy="0" r="1" gradientUnits="userSpaceOnUse" gradientTransform="translate(89.9951 109.756) rotate(-93.7955) scale(22.3817 12.3855)">
<stop stop-color="#B5B2B9"/>
<stop offset="1" stop-color="#B5B2B9" stop-opacity="0"/>
</radialGradient>
<radialGradient id="paint27_radial_288_3956" cx="0" cy="0" r="1" gradientUnits="userSpaceOnUse" gradientTransform="translate(87.2624 90.6324) rotate(90) scale(21.4983 12.9799)">
<stop offset="0.894118" stop-color="#8A8193" stop-opacity="0"/>
<stop offset="1" stop-color="#8A8193"/>
</radialGradient>
<radialGradient id="paint28_radial_288_3956" cx="0" cy="0" r="1" gradientUnits="userSpaceOnUse" gradientTransform="translate(74.6196 100.644) rotate(-54.5712) scale(5.90678 2.21968)">
<stop stop-color="#959199"/>
<stop offset="1" stop-color="#959199" stop-opacity="0"/>
</radialGradient>
<linearGradient id="paint29_linear_288_3956" x1="94.9388" y1="99.1498" x2="94.9388" y2="86.9567" gradientUnits="userSpaceOnUse">
<stop stop-color="#CBC8CE"/>
<stop offset="1" stop-color="#CBC8CE" stop-opacity="0"/>
</linearGradient>
<linearGradient id="paint30_linear_288_3956" x1="88.8431" y1="30.8062" x2="78.6063" y2="15.3068" gradientUnits="userSpaceOnUse">
<stop stop-color="#88AEED"/>
<stop offset="1" stop-color="#C5C2C8" stop-opacity="0"/>
</linearGradient>
<radialGradient id="paint31_radial_288_3956" cx="0" cy="0" r="1" gradientUnits="userSpaceOnUse" gradientTransform="translate(30.3473 104.132) rotate(-111.43) scale(5.76129 12.5138)">
<stop stop-color="#F70A8D"/>
<stop offset="1" stop-color="#89029C"/>
</radialGradient>
<radialGradient id="paint32_radial_288_3956" cx="0" cy="0" r="1" gradientUnits="userSpaceOnUse" gradientTransform="translate(32.9086 108.311) rotate(-114.434) scale(9.98283 17.2884)">
<stop stop-color="#FF1C4A"/>
<stop offset="0.765733" stop-color="#FF2B8F"/>
<stop offset="0.864496" stop-color="#BB0773"/>
<stop offset="0.886239" stop-color="#9F0762"/>
</radialGradient>
</defs>
</svg>
