<svg width="319" height="409" viewBox="0 0 319 409" fill="none" xmlns="http://www.w3.org/2000/svg">
<g filter="url(#filter0_dd_288_4558)">
<circle cx="192.239" cy="353.23" r="21.2017" fill="url(#paint0_linear_288_4558)" shape-rendering="crispEdges"/>
</g>
<g filter="url(#filter1_dd_288_4558)">
<circle cx="256.896" cy="285.562" r="15.6852" fill="url(#paint1_linear_288_4558)" shape-rendering="crispEdges"/>
</g>
<circle cx="159.179" cy="159.626" r="159.179" fill="url(#paint2_radial_288_4558)" fill-opacity="0.6"/>
<g filter="url(#filter2_d_288_4558)">
<ellipse cx="191.922" cy="195.333" rx="95.3724" ry="59.7482" fill="url(#paint3_linear_288_4558)" fill-opacity="0.5" shape-rendering="crispEdges"/>
<path d="M286.776 195.333C286.776 211.59 276.257 226.385 259.085 237.143C241.921 247.896 218.176 254.564 191.922 254.564C165.667 254.564 141.922 247.896 124.758 237.143C107.586 226.385 97.0669 211.59 97.0669 195.333C97.0669 179.076 107.586 164.281 124.758 153.523C141.922 142.77 165.667 136.103 191.922 136.103C218.176 136.103 241.921 142.77 259.085 153.523C276.257 164.281 286.776 179.076 286.776 195.333Z" stroke="url(#paint4_linear_288_4558)" stroke-opacity="0.6" stroke-width="1.03515" shape-rendering="crispEdges"/>
</g>
<circle cx="191.921" cy="139.621" r="120.995" fill="url(#paint5_radial_288_4558)"/>
<ellipse cx="191.92" cy="159.626" rx="118.293" ry="69.2036" fill="url(#paint6_linear_288_4558)" fill-opacity="0.5"/>
<path d="M309.695 159.626C309.695 178.476 296.631 195.637 275.304 208.114C253.99 220.583 224.51 228.312 191.92 228.312C159.33 228.312 129.85 220.583 108.535 208.114C87.2086 195.637 74.1445 178.476 74.1445 159.626C74.1445 140.776 87.2086 123.615 108.535 111.138C129.85 98.669 159.33 90.9399 191.92 90.9399C224.51 90.9399 253.99 98.669 275.304 111.138C296.631 123.615 309.695 140.776 309.695 159.626Z" stroke="url(#paint7_linear_288_4558)" stroke-opacity="0.6" stroke-width="1.03515"/>
<circle cx="191.92" cy="139.621" r="89.6234" fill="url(#paint8_radial_288_4558)"/>
<circle cx="191.92" cy="139.621" r="89.6234" fill="url(#paint9_radial_288_4558)"/>
<g filter="url(#filter3_d_288_4558)">
<ellipse cx="191.921" cy="116.661" rx="117.09" ry="67.6032" fill="url(#paint10_linear_288_4558)" fill-opacity="0.5" shape-rendering="crispEdges"/>
<path d="M308.493 116.661C308.493 135.066 295.568 151.827 274.457 164.016C253.359 176.197 224.18 183.747 191.921 183.747C159.661 183.747 130.482 176.197 109.384 164.016C88.2736 151.827 75.3484 135.066 75.3484 116.661C75.3484 98.2564 88.2736 81.4955 109.384 69.3069C130.482 57.1261 159.661 49.5757 191.921 49.5757C224.18 49.5757 253.359 57.1261 274.457 69.3069C295.568 81.4955 308.493 98.2564 308.493 116.661Z" stroke="url(#paint11_linear_288_4558)" stroke-opacity="0.6" stroke-width="1.03515" shape-rendering="crispEdges"/>
</g>
<g filter="url(#filter4_d_288_4558)">
<ellipse cx="191.92" cy="81.7523" rx="90.8582" ry="58.7284" fill="url(#paint12_linear_288_4558)" fill-opacity="0.5" shape-rendering="crispEdges"/>
<path d="M282.26 81.7523C282.26 97.7352 272.237 112.275 255.885 122.845C239.539 133.411 216.925 139.963 191.92 139.963C166.915 139.963 144.301 133.411 127.954 122.845C111.602 112.275 101.579 97.7352 101.579 81.7523C101.579 65.7694 111.602 51.2292 127.954 40.6597C144.301 30.0937 166.915 23.5415 191.92 23.5415C216.925 23.5415 239.539 30.0937 255.885 40.6597C272.237 51.2292 282.26 65.7694 282.26 81.7523Z" stroke="url(#paint13_linear_288_4558)" stroke-opacity="0.6" stroke-width="1.03515" shape-rendering="crispEdges"/>
</g>
<ellipse cx="191.922" cy="61.3541" rx="56.5524" ry="38.3302" fill="url(#paint14_linear_288_4558)" fill-opacity="0.5"/>
<path d="M247.956 61.3541C247.956 71.7158 241.76 81.1563 231.62 88.0292C221.482 94.9002 207.448 99.1667 191.922 99.1667C176.395 99.1667 162.361 94.9002 152.223 88.0292C142.083 81.1563 135.887 71.7158 135.887 61.3541C135.887 50.9924 142.083 41.552 152.223 34.679C162.361 27.808 176.395 23.5415 191.922 23.5415C207.448 23.5415 221.482 27.808 231.62 34.679C241.76 41.552 247.956 50.9924 247.956 61.3541Z" stroke="url(#paint15_linear_288_4558)" stroke-opacity="0.6" stroke-width="1.03515"/>
<ellipse cx="191.921" cy="48.2692" rx="32.7411" ry="22.528" fill="url(#paint16_linear_288_4558)" fill-opacity="0.5"/>
<path d="M224.144 48.2692C224.144 54.2708 220.609 59.7608 214.779 63.7725C208.95 67.7826 200.871 70.2796 191.921 70.2796C182.971 70.2796 174.891 67.7826 169.062 63.7725C163.232 59.7608 159.697 54.2708 159.697 48.2692C159.697 42.2676 163.232 36.7776 169.062 32.7659C174.891 28.7557 182.971 26.2588 191.921 26.2588C200.871 26.2588 208.95 28.7557 214.779 32.7659C220.609 36.7776 224.144 42.2676 224.144 48.2692Z" stroke="url(#paint17_linear_288_4558)" stroke-opacity="0.6" stroke-width="1.03515"/>
<circle cx="191.921" cy="139.621" r="120.995" fill="url(#paint18_radial_288_4558)" fill-opacity="0.3"/>
<defs>
<filter id="filter0_dd_288_4558" x="134.807" y="293.728" width="114.864" height="114.864" filterUnits="userSpaceOnUse" color-interpolation-filters="sRGB">
<feFlood flood-opacity="0" result="BackgroundImageFix"/>
<feColorMatrix in="SourceAlpha" type="matrix" values="0 0 0 0 0 0 0 0 0 0 0 0 0 0 0 0 0 0 127 0" result="hardAlpha"/>
<feOffset dy="-2.07031"/>
<feGaussianBlur stdDeviation="18.1152"/>
<feComposite in2="hardAlpha" operator="out"/>
<feColorMatrix type="matrix" values="0 0 0 0 0.371081 0 0 0 0 0.235903 0 0 0 0 0.658333 0 0 0 1 0"/>
<feBlend mode="normal" in2="BackgroundImageFix" result="effect1_dropShadow_288_4558"/>
<feColorMatrix in="SourceAlpha" type="matrix" values="0 0 0 0 0 0 0 0 0 0 0 0 0 0 0 0 0 0 127 0" result="hardAlpha"/>
<feOffset dy="-2.07031"/>
<feGaussianBlur stdDeviation="10.3515"/>
<feComposite in2="hardAlpha" operator="out"/>
<feColorMatrix type="matrix" values="0 0 0 0 0.48825 0 0 0 0 0.372778 0 0 0 0 0.733333 0 0 0 1 0"/>
<feBlend mode="normal" in2="effect1_dropShadow_288_4558" result="effect2_dropShadow_288_4558"/>
<feBlend mode="normal" in="SourceGraphic" in2="effect2_dropShadow_288_4558" result="shape"/>
</filter>
<filter id="filter1_dd_288_4558" x="204.981" y="231.576" width="103.831" height="103.831" filterUnits="userSpaceOnUse" color-interpolation-filters="sRGB">
<feFlood flood-opacity="0" result="BackgroundImageFix"/>
<feColorMatrix in="SourceAlpha" type="matrix" values="0 0 0 0 0 0 0 0 0 0 0 0 0 0 0 0 0 0 127 0" result="hardAlpha"/>
<feOffset dy="-2.07031"/>
<feGaussianBlur stdDeviation="18.1152"/>
<feComposite in2="hardAlpha" operator="out"/>
<feColorMatrix type="matrix" values="0 0 0 0 0.371081 0 0 0 0 0.235903 0 0 0 0 0.658333 0 0 0 1 0"/>
<feBlend mode="normal" in2="BackgroundImageFix" result="effect1_dropShadow_288_4558"/>
<feColorMatrix in="SourceAlpha" type="matrix" values="0 0 0 0 0 0 0 0 0 0 0 0 0 0 0 0 0 0 127 0" result="hardAlpha"/>
<feOffset dy="-2.07031"/>
<feGaussianBlur stdDeviation="10.3515"/>
<feComposite in2="hardAlpha" operator="out"/>
<feColorMatrix type="matrix" values="0 0 0 0 0.48825 0 0 0 0 0.372778 0 0 0 0 0.733333 0 0 0 1 0"/>
<feBlend mode="normal" in2="effect1_dropShadow_288_4558" result="effect2_dropShadow_288_4558"/>
<feBlend mode="normal" in="SourceGraphic" in2="effect2_dropShadow_288_4558" result="shape"/>
</filter>
<filter id="filter2_d_288_4558" x="86.1978" y="126.269" width="211.448" height="140.2" filterUnits="userSpaceOnUse" color-interpolation-filters="sRGB">
<feFlood flood-opacity="0" result="BackgroundImageFix"/>
<feColorMatrix in="SourceAlpha" type="matrix" values="0 0 0 0 0 0 0 0 0 0 0 0 0 0 0 0 0 0 127 0" result="hardAlpha"/>
<feOffset dy="1.03515"/>
<feGaussianBlur stdDeviation="5.17577"/>
<feComposite in2="hardAlpha" operator="out"/>
<feColorMatrix type="matrix" values="0 0 0 0 0.440043 0 0 0 0 0.20092 0 0 0 0 0.679167 0 0 0 0.3 0"/>
<feBlend mode="normal" in2="BackgroundImageFix" result="effect1_dropShadow_288_4558"/>
<feBlend mode="normal" in="SourceGraphic" in2="effect1_dropShadow_288_4558" result="shape"/>
</filter>
<filter id="filter3_d_288_4558" x="69.655" y="44.9175" width="244.531" height="145.558" filterUnits="userSpaceOnUse" color-interpolation-filters="sRGB">
<feFlood flood-opacity="0" result="BackgroundImageFix"/>
<feColorMatrix in="SourceAlpha" type="matrix" values="0 0 0 0 0 0 0 0 0 0 0 0 0 0 0 0 0 0 127 0" result="hardAlpha"/>
<feOffset dy="1.03515"/>
<feGaussianBlur stdDeviation="2.58789"/>
<feComposite in2="hardAlpha" operator="out"/>
<feColorMatrix type="matrix" values="0 0 0 0 0.369333 0 0 0 0 0.0916667 0 0 0 0 0.5 0 0 0 0.15 0"/>
<feBlend mode="normal" in2="BackgroundImageFix" result="effect1_dropShadow_288_4558"/>
<feBlend mode="normal" in="SourceGraphic" in2="effect1_dropShadow_288_4558" result="shape"/>
</filter>
<filter id="filter4_d_288_4558" x="94.333" y="16.2954" width="197.244" height="132.984" filterUnits="userSpaceOnUse" color-interpolation-filters="sRGB">
<feFlood flood-opacity="0" result="BackgroundImageFix"/>
<feColorMatrix in="SourceAlpha" type="matrix" values="0 0 0 0 0 0 0 0 0 0 0 0 0 0 0 0 0 0 127 0" result="hardAlpha"/>
<feOffset dx="1.03515" dy="1.03515"/>
<feGaussianBlur stdDeviation="3.88183"/>
<feComposite in2="hardAlpha" operator="out"/>
<feColorMatrix type="matrix" values="0 0 0 0 0.440043 0 0 0 0 0.20092 0 0 0 0 0.679167 0 0 0 0.2 0"/>
<feBlend mode="normal" in2="BackgroundImageFix" result="effect1_dropShadow_288_4558"/>
<feBlend mode="normal" in="SourceGraphic" in2="effect1_dropShadow_288_4558" result="shape"/>
</filter>
<linearGradient id="paint0_linear_288_4558" x1="192.239" y1="322.81" x2="192.239" y2="397.17" gradientUnits="userSpaceOnUse">
<stop stop-color="white"/>
<stop offset="0.223958" stop-color="#6BE4FF"/>
<stop offset="0.623188" stop-color="#371B73" stop-opacity="0.6"/>
<stop offset="1" stop-color="#0A1153" stop-opacity="0.4"/>
</linearGradient>
<linearGradient id="paint1_linear_288_4558" x1="256.896" y1="263.057" x2="256.896" y2="318.069" gradientUnits="userSpaceOnUse">
<stop stop-color="white"/>
<stop offset="0.223958" stop-color="#6BE4FF"/>
<stop offset="0.623188" stop-color="#371B73" stop-opacity="0.6"/>
<stop offset="1" stop-color="#0A1153" stop-opacity="0.4"/>
</linearGradient>
<radialGradient id="paint2_radial_288_4558" cx="0" cy="0" r="1" gradientUnits="userSpaceOnUse" gradientTransform="translate(159.179 159.626) rotate(90) scale(159.179)">
<stop stop-color="#FF65C1"/>
<stop offset="1" stop-color="#FF65C1" stop-opacity="0"/>
</radialGradient>
<linearGradient id="paint3_linear_288_4558" x1="191.922" y1="135.585" x2="191.922" y2="255.081" gradientUnits="userSpaceOnUse">
<stop stop-color="#13154D"/>
<stop offset="1" stop-color="#8E92EE" stop-opacity="0"/>
</linearGradient>
<linearGradient id="paint4_linear_288_4558" x1="239.29" y1="202.866" x2="244.687" y2="263.142" gradientUnits="userSpaceOnUse">
<stop stop-color="white" stop-opacity="0"/>
<stop offset="1" stop-color="white"/>
</linearGradient>
<radialGradient id="paint5_radial_288_4558" cx="0" cy="0" r="1" gradientUnits="userSpaceOnUse" gradientTransform="translate(70.9256 183.636) rotate(-19.6638) scale(256.976)">
<stop offset="0.249306" stop-color="white"/>
<stop offset="0.48315" stop-color="#FF8FED" stop-opacity="0.5"/>
<stop offset="0.627037" stop-color="#220C7A" stop-opacity="0.5"/>
</radialGradient>
<linearGradient id="paint6_linear_288_4558" x1="83.2803" y1="174.334" x2="307.489" y2="149.027" gradientUnits="userSpaceOnUse">
<stop stop-color="white"/>
<stop offset="1" stop-color="#12178E" stop-opacity="0.4"/>
</linearGradient>
<linearGradient id="paint7_linear_288_4558" x1="210.702" y1="258.159" x2="174.91" y2="172.769" gradientUnits="userSpaceOnUse">
<stop offset="0.0011346" stop-color="white"/>
<stop offset="1" stop-color="white" stop-opacity="0"/>
</linearGradient>
<radialGradient id="paint8_radial_288_4558" cx="0" cy="0" r="1" gradientUnits="userSpaceOnUse" gradientTransform="translate(124.133 185.131) rotate(-14.8494) scale(177.583)">
<stop offset="0.239373" stop-color="white"/>
<stop offset="0.410099" stop-color="#FFCEF1"/>
<stop offset="0.67492" stop-color="#B6B9FF"/>
<stop offset="0.861176" stop-color="#FFA8E7"/>
<stop offset="1" stop-color="white"/>
</radialGradient>
<radialGradient id="paint9_radial_288_4558" cx="0" cy="0" r="1" gradientUnits="userSpaceOnUse" gradientTransform="translate(276.828 208.895) rotate(-121.724) scale(102.111)">
<stop stop-color="#3F52FF"/>
<stop offset="1" stop-color="#3F52FF" stop-opacity="0"/>
</radialGradient>
<linearGradient id="paint10_linear_288_4558" x1="77.3522" y1="112.002" x2="309.01" y2="119.199" gradientUnits="userSpaceOnUse">
<stop stop-color="white"/>
<stop offset="1" stop-color="#5653FF" stop-opacity="0.2"/>
</linearGradient>
<linearGradient id="paint11_linear_288_4558" x1="176.501" y1="231.995" x2="169.222" y2="121.721" gradientUnits="userSpaceOnUse">
<stop stop-color="white"/>
<stop offset="1" stop-color="white" stop-opacity="0"/>
</linearGradient>
<linearGradient id="paint12_linear_288_4558" x1="191.92" y1="23.0239" x2="191.92" y2="140.481" gradientUnits="userSpaceOnUse">
<stop stop-color="#13154D" stop-opacity="0.5"/>
<stop offset="1" stop-color="#8E92EE" stop-opacity="0"/>
</linearGradient>
<linearGradient id="paint13_linear_288_4558" x1="207.8" y1="165.981" x2="219.851" y2="36.0989" gradientUnits="userSpaceOnUse">
<stop stop-color="white"/>
<stop offset="1" stop-color="white" stop-opacity="0"/>
</linearGradient>
<linearGradient id="paint14_linear_288_4558" x1="191.922" y1="23.0239" x2="191.922" y2="99.6843" gradientUnits="userSpaceOnUse">
<stop stop-color="#13154D"/>
<stop offset="1" stop-color="#8E92EE" stop-opacity="0"/>
</linearGradient>
<linearGradient id="paint15_linear_288_4558" x1="214.548" y1="156.085" x2="191.922" y2="23.0239" gradientUnits="userSpaceOnUse">
<stop stop-color="white"/>
<stop offset="1" stop-color="white" stop-opacity="0"/>
</linearGradient>
<linearGradient id="paint16_linear_288_4558" x1="191.921" y1="25.7412" x2="191.921" y2="70.7972" gradientUnits="userSpaceOnUse">
<stop stop-color="#13154D"/>
<stop offset="1" stop-color="#8E92EE" stop-opacity="0"/>
</linearGradient>
<linearGradient id="paint17_linear_288_4558" x1="209.6" y1="118.3" x2="191.921" y2="25.7412" gradientUnits="userSpaceOnUse">
<stop stop-color="white"/>
<stop offset="1" stop-color="white" stop-opacity="0"/>
</linearGradient>
<radialGradient id="paint18_radial_288_4558" cx="0" cy="0" r="1" gradientUnits="userSpaceOnUse" gradientTransform="translate(70.9256 183.635) rotate(-19.6638) scale(256.976)">
<stop offset="0.249306" stop-color="white"/>
<stop offset="0.48315" stop-color="#FF8FED" stop-opacity="0.5"/>
<stop offset="0.627037" stop-color="#220C7A" stop-opacity="0"/>
</radialGradient>
</defs>
</svg>
