<svg width="975" height="743" viewBox="0 0 975 743" fill="none" xmlns="http://www.w3.org/2000/svg">
<circle cx="858.358" cy="467.043" r="186.032" fill="url(#paint0_radial_288_4428)" fill-opacity="0.5"/>
<circle cx="858.36" cy="466.982" r="275.56" fill="url(#paint1_radial_288_4428)" fill-opacity="0.6"/>
<g filter="url(#filter0_d_288_4428)">
<ellipse cx="858.359" cy="552.702" rx="146.637" ry="91.8641" fill="url(#paint2_linear_288_4428)" fill-opacity="0.5" shape-rendering="crispEdges"/>
<path d="M1004.48 552.702C1004.48 577.828 988.221 600.652 961.773 617.222C935.331 633.786 898.77 644.049 858.359 644.049C817.948 644.049 781.388 633.786 754.946 617.222C728.498 600.652 712.24 577.828 712.24 552.702C712.24 527.577 728.498 504.753 754.946 488.183C781.388 471.618 817.948 461.356 858.359 461.356C898.77 461.356 935.331 471.618 961.773 488.183C988.221 504.753 1004.48 527.577 1004.48 552.702Z" stroke="url(#paint3_linear_288_4428)" stroke-opacity="0.6" stroke-width="1.03515" shape-rendering="crispEdges"/>
</g>
<circle cx="858.358" cy="467.044" r="186.032" fill="url(#paint4_radial_288_4428)"/>
<g filter="url(#filter1_d_288_4428)">
<ellipse cx="858.359" cy="497.802" rx="181.878" ry="106.402" fill="url(#paint5_linear_288_4428)" fill-opacity="0.5" shape-rendering="crispEdges"/>
</g>
<g filter="url(#filter2_d_288_4428)">
<ellipse cx="858.359" cy="431.744" rx="180.028" ry="103.941" fill="url(#paint6_linear_288_4428)" fill-opacity="0.5" shape-rendering="crispEdges"/>
<path d="M1037.87 431.744C1037.87 460.183 1017.9 486.029 985.399 504.793C952.913 523.55 907.998 535.167 858.359 535.167C808.72 535.167 763.806 523.55 731.319 504.793C698.819 486.029 678.849 460.183 678.849 431.744C678.849 403.304 698.819 377.459 731.319 358.694C763.806 339.938 808.72 328.32 858.359 328.32C907.998 328.32 952.913 339.938 985.399 358.694C1017.9 377.459 1037.87 403.304 1037.87 431.744Z" stroke="url(#paint7_linear_288_4428)" stroke-opacity="0.6" stroke-width="1.03515" shape-rendering="crispEdges"/>
</g>
<g filter="url(#filter3_d_288_4428)">
<ellipse cx="858.361" cy="346.706" rx="86.9505" ry="58.9334" fill="url(#paint8_linear_288_4428)" fill-opacity="0.5" shape-rendering="crispEdges"/>
</g>
<circle cx="858.358" cy="467.042" r="137.798" fill="url(#paint9_radial_288_4428)"/>
<g filter="url(#filter4_d_288_4428)">
<path d="M997.535 378.069C997.535 402.769 982.046 425.201 956.856 441.483C931.671 457.762 896.848 467.847 858.357 467.847C819.865 467.847 785.042 457.762 759.857 441.483C734.667 425.201 719.178 402.769 719.178 378.069C719.178 353.368 734.667 330.936 759.857 314.654C785.042 298.376 819.865 288.29 858.357 288.29C896.848 288.29 931.671 298.376 956.856 314.654C982.046 330.936 997.535 353.368 997.535 378.069Z" stroke="url(#paint10_linear_288_4428)" stroke-opacity="0.6" stroke-width="1.03515" shape-rendering="crispEdges"/>
</g>
<g filter="url(#filter5_d_288_4428)">
<path d="M1037.87 431.744C1037.87 460.183 1017.9 486.029 985.399 504.793C952.913 523.55 907.998 535.167 858.359 535.167C808.72 535.167 763.806 523.55 731.319 504.793C698.819 486.029 678.849 460.183 678.849 431.744C678.849 403.304 698.819 377.459 731.319 358.694C763.806 339.938 808.72 328.32 858.359 328.32C907.998 328.32 952.913 339.938 985.399 358.694C1017.9 377.459 1037.87 403.304 1037.87 431.744Z" stroke="url(#paint11_linear_288_4428)" stroke-opacity="0.6" stroke-width="1.03515" shape-rendering="crispEdges"/>
</g>
<g filter="url(#filter6_d_288_4428)">
<path d="M1039.72 497.802C1039.72 526.924 1019.54 553.385 986.704 572.593C953.883 591.794 908.508 603.686 858.359 603.686C808.21 603.686 762.834 591.794 730.013 572.593C697.18 553.385 676.999 526.924 676.999 497.802C676.999 468.68 697.18 442.219 730.013 423.011C762.834 403.81 808.21 391.917 858.359 391.917C908.508 391.917 953.883 403.81 986.704 423.011C1019.54 442.219 1039.72 468.68 1039.72 497.802Z" stroke="url(#paint12_linear_288_4428)" stroke-opacity="0.6" stroke-width="1.03515" shape-rendering="crispEdges"/>
</g>
<g filter="url(#filter7_d_288_4428)">
<path d="M944.794 346.706C944.794 362.757 935.195 377.348 919.554 387.95C903.915 398.549 882.282 405.122 858.361 405.122C834.44 405.122 812.806 398.549 797.168 387.95C781.527 377.348 771.928 362.757 771.928 346.706C771.928 330.655 781.527 316.064 797.168 305.462C812.806 294.863 834.44 288.29 858.361 288.29C882.282 288.29 903.915 294.863 919.554 305.462C935.195 316.064 944.794 330.655 944.794 346.706Z" stroke="url(#paint13_linear_288_4428)" stroke-opacity="0.6" stroke-width="1.03515" shape-rendering="crispEdges"/>
</g>
<circle cx="566.751" cy="346.771" r="105.576" fill="url(#paint14_radial_288_4428)" fill-opacity="0.6"/>
<g filter="url(#filter8_d_288_4428)">
<ellipse cx="553.77" cy="376.08" rx="66.3402" ry="41.5603" fill="url(#paint15_linear_288_4428)" fill-opacity="0.5" shape-rendering="crispEdges"/>
<path d="M619.593 376.08C619.593 387.314 612.323 397.563 600.405 405.029C588.494 412.49 572.008 417.123 553.77 417.123C535.532 417.123 519.046 412.49 507.135 405.029C495.217 397.563 487.947 387.314 487.947 376.08C487.947 364.846 495.217 354.597 507.135 347.131C519.046 339.669 535.532 335.037 553.77 335.037C572.008 335.037 588.494 339.669 600.405 347.131C612.323 354.597 619.593 364.846 619.593 376.08Z" stroke="url(#paint16_linear_288_4428)" stroke-opacity="0.6" stroke-width="1.03515" shape-rendering="crispEdges"/>
</g>
<circle cx="553.771" cy="337.326" r="84.163" fill="url(#paint17_radial_288_4428)"/>
<g filter="url(#filter9_d_288_4428)">
<ellipse cx="553.77" cy="351.241" rx="82.2835" ry="48.1374" fill="url(#paint18_linear_288_4428)" fill-opacity="0.5" shape-rendering="crispEdges"/>
<path d="M635.536 351.241C635.536 364.274 626.503 376.168 611.692 384.833C596.894 393.49 576.417 398.861 553.77 398.861C531.124 398.861 510.647 393.49 495.849 384.833C481.038 376.168 472.005 364.274 472.005 351.241C472.005 338.208 481.038 326.314 495.849 317.649C510.647 308.992 531.124 303.621 553.77 303.621C576.417 303.621 596.894 308.992 611.692 317.649C626.503 326.314 635.536 338.208 635.536 351.241Z" stroke="url(#paint19_linear_288_4428)" stroke-opacity="0.6" stroke-width="1.03515" shape-rendering="crispEdges"/>
</g>
<circle cx="553.772" cy="337.326" r="62.3412" fill="url(#paint20_radial_288_4428)"/>
<circle cx="553.772" cy="337.326" r="62.3412" fill="url(#paint21_radial_288_4428)"/>
<g filter="url(#filter10_d_288_4428)">
<ellipse cx="553.773" cy="321.357" rx="81.4465" ry="47.0242" fill="url(#paint22_linear_288_4428)" fill-opacity="0.5" shape-rendering="crispEdges"/>
<path d="M634.702 321.357C634.702 334.079 625.766 345.696 611.105 354.16C596.458 362.617 576.189 367.864 553.773 367.864C531.356 367.864 511.087 362.617 496.44 354.16C481.779 345.696 472.844 334.079 472.844 321.357C472.844 308.635 481.779 297.019 496.44 288.554C511.087 280.098 531.356 274.851 553.773 274.851C576.189 274.851 596.458 280.098 611.105 288.554C625.766 297.019 634.702 308.635 634.702 321.357Z" stroke="url(#paint23_linear_288_4428)" stroke-opacity="0.6" stroke-width="1.03515" shape-rendering="crispEdges"/>
</g>
<g filter="url(#filter11_d_288_4428)">
<ellipse cx="553.77" cy="297.074" rx="63.2002" ry="40.8509" fill="url(#paint24_linear_288_4428)" fill-opacity="0.5" shape-rendering="crispEdges"/>
<path d="M616.452 297.074C616.452 308.12 609.525 318.191 598.178 325.525C586.836 332.856 571.137 337.407 553.77 337.407C536.402 337.407 520.703 332.856 509.361 325.525C498.015 318.191 491.087 308.12 491.087 297.074C491.087 286.028 498.015 275.957 509.361 268.623C520.703 261.292 536.402 256.741 553.77 256.741C571.137 256.741 586.836 261.292 598.178 268.623C609.525 275.957 616.452 286.028 616.452 297.074Z" stroke="url(#paint25_linear_288_4428)" stroke-opacity="0.6" stroke-width="1.03515" shape-rendering="crispEdges"/>
</g>
<g filter="url(#filter12_d_288_4428)">
<ellipse cx="553.772" cy="282.885" rx="39.3374" ry="26.6621" fill="url(#paint26_linear_288_4428)" fill-opacity="0.5" shape-rendering="crispEdges"/>
<path d="M592.592 282.885C592.592 290.025 588.322 296.548 581.297 301.31C574.275 306.069 564.545 309.03 553.772 309.03C542.999 309.03 533.269 306.069 526.247 301.31C519.222 296.548 514.952 290.025 514.952 282.885C514.952 275.746 519.222 269.222 526.247 264.461C533.269 259.701 542.999 256.741 553.772 256.741C564.545 256.741 574.275 259.701 581.297 264.461C588.322 269.222 592.592 275.746 592.592 282.885Z" stroke="url(#paint27_linear_288_4428)" stroke-opacity="0.6" stroke-width="1.03515" shape-rendering="crispEdges"/>
</g>
<circle cx="553.771" cy="337.326" r="84.163" fill="url(#paint28_radial_288_4428)" fill-opacity="0.9"/>
<rect x="301.277" y="316.217" width="3.45747" height="3.45747" transform="rotate(45 301.277 316.217)" fill="#0066FF" fill-opacity="0.5"/>
<rect x="337.986" y="385.072" width="6.98279" height="6.98279" transform="rotate(45 337.986 385.072)" fill="#0066FF" fill-opacity="0.5"/>
<rect width="3.24924" height="3.24924" transform="matrix(-0.707129 -0.707085 -0.707129 0.707085 465.77 390.01)" fill="#0066FF" fill-opacity="0.5"/>
<rect x="412.138" y="451.53" width="3.45747" height="3.45747" transform="rotate(45 412.138 451.53)" fill="#0066FF" fill-opacity="0.5"/>
<rect x="225.132" y="308.025" width="3.45747" height="3.45747" transform="rotate(45 225.132 308.025)" fill="#0066FF" fill-opacity="0.5"/>
<rect x="243.577" y="191.648" width="3.45747" height="3.45747" transform="rotate(45 243.577 191.648)" fill="#0500FF" fill-opacity="0.5"/>
<rect width="2.41327" height="2.41327" transform="matrix(0.707077 0.707136 -0.707077 0.707136 296.387 259.583)" fill="#0500FF" fill-opacity="0.5"/>
<rect x="266.951" y="247.516" width="4.50239" height="4.50239" transform="rotate(45 266.951 247.516)" fill="#0500FF" fill-opacity="0.5"/>
<rect x="109.273" y="711.299" width="4.80723" height="4.80723" transform="rotate(45 109.273 711.299)" fill="#0066FF" fill-opacity="0.5"/>
<rect width="4.80723" height="4.80723" transform="matrix(0.707122 0.707092 -0.707122 0.707092 3.39917 699.909)" fill="#0066FF" fill-opacity="0.5"/>
<rect x="29.0471" y="538.1" width="4.80723" height="4.80723" transform="rotate(45 29.0471 538.1)" fill="#0500FF" fill-opacity="0.5"/>
<rect x="102.475" y="632.557" width="3.35976" height="3.35976" transform="rotate(45 102.475 632.557)" fill="#0500FF" fill-opacity="0.5"/>
<rect width="6.26008" height="6.26008" transform="matrix(0.707118 0.707095 -0.707118 0.707095 61.5454 615.778)" fill="#0500FF" fill-opacity="0.5"/>
<rect x="927.374" y="317.646" width="8.30972" height="8.30973" transform="rotate(9.6901 927.374 317.646)" fill="#0066FF" fill-opacity="0.5"/>
<rect x="764.787" y="320.452" width="4.11449" height="4.11449" transform="rotate(9.6901 764.787 320.452)" fill="#0066FF" fill-opacity="0.5"/>
<rect x="702.651" y="194.752" width="4.11449" height="4.11449" transform="rotate(9.6901 702.651 194.752)" fill="#0500FF" fill-opacity="0.5"/>
<rect width="2.87186" height="2.87186" transform="matrix(0.985735 0.168305 -0.168333 0.98573 800.664 224.398)" fill="#0500FF" fill-opacity="0.5"/>
<rect x="763.779" y="232.926" width="5.35798" height="5.35798" transform="rotate(9.6901 763.779 232.926)" fill="#0500FF" fill-opacity="0.5"/>
<defs>
<filter id="filter0_d_288_4428" x="704.994" y="454.11" width="308.801" height="199.255" filterUnits="userSpaceOnUse" color-interpolation-filters="sRGB">
<feFlood flood-opacity="0" result="BackgroundImageFix"/>
<feColorMatrix in="SourceAlpha" type="matrix" values="0 0 0 0 0 0 0 0 0 0 0 0 0 0 0 0 0 0 127 0" result="hardAlpha"/>
<feOffset dx="1.03515" dy="1.03515"/>
<feGaussianBlur stdDeviation="3.88183"/>
<feComposite in2="hardAlpha" operator="out"/>
<feColorMatrix type="matrix" values="0 0 0 0 0.440043 0 0 0 0 0.20092 0 0 0 0 0.679167 0 0 0 0.2 0"/>
<feBlend mode="normal" in2="BackgroundImageFix" result="effect1_dropShadow_288_4428"/>
<feBlend mode="normal" in="SourceGraphic" in2="effect1_dropShadow_288_4428" result="shape"/>
</filter>
<filter id="filter1_d_288_4428" x="669.752" y="384.671" width="379.283" height="228.332" filterUnits="userSpaceOnUse" color-interpolation-filters="sRGB">
<feFlood flood-opacity="0" result="BackgroundImageFix"/>
<feColorMatrix in="SourceAlpha" type="matrix" values="0 0 0 0 0 0 0 0 0 0 0 0 0 0 0 0 0 0 127 0" result="hardAlpha"/>
<feOffset dx="1.03515" dy="1.03515"/>
<feGaussianBlur stdDeviation="3.88183"/>
<feComposite in2="hardAlpha" operator="out"/>
<feColorMatrix type="matrix" values="0 0 0 0 0.440043 0 0 0 0 0.20092 0 0 0 0 0.679167 0 0 0 0.2 0"/>
<feBlend mode="normal" in2="BackgroundImageFix" result="effect1_dropShadow_288_4428"/>
<feBlend mode="normal" in="SourceGraphic" in2="effect1_dropShadow_288_4428" result="shape"/>
</filter>
<filter id="filter2_d_288_4428" x="671.603" y="321.074" width="375.583" height="223.41" filterUnits="userSpaceOnUse" color-interpolation-filters="sRGB">
<feFlood flood-opacity="0" result="BackgroundImageFix"/>
<feColorMatrix in="SourceAlpha" type="matrix" values="0 0 0 0 0 0 0 0 0 0 0 0 0 0 0 0 0 0 127 0" result="hardAlpha"/>
<feOffset dx="1.03515" dy="1.03515"/>
<feGaussianBlur stdDeviation="3.88183"/>
<feComposite in2="hardAlpha" operator="out"/>
<feColorMatrix type="matrix" values="0 0 0 0 0.440043 0 0 0 0 0.20092 0 0 0 0 0.679167 0 0 0 0.2 0"/>
<feBlend mode="normal" in2="BackgroundImageFix" result="effect1_dropShadow_288_4428"/>
<feBlend mode="normal" in="SourceGraphic" in2="effect1_dropShadow_288_4428" result="shape"/>
</filter>
<filter id="filter3_d_288_4428" x="764.682" y="281.044" width="189.428" height="133.394" filterUnits="userSpaceOnUse" color-interpolation-filters="sRGB">
<feFlood flood-opacity="0" result="BackgroundImageFix"/>
<feColorMatrix in="SourceAlpha" type="matrix" values="0 0 0 0 0 0 0 0 0 0 0 0 0 0 0 0 0 0 127 0" result="hardAlpha"/>
<feOffset dx="1.03515" dy="1.03515"/>
<feGaussianBlur stdDeviation="3.88183"/>
<feComposite in2="hardAlpha" operator="out"/>
<feColorMatrix type="matrix" values="0 0 0 0 0.440043 0 0 0 0 0.20092 0 0 0 0 0.679167 0 0 0 0.2 0"/>
<feBlend mode="normal" in2="BackgroundImageFix" result="effect1_dropShadow_288_4428"/>
<feBlend mode="normal" in="SourceGraphic" in2="effect1_dropShadow_288_4428" result="shape"/>
</filter>
<filter id="filter4_d_288_4428" x="711.932" y="281.044" width="294.92" height="196.12" filterUnits="userSpaceOnUse" color-interpolation-filters="sRGB">
<feFlood flood-opacity="0" result="BackgroundImageFix"/>
<feColorMatrix in="SourceAlpha" type="matrix" values="0 0 0 0 0 0 0 0 0 0 0 0 0 0 0 0 0 0 127 0" result="hardAlpha"/>
<feOffset dx="1.03515" dy="1.03515"/>
<feGaussianBlur stdDeviation="3.88183"/>
<feComposite in2="hardAlpha" operator="out"/>
<feColorMatrix type="matrix" values="0 0 0 0 0.440043 0 0 0 0 0.20092 0 0 0 0 0.679167 0 0 0 0.2 0"/>
<feBlend mode="normal" in2="BackgroundImageFix" result="effect1_dropShadow_288_4428"/>
<feBlend mode="normal" in="SourceGraphic" in2="effect1_dropShadow_288_4428" result="shape"/>
</filter>
<filter id="filter5_d_288_4428" x="671.603" y="321.074" width="375.583" height="223.41" filterUnits="userSpaceOnUse" color-interpolation-filters="sRGB">
<feFlood flood-opacity="0" result="BackgroundImageFix"/>
<feColorMatrix in="SourceAlpha" type="matrix" values="0 0 0 0 0 0 0 0 0 0 0 0 0 0 0 0 0 0 127 0" result="hardAlpha"/>
<feOffset dx="1.03515" dy="1.03515"/>
<feGaussianBlur stdDeviation="3.88183"/>
<feComposite in2="hardAlpha" operator="out"/>
<feColorMatrix type="matrix" values="0 0 0 0 0.440043 0 0 0 0 0.20092 0 0 0 0 0.679167 0 0 0 0.2 0"/>
<feBlend mode="normal" in2="BackgroundImageFix" result="effect1_dropShadow_288_4428"/>
<feBlend mode="normal" in="SourceGraphic" in2="effect1_dropShadow_288_4428" result="shape"/>
</filter>
<filter id="filter6_d_288_4428" x="669.752" y="384.671" width="379.283" height="228.332" filterUnits="userSpaceOnUse" color-interpolation-filters="sRGB">
<feFlood flood-opacity="0" result="BackgroundImageFix"/>
<feColorMatrix in="SourceAlpha" type="matrix" values="0 0 0 0 0 0 0 0 0 0 0 0 0 0 0 0 0 0 127 0" result="hardAlpha"/>
<feOffset dx="1.03515" dy="1.03515"/>
<feGaussianBlur stdDeviation="3.88183"/>
<feComposite in2="hardAlpha" operator="out"/>
<feColorMatrix type="matrix" values="0 0 0 0 0.440043 0 0 0 0 0.20092 0 0 0 0 0.679167 0 0 0 0.2 0"/>
<feBlend mode="normal" in2="BackgroundImageFix" result="effect1_dropShadow_288_4428"/>
<feBlend mode="normal" in="SourceGraphic" in2="effect1_dropShadow_288_4428" result="shape"/>
</filter>
<filter id="filter7_d_288_4428" x="764.682" y="281.044" width="189.428" height="133.394" filterUnits="userSpaceOnUse" color-interpolation-filters="sRGB">
<feFlood flood-opacity="0" result="BackgroundImageFix"/>
<feColorMatrix in="SourceAlpha" type="matrix" values="0 0 0 0 0 0 0 0 0 0 0 0 0 0 0 0 0 0 127 0" result="hardAlpha"/>
<feOffset dx="1.03515" dy="1.03515"/>
<feGaussianBlur stdDeviation="3.88183"/>
<feComposite in2="hardAlpha" operator="out"/>
<feColorMatrix type="matrix" values="0 0 0 0 0.440043 0 0 0 0 0.20092 0 0 0 0 0.679167 0 0 0 0.2 0"/>
<feBlend mode="normal" in2="BackgroundImageFix" result="effect1_dropShadow_288_4428"/>
<feBlend mode="normal" in="SourceGraphic" in2="effect1_dropShadow_288_4428" result="shape"/>
</filter>
<filter id="filter8_d_288_4428" x="480.701" y="327.791" width="148.208" height="98.6479" filterUnits="userSpaceOnUse" color-interpolation-filters="sRGB">
<feFlood flood-opacity="0" result="BackgroundImageFix"/>
<feColorMatrix in="SourceAlpha" type="matrix" values="0 0 0 0 0 0 0 0 0 0 0 0 0 0 0 0 0 0 127 0" result="hardAlpha"/>
<feOffset dx="1.03515" dy="1.03515"/>
<feGaussianBlur stdDeviation="3.88183"/>
<feComposite in2="hardAlpha" operator="out"/>
<feColorMatrix type="matrix" values="0 0 0 0 0.440043 0 0 0 0 0.20092 0 0 0 0 0.679167 0 0 0 0.2 0"/>
<feBlend mode="normal" in2="BackgroundImageFix" result="effect1_dropShadow_288_4428"/>
<feBlend mode="normal" in="SourceGraphic" in2="effect1_dropShadow_288_4428" result="shape"/>
</filter>
<filter id="filter9_d_288_4428" x="464.758" y="296.375" width="180.094" height="111.802" filterUnits="userSpaceOnUse" color-interpolation-filters="sRGB">
<feFlood flood-opacity="0" result="BackgroundImageFix"/>
<feColorMatrix in="SourceAlpha" type="matrix" values="0 0 0 0 0 0 0 0 0 0 0 0 0 0 0 0 0 0 127 0" result="hardAlpha"/>
<feOffset dx="1.03515" dy="1.03515"/>
<feGaussianBlur stdDeviation="3.88183"/>
<feComposite in2="hardAlpha" operator="out"/>
<feColorMatrix type="matrix" values="0 0 0 0 0.440043 0 0 0 0 0.20092 0 0 0 0 0.679167 0 0 0 0.2 0"/>
<feBlend mode="normal" in2="BackgroundImageFix" result="effect1_dropShadow_288_4428"/>
<feBlend mode="normal" in="SourceGraphic" in2="effect1_dropShadow_288_4428" result="shape"/>
</filter>
<filter id="filter10_d_288_4428" x="465.598" y="267.605" width="178.42" height="109.576" filterUnits="userSpaceOnUse" color-interpolation-filters="sRGB">
<feFlood flood-opacity="0" result="BackgroundImageFix"/>
<feColorMatrix in="SourceAlpha" type="matrix" values="0 0 0 0 0 0 0 0 0 0 0 0 0 0 0 0 0 0 127 0" result="hardAlpha"/>
<feOffset dx="1.03515" dy="1.03515"/>
<feGaussianBlur stdDeviation="3.88183"/>
<feComposite in2="hardAlpha" operator="out"/>
<feColorMatrix type="matrix" values="0 0 0 0 0.440043 0 0 0 0 0.20092 0 0 0 0 0.679167 0 0 0 0.2 0"/>
<feBlend mode="normal" in2="BackgroundImageFix" result="effect1_dropShadow_288_4428"/>
<feBlend mode="normal" in="SourceGraphic" in2="effect1_dropShadow_288_4428" result="shape"/>
</filter>
<filter id="filter11_d_288_4428" x="483.841" y="249.495" width="141.928" height="97.229" filterUnits="userSpaceOnUse" color-interpolation-filters="sRGB">
<feFlood flood-opacity="0" result="BackgroundImageFix"/>
<feColorMatrix in="SourceAlpha" type="matrix" values="0 0 0 0 0 0 0 0 0 0 0 0 0 0 0 0 0 0 127 0" result="hardAlpha"/>
<feOffset dx="1.03515" dy="1.03515"/>
<feGaussianBlur stdDeviation="3.88183"/>
<feComposite in2="hardAlpha" operator="out"/>
<feColorMatrix type="matrix" values="0 0 0 0 0.440043 0 0 0 0 0.20092 0 0 0 0 0.679167 0 0 0 0.2 0"/>
<feBlend mode="normal" in2="BackgroundImageFix" result="effect1_dropShadow_288_4428"/>
<feBlend mode="normal" in="SourceGraphic" in2="effect1_dropShadow_288_4428" result="shape"/>
</filter>
<filter id="filter12_d_288_4428" x="507.706" y="249.495" width="94.202" height="68.8515" filterUnits="userSpaceOnUse" color-interpolation-filters="sRGB">
<feFlood flood-opacity="0" result="BackgroundImageFix"/>
<feColorMatrix in="SourceAlpha" type="matrix" values="0 0 0 0 0 0 0 0 0 0 0 0 0 0 0 0 0 0 127 0" result="hardAlpha"/>
<feOffset dx="1.03515" dy="1.03515"/>
<feGaussianBlur stdDeviation="3.88183"/>
<feComposite in2="hardAlpha" operator="out"/>
<feColorMatrix type="matrix" values="0 0 0 0 0.440043 0 0 0 0 0.20092 0 0 0 0 0.679167 0 0 0 0.2 0"/>
<feBlend mode="normal" in2="BackgroundImageFix" result="effect1_dropShadow_288_4428"/>
<feBlend mode="normal" in="SourceGraphic" in2="effect1_dropShadow_288_4428" result="shape"/>
</filter>
<radialGradient id="paint0_radial_288_4428" cx="0" cy="0" r="1" gradientUnits="userSpaceOnUse" gradientTransform="translate(783.644 676.574) rotate(-64.0757) scale(417.608)">
<stop offset="0.107416" stop-color="white" stop-opacity="0.5"/>
<stop offset="0.328407" stop-color="#8FB5FF" stop-opacity="0.5"/>
<stop offset="0.629496" stop-color="#220C7A" stop-opacity="0"/>
</radialGradient>
<radialGradient id="paint1_radial_288_4428" cx="0" cy="0" r="1" gradientUnits="userSpaceOnUse" gradientTransform="translate(858.36 466.982) rotate(90) scale(275.56)">
<stop stop-color="#3E5DFF"/>
<stop offset="1" stop-color="#3E5DFF" stop-opacity="0"/>
</radialGradient>
<linearGradient id="paint2_linear_288_4428" x1="1005" y1="532.819" x2="711.815" y2="553.979" gradientUnits="userSpaceOnUse">
<stop stop-color="#4E53BE" stop-opacity="0.5"/>
<stop offset="0.885417" stop-color="#33CEFF" stop-opacity="0.7"/>
<stop offset="1" stop-color="white" stop-opacity="0.5"/>
</linearGradient>
<linearGradient id="paint3_linear_288_4428" x1="883.989" y1="684.455" x2="902.269" y2="481.185" gradientUnits="userSpaceOnUse">
<stop stop-color="white"/>
<stop offset="1" stop-color="white" stop-opacity="0"/>
</linearGradient>
<radialGradient id="paint4_radial_288_4428" cx="0" cy="0" r="1" gradientUnits="userSpaceOnUse" gradientTransform="translate(672.326 534.717) rotate(-19.6638) scale(395.105)">
<stop offset="0.249306" stop-color="white"/>
<stop offset="0.48315" stop-color="#8FF2FF" stop-opacity="0.5"/>
<stop offset="0.627037" stop-color="#220C7A" stop-opacity="0.1"/>
</radialGradient>
<linearGradient id="paint5_linear_288_4428" x1="1021.54" y1="491.65" x2="676.633" y2="502.599" gradientUnits="userSpaceOnUse">
<stop stop-color="#4E53BE" stop-opacity="0.1"/>
<stop offset="1" stop-color="#33CEFF"/>
</linearGradient>
<linearGradient id="paint6_linear_288_4428" x1="994.865" y1="422.498" x2="678.555" y2="436.726" gradientUnits="userSpaceOnUse">
<stop stop-color="#4E53BE" stop-opacity="0.1"/>
<stop offset="0.997187" stop-color="#33CEFF"/>
</linearGradient>
<linearGradient id="paint7_linear_288_4428" x1="889.825" y1="580.817" x2="908.91" y2="350.546" gradientUnits="userSpaceOnUse">
<stop stop-color="white"/>
<stop offset="1" stop-color="white" stop-opacity="0"/>
</linearGradient>
<linearGradient id="paint8_linear_288_4428" x1="945.311" y1="333.95" x2="771.334" y2="345.556" gradientUnits="userSpaceOnUse">
<stop stop-color="#4E53BE" stop-opacity="0.1"/>
<stop offset="1" stop-color="#33CEFF" stop-opacity="0.9"/>
</linearGradient>
<radialGradient id="paint9_radial_288_4428" cx="0" cy="0" r="1" gradientUnits="userSpaceOnUse" gradientTransform="translate(885.209 726.764) rotate(-83.1976) scale(400.338)">
<stop offset="0.338542" stop-color="#68FFF6" stop-opacity="0.1"/>
<stop offset="0.802083" stop-color="#FFBFE9"/>
<stop offset="1" stop-color="white"/>
</radialGradient>
<linearGradient id="paint10_linear_288_4428" x1="874.195" y1="468.365" x2="883.531" y2="304.621" gradientUnits="userSpaceOnUse">
<stop stop-color="white"/>
<stop offset="1" stop-color="white" stop-opacity="0"/>
</linearGradient>
<linearGradient id="paint11_linear_288_4428" x1="867.305" y1="538.412" x2="888.621" y2="344.375" gradientUnits="userSpaceOnUse">
<stop stop-color="white"/>
<stop offset="1" stop-color="white" stop-opacity="0"/>
</linearGradient>
<linearGradient id="paint12_linear_288_4428" x1="871.613" y1="607.758" x2="875.206" y2="403.569" gradientUnits="userSpaceOnUse">
<stop stop-color="white"/>
<stop offset="1" stop-color="white" stop-opacity="0"/>
</linearGradient>
<linearGradient id="paint13_linear_288_4428" x1="873.558" y1="431.229" x2="886.229" y2="301.004" gradientUnits="userSpaceOnUse">
<stop stop-color="white"/>
<stop offset="1" stop-color="white" stop-opacity="0"/>
</linearGradient>
<radialGradient id="paint14_radial_288_4428" cx="0" cy="0" r="1" gradientUnits="userSpaceOnUse" gradientTransform="translate(566.751 346.771) rotate(90) scale(105.576)">
<stop stop-color="#FF65C1"/>
<stop offset="1" stop-color="#FF65C1" stop-opacity="0"/>
</radialGradient>
<linearGradient id="paint15_linear_288_4428" x1="620.11" y1="367.084" x2="487.471" y2="376.657" gradientUnits="userSpaceOnUse">
<stop stop-color="#4E53BE" stop-opacity="0.5"/>
<stop offset="0.885417" stop-color="#FB33FF" stop-opacity="0.5"/>
<stop offset="1" stop-color="white" stop-opacity="0.5"/>
</linearGradient>
<linearGradient id="paint16_linear_288_4428" x1="565.365" y1="435.686" x2="573.635" y2="343.725" gradientUnits="userSpaceOnUse">
<stop stop-color="white"/>
<stop offset="1" stop-color="white" stop-opacity="0"/>
</linearGradient>
<radialGradient id="paint17_radial_288_4428" cx="0" cy="0" r="1" gradientUnits="userSpaceOnUse" gradientTransform="translate(469.608 367.942) rotate(-19.6638) scale(178.75)">
<stop offset="0.249306" stop-color="white"/>
<stop offset="0.48315" stop-color="#FF8FED" stop-opacity="0.5"/>
<stop offset="0.627037" stop-color="#220C7A" stop-opacity="0.5"/>
</radialGradient>
<linearGradient id="paint18_linear_288_4428" x1="636.054" y1="340.822" x2="471.664" y2="353.527" gradientUnits="userSpaceOnUse">
<stop stop-color="#4E53BE" stop-opacity="0.5"/>
<stop offset="0.885417" stop-color="#FB33FF" stop-opacity="0.5"/>
<stop offset="1" stop-color="white" stop-opacity="0.5"/>
</linearGradient>
<linearGradient id="paint19_linear_288_4428" x1="568.152" y1="420.28" x2="577.106" y2="313.656" gradientUnits="userSpaceOnUse">
<stop stop-color="white"/>
<stop offset="1" stop-color="white" stop-opacity="0"/>
</linearGradient>
<radialGradient id="paint20_radial_288_4428" cx="0" cy="0" r="1" gradientUnits="userSpaceOnUse" gradientTransform="translate(573.807 399.667) rotate(-107.749) scale(125.227)">
<stop offset="0.223958" stop-color="white"/>
<stop offset="0.466382" stop-color="#FFCEF1"/>
<stop offset="0.682292" stop-color="#B6B9FF"/>
<stop offset="0.881791" stop-color="white"/>
</radialGradient>
<radialGradient id="paint21_radial_288_4428" cx="0" cy="0" r="1" gradientUnits="userSpaceOnUse" gradientTransform="translate(584.574 399.667) rotate(-100.377) scale(171.005)">
<stop stop-color="white"/>
<stop offset="1" stop-color="white" stop-opacity="0"/>
</radialGradient>
<linearGradient id="paint22_linear_288_4428" x1="635.219" y1="311.179" x2="472.527" y2="323.92" gradientUnits="userSpaceOnUse">
<stop stop-color="#4E53BE" stop-opacity="0.5"/>
<stop offset="0.885417" stop-color="#FB33FF" stop-opacity="0.5"/>
<stop offset="1" stop-color="white" stop-opacity="0.5"/>
</linearGradient>
<linearGradient id="paint23_linear_288_4428" x1="568.008" y1="388.8" x2="576.642" y2="284.622" gradientUnits="userSpaceOnUse">
<stop stop-color="white"/>
<stop offset="1" stop-color="white" stop-opacity="0"/>
</linearGradient>
<linearGradient id="paint24_linear_288_4428" x1="616.97" y1="288.232" x2="490.569" y2="297.074" gradientUnits="userSpaceOnUse">
<stop stop-color="#4E53BE" stop-opacity="0.5"/>
<stop offset="0.885417" stop-color="#FB33FF" stop-opacity="0.5"/>
<stop offset="1" stop-color="white" stop-opacity="0.5"/>
</linearGradient>
<linearGradient id="paint25_linear_288_4428" x1="564.816" y1="355.663" x2="573.199" y2="265.318" gradientUnits="userSpaceOnUse">
<stop stop-color="white"/>
<stop offset="1" stop-color="white" stop-opacity="0"/>
</linearGradient>
<linearGradient id="paint26_linear_288_4428" x1="593.109" y1="277.114" x2="514.4" y2="282.365" gradientUnits="userSpaceOnUse">
<stop stop-color="#4E53BE" stop-opacity="0.5"/>
<stop offset="0.885417" stop-color="#FB33FF" stop-opacity="0.5"/>
<stop offset="1" stop-color="white" stop-opacity="0.5"/>
</linearGradient>
<linearGradient id="paint27_linear_288_4428" x1="560.648" y1="321.124" x2="566.38" y2="262.209" gradientUnits="userSpaceOnUse">
<stop stop-color="white"/>
<stop offset="1" stop-color="white" stop-opacity="0"/>
</linearGradient>
<radialGradient id="paint28_radial_288_4428" cx="0" cy="0" r="1" gradientUnits="userSpaceOnUse" gradientTransform="translate(519.969 432.12) rotate(-65.1363) scale(265.393)">
<stop offset="0.249306" stop-color="white"/>
<stop offset="0.48315" stop-color="#FF8FED" stop-opacity="0.5"/>
<stop offset="0.627037" stop-color="#220C7A" stop-opacity="0"/>
</radialGradient>
</defs>
</svg>
