<svg width="552" height="552" viewBox="0 0 552 552" fill="none" xmlns="http://www.w3.org/2000/svg">
<circle cx="275.685" cy="276.04" r="186.032" fill="url(#paint0_radial_288_4482)" fill-opacity="0.5"/>
<circle cx="275.687" cy="275.98" r="275.56" fill="url(#paint1_radial_288_4482)" fill-opacity="0.6"/>
<g filter="url(#filter0_d_288_4482)">
<ellipse cx="275.687" cy="361.7" rx="146.637" ry="91.8641" fill="url(#paint2_linear_288_4482)" fill-opacity="0.5" shape-rendering="crispEdges"/>
<path d="M421.806 361.7C421.806 386.825 405.548 409.65 379.1 426.219C352.658 442.784 316.098 453.047 275.687 453.047C235.276 453.047 198.715 442.784 172.273 426.219C145.825 409.65 129.567 386.825 129.567 361.7C129.567 336.575 145.825 313.75 172.273 297.181C198.715 280.616 235.276 270.354 275.687 270.354C316.098 270.354 352.658 280.616 379.1 297.181C405.548 313.75 421.806 336.575 421.806 361.7Z" stroke="url(#paint3_linear_288_4482)" stroke-opacity="0.6" stroke-width="1.03515" shape-rendering="crispEdges"/>
</g>
<circle cx="275.685" cy="276.041" r="186.032" fill="url(#paint4_radial_288_4482)"/>
<g filter="url(#filter1_d_288_4482)">
<ellipse cx="275.686" cy="306.799" rx="181.878" ry="106.402" fill="url(#paint5_linear_288_4482)" fill-opacity="0.5" shape-rendering="crispEdges"/>
</g>
<g filter="url(#filter2_d_288_4482)">
<ellipse cx="275.686" cy="240.741" rx="180.028" ry="103.941" fill="url(#paint6_linear_288_4482)" fill-opacity="0.5" shape-rendering="crispEdges"/>
<path d="M455.196 240.741C455.196 269.181 435.227 295.026 402.726 313.791C370.239 332.547 325.325 344.165 275.686 344.165C226.047 344.165 181.133 332.547 148.646 313.791C116.146 295.026 96.1758 269.181 96.1758 240.741C96.1758 212.302 116.146 186.456 148.646 167.692C181.133 148.935 226.047 137.317 275.686 137.317C325.325 137.317 370.239 148.935 402.726 167.692C435.227 186.456 455.196 212.302 455.196 240.741Z" stroke="url(#paint7_linear_288_4482)" stroke-opacity="0.6" stroke-width="1.03515" shape-rendering="crispEdges"/>
</g>
<g filter="url(#filter3_d_288_4482)">
<ellipse cx="275.688" cy="155.703" rx="86.9505" ry="58.9334" fill="url(#paint8_linear_288_4482)" fill-opacity="0.5" shape-rendering="crispEdges"/>
</g>
<circle cx="275.685" cy="276.04" r="137.798" fill="url(#paint9_radial_288_4482)"/>
<g filter="url(#filter4_d_288_4482)">
<path d="M414.862 187.066C414.862 211.766 399.373 234.198 374.183 250.48C348.998 266.759 314.175 276.845 275.684 276.845C237.192 276.845 202.369 266.759 177.184 250.48C151.995 234.198 136.505 211.766 136.505 187.066C136.505 162.366 151.995 139.934 177.184 123.652C202.369 107.373 237.192 97.2876 275.684 97.2876C314.175 97.2876 348.998 107.373 374.183 123.652C399.373 139.934 414.862 162.366 414.862 187.066Z" stroke="url(#paint10_linear_288_4482)" stroke-opacity="0.6" stroke-width="1.03515" shape-rendering="crispEdges"/>
</g>
<g filter="url(#filter5_d_288_4482)">
<path d="M455.196 240.741C455.196 269.181 435.227 295.026 402.726 313.791C370.239 332.547 325.325 344.165 275.686 344.165C226.047 344.165 181.133 332.547 148.646 313.791C116.146 295.026 96.1758 269.181 96.1758 240.741C96.1758 212.302 116.146 186.456 148.646 167.692C181.133 148.935 226.047 137.317 275.686 137.317C325.325 137.317 370.239 148.935 402.726 167.692C435.227 186.456 455.196 212.302 455.196 240.741Z" stroke="url(#paint11_linear_288_4482)" stroke-opacity="0.6" stroke-width="1.03515" shape-rendering="crispEdges"/>
</g>
<g filter="url(#filter6_d_288_4482)">
<path d="M457.046 306.799C457.046 335.922 436.865 362.382 404.031 381.59C371.21 400.791 325.834 412.684 275.686 412.684C225.537 412.684 180.161 400.791 147.34 381.59C114.507 362.382 94.3254 335.922 94.3254 306.799C94.3254 277.677 114.507 251.217 147.34 232.009C180.161 212.808 225.537 200.915 275.686 200.915C325.834 200.915 371.21 212.808 404.031 232.009C436.865 251.217 457.046 277.677 457.046 306.799Z" stroke="url(#paint12_linear_288_4482)" stroke-opacity="0.6" stroke-width="1.03515" shape-rendering="crispEdges"/>
</g>
<g filter="url(#filter7_d_288_4482)">
<path d="M362.121 155.703C362.121 171.755 352.522 186.346 336.881 196.947C321.242 207.547 299.609 214.119 275.688 214.119C251.767 214.119 230.133 207.547 214.495 196.947C198.854 186.346 189.255 171.755 189.255 155.703C189.255 139.652 198.854 125.061 214.495 114.46C230.133 103.86 251.767 97.2876 275.688 97.2876C299.609 97.2876 321.242 103.86 336.881 114.46C352.522 125.061 362.121 139.652 362.121 155.703Z" stroke="url(#paint13_linear_288_4482)" stroke-opacity="0.6" stroke-width="1.03515" shape-rendering="crispEdges"/>
</g>
<defs>
<filter id="filter0_d_288_4482" x="122.321" y="263.107" width="308.801" height="199.255" filterUnits="userSpaceOnUse" color-interpolation-filters="sRGB">
<feFlood flood-opacity="0" result="BackgroundImageFix"/>
<feColorMatrix in="SourceAlpha" type="matrix" values="0 0 0 0 0 0 0 0 0 0 0 0 0 0 0 0 0 0 127 0" result="hardAlpha"/>
<feOffset dx="1.03515" dy="1.03515"/>
<feGaussianBlur stdDeviation="3.88183"/>
<feComposite in2="hardAlpha" operator="out"/>
<feColorMatrix type="matrix" values="0 0 0 0 0.440043 0 0 0 0 0.20092 0 0 0 0 0.679167 0 0 0 0.2 0"/>
<feBlend mode="normal" in2="BackgroundImageFix" result="effect1_dropShadow_288_4482"/>
<feBlend mode="normal" in="SourceGraphic" in2="effect1_dropShadow_288_4482" result="shape"/>
</filter>
<filter id="filter1_d_288_4482" x="87.0794" y="193.669" width="379.283" height="228.332" filterUnits="userSpaceOnUse" color-interpolation-filters="sRGB">
<feFlood flood-opacity="0" result="BackgroundImageFix"/>
<feColorMatrix in="SourceAlpha" type="matrix" values="0 0 0 0 0 0 0 0 0 0 0 0 0 0 0 0 0 0 127 0" result="hardAlpha"/>
<feOffset dx="1.03515" dy="1.03515"/>
<feGaussianBlur stdDeviation="3.88183"/>
<feComposite in2="hardAlpha" operator="out"/>
<feColorMatrix type="matrix" values="0 0 0 0 0.440043 0 0 0 0 0.20092 0 0 0 0 0.679167 0 0 0 0.2 0"/>
<feBlend mode="normal" in2="BackgroundImageFix" result="effect1_dropShadow_288_4482"/>
<feBlend mode="normal" in="SourceGraphic" in2="effect1_dropShadow_288_4482" result="shape"/>
</filter>
<filter id="filter2_d_288_4482" x="88.9297" y="130.071" width="375.583" height="223.41" filterUnits="userSpaceOnUse" color-interpolation-filters="sRGB">
<feFlood flood-opacity="0" result="BackgroundImageFix"/>
<feColorMatrix in="SourceAlpha" type="matrix" values="0 0 0 0 0 0 0 0 0 0 0 0 0 0 0 0 0 0 127 0" result="hardAlpha"/>
<feOffset dx="1.03515" dy="1.03515"/>
<feGaussianBlur stdDeviation="3.88183"/>
<feComposite in2="hardAlpha" operator="out"/>
<feColorMatrix type="matrix" values="0 0 0 0 0.440043 0 0 0 0 0.20092 0 0 0 0 0.679167 0 0 0 0.2 0"/>
<feBlend mode="normal" in2="BackgroundImageFix" result="effect1_dropShadow_288_4482"/>
<feBlend mode="normal" in="SourceGraphic" in2="effect1_dropShadow_288_4482" result="shape"/>
</filter>
<filter id="filter3_d_288_4482" x="182.009" y="90.0415" width="189.428" height="133.394" filterUnits="userSpaceOnUse" color-interpolation-filters="sRGB">
<feFlood flood-opacity="0" result="BackgroundImageFix"/>
<feColorMatrix in="SourceAlpha" type="matrix" values="0 0 0 0 0 0 0 0 0 0 0 0 0 0 0 0 0 0 127 0" result="hardAlpha"/>
<feOffset dx="1.03515" dy="1.03515"/>
<feGaussianBlur stdDeviation="3.88183"/>
<feComposite in2="hardAlpha" operator="out"/>
<feColorMatrix type="matrix" values="0 0 0 0 0.440043 0 0 0 0 0.20092 0 0 0 0 0.679167 0 0 0 0.2 0"/>
<feBlend mode="normal" in2="BackgroundImageFix" result="effect1_dropShadow_288_4482"/>
<feBlend mode="normal" in="SourceGraphic" in2="effect1_dropShadow_288_4482" result="shape"/>
</filter>
<filter id="filter4_d_288_4482" x="129.259" y="90.0415" width="294.92" height="196.12" filterUnits="userSpaceOnUse" color-interpolation-filters="sRGB">
<feFlood flood-opacity="0" result="BackgroundImageFix"/>
<feColorMatrix in="SourceAlpha" type="matrix" values="0 0 0 0 0 0 0 0 0 0 0 0 0 0 0 0 0 0 127 0" result="hardAlpha"/>
<feOffset dx="1.03515" dy="1.03515"/>
<feGaussianBlur stdDeviation="3.88183"/>
<feComposite in2="hardAlpha" operator="out"/>
<feColorMatrix type="matrix" values="0 0 0 0 0.440043 0 0 0 0 0.20092 0 0 0 0 0.679167 0 0 0 0.2 0"/>
<feBlend mode="normal" in2="BackgroundImageFix" result="effect1_dropShadow_288_4482"/>
<feBlend mode="normal" in="SourceGraphic" in2="effect1_dropShadow_288_4482" result="shape"/>
</filter>
<filter id="filter5_d_288_4482" x="88.9297" y="130.071" width="375.583" height="223.41" filterUnits="userSpaceOnUse" color-interpolation-filters="sRGB">
<feFlood flood-opacity="0" result="BackgroundImageFix"/>
<feColorMatrix in="SourceAlpha" type="matrix" values="0 0 0 0 0 0 0 0 0 0 0 0 0 0 0 0 0 0 127 0" result="hardAlpha"/>
<feOffset dx="1.03515" dy="1.03515"/>
<feGaussianBlur stdDeviation="3.88183"/>
<feComposite in2="hardAlpha" operator="out"/>
<feColorMatrix type="matrix" values="0 0 0 0 0.440043 0 0 0 0 0.20092 0 0 0 0 0.679167 0 0 0 0.2 0"/>
<feBlend mode="normal" in2="BackgroundImageFix" result="effect1_dropShadow_288_4482"/>
<feBlend mode="normal" in="SourceGraphic" in2="effect1_dropShadow_288_4482" result="shape"/>
</filter>
<filter id="filter6_d_288_4482" x="87.0794" y="193.669" width="379.283" height="228.332" filterUnits="userSpaceOnUse" color-interpolation-filters="sRGB">
<feFlood flood-opacity="0" result="BackgroundImageFix"/>
<feColorMatrix in="SourceAlpha" type="matrix" values="0 0 0 0 0 0 0 0 0 0 0 0 0 0 0 0 0 0 127 0" result="hardAlpha"/>
<feOffset dx="1.03515" dy="1.03515"/>
<feGaussianBlur stdDeviation="3.88183"/>
<feComposite in2="hardAlpha" operator="out"/>
<feColorMatrix type="matrix" values="0 0 0 0 0.440043 0 0 0 0 0.20092 0 0 0 0 0.679167 0 0 0 0.2 0"/>
<feBlend mode="normal" in2="BackgroundImageFix" result="effect1_dropShadow_288_4482"/>
<feBlend mode="normal" in="SourceGraphic" in2="effect1_dropShadow_288_4482" result="shape"/>
</filter>
<filter id="filter7_d_288_4482" x="182.009" y="90.0415" width="189.428" height="133.394" filterUnits="userSpaceOnUse" color-interpolation-filters="sRGB">
<feFlood flood-opacity="0" result="BackgroundImageFix"/>
<feColorMatrix in="SourceAlpha" type="matrix" values="0 0 0 0 0 0 0 0 0 0 0 0 0 0 0 0 0 0 127 0" result="hardAlpha"/>
<feOffset dx="1.03515" dy="1.03515"/>
<feGaussianBlur stdDeviation="3.88183"/>
<feComposite in2="hardAlpha" operator="out"/>
<feColorMatrix type="matrix" values="0 0 0 0 0.440043 0 0 0 0 0.20092 0 0 0 0 0.679167 0 0 0 0.2 0"/>
<feBlend mode="normal" in2="BackgroundImageFix" result="effect1_dropShadow_288_4482"/>
<feBlend mode="normal" in="SourceGraphic" in2="effect1_dropShadow_288_4482" result="shape"/>
</filter>
<radialGradient id="paint0_radial_288_4482" cx="0" cy="0" r="1" gradientUnits="userSpaceOnUse" gradientTransform="translate(200.971 485.572) rotate(-64.0757) scale(417.608)">
<stop offset="0.107416" stop-color="white" stop-opacity="0.5"/>
<stop offset="0.328407" stop-color="#8FB5FF" stop-opacity="0.5"/>
<stop offset="0.629496" stop-color="#220C7A" stop-opacity="0"/>
</radialGradient>
<radialGradient id="paint1_radial_288_4482" cx="0" cy="0" r="1" gradientUnits="userSpaceOnUse" gradientTransform="translate(275.687 275.98) rotate(90) scale(275.56)">
<stop stop-color="#3E5DFF"/>
<stop offset="1" stop-color="#3E5DFF" stop-opacity="0"/>
</radialGradient>
<linearGradient id="paint2_linear_288_4482" x1="422.323" y1="341.816" x2="129.142" y2="362.977" gradientUnits="userSpaceOnUse">
<stop stop-color="#4E53BE" stop-opacity="0.5"/>
<stop offset="0.885417" stop-color="#33CEFF" stop-opacity="0.7"/>
<stop offset="1" stop-color="white" stop-opacity="0.5"/>
</linearGradient>
<linearGradient id="paint3_linear_288_4482" x1="301.316" y1="493.452" x2="319.596" y2="290.183" gradientUnits="userSpaceOnUse">
<stop stop-color="white"/>
<stop offset="1" stop-color="white" stop-opacity="0"/>
</linearGradient>
<radialGradient id="paint4_radial_288_4482" cx="0" cy="0" r="1" gradientUnits="userSpaceOnUse" gradientTransform="translate(89.6531 343.715) rotate(-19.6638) scale(395.105)">
<stop offset="0.249306" stop-color="white"/>
<stop offset="0.48315" stop-color="#8FF2FF" stop-opacity="0.5"/>
<stop offset="0.627037" stop-color="#220C7A" stop-opacity="0.1"/>
</radialGradient>
<linearGradient id="paint5_linear_288_4482" x1="438.865" y1="300.647" x2="93.9601" y2="311.597" gradientUnits="userSpaceOnUse">
<stop stop-color="#4E53BE" stop-opacity="0.1"/>
<stop offset="1" stop-color="#33CEFF"/>
</linearGradient>
<linearGradient id="paint6_linear_288_4482" x1="412.191" y1="231.496" x2="95.8823" y2="245.724" gradientUnits="userSpaceOnUse">
<stop stop-color="#4E53BE" stop-opacity="0.1"/>
<stop offset="0.997187" stop-color="#33CEFF"/>
</linearGradient>
<linearGradient id="paint7_linear_288_4482" x1="307.152" y1="389.815" x2="326.237" y2="159.543" gradientUnits="userSpaceOnUse">
<stop stop-color="white"/>
<stop offset="1" stop-color="white" stop-opacity="0"/>
</linearGradient>
<linearGradient id="paint8_linear_288_4482" x1="362.638" y1="142.948" x2="188.661" y2="154.554" gradientUnits="userSpaceOnUse">
<stop stop-color="#4E53BE" stop-opacity="0.1"/>
<stop offset="1" stop-color="#33CEFF" stop-opacity="0.9"/>
</linearGradient>
<radialGradient id="paint9_radial_288_4482" cx="0" cy="0" r="1" gradientUnits="userSpaceOnUse" gradientTransform="translate(302.536 535.762) rotate(-83.1976) scale(400.338)">
<stop offset="0.338542" stop-color="#68FFF6" stop-opacity="0.1"/>
<stop offset="0.802083" stop-color="#FFBFE9"/>
<stop offset="1" stop-color="white"/>
</radialGradient>
<linearGradient id="paint10_linear_288_4482" x1="291.522" y1="277.362" x2="300.858" y2="113.618" gradientUnits="userSpaceOnUse">
<stop stop-color="white"/>
<stop offset="1" stop-color="white" stop-opacity="0"/>
</linearGradient>
<linearGradient id="paint11_linear_288_4482" x1="284.632" y1="347.41" x2="305.948" y2="153.372" gradientUnits="userSpaceOnUse">
<stop stop-color="white"/>
<stop offset="1" stop-color="white" stop-opacity="0"/>
</linearGradient>
<linearGradient id="paint12_linear_288_4482" x1="288.94" y1="416.756" x2="292.533" y2="212.567" gradientUnits="userSpaceOnUse">
<stop stop-color="white"/>
<stop offset="1" stop-color="white" stop-opacity="0"/>
</linearGradient>
<linearGradient id="paint13_linear_288_4482" x1="290.885" y1="240.226" x2="303.556" y2="110.001" gradientUnits="userSpaceOnUse">
<stop stop-color="white"/>
<stop offset="1" stop-color="white" stop-opacity="0"/>
</linearGradient>
</defs>
</svg>
