<svg width="131" height="132" viewBox="0 0 131 132" fill="none" xmlns="http://www.w3.org/2000/svg">
<path d="M113.979 24.0472C113.979 24.0472 117.075 23.098 118.564 20.4573C118.926 19.7971 119.34 20.4573 119.34 20.4573C119.34 20.4573 121.939 25.3417 119.156 30.5194C118.82 31.4126 117.202 31.8139 115.92 31.8139C113.603 31.8139 111.897 29.8291 111.897 27.525C111.884 25.9457 112.581 24.5132 113.979 24.0472Z" fill="url(#paint0_radial_288_3913)"/>
<path d="M29.5719 5.15828C29.5719 2.71399 31.6433 0.808279 34.0876 1.01542C52.4404 2.71399 70.959 14.4383 70.959 28.7726C70.959 44.2668 49.2919 56.8611 29.5719 56.8611V5.15828Z" fill="url(#paint1_linear_288_3913)"/>
<path d="M29.5719 5.15828C29.5719 2.71399 31.6433 0.808279 34.0876 1.01542C52.4404 2.71399 70.959 14.4383 70.959 28.7726C70.959 44.2668 49.2919 56.8611 29.5719 56.8611V5.15828Z" fill="url(#paint2_radial_288_3913)"/>
<path d="M29.5719 5.15828C29.5719 2.71399 31.6433 0.808279 34.0876 1.01542C52.4404 2.71399 70.959 14.4383 70.959 28.7726C70.959 44.2668 49.2919 56.8611 29.5719 56.8611V5.15828Z" fill="url(#paint3_linear_288_3913)"/>
<g filter="url(#filter0_f_288_3913)">
<path d="M33.1646 2.08325C32.3068 2.08325 30.4458 2.87622 30.4458 5.43314C30.4458 7.14207 30.4458 17.8132 30.4458 21.6324" stroke="url(#paint4_linear_288_3913)" stroke-width="0.075"/>
</g>
<path d="M66.8577 53.5049V62.3292C66.8577 67.7149 63.8334 72.6449 59.0277 75.0892L58.6548 75.2963C56.7077 76.2906 54.4291 74.882 54.4291 72.6863V53.5463H66.8577V53.5049Z" fill="url(#paint5_linear_288_3913)"/>
<path d="M66.8577 53.5049V62.3292C66.8577 67.7149 63.8334 72.6449 59.0277 75.0892L58.6548 75.2963C56.7077 76.2906 54.4291 74.882 54.4291 72.6863V53.5463H66.8577V53.5049Z" fill="url(#paint6_radial_288_3913)"/>
<path d="M60.9754 8.62286H67.6453C90.5968 8.62286 113.714 19.4357 127.51 37.7886C129.333 40.1914 129.498 43.5057 127.924 46.0743C121.793 56.2657 109.778 63.1429 97.8882 63.1429H47.3039C42.2082 63.1429 37.8996 67.1614 37.7753 72.2572C37.7339 74.9086 38.7696 77.3529 40.5096 79.0514C45.8539 84.1472 52.3168 87.8757 59.2353 90.03V90.0714C61.1825 90.6514 63.1296 91.1486 65.1182 91.48C66.2782 91.6872 67.4796 91.2314 68.2253 90.32L75.5168 81.2057C80.4882 75.0329 87.9039 71.4286 95.7754 71.4286H100.954C102.238 71.4286 102.984 72.8786 102.197 73.9143L80.5296 102.79C79.7425 103.826 79.7011 105.276 80.4468 106.394L85.9154 114.597C86.5368 115.633 85.7911 117 84.5896 117H77.8782C73.5696 117 69.5096 114.846 67.1068 111.241L63.5853 106.021C62.9639 105.11 61.9696 104.571 60.8511 104.571C60.3125 104.571 59.7739 104.571 59.2353 104.53C33.5496 103.619 13.0011 82.5314 13.0011 56.5972C13.0011 30.0829 34.4611 8.62286 60.9754 8.62286Z" fill="url(#paint7_linear_288_3913)"/>
<path d="M60.9754 8.62286H67.6453C90.5968 8.62286 113.714 19.4357 127.51 37.7886C129.333 40.1914 129.498 43.5057 127.924 46.0743C121.793 56.2657 109.778 63.1429 97.8882 63.1429H47.3039C42.2082 63.1429 37.8996 67.1614 37.7753 72.2572C37.7339 74.9086 38.7696 77.3529 40.5096 79.0514C45.8539 84.1472 52.3168 87.8757 59.2353 90.03V90.0714C61.1825 90.6514 63.1296 91.1486 65.1182 91.48C66.2782 91.6872 67.4796 91.2314 68.2253 90.32L75.5168 81.2057C80.4882 75.0329 87.9039 71.4286 95.7754 71.4286H100.954C102.238 71.4286 102.984 72.8786 102.197 73.9143L80.5296 102.79C79.7425 103.826 79.7011 105.276 80.4468 106.394L85.9154 114.597C86.5368 115.633 85.7911 117 84.5896 117H77.8782C73.5696 117 69.5096 114.846 67.1068 111.241L63.5853 106.021C62.9639 105.11 61.9696 104.571 60.8511 104.571C60.3125 104.571 59.7739 104.571 59.2353 104.53C33.5496 103.619 13.0011 82.5314 13.0011 56.5972C13.0011 30.0829 34.4611 8.62286 60.9754 8.62286Z" fill="url(#paint8_radial_288_3913)"/>
<path d="M60.9754 8.62286H67.6453C90.5968 8.62286 113.714 19.4357 127.51 37.7886C129.333 40.1914 129.498 43.5057 127.924 46.0743C121.793 56.2657 109.778 63.1429 97.8882 63.1429H47.3039C42.2082 63.1429 37.8996 67.1614 37.7753 72.2572C37.7339 74.9086 38.7696 77.3529 40.5096 79.0514C45.8539 84.1472 52.3168 87.8757 59.2353 90.03V90.0714C61.1825 90.6514 63.1296 91.1486 65.1182 91.48C66.2782 91.6872 67.4796 91.2314 68.2253 90.32L75.5168 81.2057C80.4882 75.0329 87.9039 71.4286 95.7754 71.4286H100.954C102.238 71.4286 102.984 72.8786 102.197 73.9143L80.5296 102.79C79.7425 103.826 79.7011 105.276 80.4468 106.394L85.9154 114.597C86.5368 115.633 85.7911 117 84.5896 117H77.8782C73.5696 117 69.5096 114.846 67.1068 111.241L63.5853 106.021C62.9639 105.11 61.9696 104.571 60.8511 104.571C60.3125 104.571 59.7739 104.571 59.2353 104.53C33.5496 103.619 13.0011 82.5314 13.0011 56.5972C13.0011 30.0829 34.4611 8.62286 60.9754 8.62286Z" fill="url(#paint9_radial_288_3913)"/>
<path d="M60.9754 8.62286H67.6453C90.5968 8.62286 113.714 19.4357 127.51 37.7886C129.333 40.1914 129.498 43.5057 127.924 46.0743C121.793 56.2657 109.778 63.1429 97.8882 63.1429H47.3039C42.2082 63.1429 37.8996 67.1614 37.7753 72.2572C37.7339 74.9086 38.7696 77.3529 40.5096 79.0514C45.8539 84.1472 52.3168 87.8757 59.2353 90.03V90.0714C61.1825 90.6514 63.1296 91.1486 65.1182 91.48C66.2782 91.6872 67.4796 91.2314 68.2253 90.32L75.5168 81.2057C80.4882 75.0329 87.9039 71.4286 95.7754 71.4286H100.954C102.238 71.4286 102.984 72.8786 102.197 73.9143L80.5296 102.79C79.7425 103.826 79.7011 105.276 80.4468 106.394L85.9154 114.597C86.5368 115.633 85.7911 117 84.5896 117H77.8782C73.5696 117 69.5096 114.846 67.1068 111.241L63.5853 106.021C62.9639 105.11 61.9696 104.571 60.8511 104.571C60.3125 104.571 59.7739 104.571 59.2353 104.53C33.5496 103.619 13.0011 82.5314 13.0011 56.5972C13.0011 30.0829 34.4611 8.62286 60.9754 8.62286Z" fill="url(#paint10_radial_288_3913)"/>
<path d="M60.9754 8.62286H67.6453C90.5968 8.62286 113.714 19.4357 127.51 37.7886C129.333 40.1914 129.498 43.5057 127.924 46.0743C121.793 56.2657 109.778 63.1429 97.8882 63.1429H47.3039C42.2082 63.1429 37.8996 67.1614 37.7753 72.2572C37.7339 74.9086 38.7696 77.3529 40.5096 79.0514C45.8539 84.1472 52.3168 87.8757 59.2353 90.03V90.0714C61.1825 90.6514 63.1296 91.1486 65.1182 91.48C66.2782 91.6872 67.4796 91.2314 68.2253 90.32L75.5168 81.2057C80.4882 75.0329 87.9039 71.4286 95.7754 71.4286H100.954C102.238 71.4286 102.984 72.8786 102.197 73.9143L80.5296 102.79C79.7425 103.826 79.7011 105.276 80.4468 106.394L85.9154 114.597C86.5368 115.633 85.7911 117 84.5896 117H77.8782C73.5696 117 69.5096 114.846 67.1068 111.241L63.5853 106.021C62.9639 105.11 61.9696 104.571 60.8511 104.571C60.3125 104.571 59.7739 104.571 59.2353 104.53C33.5496 103.619 13.0011 82.5314 13.0011 56.5972C13.0011 30.0829 34.4611 8.62286 60.9754 8.62286Z" fill="url(#paint11_radial_288_3913)"/>
<path d="M60.9754 8.62286H67.6453C90.5968 8.62286 113.714 19.4357 127.51 37.7886C129.333 40.1914 129.498 43.5057 127.924 46.0743C121.793 56.2657 109.778 63.1429 97.8882 63.1429H47.3039C42.2082 63.1429 37.8996 67.1614 37.7753 72.2572C37.7339 74.9086 38.7696 77.3529 40.5096 79.0514C45.8539 84.1472 52.3168 87.8757 59.2353 90.03V90.0714C61.1825 90.6514 63.1296 91.1486 65.1182 91.48C66.2782 91.6872 67.4796 91.2314 68.2253 90.32L75.5168 81.2057C80.4882 75.0329 87.9039 71.4286 95.7754 71.4286H100.954C102.238 71.4286 102.984 72.8786 102.197 73.9143L80.5296 102.79C79.7425 103.826 79.7011 105.276 80.4468 106.394L85.9154 114.597C86.5368 115.633 85.7911 117 84.5896 117H77.8782C73.5696 117 69.5096 114.846 67.1068 111.241L63.5853 106.021C62.9639 105.11 61.9696 104.571 60.8511 104.571C60.3125 104.571 59.7739 104.571 59.2353 104.53C33.5496 103.619 13.0011 82.5314 13.0011 56.5972C13.0011 30.0829 34.4611 8.62286 60.9754 8.62286Z" fill="url(#paint12_radial_288_3913)"/>
<path d="M60.9754 8.62286H67.6453C90.5968 8.62286 113.714 19.4357 127.51 37.7886C129.333 40.1914 129.498 43.5057 127.924 46.0743C121.793 56.2657 109.778 63.1429 97.8882 63.1429H47.3039C42.2082 63.1429 37.8996 67.1614 37.7753 72.2572C37.7339 74.9086 38.7696 77.3529 40.5096 79.0514C45.8539 84.1472 52.3168 87.8757 59.2353 90.03V90.0714C61.1825 90.6514 63.1296 91.1486 65.1182 91.48C66.2782 91.6872 67.4796 91.2314 68.2253 90.32L75.5168 81.2057C80.4882 75.0329 87.9039 71.4286 95.7754 71.4286H100.954C102.238 71.4286 102.984 72.8786 102.197 73.9143L80.5296 102.79C79.7425 103.826 79.7011 105.276 80.4468 106.394L85.9154 114.597C86.5368 115.633 85.7911 117 84.5896 117H77.8782C73.5696 117 69.5096 114.846 67.1068 111.241L63.5853 106.021C62.9639 105.11 61.9696 104.571 60.8511 104.571C60.3125 104.571 59.7739 104.571 59.2353 104.53C33.5496 103.619 13.0011 82.5314 13.0011 56.5972C13.0011 30.0829 34.4611 8.62286 60.9754 8.62286Z" fill="url(#paint13_radial_288_3913)"/>
<path d="M22.7947 85.9295C20.1905 79.7427 19.3042 72.6292 19.8186 65.0151C20.6602 52.5587 28.6869 42.6825 38.6584 38.8956C39.5283 38.6876 39.9827 39.0437 39.9827 39.8343V50.5151C39.9827 55.067 44.4926 53.8371 46.3698 52.8338C50.9011 49.937 53.2852 45.0981 53.2852 39.663C53.2852 39.0389 53.7823 38.5396 54.4037 38.5396H83.9146C95.1417 38.5396 106.037 42.5754 114.572 49.9397L120.442 54.9847C114.129 60.2322 105.979 63.4175 97.8875 63.4175H47.3033C42.2075 63.4175 37.8989 67.436 37.7746 72.5318C37.7333 75.1832 38.769 77.6275 40.5089 79.326C45.8532 84.4218 52.3161 88.1503 59.2346 90.3046V90.346C60.2919 90.661 61.3492 90.9515 62.4132 91.2043V105.234C61.9449 104.982 61.4133 104.846 60.8504 104.846C60.3118 104.846 59.7732 104.846 59.2346 104.805C44.3732 104.277 31.2316 96.9959 22.7947 85.9295Z" fill="url(#paint14_linear_288_3913)"/>
<path d="M20.0297 62.9418L37.8658 75.3541L38.139 75.3326C37.887 74.449 37.7596 73.5122 37.7747 72.5479C37.8989 67.4522 42.2075 63.4336 47.3033 63.4336H97.8875C105.979 63.4336 114.129 60.2483 120.442 55.0008L114.572 49.9559C106.037 42.5916 95.1417 38.5558 83.9146 38.5558H54.4037C53.7823 38.5558 53.2852 39.0551 53.2852 39.6792C53.2852 45.1143 50.9277 49.9016 46.386 52.8338C44.5088 53.8371 39.9828 55.0185 39.9828 50.4548V39.8504C39.9828 39.0599 39.5284 38.7038 38.6584 38.9118C29.2513 42.4843 21.575 51.4765 20.0297 62.9418Z" fill="url(#paint15_linear_288_3913)"/>
<path d="M20.0297 62.9418L37.8658 75.3541L38.139 75.3326C37.887 74.449 37.7596 73.5122 37.7747 72.5479C37.8989 67.4522 42.2075 63.4336 47.3033 63.4336H97.8875C105.979 63.4336 114.129 60.2483 120.442 55.0008L114.572 49.9559C106.037 42.5916 95.1417 38.5558 83.9146 38.5558H54.4037C53.7823 38.5558 53.2852 39.0551 53.2852 39.6792C53.2852 45.1143 50.9277 49.9016 46.386 52.8338C44.5088 53.8371 39.9828 55.0185 39.9828 50.4548V39.8504C39.9828 39.0599 39.5284 38.7038 38.6584 38.9118C29.2513 42.4843 21.575 51.4765 20.0297 62.9418Z" fill="url(#paint16_linear_288_3913)"/>
<path d="M20.0297 62.9418L37.8658 75.3541L38.139 75.3326C37.887 74.449 37.7596 73.5122 37.7747 72.5479C37.8989 67.4522 42.2075 63.4336 47.3033 63.4336H97.8875C105.979 63.4336 114.129 60.2483 120.442 55.0008L114.572 49.9559C106.037 42.5916 95.1417 38.5558 83.9146 38.5558H54.4037C53.7823 38.5558 53.2852 39.0551 53.2852 39.6792C53.2852 45.1143 50.9277 49.9016 46.386 52.8338C44.5088 53.8371 39.9828 55.0185 39.9828 50.4548V39.8504C39.9828 39.0599 39.5284 38.7038 38.6584 38.9118C29.2513 42.4843 21.575 51.4765 20.0297 62.9418Z" fill="url(#paint17_linear_288_3913)"/>
<path d="M20.0297 62.9418L37.8658 75.3541L38.139 75.3326C37.887 74.449 37.7596 73.5122 37.7747 72.5479C37.8989 67.4522 42.2075 63.4336 47.3033 63.4336H97.8875C105.979 63.4336 114.129 60.2483 120.442 55.0008L114.572 49.9559C106.037 42.5916 95.1417 38.5558 83.9146 38.5558H54.4037C53.7823 38.5558 53.2852 39.0551 53.2852 39.6792C53.2852 45.1143 50.9277 49.9016 46.386 52.8338C44.5088 53.8371 39.9828 55.0185 39.9828 50.4548V39.8504C39.9828 39.0599 39.5284 38.7038 38.6584 38.9118C29.2513 42.4843 21.575 51.4765 20.0297 62.9418Z" fill="url(#paint18_radial_288_3913)"/>
<path d="M22.7947 85.6543C20.1905 79.4675 19.3042 72.354 19.8186 64.7399C20.6602 52.2836 28.6869 42.4073 38.6584 38.6205C39.5283 38.4125 39.9827 38.7686 39.9827 39.5591V50.2399C39.9827 55.1596 44.4816 53.8002 46.3588 52.7968C50.9004 49.8647 53.2852 44.823 53.2852 39.3878C53.2852 38.7637 53.7823 38.2645 54.4037 38.2645H83.9146C95.1417 38.2645 106.037 42.3003 114.572 49.6646L120.442 54.7095C114.129 59.957 105.979 63.1423 97.8875 63.1423H47.3033C42.2075 63.1423 37.8989 67.1609 37.7746 72.2566C37.7333 74.908 38.769 77.3523 40.5089 79.0509C45.8532 84.1466 52.3161 87.8752 59.2346 90.0295V90.0709C60.2919 90.3858 69.9365 92.8605 71.0004 93.1133L62.4132 104.959C61.9449 104.707 61.4133 104.571 60.8504 104.571C60.3118 104.571 59.7732 104.571 59.2346 104.529C44.3732 104.002 31.2316 96.7208 22.7947 85.6543Z" fill="url(#paint19_radial_288_3913)"/>
<path d="M22.7947 85.6543C20.1905 79.4675 19.3042 72.354 19.8186 64.7399C20.6602 52.2836 28.6869 42.4073 38.6584 38.6205C39.5283 38.4125 39.9827 38.7686 39.9827 39.5591V50.2399C39.9827 55.1596 44.4816 53.8002 46.3588 52.7968C50.9004 49.8647 53.2852 44.823 53.2852 39.3878C53.2852 38.7637 53.7823 38.2645 54.4037 38.2645H83.9146C95.1417 38.2645 106.037 42.3003 114.572 49.6646L120.442 54.7095C114.129 59.957 105.979 63.1423 97.8875 63.1423H47.3033C42.2075 63.1423 37.8989 67.1609 37.7746 72.2566C37.7333 74.908 38.769 77.3523 40.5089 79.0509C45.8532 84.1466 52.3161 87.8752 59.2346 90.0295V90.0709C60.2919 90.3858 69.9365 92.8605 71.0004 93.1133L62.4132 104.959C61.9449 104.707 61.4133 104.571 60.8504 104.571C60.3118 104.571 59.7732 104.571 59.2346 104.529C44.3732 104.002 31.2316 96.7208 22.7947 85.6543Z" fill="url(#paint20_radial_288_3913)"/>
<path d="M22.7947 85.6543C20.1905 79.4675 19.3042 72.354 19.8186 64.7399C20.6602 52.2836 28.6869 42.4073 38.6584 38.6205C39.5283 38.4125 39.9827 38.7686 39.9827 39.5591V50.2399C39.9827 55.1596 44.4816 53.8002 46.3588 52.7968C50.9004 49.8647 53.2852 44.823 53.2852 39.3878C53.2852 38.7637 53.7823 38.2645 54.4037 38.2645H83.9146C95.1417 38.2645 106.037 42.3003 114.572 49.6646L120.442 54.7095C114.129 59.957 105.979 63.1423 97.8875 63.1423H47.3033C42.2075 63.1423 37.8989 67.1609 37.7746 72.2566C37.7333 74.908 38.769 77.3523 40.5089 79.0509C45.8532 84.1466 52.3161 87.8752 59.2346 90.0295V90.0709C60.2919 90.3858 69.9365 92.8605 71.0004 93.1133L62.4132 104.959C61.9449 104.707 61.4133 104.571 60.8504 104.571C60.3118 104.571 59.7732 104.571 59.2346 104.529C44.3732 104.002 31.2316 96.7208 22.7947 85.6543Z" fill="url(#paint21_radial_288_3913)"/>
<path d="M22.7947 85.6543C20.1905 79.4675 19.3042 72.354 19.8186 64.7399C20.6602 52.2836 28.6869 42.4073 38.6584 38.6205C39.5283 38.4125 39.9827 38.7686 39.9827 39.5591V50.2399C39.9827 55.1596 44.4816 53.8002 46.3588 52.7968C50.9004 49.8647 53.2852 44.823 53.2852 39.3878C53.2852 38.7637 53.7823 38.2645 54.4037 38.2645H83.9146C95.1417 38.2645 106.037 42.3003 114.572 49.6646L120.442 54.7095C114.129 59.957 105.979 63.1423 97.8875 63.1423H47.3033C42.2075 63.1423 37.8989 67.1609 37.7746 72.2566C37.7333 74.908 38.769 77.3523 40.5089 79.0509C45.8532 84.1466 52.3161 87.8752 59.2346 90.0295V90.0709C60.2919 90.3858 69.9365 92.8605 71.0004 93.1133L62.4132 104.959C61.9449 104.707 61.4133 104.571 60.8504 104.571C60.3118 104.571 59.7732 104.571 59.2346 104.529C44.3732 104.002 31.2316 96.7208 22.7947 85.6543Z" fill="url(#paint22_radial_288_3913)"/>
<path d="M73.0719 44.5151C74.2319 44.5151 75.1433 43.6037 75.1433 42.4437V34.1165C75.1433 32.9565 74.2319 32.0451 73.0719 32.0451C71.9119 32.0451 71.0005 32.998 71.0005 34.1165V42.4437C71.0005 43.6037 71.9533 44.5151 73.0719 44.5151Z" fill="url(#paint23_linear_288_3913)"/>
<path d="M64.7862 44.5151C65.9462 44.5151 66.8577 43.6037 66.8577 42.4437V34.1165C66.8577 32.9565 65.9462 32.0451 64.7862 32.0451C63.6262 32.0451 62.7148 32.9565 62.7148 34.1165V42.4437C62.7148 43.6037 63.6677 44.5151 64.7862 44.5151Z" fill="url(#paint24_linear_288_3913)"/>
<g filter="url(#filter1_f_288_3913)">
<path d="M94.9436 43.0238C92.7227 43.0238 90.9224 41.2234 90.9224 39.0026C90.9224 36.7817 92.7227 34.9813 94.9436 34.9813C97.1645 34.9813 98.9648 36.7817 98.9648 39.0026C98.9648 41.2234 97.1645 43.0238 94.9436 43.0238Z" fill="url(#paint25_linear_288_3913)"/>
</g>
<path d="M93.7448 42.4437C91.4568 42.4437 89.602 40.5889 89.602 38.3009C89.602 36.0128 91.4568 34.158 93.7448 34.158C96.0329 34.158 97.8877 36.0128 97.8877 38.3009C97.8877 40.5889 96.0329 42.4437 93.7448 42.4437Z" fill="url(#paint26_radial_288_3913)"/>
<path d="M93.7448 42.4437C91.4568 42.4437 89.602 40.5889 89.602 38.3009C89.602 36.0128 91.4568 34.158 93.7448 34.158C96.0329 34.158 97.8877 36.0128 97.8877 38.3009C97.8877 40.5889 96.0329 42.4437 93.7448 42.4437Z" fill="url(#paint27_radial_288_3913)"/>
<path d="M93.7448 42.4437C91.4568 42.4437 89.602 40.5889 89.602 38.3009C89.602 36.0128 91.4568 34.158 93.7448 34.158C96.0329 34.158 97.8877 36.0128 97.8877 38.3009C97.8877 40.5889 96.0329 42.4437 93.7448 42.4437Z" fill="url(#paint28_linear_288_3913)"/>
<g filter="url(#filter2_f_288_3913)">
<path d="M80.3221 80.312C84.6429 74.5508 92.1033 74.7235 96.1167 74.5508C88.9703 75.7937 86.86 79.0821 84.206 82.1892L76.1557 92.7982C75.9666 93.0474 75.6718 93.1937 75.359 93.1937H72.3749C71.5715 93.1937 71.1131 92.3082 71.5966 91.6666C73.6007 89.0072 77.315 84.3214 80.3221 80.312Z" fill="url(#paint29_linear_288_3913)"/>
</g>
<g filter="url(#filter3_f_288_3913)">
<path d="M55.3353 63.7892V72.5928C55.3353 73.0459 55.5813 74.0428 56.5652 74.4053" stroke="url(#paint30_linear_288_3913)" stroke-width="0.075"/>
</g>
<path d="M40.0262 29.2384H53.2639V40.2916C53.018 45.3839 50.6521 50.0408 46.3589 52.8126C44.5898 53.7581 40.4921 55.02 40.0262 51.0441V29.2384Z" fill="url(#paint31_radial_288_3913)"/>
<path d="M40.0262 29.2384H53.2639V40.2916C53.018 45.3839 50.6521 50.0408 46.3589 52.8126C44.5898 53.7581 40.4921 55.02 40.0262 51.0441V29.2384Z" fill="url(#paint32_radial_288_3913)"/>
<path d="M40.0262 29.2384H53.2639V40.2916C53.018 45.3839 50.6521 50.0408 46.3589 52.8126C44.5898 53.7581 40.4921 55.02 40.0262 51.0441V29.2384Z" fill="url(#paint33_radial_288_3913)"/>
<path d="M40.0262 29.2384H53.2639V40.2916C53.018 45.3839 50.6521 50.0408 46.3589 52.8126C44.5898 53.7581 40.4921 55.02 40.0262 51.0441V29.2384Z" fill="url(#paint34_radial_288_3913)"/>
<g filter="url(#filter4_f_288_3913)">
<path d="M41.0296 39.4013V50.2116C41.0296 50.6162 40.9002 51.9205 42.1948 52.0241" stroke="url(#paint35_linear_288_3913)" stroke-width="0.15"/>
</g>
<g filter="url(#filter5_f_288_3913)">
<path d="M35.7861 35.8411C33.6284 36.8768 29.2741 37.4723 26.7884 36.2295C23.8595 34.765 23.5189 30.0797 25.7665 27.1613C25.9159 26.9855 26.0624 26.8148 26.2058 26.6491C26.0498 26.8125 25.9034 26.9837 25.7665 27.1613C20.7226 33.0987 12.4909 44.8445 17.1433 64.7116C18.2437 55.196 22.0111 42.6768 35.7861 35.8411Z" fill="url(#paint36_linear_288_3913)"/>
</g>
<g filter="url(#filter6_f_288_3913)">
<path d="M29.9603 39.4657C36.796 34.08 51.4513 33.3377 57.9246 33.6398C42.1817 28.9791 30.4781 34.7187 26.5942 38.1711L29.9603 39.4657Z" fill="#A6BBE2"/>
</g>
<path d="M90.4512 11.19C90.4512 11.19 86.8733 10.0932 85.1533 7.04207C84.7346 6.2793 84.256 7.04207 84.256 7.04207C84.256 7.04207 81.253 12.6856 84.4686 18.6681C84.8575 19.7001 86.7271 20.1638 88.2078 20.1638C90.885 20.1638 92.8559 17.8705 92.8559 15.2082C92.8708 13.3836 92.0665 11.7284 90.4512 11.19Z" fill="url(#paint37_radial_288_3913)"/>
<path d="M90.4512 11.19C90.4512 11.19 86.8733 10.0932 85.1533 7.04207C84.7346 6.2793 84.256 7.04207 84.256 7.04207C84.256 7.04207 81.253 12.6856 84.4686 18.6681C84.8575 19.7001 86.7271 20.1638 88.2078 20.1638C90.885 20.1638 92.8559 17.8705 92.8559 15.2082C92.8708 13.3836 92.0665 11.7284 90.4512 11.19Z" fill="url(#paint38_radial_288_3913)"/>
<path d="M101.716 58.6311C106.254 62.5833 111.993 60.6129 111.993 60.6129L101.984 51.8033C101.984 51.8033 97.1789 54.6789 101.716 58.6311Z" fill="url(#paint39_radial_288_3913)"/>
<path d="M98.9454 60.5296C99.1247 57.9391 99.1293 57.1244 99.7686 56.1818C100.29 55.4224 99.7686 54.3656 101.118 54.6012C101.712 54.7051 103.501 56.3914 105.25 57.9149C106.999 59.4385 109.801 59.9478 109.993 60.5296C110.186 61.1113 106.847 61.9639 106.159 62.5779C104.036 64.4708 98.5897 65.6692 98.9454 60.5296Z" fill="url(#paint40_radial_288_3913)"/>
<defs>
<filter id="filter0_f_288_3913" x="30.2082" y="1.84578" width="3.15635" height="19.9866" filterUnits="userSpaceOnUse" color-interpolation-filters="sRGB">
<feFlood flood-opacity="0" result="BackgroundImageFix"/>
<feBlend mode="normal" in="SourceGraphic" in2="BackgroundImageFix" result="shape"/>
<feGaussianBlur stdDeviation="0.1" result="effect1_foregroundBlur_288_3913"/>
</filter>
<filter id="filter1_f_288_3913" x="90.4224" y="34.4813" width="9.04248" height="9.04248" filterUnits="userSpaceOnUse" color-interpolation-filters="sRGB">
<feFlood flood-opacity="0" result="BackgroundImageFix"/>
<feBlend mode="normal" in="SourceGraphic" in2="BackgroundImageFix" result="shape"/>
<feGaussianBlur stdDeviation="0.25" result="effect1_foregroundBlur_288_3913"/>
</filter>
<filter id="filter2_f_288_3913" x="70.3989" y="73.5508" width="26.7178" height="20.6429" filterUnits="userSpaceOnUse" color-interpolation-filters="sRGB">
<feFlood flood-opacity="0" result="BackgroundImageFix"/>
<feBlend mode="normal" in="SourceGraphic" in2="BackgroundImageFix" result="shape"/>
<feGaussianBlur stdDeviation="0.5" result="effect1_foregroundBlur_288_3913"/>
</filter>
<filter id="filter3_f_288_3913" x="55.0979" y="63.5892" width="1.68027" height="11.0512" filterUnits="userSpaceOnUse" color-interpolation-filters="sRGB">
<feFlood flood-opacity="0" result="BackgroundImageFix"/>
<feBlend mode="normal" in="SourceGraphic" in2="BackgroundImageFix" result="shape"/>
<feGaussianBlur stdDeviation="0.1" result="effect1_foregroundBlur_288_3913"/>
</filter>
<filter id="filter4_f_288_3913" x="40.7509" y="39.2013" width="1.64976" height="13.0975" filterUnits="userSpaceOnUse" color-interpolation-filters="sRGB">
<feFlood flood-opacity="0" result="BackgroundImageFix"/>
<feBlend mode="normal" in="SourceGraphic" in2="BackgroundImageFix" result="shape"/>
<feGaussianBlur stdDeviation="0.1" result="effect1_foregroundBlur_288_3913"/>
</filter>
<filter id="filter5_f_288_3913" x="14.7678" y="25.6491" width="22.0183" height="40.0625" filterUnits="userSpaceOnUse" color-interpolation-filters="sRGB">
<feFlood flood-opacity="0" result="BackgroundImageFix"/>
<feBlend mode="normal" in="SourceGraphic" in2="BackgroundImageFix" result="shape"/>
<feGaussianBlur stdDeviation="0.5" result="effect1_foregroundBlur_288_3913"/>
</filter>
<filter id="filter6_f_288_3913" x="25.5942" y="30.8893" width="33.3303" height="9.57635" filterUnits="userSpaceOnUse" color-interpolation-filters="sRGB">
<feFlood flood-opacity="0" result="BackgroundImageFix"/>
<feBlend mode="normal" in="SourceGraphic" in2="BackgroundImageFix" result="shape"/>
<feGaussianBlur stdDeviation="0.5" result="effect1_foregroundBlur_288_3913"/>
</filter>
<radialGradient id="paint0_radial_288_3913" cx="0" cy="0" r="1" gradientUnits="userSpaceOnUse" gradientTransform="translate(108.801 18.2222) rotate(14.6209) scale(15.3843 15.3843)">
<stop offset="0.472635" stop-color="#494DAC"/>
<stop offset="0.644517" stop-color="#7C7FC7"/>
<stop offset="0.759105" stop-color="#536EB3"/>
<stop offset="0.945555" stop-color="#327D95"/>
</radialGradient>
<linearGradient id="paint1_linear_288_3913" x1="41.4826" y1="25.6136" x2="29.5719" y2="1" gradientUnits="userSpaceOnUse">
<stop stop-color="#77A9E7"/>
<stop offset="1" stop-color="#8290DE"/>
</linearGradient>
<radialGradient id="paint2_radial_288_3913" cx="0" cy="0" r="1" gradientUnits="userSpaceOnUse" gradientTransform="translate(38.246 31.8926) rotate(-68.1291) scale(29.7146 36.7409)">
<stop offset="0.94785" stop-color="#A46DDB" stop-opacity="0"/>
<stop offset="0.985478" stop-color="#5F9EED"/>
</radialGradient>
<linearGradient id="paint3_linear_288_3913" x1="28.7951" y1="22.5065" x2="39.929" y2="22.5065" gradientUnits="userSpaceOnUse">
<stop stop-color="#9379E0"/>
<stop offset="1" stop-color="#959297" stop-opacity="0"/>
<stop offset="1" stop-color="#7F82D3" stop-opacity="0"/>
</linearGradient>
<linearGradient id="paint4_linear_288_3913" x1="31.8052" y1="4.9962" x2="31.8052" y2="26.3578" gradientUnits="userSpaceOnUse">
<stop stop-color="#B8B7BA"/>
<stop offset="1" stop-color="#B8B7BA" stop-opacity="0"/>
</linearGradient>
<linearGradient id="paint5_linear_288_3913" x1="60.6579" y1="59.6622" x2="60.6579" y2="71.8318" gradientUnits="userSpaceOnUse">
<stop stop-color="#9A99D5"/>
<stop offset="1" stop-color="#5D7EAF"/>
</linearGradient>
<radialGradient id="paint6_radial_288_3913" cx="0" cy="0" r="1" gradientUnits="userSpaceOnUse" gradientTransform="translate(54.4291 63.3519) rotate(35.0893) scale(12.4993 14.5211)">
<stop offset="0.877212" stop-color="#6F617D" stop-opacity="0"/>
<stop offset="1" stop-color="#6F617D"/>
</radialGradient>
<linearGradient id="paint7_linear_288_3913" x1="100.218" y1="38.0048" x2="13.4916" y2="99.714" gradientUnits="userSpaceOnUse">
<stop stop-color="#77A9E7"/>
<stop offset="1" stop-color="#B1A0E0"/>
</linearGradient>
<radialGradient id="paint8_radial_288_3913" cx="0" cy="0" r="1" gradientUnits="userSpaceOnUse" gradientTransform="translate(100.131 93.308) rotate(-141.438) scale(23.6764 40.3189)">
<stop offset="0.344984" stop-color="#8B7B9B"/>
<stop offset="0.788877" stop-color="#8B7B9B" stop-opacity="0"/>
</radialGradient>
<radialGradient id="paint9_radial_288_3913" cx="0" cy="0" r="1" gradientUnits="userSpaceOnUse" gradientTransform="translate(79.5458 117.906) rotate(-90) scale(3.75447 11.6388)">
<stop stop-color="#8D6FA8"/>
<stop offset="1" stop-color="#8D6FA8" stop-opacity="0"/>
</radialGradient>
<radialGradient id="paint10_radial_288_3913" cx="0" cy="0" r="1" gradientUnits="userSpaceOnUse" gradientTransform="translate(115.278 57.9643) rotate(-121.875) scale(36.2842 47.9556)">
<stop stop-color="#857C90"/>
<stop offset="1" stop-color="#857C90" stop-opacity="0"/>
</radialGradient>
<radialGradient id="paint11_radial_288_3913" cx="0" cy="0" r="1" gradientUnits="userSpaceOnUse" gradientTransform="translate(84.077 104.571) rotate(180) scale(6.60268 6.60268)">
<stop stop-color="#948E9A"/>
<stop offset="1" stop-color="#948E9A" stop-opacity="0"/>
</radialGradient>
<radialGradient id="paint12_radial_288_3913" cx="0" cy="0" r="1" gradientUnits="userSpaceOnUse" gradientTransform="translate(38.5697 38.8683) rotate(101.31) scale(4.29092 2.10891)">
<stop stop-color="#C5C2C8"/>
<stop offset="1" stop-color="#C5C2C8" stop-opacity="0"/>
</radialGradient>
<radialGradient id="paint13_radial_288_3913" cx="0" cy="0" r="1" gradientUnits="userSpaceOnUse" gradientTransform="translate(21.804 2.81251) rotate(57.5674) scale(29.4508 65.6399)">
<stop stop-color="#C5C2C8"/>
<stop offset="1" stop-color="#C5C2C8" stop-opacity="0"/>
</radialGradient>
<linearGradient id="paint14_linear_288_3913" x1="70.0606" y1="46.5667" x2="70.0606" y2="89.9853" gradientUnits="userSpaceOnUse">
<stop stop-color="#E1D9EB"/>
<stop offset="1" stop-color="#E1D9EB" stop-opacity="0"/>
</linearGradient>
<linearGradient id="paint15_linear_288_3913" x1="63.4458" y1="73.2718" x2="63.4458" y2="38.5558" gradientUnits="userSpaceOnUse">
<stop offset="0.16452" stop-color="#947CAB"/>
<stop offset="1" stop-color="#947CAB" stop-opacity="0"/>
</linearGradient>
<linearGradient id="paint16_linear_288_3913" x1="23.6165" y1="66.4113" x2="34.1031" y2="51.1345" gradientUnits="userSpaceOnUse">
<stop stop-color="#C8C3CF"/>
<stop offset="1" stop-color="#C8C3CF" stop-opacity="0"/>
</linearGradient>
<linearGradient id="paint17_linear_288_3913" x1="22.775" y1="52.6234" x2="37.8576" y2="60.0676" gradientUnits="userSpaceOnUse">
<stop stop-color="#D7D0E0"/>
<stop offset="1" stop-color="#C8C3CF" stop-opacity="0"/>
</linearGradient>
<radialGradient id="paint18_radial_288_3913" cx="0" cy="0" r="1" gradientUnits="userSpaceOnUse" gradientTransform="translate(58.3129 72.7551) rotate(-151.631) scale(29.4269 20.1761)">
<stop offset="0.160063" stop-color="#947CAB"/>
<stop offset="1" stop-color="#947CAB" stop-opacity="0"/>
</radialGradient>
<radialGradient id="paint19_radial_288_3913" cx="0" cy="0" r="1" gradientUnits="userSpaceOnUse" gradientTransform="translate(49.2504 77.1245) rotate(126.674) scale(15.1733 23.0092)">
<stop offset="0.45368" stop-color="#6D7BC4"/>
<stop offset="1" stop-color="#816B9E" stop-opacity="0"/>
</radialGradient>
<radialGradient id="paint20_radial_288_3913" cx="0" cy="0" r="1" gradientUnits="userSpaceOnUse" gradientTransform="translate(48.862 48.7071) rotate(-169.875) scale(9.20587 19.7355)">
<stop offset="0.151259" stop-color="#896FA2"/>
<stop offset="0.781211" stop-color="#8B779E" stop-opacity="0"/>
</radialGradient>
<radialGradient id="paint21_radial_288_3913" cx="0" cy="0" r="1" gradientUnits="userSpaceOnUse" gradientTransform="translate(63.7504 41.6513) rotate(97.6242) scale(66.3545 71.4093)">
<stop offset="0.84628" stop-color="#8D6FA8" stop-opacity="0"/>
<stop offset="1" stop-color="#8D6FA8"/>
</radialGradient>
<radialGradient id="paint22_radial_288_3913" cx="0" cy="0" r="1" gradientUnits="userSpaceOnUse" gradientTransform="translate(64.0417 102.855) rotate(-145.539) scale(4.00399 12.8868)">
<stop stop-color="#9AA4E3"/>
<stop offset="1" stop-color="#6599B6" stop-opacity="0"/>
</radialGradient>
<linearGradient id="paint23_linear_288_3913" x1="73.0901" y1="32.8379" x2="73.0901" y2="46.224" gradientUnits="userSpaceOnUse">
<stop stop-color="#426E9B"/>
<stop offset="1" stop-color="#77A9E7"/>
</linearGradient>
<linearGradient id="paint24_linear_288_3913" x1="64.8045" y1="32.8379" x2="64.8045" y2="46.224" gradientUnits="userSpaceOnUse">
<stop stop-color="#446E9B"/>
<stop offset="1" stop-color="#77A9E7"/>
</linearGradient>
<linearGradient id="paint25_linear_288_3913" x1="96.6791" y1="37.4104" x2="95.2968" y2="41.9343" gradientUnits="userSpaceOnUse">
<stop offset="0.00558659" stop-color="#706977"/>
<stop offset="1" stop-color="#A594AF"/>
</linearGradient>
<radialGradient id="paint26_radial_288_3913" cx="0" cy="0" r="1" gradientUnits="userSpaceOnUse" gradientTransform="translate(92.5149 36.9678) rotate(54.1624) scale(5.74915 5.1256)">
<stop offset="0.00558659" stop-color="#433437"/>
<stop offset="1" stop-color="#3B2838"/>
</radialGradient>
<radialGradient id="paint27_radial_288_3913" cx="0" cy="0" r="1" gradientUnits="userSpaceOnUse" gradientTransform="translate(92.1966 37.2652) rotate(42.3575) scale(2.97838 2.62025)">
<stop stop-color="#5C5051"/>
<stop offset="1" stop-color="#5C5051" stop-opacity="0"/>
</radialGradient>
<linearGradient id="paint28_linear_288_3913" x1="94.5593" y1="35.0469" x2="97.4075" y2="33.2344" gradientUnits="userSpaceOnUse">
<stop stop-color="#5C5051" stop-opacity="0"/>
<stop offset="1" stop-color="#5C5051"/>
</linearGradient>
<linearGradient id="paint29_linear_288_3913" x1="78.7685" y1="76.4928" x2="104.92" y2="93.1937" gradientUnits="userSpaceOnUse">
<stop stop-color="#A6BAE2"/>
<stop offset="1" stop-color="#CECAD3" stop-opacity="0"/>
</linearGradient>
<linearGradient id="paint30_linear_288_3913" x1="56.5652" y1="76.4119" x2="56.5652" y2="66.7669" gradientUnits="userSpaceOnUse">
<stop stop-color="#B8B7BA"/>
<stop offset="1" stop-color="#B8B7BA" stop-opacity="0"/>
</linearGradient>
<radialGradient id="paint31_radial_288_3913" cx="0" cy="0" r="1" gradientUnits="userSpaceOnUse" gradientTransform="translate(40.0262 51.7652) rotate(-86.3007) scale(22.5738 12.1769)">
<stop stop-color="#B5B2B9"/>
<stop offset="1" stop-color="#B5B2B9" stop-opacity="0"/>
</radialGradient>
<radialGradient id="paint32_radial_288_3913" cx="0" cy="0" r="1" gradientUnits="userSpaceOnUse" gradientTransform="translate(42.1947 41.0844) rotate(28.2808) scale(12.5695 22.5435)">
<stop offset="0.751316" stop-color="#8A8193" stop-opacity="0"/>
<stop offset="1" stop-color="#8A8193"/>
</radialGradient>
<radialGradient id="paint33_radial_288_3913" cx="0" cy="0" r="1" gradientUnits="userSpaceOnUse" gradientTransform="translate(42.7126 32.475) rotate(90) scale(21.6853 12.7599)">
<stop offset="0.894118" stop-color="#8A8193" stop-opacity="0"/>
<stop offset="1" stop-color="#8A8193"/>
</radialGradient>
<radialGradient id="paint34_radial_288_3913" cx="0" cy="0" r="1" gradientUnits="userSpaceOnUse" gradientTransform="translate(55.1411 42.5732) rotate(-124.735) scale(5.90767 2.2007)">
<stop stop-color="#959199"/>
<stop offset="1" stop-color="#959199" stop-opacity="0"/>
</radialGradient>
<linearGradient id="paint35_linear_288_3913" x1="40.706" y1="51.7004" x2="40.706" y2="39.4013" gradientUnits="userSpaceOnUse">
<stop stop-color="#CBC8CE"/>
<stop offset="1" stop-color="#CBC8CE" stop-opacity="0"/>
</linearGradient>
<linearGradient id="paint36_linear_288_3913" x1="25.777" y1="28.9795" x2="-3.01237" y2="70.5784" gradientUnits="userSpaceOnUse">
<stop stop-color="#A6BFE7"/>
<stop offset="1" stop-color="#B2C1CE" stop-opacity="0"/>
</linearGradient>
<radialGradient id="paint37_radial_288_3913" cx="0" cy="0" r="1" gradientUnits="userSpaceOnUse" gradientTransform="translate(103.921 9.69433) rotate(-171.634) scale(25.6992 25.6992)">
<stop offset="0.472635" stop-color="#4A6D98"/>
<stop offset="0.727168" stop-color="#3A6E9D"/>
<stop offset="0.945555" stop-color="#3E2F9F"/>
</radialGradient>
<radialGradient id="paint38_radial_288_3913" cx="0" cy="0" r="1" gradientUnits="userSpaceOnUse" gradientTransform="translate(84.4778 8.94651) rotate(76.866) scale(23.0371 7.89765)">
<stop stop-color="#8677E7"/>
<stop offset="0.305394" stop-color="#7685D6" stop-opacity="0"/>
</radialGradient>
<radialGradient id="paint39_radial_288_3913" cx="0" cy="0" r="1" gradientUnits="userSpaceOnUse" gradientTransform="translate(101.988 60.9597) rotate(-48.9428) scale(5.91712 12.61)">
<stop stop-color="#F70A8D"/>
<stop offset="1" stop-color="#89029C"/>
</radialGradient>
<radialGradient id="paint40_radial_288_3913" cx="0" cy="0" r="1" gradientUnits="userSpaceOnUse" gradientTransform="translate(98.0902 64.119) rotate(-45.9927) scale(10.2431 17.4379)">
<stop stop-color="#FF1C4A"/>
<stop offset="0.765733" stop-color="#FF2B8F"/>
<stop offset="0.864496" stop-color="#BB0773"/>
<stop offset="0.886239" stop-color="#9F0762"/>
</radialGradient>
</defs>
</svg>
