<svg width="212" height="212" viewBox="0 0 212 212" fill="none" xmlns="http://www.w3.org/2000/svg">
<circle cx="105.751" cy="105.771" r="105.576" fill="url(#paint0_radial_288_4497)" fill-opacity="0.6"/>
<g filter="url(#filter0_d_288_4497)">
<ellipse cx="92.77" cy="135.08" rx="66.3402" ry="41.5603" fill="url(#paint1_linear_288_4497)" fill-opacity="0.5" shape-rendering="crispEdges"/>
<path d="M158.593 135.08C158.593 146.314 151.323 156.563 139.405 164.029C127.494 171.49 111.008 176.123 92.77 176.123C74.5324 176.123 58.0458 171.49 46.1352 164.029C34.2174 156.563 26.9474 146.314 26.9474 135.08C26.9474 123.846 34.2174 113.597 46.1352 106.131C58.0458 98.6692 74.5324 94.0371 92.77 94.0371C111.008 94.0371 127.494 98.6692 139.405 106.131C151.323 113.597 158.593 123.846 158.593 135.08Z" stroke="url(#paint2_linear_288_4497)" stroke-opacity="0.6" stroke-width="1.03515" shape-rendering="crispEdges"/>
</g>
<circle cx="92.7707" cy="96.3256" r="84.163" fill="url(#paint3_radial_288_4497)"/>
<g filter="url(#filter1_d_288_4497)">
<ellipse cx="92.7704" cy="110.241" rx="82.2835" ry="48.1374" fill="url(#paint4_linear_288_4497)" fill-opacity="0.5" shape-rendering="crispEdges"/>
<path d="M174.536 110.241C174.536 123.274 165.503 135.168 150.692 143.833C135.894 152.49 115.417 157.861 92.7704 157.861C70.1239 157.861 49.6466 152.49 34.8486 143.833C20.0381 135.168 11.0045 123.274 11.0045 110.241C11.0045 97.2079 20.0381 85.3138 34.8486 76.6494C49.6466 67.9923 70.1239 62.6211 92.7704 62.6211C115.417 62.6211 135.894 67.9923 150.692 76.6494C165.503 85.3138 174.536 97.2079 174.536 110.241Z" stroke="url(#paint5_linear_288_4497)" stroke-opacity="0.6" stroke-width="1.03515" shape-rendering="crispEdges"/>
</g>
<circle cx="92.7723" cy="96.3256" r="62.3412" fill="url(#paint6_radial_288_4497)"/>
<circle cx="92.7723" cy="96.3256" r="62.3412" fill="url(#paint7_radial_288_4497)"/>
<g filter="url(#filter2_d_288_4497)">
<ellipse cx="92.7727" cy="80.3572" rx="81.4465" ry="47.0242" fill="url(#paint8_linear_288_4497)" fill-opacity="0.5" shape-rendering="crispEdges"/>
<path d="M173.702 80.3572C173.702 93.0794 164.766 104.696 150.105 113.16C135.458 121.617 115.189 126.864 92.7727 126.864C70.3561 126.864 50.0871 121.617 35.4401 113.16C20.7794 104.696 11.8437 93.0794 11.8437 80.3572C11.8437 67.635 20.7794 56.0188 35.4401 47.5543C50.0871 39.0977 70.3561 33.8506 92.7727 33.8506C115.189 33.8506 135.458 39.0977 150.105 47.5543C164.766 56.0188 173.702 67.635 173.702 80.3572Z" stroke="url(#paint9_linear_288_4497)" stroke-opacity="0.6" stroke-width="1.03515" shape-rendering="crispEdges"/>
</g>
<g filter="url(#filter3_d_288_4497)">
<ellipse cx="92.7696" cy="56.0741" rx="63.2002" ry="40.8509" fill="url(#paint10_linear_288_4497)" fill-opacity="0.5" shape-rendering="crispEdges"/>
<path d="M155.452 56.0741C155.452 67.1203 148.525 77.1911 137.178 84.5253C125.836 91.8562 110.137 96.4074 92.7696 96.4074C75.4022 96.4074 59.7029 91.8562 48.3613 84.5253C37.0145 77.1911 30.087 67.1203 30.087 56.0741C30.087 45.0279 37.0145 34.957 48.3613 27.6228C59.7029 20.2919 75.4022 15.7407 92.7696 15.7407C110.137 15.7407 125.836 20.2919 137.178 27.6228C148.525 34.957 155.452 45.0279 155.452 56.0741Z" stroke="url(#paint11_linear_288_4497)" stroke-opacity="0.6" stroke-width="1.03515" shape-rendering="crispEdges"/>
</g>
<g filter="url(#filter4_d_288_4497)">
<ellipse cx="92.7721" cy="41.8853" rx="39.3374" ry="26.6621" fill="url(#paint12_linear_288_4497)" fill-opacity="0.5" shape-rendering="crispEdges"/>
<path d="M131.592 41.8853C131.592 49.0249 127.322 55.5484 120.297 60.3098C113.275 65.0693 103.545 68.0298 92.7721 68.0298C81.999 68.0298 72.2689 65.0693 65.2467 60.3098C58.2217 55.5484 53.9523 49.0249 53.9523 41.8853C53.9523 34.7456 58.2217 28.2222 65.2467 23.4607C72.2689 18.7013 81.999 15.7407 92.7721 15.7407C103.545 15.7407 113.275 18.7013 120.297 23.4607C127.322 28.2222 131.592 34.7456 131.592 41.8853Z" stroke="url(#paint13_linear_288_4497)" stroke-opacity="0.6" stroke-width="1.03515" shape-rendering="crispEdges"/>
</g>
<circle cx="92.7707" cy="96.3256" r="84.163" fill="url(#paint14_radial_288_4497)" fill-opacity="0.9"/>
<defs>
<filter id="filter0_d_288_4497" x="19.7013" y="86.791" width="148.208" height="98.6479" filterUnits="userSpaceOnUse" color-interpolation-filters="sRGB">
<feFlood flood-opacity="0" result="BackgroundImageFix"/>
<feColorMatrix in="SourceAlpha" type="matrix" values="0 0 0 0 0 0 0 0 0 0 0 0 0 0 0 0 0 0 127 0" result="hardAlpha"/>
<feOffset dx="1.03515" dy="1.03515"/>
<feGaussianBlur stdDeviation="3.88183"/>
<feComposite in2="hardAlpha" operator="out"/>
<feColorMatrix type="matrix" values="0 0 0 0 0.440043 0 0 0 0 0.20092 0 0 0 0 0.679167 0 0 0 0.2 0"/>
<feBlend mode="normal" in2="BackgroundImageFix" result="effect1_dropShadow_288_4497"/>
<feBlend mode="normal" in="SourceGraphic" in2="effect1_dropShadow_288_4497" result="shape"/>
</filter>
<filter id="filter1_d_288_4497" x="3.75843" y="55.375" width="180.094" height="111.802" filterUnits="userSpaceOnUse" color-interpolation-filters="sRGB">
<feFlood flood-opacity="0" result="BackgroundImageFix"/>
<feColorMatrix in="SourceAlpha" type="matrix" values="0 0 0 0 0 0 0 0 0 0 0 0 0 0 0 0 0 0 127 0" result="hardAlpha"/>
<feOffset dx="1.03515" dy="1.03515"/>
<feGaussianBlur stdDeviation="3.88183"/>
<feComposite in2="hardAlpha" operator="out"/>
<feColorMatrix type="matrix" values="0 0 0 0 0.440043 0 0 0 0 0.20092 0 0 0 0 0.679167 0 0 0 0.2 0"/>
<feBlend mode="normal" in2="BackgroundImageFix" result="effect1_dropShadow_288_4497"/>
<feBlend mode="normal" in="SourceGraphic" in2="effect1_dropShadow_288_4497" result="shape"/>
</filter>
<filter id="filter2_d_288_4497" x="4.59767" y="26.6045" width="178.42" height="109.576" filterUnits="userSpaceOnUse" color-interpolation-filters="sRGB">
<feFlood flood-opacity="0" result="BackgroundImageFix"/>
<feColorMatrix in="SourceAlpha" type="matrix" values="0 0 0 0 0 0 0 0 0 0 0 0 0 0 0 0 0 0 127 0" result="hardAlpha"/>
<feOffset dx="1.03515" dy="1.03515"/>
<feGaussianBlur stdDeviation="3.88183"/>
<feComposite in2="hardAlpha" operator="out"/>
<feColorMatrix type="matrix" values="0 0 0 0 0.440043 0 0 0 0 0.20092 0 0 0 0 0.679167 0 0 0 0.2 0"/>
<feBlend mode="normal" in2="BackgroundImageFix" result="effect1_dropShadow_288_4497"/>
<feBlend mode="normal" in="SourceGraphic" in2="effect1_dropShadow_288_4497" result="shape"/>
</filter>
<filter id="filter3_d_288_4497" x="22.841" y="8.49464" width="141.928" height="97.229" filterUnits="userSpaceOnUse" color-interpolation-filters="sRGB">
<feFlood flood-opacity="0" result="BackgroundImageFix"/>
<feColorMatrix in="SourceAlpha" type="matrix" values="0 0 0 0 0 0 0 0 0 0 0 0 0 0 0 0 0 0 127 0" result="hardAlpha"/>
<feOffset dx="1.03515" dy="1.03515"/>
<feGaussianBlur stdDeviation="3.88183"/>
<feComposite in2="hardAlpha" operator="out"/>
<feColorMatrix type="matrix" values="0 0 0 0 0.440043 0 0 0 0 0.20092 0 0 0 0 0.679167 0 0 0 0.2 0"/>
<feBlend mode="normal" in2="BackgroundImageFix" result="effect1_dropShadow_288_4497"/>
<feBlend mode="normal" in="SourceGraphic" in2="effect1_dropShadow_288_4497" result="shape"/>
</filter>
<filter id="filter4_d_288_4497" x="46.7062" y="8.49464" width="94.202" height="68.8515" filterUnits="userSpaceOnUse" color-interpolation-filters="sRGB">
<feFlood flood-opacity="0" result="BackgroundImageFix"/>
<feColorMatrix in="SourceAlpha" type="matrix" values="0 0 0 0 0 0 0 0 0 0 0 0 0 0 0 0 0 0 127 0" result="hardAlpha"/>
<feOffset dx="1.03515" dy="1.03515"/>
<feGaussianBlur stdDeviation="3.88183"/>
<feComposite in2="hardAlpha" operator="out"/>
<feColorMatrix type="matrix" values="0 0 0 0 0.440043 0 0 0 0 0.20092 0 0 0 0 0.679167 0 0 0 0.2 0"/>
<feBlend mode="normal" in2="BackgroundImageFix" result="effect1_dropShadow_288_4497"/>
<feBlend mode="normal" in="SourceGraphic" in2="effect1_dropShadow_288_4497" result="shape"/>
</filter>
<radialGradient id="paint0_radial_288_4497" cx="0" cy="0" r="1" gradientUnits="userSpaceOnUse" gradientTransform="translate(105.751 105.771) rotate(90) scale(105.576)">
<stop stop-color="#FF65C1"/>
<stop offset="1" stop-color="#FF65C1" stop-opacity="0"/>
</radialGradient>
<linearGradient id="paint1_linear_288_4497" x1="159.11" y1="126.084" x2="26.4715" y2="135.657" gradientUnits="userSpaceOnUse">
<stop stop-color="#4E53BE" stop-opacity="0.5"/>
<stop offset="0.885417" stop-color="#FB33FF" stop-opacity="0.5"/>
<stop offset="1" stop-color="white" stop-opacity="0.5"/>
</linearGradient>
<linearGradient id="paint2_linear_288_4497" x1="104.365" y1="194.686" x2="112.635" y2="102.725" gradientUnits="userSpaceOnUse">
<stop stop-color="white"/>
<stop offset="1" stop-color="white" stop-opacity="0"/>
</linearGradient>
<radialGradient id="paint3_radial_288_4497" cx="0" cy="0" r="1" gradientUnits="userSpaceOnUse" gradientTransform="translate(8.60767 126.942) rotate(-19.6638) scale(178.75)">
<stop offset="0.249306" stop-color="white"/>
<stop offset="0.48315" stop-color="#FF8FED" stop-opacity="0.5"/>
<stop offset="0.627037" stop-color="#220C7A" stop-opacity="0.5"/>
</radialGradient>
<linearGradient id="paint4_linear_288_4497" x1="175.054" y1="99.8218" x2="10.6636" y2="112.527" gradientUnits="userSpaceOnUse">
<stop stop-color="#4E53BE" stop-opacity="0.5"/>
<stop offset="0.885417" stop-color="#FB33FF" stop-opacity="0.5"/>
<stop offset="1" stop-color="white" stop-opacity="0.5"/>
</linearGradient>
<linearGradient id="paint5_linear_288_4497" x1="107.152" y1="179.28" x2="116.106" y2="72.656" gradientUnits="userSpaceOnUse">
<stop stop-color="white"/>
<stop offset="1" stop-color="white" stop-opacity="0"/>
</linearGradient>
<radialGradient id="paint6_radial_288_4497" cx="0" cy="0" r="1" gradientUnits="userSpaceOnUse" gradientTransform="translate(112.807 158.667) rotate(-107.749) scale(125.227)">
<stop offset="0.223958" stop-color="white"/>
<stop offset="0.466382" stop-color="#FFCEF1"/>
<stop offset="0.682292" stop-color="#B6B9FF"/>
<stop offset="0.881791" stop-color="white"/>
</radialGradient>
<radialGradient id="paint7_radial_288_4497" cx="0" cy="0" r="1" gradientUnits="userSpaceOnUse" gradientTransform="translate(123.574 158.667) rotate(-100.377) scale(171.005)">
<stop stop-color="white"/>
<stop offset="1" stop-color="white" stop-opacity="0"/>
</radialGradient>
<linearGradient id="paint8_linear_288_4497" x1="174.219" y1="70.179" x2="11.5269" y2="82.9201" gradientUnits="userSpaceOnUse">
<stop stop-color="#4E53BE" stop-opacity="0.5"/>
<stop offset="0.885417" stop-color="#FB33FF" stop-opacity="0.5"/>
<stop offset="1" stop-color="white" stop-opacity="0.5"/>
</linearGradient>
<linearGradient id="paint9_linear_288_4497" x1="107.008" y1="147.8" x2="115.642" y2="43.6225" gradientUnits="userSpaceOnUse">
<stop stop-color="white"/>
<stop offset="1" stop-color="white" stop-opacity="0"/>
</linearGradient>
<linearGradient id="paint10_linear_288_4497" x1="155.97" y1="47.232" x2="29.5695" y2="56.0741" gradientUnits="userSpaceOnUse">
<stop stop-color="#4E53BE" stop-opacity="0.5"/>
<stop offset="0.885417" stop-color="#FB33FF" stop-opacity="0.5"/>
<stop offset="1" stop-color="white" stop-opacity="0.5"/>
</linearGradient>
<linearGradient id="paint11_linear_288_4497" x1="103.816" y1="114.663" x2="112.199" y2="24.318" gradientUnits="userSpaceOnUse">
<stop stop-color="white"/>
<stop offset="1" stop-color="white" stop-opacity="0"/>
</linearGradient>
<linearGradient id="paint12_linear_288_4497" x1="132.109" y1="36.1144" x2="53.4" y2="41.3651" gradientUnits="userSpaceOnUse">
<stop stop-color="#4E53BE" stop-opacity="0.5"/>
<stop offset="0.885417" stop-color="#FB33FF" stop-opacity="0.5"/>
<stop offset="1" stop-color="white" stop-opacity="0.5"/>
</linearGradient>
<linearGradient id="paint13_linear_288_4497" x1="99.6475" y1="80.1243" x2="105.38" y2="21.2091" gradientUnits="userSpaceOnUse">
<stop stop-color="white"/>
<stop offset="1" stop-color="white" stop-opacity="0"/>
</linearGradient>
<radialGradient id="paint14_radial_288_4497" cx="0" cy="0" r="1" gradientUnits="userSpaceOnUse" gradientTransform="translate(58.969 191.12) rotate(-65.1363) scale(265.393)">
<stop offset="0.249306" stop-color="white"/>
<stop offset="0.48315" stop-color="#FF8FED" stop-opacity="0.5"/>
<stop offset="0.627037" stop-color="#220C7A" stop-opacity="0"/>
</radialGradient>
</defs>
</svg>
