<svg width="20" height="20" viewBox="0 0 20 20" fill="none" xmlns="http://www.w3.org/2000/svg">
<g clip-path="url(#clip0_205_3098)">
<path d="M7.50033 15.8334C3.33366 17.0834 3.33366 13.75 1.66699 13.3334M13.3337 18.3334V15.1084C13.3649 14.711 13.3112 14.3115 13.1762 13.9365C13.0411 13.5615 12.8278 13.2195 12.5503 12.9334C15.167 12.6417 17.917 11.65 17.917 7.10003C17.9168 5.93655 17.4692 4.81769 16.667 3.97503C17.0469 2.95712 17.02 1.83199 16.592 0.833363C16.592 0.833363 15.6087 0.541696 13.3337 2.0667C11.4237 1.54905 9.41032 1.54905 7.50033 2.0667C5.22533 0.541696 4.24199 0.833363 4.24199 0.833363C3.81397 1.83199 3.78711 2.95712 4.16699 3.97503C3.35876 4.82395 2.91076 5.95291 2.91699 7.12503C2.91699 11.6417 5.66699 12.6334 8.28366 12.9584C8.00949 13.2417 7.79804 13.5795 7.66308 13.95C7.52812 14.3204 7.47267 14.7151 7.50033 15.1084V18.3334" stroke="url(#paint0_linear_205_3098)" stroke-width="2" stroke-linecap="round" stroke-linejoin="round"/>
</g>
<defs>
<linearGradient id="paint0_linear_205_3098" x1="17.2206" y1="19.8666" x2="-1.66089" y2="15.6473" gradientUnits="userSpaceOnUse">
<stop stop-color="#997BED"/>
<stop offset="0.587751" stop-color="#77A9E7"/>
<stop offset="1" stop-color="#4AE2DE"/>
</linearGradient>
<clipPath id="clip0_205_3098">
<rect width="20" height="20" rx="5" fill="white"/>
</clipPath>
</defs>
</svg>
