<svg width="20" height="20" viewBox="0 0 20 20" fill="none" xmlns="http://www.w3.org/2000/svg">
<g clip-path="url(#clip0_205_3096)">
<path d="M10.0001 18.4415L18.8751 11.9915C19.0015 11.9097 19.0982 11.7893 19.1507 11.6482C19.2033 11.507 19.2089 11.3528 19.1668 11.2082L18.1085 8.07485L16.0751 1.81651C16.0578 1.75953 16.0263 1.7079 15.9835 1.66651C15.9174 1.6062 15.8312 1.57275 15.7418 1.57275C15.6524 1.57275 15.5662 1.6062 15.5001 1.66651C15.4596 1.70319 15.4282 1.74885 15.4085 1.79985L13.3751 8.05818H6.62512L4.59179 1.81651C4.57449 1.75953 4.54294 1.7079 4.50012 1.66651C4.43409 1.6062 4.34789 1.57275 4.25845 1.57275C4.16902 1.57275 4.08282 1.6062 4.01679 1.66651C3.97624 1.70319 3.94484 1.74885 3.92512 1.79985L1.89179 8.05818L0.87512 11.2082C0.828827 11.3484 0.828079 11.4997 0.872982 11.6404C0.917886 11.7811 1.00614 11.904 1.12512 11.9915L10.0001 18.4415Z" stroke="url(#paint0_linear_205_3096)" stroke-width="2" stroke-linecap="round" stroke-linejoin="round"/>
</g>
<defs>
<linearGradient id="paint0_linear_205_3096" x1="18.4081" y1="19.9175" x2="-2.54382" y2="14.4243" gradientUnits="userSpaceOnUse">
<stop stop-color="#997BED"/>
<stop offset="0.587751" stop-color="#77A9E7"/>
<stop offset="1" stop-color="#4AE2DE"/>
</linearGradient>
<clipPath id="clip0_205_3096">
<rect width="20" height="20" rx="5" fill="white"/>
</clipPath>
</defs>
</svg>
