<svg xmlns="http://www.w3.org/2000/svg" xmlns:xlink="http://www.w3.org/1999/xlink" viewBox="0 0 715.48 105.92"><defs><style>.cls-1{stroke:#000;stroke-miterlimit:10;stroke-width:2px;}.cls-2{fill:url(#무제_그라디언트_28);}.cls-3{fill:url(#무제_그라디언트_28-2);}.cls-4{fill:url(#무제_그라디언트_28-3);}.cls-5{fill:url(#무제_그라디언트_46);}.cls-6{fill:url(#무제_그라디언트_28-4);}.cls-7{fill:url(#무제_그라디언트_28-5);}</style><linearGradient id="무제_그라디언트_28" x1="274.74" y1="33.23" x2="274.74" y2="102.72" gradientUnits="userSpaceOnUse"><stop offset="0" stop-color="#4ae2de"/><stop offset="1" stop-color="#997bed"/></linearGradient><linearGradient id="무제_그라디언트_28-2" x1="337.38" y1="69.12" x2="292.44" y2="69.12" xlink:href="#무제_그라디언트_28"/><linearGradient id="무제_그라디언트_28-3" x1="668.59" y1="69.12" x2="701.63" y2="69.12" xlink:href="#무제_그라디언트_28"/><linearGradient id="무제_그라디언트_46" x1="489" y1="44.71" x2="579.09" y2="75.03" gradientUnits="userSpaceOnUse"><stop offset="0" stop-color="#4ae2de"/><stop offset="0.24" stop-color="#63c1e3"/><stop offset="0.57" stop-color="#809be8"/><stop offset="0.84" stop-color="#9284ec"/><stop offset="1" stop-color="#997bed"/></linearGradient><linearGradient id="무제_그라디언트_28-4" x1="477.48" y1="96.01" x2="558.48" y2="96.01" xlink:href="#무제_그라디언트_28"/><linearGradient id="무제_그라디언트_28-5" x1="468.48" y1="99.03" x2="509.48" y2="99.03" xlink:href="#무제_그라디언트_28"/></defs><g id="레이어_2" data-name="레이어 2"><g id="레이어_1-2" data-name="레이어 1"><path class="cls-1" d="M32.78,66.41a72.4,72.4,0,0,1-12-3.27A34.64,34.64,0,0,1,11.4,58a22.68,22.68,0,0,1-6.16-7.43A21.17,21.17,0,0,1,3,40.67,22.69,22.69,0,0,1,5.41,30.25a26,26,0,0,1,6.37-8.1A29,29,0,0,1,21,16.87,32.79,32.79,0,0,1,32,15a38.42,38.42,0,0,1,7.94.82,34.57,34.57,0,0,1,7.39,2.41,28.69,28.69,0,0,1,6.33,4,20.78,20.78,0,0,1,4.7,5.58,5.13,5.13,0,0,1,.71,2.11A6.45,6.45,0,0,1,59,32,7.14,7.14,0,0,1,58.22,34,5.71,5.71,0,0,1,57,35.5a6.53,6.53,0,0,1-4.83,1.83A8.52,8.52,0,0,1,50,37,6.63,6.63,0,0,1,47.83,36Q46,34.41,44.36,33.21A17.87,17.87,0,0,0,41,31.27a18.75,18.75,0,0,0-3.81-1.12,27.12,27.12,0,0,0-4.83-.37,21.33,21.33,0,0,0-5.72.74A14.41,14.41,0,0,0,22,32.7a11,11,0,0,0-3.06,3.41,8.78,8.78,0,0,0-1.13,4.42,7.18,7.18,0,0,0,1.5,4.7,11.68,11.68,0,0,0,4.15,3.1,31.28,31.28,0,0,0,6.23,2.11c2.39.57,5,1.15,7.73,1.74a77.69,77.69,0,0,1,9.3,3,31.08,31.08,0,0,1,8.07,4.66,21.91,21.91,0,0,1,5.68,7,21.08,21.08,0,0,1,2.15,9.84,24.29,24.29,0,0,1-2.35,10.62,26.69,26.69,0,0,1-6.5,8.55A30.54,30.54,0,0,1,44,101.55a35.1,35.1,0,0,1-12.08,2A36,36,0,0,1,22,102.26a36.85,36.85,0,0,1-8.61-3.61,30.19,30.19,0,0,1-6.84-5.38A24.85,24.85,0,0,1,2,86.7a8.65,8.65,0,0,1-1-3.33,6.68,6.68,0,0,1,1.77-5.15,7.87,7.87,0,0,1,2.08-1.6,7.12,7.12,0,0,1,3.33-1q3.35,0,6.81,4.43a19.79,19.79,0,0,0,7.22,6.43,21.72,21.72,0,0,0,10.21,2.28,21.32,21.32,0,0,0,5.62-.75A16.31,16.31,0,0,0,43,85.85a11.9,11.9,0,0,0,3.5-3.57,8.86,8.86,0,0,0,1.33-4.84,8.07,8.07,0,0,0-1.36-4.87,10.32,10.32,0,0,0-3.51-3,21.37,21.37,0,0,0-4.83-1.84Q35.43,67,32.78,66.41Z"/><path class="cls-1" d="M132.33,95.55a7.12,7.12,0,0,1-.57,2.83,7.19,7.19,0,0,1-1.6,2.31,7.32,7.32,0,0,1-5.25,2.08,7.31,7.31,0,0,1-5.17-2.08,7,7,0,0,1-1.6-2.31,7,7,0,0,1-.58-2.83V70a1.33,1.33,0,0,1,.07-.45,18.19,18.19,0,0,0-1.23-6.33,16.37,16.37,0,0,0-3.17-5.11,14.7,14.7,0,0,0-4.8-3.44,14.86,14.86,0,0,0-6.19-1.26,17.23,17.23,0,0,0-6.47,1.2,15.38,15.38,0,0,0-5.18,3.33A15.81,15.81,0,0,0,87.15,63a16.41,16.41,0,0,0-1.25,6.5V95.42a7.34,7.34,0,0,1-4.46,6.77,7.15,7.15,0,0,1-2.9.58,7.37,7.37,0,0,1-2.93-.58,7.21,7.21,0,0,1-2.35-1.56,7.37,7.37,0,0,1-1.56-2.35,7.17,7.17,0,0,1-.58-2.86V22.49a7.37,7.37,0,0,1,.58-2.93,7.46,7.46,0,0,1,4-4,7.44,7.44,0,0,1,5.76,0,7.31,7.31,0,0,1,2.31,1.6,7.88,7.88,0,0,1,1.57,2.38,7.54,7.54,0,0,1,.58,2.93v22.2a28.42,28.42,0,0,1,7.66-4.46,23.67,23.67,0,0,1,8.68-1.6,28.9,28.9,0,0,1,12,2.48,29.81,29.81,0,0,1,9.53,6.74,31.26,31.26,0,0,1,6.3,10A32.62,32.62,0,0,1,132.33,70Z"/><path class="cls-1" d="M139.67,71.11a31.08,31.08,0,0,1,2.58-12.63,33.58,33.58,0,0,1,7-10.32,33,33,0,0,1,10.31-7,31.32,31.32,0,0,1,12.57-2.55,31.68,31.68,0,0,1,12.66,2.55A32.42,32.42,0,0,1,202,58.48a31.72,31.72,0,0,1,2.52,12.63v24.1a7.43,7.43,0,0,1-2.18,5.31,7.73,7.73,0,0,1-2.42,1.64,7.26,7.26,0,0,1-3,.61,6.69,6.69,0,0,1-4.49-1.56,7.54,7.54,0,0,1-2.46-3.95,33.5,33.5,0,0,1-8.41,4.63,26.81,26.81,0,0,1-9.49,1.7A31.32,31.32,0,0,1,159.58,101a33.06,33.06,0,0,1-17.33-17.33A31.22,31.22,0,0,1,139.67,71.11Zm14.77,0a17,17,0,0,0,1.4,6.84,18,18,0,0,0,9.43,9.47,17,17,0,0,0,6.88,1.39,17.44,17.44,0,0,0,12.52-5.21A17.77,17.77,0,0,0,188.42,78a17.36,17.36,0,0,0,1.36-6.84,17.62,17.62,0,0,0-5.11-12.53,17.78,17.78,0,0,0-5.61-3.78,17.6,17.6,0,0,0-13.76,0,18.3,18.3,0,0,0-5.65,3.78,17.57,17.57,0,0,0-3.81,5.62A17.24,17.24,0,0,0,154.44,71.11Z"/><path class="cls-1" d="M228.14,95.49a7.5,7.5,0,0,1-.55,2.86,6.48,6.48,0,0,1-1.53,2.31,7.74,7.74,0,0,1-2.28,1.53,6.67,6.67,0,0,1-2.79.58,7.55,7.55,0,0,1-3-.58,7.8,7.8,0,0,1-2.42-1.53A7,7,0,0,1,214,98.35a6.88,6.88,0,0,1-.62-2.86v-22a32.89,32.89,0,0,1,2.69-13.21A34.42,34.42,0,0,1,234.2,42.13a32.69,32.69,0,0,1,13.14-2.69h.14a7.55,7.55,0,0,1,5.68,2.08,7.3,7.3,0,0,1,2,5.28,7.06,7.06,0,0,1-.61,2.93,7.34,7.34,0,0,1-1.67,2.35,8.07,8.07,0,0,1-2.45,1.56,7.58,7.58,0,0,1-3,.58h-.14a18.6,18.6,0,0,0-7.39,1.5,19,19,0,0,0-6.09,4.09,20,20,0,0,0-4.15,6.06,17.74,17.74,0,0,0-1.57,7.42Z"/><path class="cls-2" d="M270,98.53a6,6,0,0,1-2.86,3.07,9.48,9.48,0,0,1-4.59,1.12,11.62,11.62,0,0,1-2.36-.27,10.4,10.4,0,0,1-2.68-1.2,6.7,6.7,0,0,1-1.9-1.8,5.2,5.2,0,0,1-.9-2.2,4.39,4.39,0,0,1,.33-2.37l24.27-57.46a6.48,6.48,0,0,1,3-3.05,9.58,9.58,0,0,1,4.62-1.14,10.11,10.11,0,0,1,2.51.32,7.45,7.45,0,0,1,2.65,1.25,7.09,7.09,0,0,1,1.82,2,6.1,6.1,0,0,1,.83,2.45,4.83,4.83,0,0,1-.36,2.45Z"/><path class="cls-3" d="M336.14,98a7.54,7.54,0,0,1-2.25,3.39,4.7,4.7,0,0,1-3,1.16,4.47,4.47,0,0,1-2.79-1.07L294.74,75.84c-.09-.13-.16-.19-.2-.19a9.06,9.06,0,0,1-2.32-4.84,11.56,11.56,0,0,1,.21-5.46,7.8,7.8,0,0,1,2.72-4.2L328,36.79A4.92,4.92,0,0,1,329.5,36a4.62,4.62,0,0,1,1.47-.24,4.57,4.57,0,0,1,3,1.15,7.79,7.79,0,0,1,2.21,3.29,10,10,0,0,1,.75,3.09,12.08,12.08,0,0,1-.17,3.24,10.79,10.79,0,0,1-1,3,6.23,6.23,0,0,1-1.84,2.22L310.74,68.88l22.88,17.59a5.28,5.28,0,0,1,1.91,2,10.07,10.07,0,0,1,1.09,2.9,13.13,13.13,0,0,1,.24,3.34A10.51,10.51,0,0,1,336.14,98Z"/><path class="cls-1" d="M373.28,52.41a72.25,72.25,0,0,1-12-3.27,34.79,34.79,0,0,1-9.4-5.17,22.81,22.81,0,0,1-6.16-7.43,21.29,21.29,0,0,1-2.21-9.87,22.69,22.69,0,0,1,2.38-10.42,26,26,0,0,1,6.37-8.1,29,29,0,0,1,9.26-5.28,32.84,32.84,0,0,1,11-1.87,38.4,38.4,0,0,1,7.93.82,34.57,34.57,0,0,1,7.39,2.41,28.69,28.69,0,0,1,6.33,4,20.6,20.6,0,0,1,4.7,5.58,4.86,4.86,0,0,1,.71,2.11,6.45,6.45,0,0,1-.13,2.11,7.5,7.5,0,0,1-.75,1.94,5.89,5.89,0,0,1-1.19,1.54,6.57,6.57,0,0,1-4.84,1.83,8.57,8.57,0,0,1-2.21-.3A6.63,6.63,0,0,1,388.32,22q-1.83-1.56-3.47-2.76a17.8,17.8,0,0,0-3.4-1.94,18.66,18.66,0,0,0-3.82-1.12,27.12,27.12,0,0,0-4.83-.37,21.38,21.38,0,0,0-5.72.74,14.52,14.52,0,0,0-4.6,2.18,11,11,0,0,0-3.06,3.41,8.78,8.78,0,0,0-1.13,4.42,7.18,7.18,0,0,0,1.5,4.7,11.72,11.72,0,0,0,4.16,3.1,31.06,31.06,0,0,0,6.23,2.11q3.57.86,7.73,1.74a78.13,78.13,0,0,1,9.29,3,31.08,31.08,0,0,1,8.07,4.66,21.78,21.78,0,0,1,5.68,7,21.08,21.08,0,0,1,2.15,9.84,24.15,24.15,0,0,1-2.35,10.62,26.54,26.54,0,0,1-6.5,8.55,30.6,30.6,0,0,1-9.77,5.69,35.19,35.19,0,0,1-12.09,2,35.92,35.92,0,0,1-9.87-1.33,36.75,36.75,0,0,1-8.62-3.61,30.19,30.19,0,0,1-6.84-5.38,25.09,25.09,0,0,1-4.56-6.57,8.83,8.83,0,0,1-1-3.33,7,7,0,0,1,.37-2.86,6.79,6.79,0,0,1,1.4-2.29,7.87,7.87,0,0,1,2.08-1.6,7.12,7.12,0,0,1,3.33-.95q3.35,0,6.81,4.43a19.87,19.87,0,0,0,7.22,6.43,21.76,21.76,0,0,0,10.22,2.28,21.3,21.3,0,0,0,5.61-.75,16.2,16.2,0,0,0,4.94-2.21A12.05,12.05,0,0,0,387,68.28a8.94,8.94,0,0,0,1.32-4.84A8.07,8.07,0,0,0,387,58.57a10.23,10.23,0,0,0-3.51-3,21.19,21.19,0,0,0-4.83-1.84Q375.93,53,373.28,52.41Z"/><path class="cls-1" d="M472.83,81.55a7.11,7.11,0,0,1-2.18,5.14,7.54,7.54,0,0,1-2.35,1.54,7.64,7.64,0,0,1-2.9.54,7.31,7.31,0,0,1-5.17-2.08,7,7,0,0,1-1.6-2.31,7,7,0,0,1-.58-2.83V56a1.33,1.33,0,0,1,.07-.45,18.19,18.19,0,0,0-1.23-6.33,16.34,16.34,0,0,0-3.16-5.11,14.7,14.7,0,0,0-4.8-3.44,14.94,14.94,0,0,0-6.2-1.26,17.23,17.23,0,0,0-6.47,1.2,15.23,15.23,0,0,0-5.17,3.33A15.65,15.65,0,0,0,427.65,49a16.41,16.41,0,0,0-1.26,6.5V81.42a7.34,7.34,0,0,1-4.46,6.77,7.12,7.12,0,0,1-2.9.58,7.28,7.28,0,0,1-2.92-.58,7.1,7.1,0,0,1-2.35-1.56,7.39,7.39,0,0,1-1.57-2.35,7.17,7.17,0,0,1-.58-2.86V8.49a7.37,7.37,0,0,1,.58-2.93,7.61,7.61,0,0,1,1.6-2.38,7.5,7.5,0,0,1,2.38-1.6,7.44,7.44,0,0,1,5.76,0,7.31,7.31,0,0,1,2.31,1.6,7.88,7.88,0,0,1,1.57,2.38,7.54,7.54,0,0,1,.58,2.93v22.2a28.57,28.57,0,0,1,7.66-4.46,23.67,23.67,0,0,1,8.68-1.6,28.9,28.9,0,0,1,12,2.48,30,30,0,0,1,9.54,6.74,31.23,31.23,0,0,1,6.29,10A32.42,32.42,0,0,1,472.83,56Z"/><path class="cls-1" d="M575.63,81.49a7.69,7.69,0,0,1-.54,2.86,6.76,6.76,0,0,1-1.53,2.31,7.66,7.66,0,0,1-2.29,1.53,6.67,6.67,0,0,1-2.79.58,7.58,7.58,0,0,1-3-.58,7.8,7.8,0,0,1-2.42-1.53,7.15,7.15,0,0,1-1.63-2.31,6.87,6.87,0,0,1-.61-2.86v-22a32.88,32.88,0,0,1,2.68-13.21,34.51,34.51,0,0,1,18.15-18.15,32.69,32.69,0,0,1,13.14-2.69H595a7.58,7.58,0,0,1,5.69,2.08,7.29,7.29,0,0,1,2,5.28,7.06,7.06,0,0,1-.61,2.93,7.19,7.19,0,0,1-1.67,2.35,8.07,8.07,0,0,1-2.45,1.56,7.58,7.58,0,0,1-3,.58h-.14a18.55,18.55,0,0,0-7.38,1.5,19.18,19.18,0,0,0-6.1,4.09,20.14,20.14,0,0,0-4.15,6.06,17.74,17.74,0,0,0-1.57,7.42Z"/><path class="cls-1" d="M641.11,54.18,662,76.45a6.58,6.58,0,0,1,1.53,2.38,7.91,7.91,0,0,1,.51,2.79,7.45,7.45,0,0,1-.54,2.79,6.77,6.77,0,0,1-1.71,2.45,7.18,7.18,0,0,1-5.1,2,6.94,6.94,0,0,1-2.79-.58,6.66,6.66,0,0,1-2.39-1.74l-20.7-22.67-6,5.72V81.55a7.1,7.1,0,0,1-2.15,5.11,7.49,7.49,0,0,1-2.28,1.53,6.67,6.67,0,0,1-2.79.58,7.17,7.17,0,0,1-2.86-.58,7.84,7.84,0,0,1-2.38-1.53,7.27,7.27,0,0,1-1.64-2.28,6.82,6.82,0,0,1-.61-2.83V8.22a6.82,6.82,0,0,1,.61-2.83,7.38,7.38,0,0,1,1.64-2.28,8.24,8.24,0,0,1,2.38-1.53,7.44,7.44,0,0,1,5.76,0,7.61,7.61,0,0,1,2.28,1.53,7.61,7.61,0,0,1,1.53,2.28,7.13,7.13,0,0,1,.58,2.83v42l23.22-22.74a6.53,6.53,0,0,1,2.25-1.5,6.79,6.79,0,0,1,2.51-.48,7.27,7.27,0,0,1,2.76.58,7.56,7.56,0,0,1,2.56,1.81,7.79,7.79,0,0,1,1.56,2.41,6.82,6.82,0,0,1,.51,2.73,7.38,7.38,0,0,1-.58,2.72,6.64,6.64,0,0,1-1.63,2.35Z"/><path class="cls-4" d="M679.32,101.45a4.51,4.51,0,0,1-2.79,1.07,4.75,4.75,0,0,1-3-1.16A7.61,7.61,0,0,1,671.29,98a10.51,10.51,0,0,1-.72-3.28,12.28,12.28,0,0,1,.24-3.34,9.56,9.56,0,0,1,1.12-2.9,5.79,5.79,0,0,1,1.88-2l22.81-17.59L673.53,51.67a7.09,7.09,0,0,1-1.8-2.22,10.2,10.2,0,0,1-1-3,11.69,11.69,0,0,1-.17-3.24,10,10,0,0,1,.75-3.09,7.79,7.79,0,0,1,2.21-3.29,4.57,4.57,0,0,1,3-1.15,4.62,4.62,0,0,1,1.47.24,5,5,0,0,1,1.46.82l32.89,24.36a8.06,8.06,0,0,1,3,5.22,11.56,11.56,0,0,1-.61,6.47l-.82,1.55-.34.48a5.56,5.56,0,0,1-1.83,1.74Z"/><path class="cls-5" d="M482.48,82.05a60.25,60.25,0,0,1,11-27.7c7.93-10.7,17.32-25.49,53-29.83-11,20.24,2.06,58.32,9,65-12,1.06-22,0-30.36-4.1-5.21-3.14-5.21-14.93-4-21.48-8.61,2.95-12.3,8.19-16.29,17C482.05,79.15,482.48,82.05,482.48,82.05Z"/><path class="cls-6" d="M477.48,90.57s6.33-11,54.42,1.53a68.66,68.66,0,0,0,26.58,1.67s-17,20.24-41,8.48C479.17,83.5,477.48,90.57,477.48,90.57Z"/><path class="cls-7" d="M509.48,104.42s-26-19.17-41-6.39C468.48,98,477.48,93.52,509.48,104.42Z"/></g></g></svg>